<svg width="550" height="79" viewBox="0 0 550 79" fill="none" xmlns="http://www.w3.org/2000/svg">
<g clip-path="url(#clip0_3417_96501)">
<path d="M61.2332 78.4136V72.8484L56.5083 72.794V6.05017H61.2332V0.495239H113.204V33.8961H99.0324V45.0297H113.204V78.4272L61.2332 78.4136Z" fill="black"/>
<path d="M65.9581 11.6152H61.2332V67.2255H65.9581V72.794H108.479V50.5812H80.1327V50.5268H94.3074V28.3174H108.479V6.05017H65.9581V11.6152Z" fill="black"/>
<path d="M507.677 78.2332V33.9097H493.567V0.665283H550V33.9097H535.893V78.2332H507.677Z" fill="black"/>
<path d="M498.271 6.20654V28.3683H512.378V72.6375H531.192V28.3683H545.302V6.20654H498.271Z" fill="black"/>
<path d="M385.408 78.2332V72.6919L380.703 72.6375V6.20659H385.408V0.665283H437.136V78.223L385.408 78.2332Z" fill="black"/>
<path d="M390.109 11.7445H385.407V67.0962H390.109V72.6375H432.432V28.3683H408.92V50.4791H413.624V50.5335H404.219V28.3717H432.432V6.20996H390.109V11.7445Z" fill="black"/>
<path d="M239.813 78.2333V0.675537H268.027H296.243V78.2333H239.813Z" fill="black"/>
<path d="M272.731 11.7444V28.3683H263.326V6.20654H244.514V72.6375H263.326V50.4756H272.731V72.6375H291.542V39.4475V6.20654H272.731V11.7444Z" fill="black"/>
<path d="M437.136 78.2333V0.675537H465.37H493.584V78.2333H437.136Z" fill="black"/>
<path d="M470.054 11.7444V28.3683H460.649V6.20654H441.838V72.6375H460.649V50.4756H470.054V72.6375H488.865V6.20654H470.054V11.7444Z" fill="black"/>
<path d="M380.703 0.665283H352.469V78.223H380.703V0.665283Z" fill="black"/>
<path d="M357.191 11.7444V72.6341H376.002V6.20654H357.191V11.7444Z" fill="black"/>
<path d="M0 78.4136V0.495239H51.9739V6.06379H56.6988V72.8484H51.9739V78.4136H0Z" fill="black"/>
<path d="M47.249 11.6152V6.05017H4.72827V72.8484H47.249V67.2834H51.9739V11.6152H47.249ZM33.0743 33.8825V50.5812H23.6245V28.3174H33.0743V33.8825Z" fill="black"/>
<path d="M113.204 78.4136V6.05017H117.929V0.495239H165.174V6.06379H169.903V78.4272L113.204 78.4136Z" fill="black"/>
<path d="M160.453 11.6152V6.05017H122.653V11.6152H117.929V72.845H136.828V50.5778H146.278V72.845H165.174V11.6152H160.453Z" fill="black"/>
<path d="M169.902 78.4136V0.495239H221.873V6.06379H226.598V72.8484H221.873V78.4136H169.902Z" fill="black"/>
<path d="M217.148 11.6152V6.05017H174.627V72.8484H217.148V67.2834H221.873V11.6152H217.148ZM202.973 33.8825V50.5812H193.524V28.3174H202.973V33.8825Z" fill="black"/>
<path d="M296.056 78.2333V0.675537H347.785V6.21685H352.486V78.2435L296.056 78.2333Z" fill="black"/>
<path d="M343.081 11.7444V6.20654H300.757V72.6375H319.568V28.3683H328.974V72.6375H347.785V11.7479L343.081 11.7444Z" fill="black"/>
<path d="M51.9739 67.2254H47.249V72.794H4.72827V17.1259H47.249V22.6944H51.9739V67.2254ZM33.0743 61.6604V28.2595H23.6245V61.6604H33.0743Z" fill="#9E8D61"/>
<path d="M108.479 72.794H65.9581V67.2254H61.2332V22.6944H65.9581V17.1259H108.479V28.2595H80.1327V39.3932H94.3074V50.5268H80.1327V61.6604H108.479V72.794Z" fill="#9E8D61"/>
<path d="M165.174 72.794H146.278V50.5268H136.828V72.794H117.929V22.6944H122.653V17.1259H160.453V22.6944H165.174V72.794ZM146.275 39.3932V28.2595H136.828V39.3932H146.275Z" fill="#9E8D61"/>
<path d="M221.873 67.2254H217.148V72.794H174.627V17.1259H217.148V22.6944H221.873V67.2254ZM202.973 61.6604V28.2595H193.524V61.6604H202.973Z" fill="#9E8D61"/>
<path d="M291.542 72.6375H272.731V50.4757H263.326V72.6375H244.514V17.2313H263.326V39.3932H272.731V17.2313H291.542V39.3932H286.838V50.4757H291.542V72.6375Z" fill="#9E8D61"/>
<path d="M347.785 72.6375H328.974V28.3139H319.568V72.6375H300.757V17.2313H343.081V22.7726H347.782L347.785 72.6375Z" fill="#9E8D61"/>
<path d="M376.002 72.6375H357.191V17.2313H376.002V72.6375Z" fill="#9E8D61"/>
<path d="M432.432 72.6375H390.109V67.0962H385.407V22.7726H390.109V17.2313H432.432V28.3139H404.219V61.5549H413.621V50.4757H408.92V39.3932H432.432V72.6375Z" fill="#9E8D61"/>
<path d="M488.865 72.6375H470.054V50.4757H460.649V72.6375H441.838V17.2313H460.649V39.3932H470.054V17.2313H488.865V72.6375Z" fill="#9E8D61"/>
<path d="M545.299 28.3139H531.192V72.6375H512.381V28.3139H498.274V17.2313H545.302L545.299 28.3139Z" fill="#9E8D61"/>
<path d="M51.9739 61.725H47.249V67.2936H4.72827V11.6152H47.249V17.1838H51.9739V61.725ZM33.0743 56.1498V22.7488H23.6245V56.1498H33.0743Z" fill="#876C1F"/>
<path d="M108.479 67.2834H65.9581V61.725H61.2332V17.1838H65.9581V11.6152H108.479V22.7488H80.1327V33.8825H94.3074V45.0161H80.1327V56.1498H108.479V67.2834Z" fill="#876C1F"/>
<path d="M165.174 67.2834H146.278V45.0161H136.828V67.2834H117.929V17.1838H122.653V11.6152H160.453V17.1838H165.174V67.2834ZM146.275 33.8825V22.7488H136.828V33.8825H146.275Z" fill="#876C1F"/>
<path d="M221.873 61.725H217.148V67.2936H174.627V11.6152H217.148V17.1838H221.873V61.725ZM202.973 56.1599V22.7591H193.524V56.1599H202.973Z" fill="#876C1F"/>
<path d="M291.542 67.1676H272.731V44.9889H263.326V67.1676H244.514V11.7445H263.326V33.9097H272.731V11.7445H291.542V33.9097H286.838V44.9889H291.542V67.1676Z" fill="#876C1F"/>
<path d="M347.785 67.1676H328.974V22.8441H319.568V67.1676H300.757V11.7445H343.081V17.2858H347.782L347.785 67.1676Z" fill="#876C1F"/>
<path d="M376.002 67.1676H357.191V11.7445H376.002V67.1676Z" fill="#876C1F"/>
<path d="M432.432 67.1676H390.109V61.6297H385.407V17.2858H390.109V11.7445H432.432V22.827H404.219V56.0714H413.621V44.9889H408.92V33.9097H432.432V67.1676Z" fill="#876C1F"/>
<path d="M488.865 67.1676H470.054V44.9889H460.649V67.1676H441.838V11.7445H460.649V33.9097H470.054V11.7445H488.865V67.1676Z" fill="#876C1F"/>
<path d="M545.299 22.827H531.192V67.1676H512.381V22.844H498.274V11.7615H545.302L545.299 22.827Z" fill="#876C1F"/>
<path d="M357.368 6.20663H376.179V61.6127H357.368V6.20663ZM47.249 61.725H4.72827V6.05017H47.249V11.6152H51.9739V56.1498H47.249V61.725ZM33.0743 17.1838H23.6245V50.5812H33.0743V17.1838ZM66.1486 61.725H108.669V50.5914H80.3198V39.4578H94.4945V28.3276H80.3198V17.194H108.669V6.06039H66.1486V11.6254H61.4237V56.1599H66.1486V61.725ZM272.731 28.3888H263.325V6.22706H244.514V61.6332H263.325V39.468H272.731V61.6332H291.542V39.468H286.838V28.3888H291.542V6.22706H272.731V28.3888ZM343.271 6.22706H300.948V61.6332H319.759V17.2858H329.161V61.6127H347.972V11.7445H343.271V6.22706ZM217.338 61.725H174.818V6.05017H217.338V11.6152H222.063V56.1498H217.338V61.725ZM203.164 17.194H193.714V50.5914H203.164V17.194ZM390.296 11.7513H385.601V56.0783H390.302V61.6196H432.629V28.3752H409.107V39.4544H413.811V50.537H404.406V17.2926H432.639V6.21344H390.296V11.7513ZM498.468 6.21344V17.2926H512.578V61.6196H531.39V17.2858H545.479V6.20663L498.468 6.21344ZM470.235 28.3752H460.832V6.21344H442.021V61.6196H460.832V39.4544H470.235V61.6196H489.046V6.20663H470.235V28.3752ZM137.012 61.7114H118.119V11.6152H122.844V6.05017H160.64V11.6152H165.365V61.725H146.465V39.4578H137.019L137.012 61.7114ZM137.012 28.314H146.465V17.1804H137.019L137.012 28.314Z" fill="white"/>
</g>
<defs>
<clipPath id="clip0_3417_96501">
<rect width="550" height="77.9319" fill="white" transform="translate(0 0.481445)"/>
</clipPath>
</defs>
</svg>
