<svg width="600" height="94" viewBox="0 0 600 94" fill="none" xmlns="http://www.w3.org/2000/svg">
<g clip-path="url(#clip0_3417_86065)">
<path d="M59.4404 92.7254V87.3235L54.8545 87.2691V22.4781H59.4404V17.073H109.895V49.4941H96.1337V60.3043H109.895V92.7254H59.4404Z" fill="black"/>
<path d="M64.0295 27.88H59.4404V81.864H64.0295V87.2691H105.312V65.7063H77.7903V65.6519H91.5511V44.0922H105.312V22.4781H64.0295V27.88Z" fill="black"/>
<path d="M558.913 92.5494V49.5197H545.216V17.249H600V49.5197H586.303V92.5494H558.913Z" fill="black"/>
<path d="M549.792 22.6285V44.1434H563.489V87.1187H581.73V44.1434H595.427V22.6285H549.792Z" fill="black"/>
<path d="M440.218 92.5494V87.1699L435.654 87.1187V22.6285H440.218V17.249H490.435V92.5494H440.218Z" fill="black"/>
<path d="M444.784 28.0049H440.218V81.7392H444.784V87.1187H485.868V44.1434H463.044V65.6039H467.611V65.6551H458.478V44.1434H485.868V22.6285H444.784V28.0049Z" fill="black"/>
<path d="M298.898 92.5494V17.249H326.288H353.678V92.5494H298.898Z" fill="black"/>
<path d="M330.839 28.0049V44.1434H321.708V22.6285H303.448V87.1187H321.708V65.6039H330.839V87.1187H349.099V54.8992V22.6285H330.839V28.0049Z" fill="black"/>
<path d="M490.435 92.5494V17.249H517.826H545.216V92.5494H490.435Z" fill="black"/>
<path d="M522.392 28.0049V44.1434H513.262V22.6285H494.999V87.1187H513.262V65.6039H522.392V87.1187H540.653V22.6285H522.392V28.0049Z" fill="black"/>
<path d="M435.654 17.249H408.261V92.5494H435.654V17.249Z" fill="black"/>
<path d="M412.824 28.0049V87.1187H431.084V22.6285H412.824V28.0049Z" fill="black"/>
<path d="M0 92.7254V17.073H50.451V22.4781H55.0432V87.3235H50.451V92.7254H0Z" fill="black"/>
<path d="M45.8652 27.88V22.4781H4.58276V87.3235H45.8652V81.9248H50.451V27.88H45.8652ZM32.1044 49.4941V65.7063H22.9326V44.0922H32.1044V49.4941Z" fill="black"/>
<path d="M109.894 92.7254V22.4781H114.48V17.073H160.345V22.4781H164.931V92.7254H109.894Z" fill="black"/>
<path d="M155.76 27.88V22.4781H119.066V27.88H114.48V87.3235H132.827V65.7063H141.999V87.3235H160.345V27.88H155.76Z" fill="black"/>
<path d="M164.931 92.7254V17.073H215.373V22.4781H219.962V87.3235H215.373V92.7254H164.931Z" fill="black"/>
<path d="M210.796 27.88V22.4781H169.514V87.3235H210.796V81.9248H215.373V27.88H210.796ZM197.036 49.4941V65.7063H187.851V44.0922H197.036V49.4941Z" fill="black"/>
<path d="M353.48 92.5494V17.249H403.697V22.6285H408.261V92.5494H353.48Z" fill="black"/>
<path d="M399.13 28.0049V22.6285H358.046V87.1187H376.307V44.1434H385.437V87.1187H403.697V28.0049H399.13Z" fill="black"/>
<path d="M50.451 81.864H45.8652V87.2691H4.58276V33.2307H45.8652V38.6326H50.451V81.864ZM32.1044 76.462V44.0377H22.9326V76.462H32.1044Z" fill="#9E8D61"/>
<path d="M105.306 87.2691H64.0231V81.864H59.4404V38.6326H64.0263V33.2307H105.309V44.0377H77.7871V54.8448H91.5479V65.6518H77.7871V76.462H105.309L105.306 87.2691Z" fill="#9E8D61"/>
<path d="M160.345 87.2691H141.999V65.6518H132.827V87.2691H114.48V38.6262H119.066V33.2307H155.76V38.6326H160.345V87.2691ZM141.999 54.8448V44.0377H132.827V54.8448H141.999Z" fill="#9E8D61"/>
<path d="M215.373 81.864H210.796V87.2691H169.514V33.2307H210.796V38.6326H215.373V81.864ZM197.036 76.462V44.0377H187.851V76.462H197.036Z" fill="#9E8D61"/>
<path d="M349.099 87.1187H330.839V65.6039H321.708V87.1187H303.448V33.33H321.708V54.8448H330.839V33.33H349.099V54.8448H344.532V65.6039H349.099V87.1187Z" fill="#9E8D61"/>
<path d="M403.697 87.1187H385.437V44.089H376.307V87.1187H358.046V33.33H399.13V38.7223H403.697V87.1187Z" fill="#9E8D61"/>
<path d="M431.087 87.1187H412.824V33.33H431.084L431.087 87.1187Z" fill="#9E8D61"/>
<path d="M485.868 87.1187H444.784V81.7392H440.218V38.7223H444.784V33.33H485.868V44.089H458.478V76.3597H467.608V65.6039H463.044V54.8448H485.868V87.1187Z" fill="#9E8D61"/>
<path d="M540.653 87.1187H522.392V65.6039H513.262V87.1187H494.999V33.33H513.262V54.8448H522.392V33.33H540.653V87.1187Z" fill="#9E8D61"/>
<path d="M595.433 44.089H581.736V87.1187H563.495V44.089H549.792V33.33H595.443L595.433 44.089Z" fill="#9E8D61"/>
<path d="M50.451 76.5133H45.8652V81.9248H4.58276V27.88H45.8652V33.282H50.451V76.5133ZM32.1044 71.1114V38.6871H22.9326V71.1114H32.1044Z" fill="#876C1F"/>
<path d="M105.306 81.9248H64.0231V76.5133H59.4404V33.282H64.0263V27.88H105.309V38.6871H77.7871V49.4941H91.5479V60.3043H77.7871V71.1114H105.309L105.306 81.9248Z" fill="#876C1F"/>
<path d="M160.345 81.9248H141.999V60.3043H132.827V81.9248H114.48V33.282H119.066V27.88H155.76V33.282H160.345V81.9248ZM141.999 49.4941V38.6871H132.827V49.4941H141.999Z" fill="#876C1F"/>
<path d="M215.373 76.5133H210.796V81.9248H169.514V27.88H210.796V33.282H215.373V76.5133ZM197.036 71.1114V38.6871H187.851V71.1114H197.036Z" fill="#876C1F"/>
<path d="M349.099 81.7936H330.839V60.2787H321.708V81.7936H303.448V28.0048H321.708V49.5197H330.839V28.0048H349.099V49.5197H344.532V60.2787H349.099V81.7936Z" fill="#876C1F"/>
<path d="M403.697 81.7936H385.437V38.7639H376.307V81.7936H358.046V28.0048H399.13V33.3843H403.697V81.7936Z" fill="#876C1F"/>
<path d="M431.087 81.7936H412.824V28.0048H431.084L431.087 81.7936Z" fill="#876C1F"/>
<path d="M485.868 81.7936H444.784V76.4141H440.218V33.3843H444.784V28.0048H485.868V38.7639H458.478V71.0441H467.608V60.2787H463.044V49.5197H485.868V81.7936Z" fill="#876C1F"/>
<path d="M540.653 81.7936H522.392V60.2787H513.262V81.7936H494.999V28.0048H513.262V49.5197H522.392V28.0048H540.653V81.7936Z" fill="#876C1F"/>
<path d="M595.433 38.7639H581.736V81.7936H563.495V38.7639H549.792V28.0048H595.443L595.433 38.7639Z" fill="#876C1F"/>
<path d="M413.01 22.6285H431.27V76.4141H413.01V22.6285ZM45.8652 76.5133H4.58276V22.4781H45.8652V27.88H50.451V71.1114H45.8652V76.5133ZM32.1044 33.282H22.9326V65.7063H32.1044V33.282ZM64.2119 76.5133H105.494V65.7063H77.9727V54.8992H91.7335V44.0922H77.9727V33.282H105.494V22.4781H64.2119V27.88H59.626V71.1114H64.2119V76.5133ZM330.839 44.1434H321.709V22.6285H303.448V76.4141H321.709V54.8992H330.839V76.4141H349.099V54.8992H344.532V44.1434H349.099V22.6285H330.839V44.1434ZM399.323 22.6285H358.229V76.4141H376.489V33.3844H385.623V76.4141H403.883V28.008H399.32L399.323 22.6285ZM210.979 76.5133H169.696V22.4781H210.979V27.88H215.568V71.1114H210.979V76.5133ZM197.221 33.282H188.046V65.7063H197.221V33.282ZM444.967 28.0048H440.4V71.0442H444.967V76.4237H486.054V44.1434H463.227V54.8992H467.791V65.6583H458.661V33.3844H486.054V22.6285H444.967V28.0048ZM549.965 22.6253V33.3812H563.662V76.4141H581.922V33.3844H595.616V22.6285L549.965 22.6253ZM522.591 44.1434H513.461V22.6285H495.2V76.4141H513.461V54.8992H522.591V76.4141H540.832V22.6285H522.591V44.1434ZM133.009 76.5133H114.663V27.8704H119.249V22.4781H155.942V27.88H160.528V76.5229H142.181V54.8992H133.009V76.5133ZM133.009 44.0922H142.181V33.282H133.009V44.0922Z" fill="white"/>
<path d="M242.139 89.8837H239.416V92.607H242.139V89.8837Z" fill="black"/>
<path d="M242.139 87.1603H239.416V89.8836H242.139V87.1603Z" fill="black"/>
<path d="M242.139 84.4369H239.416V87.1602H242.139V84.4369Z" fill="black"/>
<path d="M242.139 81.7136H239.416V84.437H242.139V81.7136Z" fill="black"/>
<path d="M244.863 89.8837H242.139V92.607H244.863V89.8837Z" fill="black"/>
<path d="M244.863 87.1603H242.139V89.8836H244.863V87.1603Z" fill="#A32633"/>
<path d="M244.863 84.4369H242.139V87.1602H244.863V84.4369Z" fill="#A32633"/>
<path d="M244.863 81.7136H242.139V84.437H244.863V81.7136Z" fill="#A32633"/>
<path d="M244.863 78.9902H242.139V81.7136H244.863V78.9902Z" fill="black"/>
<path d="M244.863 76.2668H242.139V78.9901H244.863V76.2668Z" fill="black"/>
<path d="M244.863 73.5403H242.139V76.2636H244.863V73.5403Z" fill="black"/>
<path d="M244.863 70.817H242.139V73.5403H244.863V70.817Z" fill="black"/>
<path d="M244.863 51.7502H242.139V54.4736H244.863V51.7502Z" fill="#FAAC35"/>
<path d="M244.863 49.0269H242.139V51.7503H244.863V49.0269Z" fill="#FAAC35"/>
<path d="M244.863 21.7901H242.139V24.5135H244.863V21.7901Z" fill="black"/>
<path d="M244.863 19.0667H242.139V21.7901H244.863V19.0667Z" fill="black"/>
<path d="M244.863 16.3434H242.139V19.0667H244.863V16.3434Z" fill="black"/>
<path d="M244.863 13.62H242.139V16.3433H244.863V13.62Z" fill="black"/>
<path d="M244.863 10.8966H242.139V13.62H244.863V10.8966Z" fill="black"/>
<path d="M244.863 8.17007H242.139V10.8934H244.863V8.17007Z" fill="black"/>
<path d="M244.863 5.44669H242.139V8.17005H244.863V5.44669Z" fill="black"/>
<path d="M247.586 89.8837H244.862V92.607H247.586V89.8837Z" fill="black"/>
<path d="M247.586 87.1603H244.862V89.8836H247.586V87.1603Z" fill="#A32633"/>
<path d="M247.586 84.4369H244.862V87.1602H247.586V84.4369Z" fill="#A32633"/>
<path d="M247.586 81.7136H244.862V84.437H247.586V81.7136Z" fill="#A32633"/>
<path d="M247.586 78.9902H244.862V81.7136H247.586V78.9902Z" fill="#A32633"/>
<path d="M247.586 76.2668H244.862V78.9901H247.586V76.2668Z" fill="#A32633"/>
<path d="M247.586 73.6107H244.862V76.3341H247.586V73.6107Z" fill="#A32633"/>
<path d="M247.586 51.7502H244.862V54.4736H247.586V51.7502Z" fill="#FAAC35"/>
<path d="M247.586 49.0269H244.862V51.7503H247.586V49.0269Z" fill="black"/>
<path d="M247.586 46.3035H244.862V49.0269H247.586V46.3035Z" fill="black"/>
<path d="M247.586 43.5801H244.862V46.3035H247.586V43.5801Z" fill="black"/>
<path d="M247.586 40.8568H244.862V43.5801H247.586V40.8568Z" fill="black"/>
<path d="M247.586 38.1334H244.862V40.8568H247.586V38.1334Z" fill="black"/>
<path d="M247.586 35.4101H244.862V38.1335H247.586V35.4101Z" fill="black"/>
<path d="M247.586 32.6867H244.862V35.4101H247.586V32.6867Z" fill="black"/>
<path d="M247.586 29.9602H244.862V32.6835H247.586V29.9602Z" fill="black"/>
<path d="M247.586 27.2368H244.862V29.9601H247.586V27.2368Z" fill="black"/>
<path d="M247.586 24.5135H244.862V27.2368H247.586V24.5135Z" fill="black"/>
<path d="M247.586 21.7901H244.862V24.5135H247.586V21.7901Z" fill="#F9A533"/>
<path d="M247.586 19.0667H244.862V21.7901H247.586V19.0667Z" fill="#F9A533"/>
<path d="M247.586 16.3434H244.862V19.0667H247.586V16.3434Z" fill="#F9A533"/>
<path d="M247.586 13.62H244.862V16.3433H247.586V13.62Z" fill="#F9A533"/>
<path d="M247.586 10.8966H244.862V13.62H247.586V10.8966Z" fill="#F9A533"/>
<path d="M247.586 8.17007H244.862V10.8934H247.586V8.17007Z" fill="black"/>
<path d="M250.309 89.8837H247.586V92.607H250.309V89.8837Z" fill="black"/>
<path d="M250.309 87.1603H247.586V89.8836H250.309V87.1603Z" fill="#A32633"/>
<path d="M250.309 84.4369H247.586V87.1602H250.309V84.4369Z" fill="#A32633"/>
<path d="M250.309 81.7136H247.586V84.437H250.309V81.7136Z" fill="#A32633"/>
<path d="M250.309 78.9902H247.586V81.7136H250.309V78.9902Z" fill="#A32633"/>
<path d="M250.309 76.2668H247.586V78.9901H250.309V76.2668Z" fill="black"/>
<path d="M250.309 65.3702H247.586V68.0936H250.309V65.3702Z" fill="black"/>
<path d="M250.309 62.6469H247.586V65.3702H250.309V62.6469Z" fill="black"/>
<path d="M250.309 59.9235H247.586V62.6469H250.309V59.9235Z" fill="#F37623"/>
<path d="M250.309 57.2001H247.586V59.9235H250.309V57.2001Z" fill="#FAAC35"/>
<path d="M250.309 54.4768H247.586V57.2002H250.309V54.4768Z" fill="#FAAC35"/>
<path d="M250.309 51.7502H247.586V54.4736H250.309V51.7502Z" fill="black"/>
<path d="M250.309 49.0269H247.586V51.7503H250.309V49.0269Z" fill="#5C6E73"/>
<path d="M250.309 46.3035H247.586V49.0269H250.309V46.3035Z" fill="#5C6E73"/>
<path d="M250.309 43.5801H247.586V46.3035H250.309V43.5801Z" fill="#5C6E73"/>
<path d="M250.309 40.8568H247.586V43.5801H250.309V40.8568Z" fill="#C6D5DC"/>
<path d="M250.309 38.1334H247.586V40.8568H250.309V38.1334Z" fill="#C6D5DC"/>
<path d="M250.309 35.4101H247.586V38.1335H250.309V35.4101Z" fill="#C6D5DC"/>
<path d="M250.309 32.6867H247.586V35.4101H250.309V32.6867Z" fill="#C6D5DC"/>
<path d="M250.309 29.9602H247.586V32.6835H250.309V29.9602Z" fill="black"/>
<path d="M250.309 27.2368H247.586V29.9601H250.309V27.2368Z" fill="#F9A533"/>
<path d="M250.309 24.5135H247.586V27.2368H250.309V24.5135Z" fill="#F9A533"/>
<path d="M250.309 21.7901H247.586V24.5135H250.309V21.7901Z" fill="#F9A533"/>
<path d="M250.309 19.0667H247.586V21.7901H250.309V19.0667Z" fill="#F9A533"/>
<path d="M250.309 16.3434H247.586V19.0667H250.309V16.3434Z" fill="#F37920"/>
<path d="M250.309 13.62H247.586V16.3433H250.309V13.62Z" fill="#F37920"/>
<path d="M250.309 10.8966H247.586V13.62H250.309V10.8966Z" fill="black"/>
<path d="M253.033 89.8837H250.309V92.607H253.033V89.8837Z" fill="black"/>
<path d="M253.033 87.1603H250.309V89.8836H253.033V87.1603Z" fill="#A32633"/>
<path d="M253.033 84.4369H250.309V87.1602H253.033V84.4369Z" fill="black"/>
<path d="M253.033 81.7136H250.309V84.437H253.033V81.7136Z" fill="black"/>
<path d="M253.033 78.9902H250.309V81.7136H253.033V78.9902Z" fill="black"/>
<path d="M253.033 76.2668H250.309V78.9901H253.033V76.2668Z" fill="black"/>
<path d="M253.033 73.5403H250.309V76.2636H253.033V73.5403Z" fill="black"/>
<path d="M253.033 68.0936H250.309V70.8169H253.033V68.0936Z" fill="black"/>
<path d="M253.033 65.3702H250.309V68.0936H253.033V65.3702Z" fill="black"/>
<path d="M253.033 62.6469H250.309V65.3702H253.033V62.6469Z" fill="#3B4566"/>
<path d="M253.033 59.9235H250.309V62.6469H253.033V59.9235Z" fill="#F37623"/>
<path d="M253.033 57.2001H250.309V59.9235H253.033V57.2001Z" fill="black"/>
<path d="M253.033 54.4768H250.309V57.2002H253.033V54.4768Z" fill="black"/>
<path d="M253.033 51.7502H250.309V54.4736H253.033V51.7502Z" fill="#384C53"/>
<path d="M253.033 49.0269H250.309V51.7503H253.033V49.0269Z" fill="black"/>
<path d="M253.033 46.3035H250.309V49.0269H253.033V46.3035Z" fill="black"/>
<path d="M253.033 43.5801H250.309V46.3035H253.033V43.5801Z" fill="black"/>
<path d="M253.033 40.8568H250.309V43.5801H253.033V40.8568Z" fill="#DEE8ED"/>
<path d="M253.033 38.1334H250.309V40.8568H253.033V38.1334Z" fill="#DEE8ED"/>
<path d="M253.033 35.4101H250.309V38.1335H253.033V35.4101Z" fill="#C5D4DB"/>
<path d="M253.033 32.6867H250.309V35.4101H253.033V32.6867Z" fill="#C6D5DC"/>
<path d="M253.033 29.9602H250.309V32.6835H253.033V29.9602Z" fill="black"/>
<path d="M253.033 27.2368H250.309V29.9601H253.033V27.2368Z" fill="#F9A533"/>
<path d="M253.033 24.5135H250.309V27.2368H253.033V24.5135Z" fill="#F9A533"/>
<path d="M253.033 21.7901H250.309V24.5135H253.033V21.7901Z" fill="#F9A533"/>
<path d="M253.033 19.0667H250.309V21.7901H253.033V19.0667Z" fill="#F37920"/>
<path d="M253.033 16.3434H250.309V19.0667H253.033V16.3434Z" fill="#F37920"/>
<path d="M253.033 13.62H250.309V16.3433H253.033V13.62Z" fill="black"/>
<path d="M255.759 89.8837H253.036V92.607H255.759V89.8837Z" fill="black"/>
<path d="M255.759 87.1603H253.036V89.8836H255.759V87.1603Z" fill="black"/>
<path d="M255.759 84.4369H253.036V87.1602H255.759V84.4369Z" fill="black"/>
<path d="M255.759 81.7136H253.036V84.437H255.759V81.7136Z" fill="#262B44"/>
<path d="M255.759 78.9902H253.036V81.7136H255.759V78.9902Z" fill="#F37920"/>
<path d="M255.759 76.2668H253.036V78.9901H255.759V76.2668Z" fill="#F9A533"/>
<path d="M255.759 73.5403H253.036V76.2636H255.759V73.5403Z" fill="black"/>
<path d="M255.759 70.817H253.036V73.5403H255.759V70.817Z" fill="black"/>
<path d="M255.759 68.0936H253.036V70.8169H255.759V68.0936Z" fill="black"/>
<path d="M255.759 65.3702H253.036V68.0936H255.759V65.3702Z" fill="black"/>
<path d="M255.759 62.6469H253.036V65.3702H255.759V62.6469Z" fill="black"/>
<path d="M255.759 59.9235H253.036V62.6469H255.759V59.9235Z" fill="black"/>
<path d="M255.759 57.2001H253.036V59.9235H255.759V57.2001Z" fill="#5C6E73"/>
<path d="M255.759 54.4768H253.036V57.2002H255.759V54.4768Z" fill="#7C8D92"/>
<path d="M255.759 51.7502H253.036V54.4736H255.759V51.7502Z" fill="#5C6E73"/>
<path d="M255.759 49.0269H253.036V51.7503H255.759V49.0269Z" fill="black"/>
<path d="M255.759 46.3035H253.036V49.0269H255.759V46.3035Z" fill="#D2D17C"/>
<path d="M255.759 43.5801H253.036V46.3035H255.759V43.5801Z" fill="black"/>
<path d="M255.759 40.8568H253.036V43.5801H255.759V40.8568Z" fill="#A0AFB5"/>
<path d="M255.759 38.1334H253.036V40.8568H255.759V38.1334Z" fill="#DEE8ED"/>
<path d="M255.759 35.4101H253.036V38.1335H255.759V35.4101Z" fill="#DEE8ED"/>
<path d="M255.759 32.6867H253.036V35.4101H255.759V32.6867Z" fill="#DEE8ED"/>
<path d="M255.759 29.9602H253.036V32.6835H255.759V29.9602Z" fill="#9FAAB0"/>
<path d="M255.759 27.2368H253.036V29.9601H255.759V27.2368Z" fill="#F9A533"/>
<path d="M255.759 24.5135H253.036V27.2368H255.759V24.5135Z" fill="#F9A533"/>
<path d="M255.759 21.7901H253.036V24.5135H255.759V21.7901Z" fill="#F9A533"/>
<path d="M255.759 19.0667H253.036V21.7901H255.759V19.0667Z" fill="#F37920"/>
<path d="M255.759 16.3434H253.036V19.0667H255.759V16.3434Z" fill="black"/>
<path d="M258.482 91.343H255.759V93.4327H258.482V91.343Z" fill="black"/>
<path d="M258.482 89.2532H255.759V91.3461H258.482V89.2532Z" fill="black"/>
<path d="M258.482 87.1603H255.759V89.25H258.482V87.1603Z" fill="#1498D5"/>
<path d="M258.482 84.4369H255.759V87.1602H258.482V84.4369Z" fill="#1498D5"/>
<path d="M258.482 81.7136H255.759V84.437H258.482V81.7136Z" fill="black"/>
<path d="M258.482 78.9902H255.759V81.7136H258.482V78.9902Z" fill="#262B44"/>
<path d="M258.482 76.2668H255.759V78.9901H258.482V76.2668Z" fill="#5B6987"/>
<path d="M258.482 73.5403H255.759V76.2636H258.482V73.5403Z" fill="black"/>
<path d="M258.482 70.817H255.759V73.5403H258.482V70.817Z" fill="#5B6987"/>
<path d="M258.482 68.0936H255.759V70.8169H258.482V68.0936Z" fill="#F9A533"/>
<path d="M258.482 65.3702H255.759V68.0936H258.482V65.3702Z" fill="#F9A533"/>
<path d="M258.482 62.6469H255.759V65.3702H258.482V62.6469Z" fill="#F9A533"/>
<path d="M258.482 59.9235H255.759V62.6469H258.482V59.9235Z" fill="black"/>
<path d="M258.482 57.2001H255.759V59.9235H258.482V57.2001Z" fill="black"/>
<path d="M258.482 54.4768H255.759V57.2002H258.482V54.4768Z" fill="#909CA0"/>
<path d="M258.482 51.7502H255.759V54.4736H258.482V51.7502Z" fill="#909CA0"/>
<path d="M258.482 49.0269H255.759V51.7503H258.482V49.0269Z" fill="#7C8E93"/>
<path d="M258.482 46.3035H255.759V49.0269H258.482V46.3035Z" fill="black"/>
<path d="M258.482 43.5801H255.759V46.3035H258.482V43.5801Z" fill="black"/>
<path d="M258.482 40.8568H255.759V43.5801H258.482V40.8568Z" fill="#A0AFB5"/>
<path d="M258.482 38.1334H255.759V40.8568H258.482V38.1334Z" fill="#DEE8ED"/>
<path d="M258.482 35.4101H255.759V38.1335H258.482V35.4101Z" fill="#DEE8ED"/>
<path d="M258.482 32.6867H255.759V35.4101H258.482V32.6867Z" fill="#DEE8ED"/>
<path d="M258.482 29.9602H255.759V32.6835H258.482V29.9602Z" fill="#B0BABE"/>
<path d="M258.482 27.2368H255.759V29.9601H258.482V27.2368Z" fill="#F9A533"/>
<path d="M258.482 24.5135H255.759V27.2368H258.482V24.5135Z" fill="#F9A533"/>
<path d="M258.482 21.7901H255.759V24.5135H258.482V21.7901Z" fill="#F9A533"/>
<path d="M258.482 19.0667H255.759V21.7901H258.482V19.0667Z" fill="#F9A533"/>
<path d="M258.482 16.3434H255.759V19.0667H258.482V16.3434Z" fill="#F9A533"/>
<path d="M258.482 13.62H255.759V16.3433H258.482V13.62Z" fill="black"/>
<path d="M258.482 10.8966H255.759V13.62H258.482V10.8966Z" fill="black"/>
<path d="M261.206 91.343H258.483V93.4327H261.206V91.343Z" fill="black"/>
<path d="M261.206 89.2532H258.483V91.3461H261.206V89.2532Z" fill="#3F2731"/>
<path d="M261.206 87.1603H258.483V89.25H261.206V87.1603Z" fill="#124F8A"/>
<path d="M261.206 84.4369H258.483V87.1602H261.206V84.4369Z" fill="#124F8A"/>
<path d="M261.206 81.7136H258.483V84.437H261.206V81.7136Z" fill="black"/>
<path d="M261.206 78.9902H258.483V81.7136H261.206V78.9902Z" fill="black"/>
<path d="M261.206 76.2668H258.483V78.9901H261.206V76.2668Z" fill="black"/>
<path d="M261.206 73.5403H258.483V76.2636H261.206V73.5403Z" fill="black"/>
<path d="M261.206 70.817H258.483V73.5403H261.206V70.817Z" fill="#5B6987"/>
<path d="M261.206 68.0936H258.483V70.8169H261.206V68.0936Z" fill="#F9A533"/>
<path d="M261.206 65.3702H258.483V68.0936H261.206V65.3702Z" fill="#E43C45"/>
<path d="M261.206 62.6469H258.483V65.3702H261.206V62.6469Z" fill="#F9A533"/>
<path d="M261.206 59.9235H258.483V62.6469H261.206V59.9235Z" fill="black"/>
<path d="M261.206 57.2001H258.483V59.9235H261.206V57.2001Z" fill="#5C6E73"/>
<path d="M261.206 54.4768H258.483V57.2002H261.206V54.4768Z" fill="#7C8D92"/>
<path d="M261.206 51.7502H258.483V54.4736H261.206V51.7502Z" fill="#5C6E73"/>
<path d="M261.206 49.0269H258.483V51.7503H261.206V49.0269Z" fill="#C6D5DC"/>
<path d="M261.206 46.3035H258.483V49.0269H261.206V46.3035Z" fill="#7C8E93"/>
<path d="M261.206 43.5801H258.483V46.3035H261.206V43.5801Z" fill="#384C53"/>
<path d="M261.206 40.8568H258.483V43.5801H261.206V40.8568Z" fill="#384C53"/>
<path d="M261.206 38.1334H258.483V40.8568H261.206V38.1334Z" fill="#DEE8ED"/>
<path d="M261.206 35.4101H258.483V38.1335H261.206V35.4101Z" fill="#DEE8ED"/>
<path d="M261.206 32.6867H258.483V35.4101H261.206V32.6867Z" fill="#DEE8ED"/>
<path d="M261.206 29.9602H258.483V32.6835H261.206V29.9602Z" fill="#B0BABE"/>
<path d="M261.206 27.2368H258.483V29.9601H261.206V27.2368Z" fill="#F9A533"/>
<path d="M261.206 24.5135H258.483V27.2368H261.206V24.5135Z" fill="#F9A533"/>
<path d="M261.206 21.7901H258.483V24.5135H261.206V21.7901Z" fill="#F9A533"/>
<path d="M261.206 19.0667H258.483V21.7901H261.206V19.0667Z" fill="#E43C45"/>
<path d="M261.206 16.3434H258.483V19.0667H261.206V16.3434Z" fill="#E43C45"/>
<path d="M261.206 13.62H258.483V16.3433H261.206V13.62Z" fill="#F9A533"/>
<path d="M261.206 10.8966H258.483V13.62H261.206V10.8966Z" fill="#F9A533"/>
<path d="M261.206 8.17007H258.483V10.8934H261.206V8.17007Z" fill="black"/>
<path d="M261.206 5.44669H258.483V8.17005H261.206V5.44669Z" fill="black"/>
<path d="M263.929 91.343H261.206V93.4327H263.929V91.343Z" fill="black"/>
<path d="M263.929 89.2532H261.206V91.3461H263.929V89.2532Z" fill="black"/>
<path d="M263.929 87.1603H261.206V89.25H263.929V87.1603Z" fill="black"/>
<path d="M263.929 84.4369H261.206V87.1602H263.929V84.4369Z" fill="black"/>
<path d="M263.929 81.7136H261.206V84.437H263.929V81.7136Z" fill="black"/>
<path d="M263.929 78.9902H261.206V81.7136H263.929V78.9902Z" fill="#1498D5"/>
<path d="M263.929 76.2668H261.206V78.9901H263.929V76.2668Z" fill="#F9A533"/>
<path d="M263.929 73.5403H261.206V76.2636H263.929V73.5403Z" fill="black"/>
<path d="M263.929 70.817H261.206V73.5403H263.929V70.817Z" fill="#5B6987"/>
<path d="M263.929 68.0936H261.206V70.8169H263.929V68.0936Z" fill="#A32633"/>
<path d="M263.929 65.3702H261.206V68.0936H263.929V65.3702Z" fill="#DEE8ED"/>
<path d="M263.929 62.6469H261.206V65.3702H263.929V62.6469Z" fill="#F9A533"/>
<path d="M263.929 59.9235H261.206V62.6469H263.929V59.9235Z" fill="black"/>
<path d="M263.929 57.2001H261.206V59.9235H263.929V57.2001Z" fill="black"/>
<path d="M263.929 54.4768H261.206V57.2002H263.929V54.4768Z" fill="#909CA0"/>
<path d="M263.929 51.7502H261.206V54.4736H263.929V51.7502Z" fill="#384C53"/>
<path d="M263.929 49.0269H261.206V51.7503H263.929V49.0269Z" fill="black"/>
<path d="M263.929 46.3035H261.206V49.0269H263.929V46.3035Z" fill="#919DA1"/>
<path d="M263.929 43.5801H261.206V46.3035H263.929V43.5801Z" fill="#7C8E93"/>
<path d="M263.929 40.8568H261.206V43.5801H263.929V40.8568Z" fill="#5C6E73"/>
<path d="M263.929 38.1334H261.206V40.8568H263.929V38.1334Z" fill="#DEE8ED"/>
<path d="M263.929 35.4101H261.206V38.1335H263.929V35.4101Z" fill="#DEE8ED"/>
<path d="M263.929 32.6867H261.206V35.4101H263.929V32.6867Z" fill="#DEE8ED"/>
<path d="M263.929 29.9602H261.206V32.6835H263.929V29.9602Z" fill="#B0BABE"/>
<path d="M263.929 27.2368H261.206V29.9601H263.929V27.2368Z" fill="#F9A533"/>
<path d="M263.929 24.5135H261.206V27.2368H263.929V24.5135Z" fill="#F9A533"/>
<path d="M263.929 21.7901H261.206V24.5135H263.929V21.7901Z" fill="#A32633"/>
<path d="M263.929 19.0667H261.206V21.7901H263.929V19.0667Z" fill="#E43C45"/>
<path d="M263.929 16.3434H261.206V19.0667H263.929V16.3434Z" fill="white"/>
<path d="M263.929 13.62H261.206V16.3433H263.929V13.62Z" fill="#E43C45"/>
<path d="M263.929 10.8966H261.206V13.62H263.929V10.8966Z" fill="#F37920"/>
<path d="M263.929 8.17325H261.206V10.8966H263.929V8.17325Z" fill="#F37920"/>
<path d="M263.929 5.44669H261.206V8.17005H263.929V5.44669Z" fill="#F9A533"/>
<path d="M263.929 2.72333H261.206V5.44669H263.929V2.72333Z" fill="black"/>
<path d="M263.929 0H261.206V2.72336H263.929V0Z" fill="black"/>
<path d="M266.653 89.8837H263.929V92.607H266.653V89.8837Z" fill="black"/>
<path d="M266.653 87.1603H263.929V89.8836H266.653V87.1603Z" fill="#A32633"/>
<path d="M266.653 84.4369H263.929V87.1602H266.653V84.4369Z" fill="#A32633"/>
<path d="M266.653 81.7136H263.929V84.437H266.653V81.7136Z" fill="black"/>
<path d="M266.653 78.9902H263.929V81.7136H266.653V78.9902Z" fill="#1498D5"/>
<path d="M266.653 76.2668H263.929V78.9901H266.653V76.2668Z" fill="#F9A533"/>
<path d="M266.653 73.5403H263.929V76.2636H266.653V73.5403Z" fill="black"/>
<path d="M266.653 70.817H263.929V73.5403H266.653V70.817Z" fill="#5B6987"/>
<path d="M266.653 68.0936H263.929V70.8169H266.653V68.0936Z" fill="#A32633"/>
<path d="M266.653 65.3702H263.929V68.0936H266.653V65.3702Z" fill="#A32633"/>
<path d="M266.653 62.6469H263.929V65.3702H266.653V62.6469Z" fill="#F9A533"/>
<path d="M266.653 59.9235H263.929V62.6469H266.653V59.9235Z" fill="black"/>
<path d="M266.653 57.2001H263.929V59.9235H266.653V57.2001Z" fill="#5C6E73"/>
<path d="M266.653 54.4768H263.929V57.2002H266.653V54.4768Z" fill="#7C8D92"/>
<path d="M266.653 51.7502H263.929V54.4736H266.653V51.7502Z" fill="#49636C"/>
<path d="M266.653 49.0269H263.929V51.7503H266.653V49.0269Z" fill="#384C53"/>
<path d="M266.653 46.3035H263.929V49.0269H266.653V46.3035Z" fill="#919DA1"/>
<path d="M266.653 43.5801H263.929V46.3035H266.653V43.5801Z" fill="#7C8E93"/>
<path d="M266.653 40.8568H263.929V43.5801H266.653V40.8568Z" fill="#5C6E73"/>
<path d="M266.653 38.1334H263.929V40.8568H266.653V38.1334Z" fill="#DEE8ED"/>
<path d="M266.653 35.4101H263.929V38.1335H266.653V35.4101Z" fill="#DEE8ED"/>
<path d="M266.653 32.6867H263.929V35.4101H266.653V32.6867Z" fill="#DEE8ED"/>
<path d="M266.653 29.9602H263.929V32.6835H266.653V29.9602Z" fill="#B0BABE"/>
<path d="M266.653 27.2368H263.929V29.9601H266.653V27.2368Z" fill="#F9A533"/>
<path d="M266.653 24.5135H263.929V27.2368H266.653V24.5135Z" fill="#F9A533"/>
<path d="M266.653 21.7901H263.929V24.5135H266.653V21.7901Z" fill="#F9A533"/>
<path d="M266.653 19.0667H263.929V21.7901H266.653V19.0667Z" fill="#A32633"/>
<path d="M266.653 16.3434H263.929V19.0667H266.653V16.3434Z" fill="#F37920"/>
<path d="M266.653 13.62H263.929V16.3433H266.653V13.62Z" fill="#F37920"/>
<path d="M266.653 10.8966H263.929V13.62H266.653V10.8966Z" fill="#F37920"/>
<path d="M266.653 8.17007H263.929V10.8934H266.653V8.17007Z" fill="black"/>
<path d="M266.653 5.44669H263.929V8.17005H266.653V5.44669Z" fill="black"/>
<path d="M269.376 89.8837H266.652V92.607H269.376V89.8837Z" fill="black"/>
<path d="M269.376 87.1603H266.652V89.8836H269.376V87.1603Z" fill="#A32633"/>
<path d="M269.376 84.4369H266.652V87.1602H269.376V84.4369Z" fill="#A32633"/>
<path d="M269.376 81.7136H266.652V84.437H269.376V81.7136Z" fill="black"/>
<path d="M269.376 78.9902H266.652V81.7136H269.376V78.9902Z" fill="#1498D5"/>
<path d="M269.376 76.2668H266.652V78.9901H269.376V76.2668Z" fill="#F37920"/>
<path d="M269.376 73.5403H266.652V76.2636H269.376V73.5403Z" fill="black"/>
<path d="M269.376 70.817H266.652V73.5403H269.376V70.817Z" fill="#3B4566"/>
<path d="M269.376 68.0936H266.652V70.8169H269.376V68.0936Z" fill="#F37623"/>
<path d="M269.376 65.3702H266.652V68.0936H269.376V65.3702Z" fill="#A32633"/>
<path d="M269.376 62.6469H266.652V65.3702H269.376V62.6469Z" fill="#F9A533"/>
<path d="M269.376 59.9235H266.652V62.6469H269.376V59.9235Z" fill="black"/>
<path d="M269.376 57.2001H266.652V59.9235H269.376V57.2001Z" fill="black"/>
<path d="M269.376 54.4768H266.652V57.2002H269.376V54.4768Z" fill="#909CA0"/>
<path d="M269.376 51.7502H266.652V54.4736H269.376V51.7502Z" fill="#5C6E73"/>
<path d="M269.376 49.0269H266.652V51.7503H269.376V49.0269Z" fill="#C6D5DC"/>
<path d="M269.376 46.3035H266.652V49.0269H269.376V46.3035Z" fill="#7C8E93"/>
<path d="M269.376 43.5801H266.652V46.3035H269.376V43.5801Z" fill="#384C53"/>
<path d="M269.376 40.8568H266.652V43.5801H269.376V40.8568Z" fill="#384C53"/>
<path d="M269.376 38.1334H266.652V40.8568H269.376V38.1334Z" fill="#DEE8ED"/>
<path d="M269.376 35.4101H266.652V38.1335H269.376V35.4101Z" fill="#DEE8ED"/>
<path d="M269.376 32.6867H266.652V35.4101H269.376V32.6867Z" fill="#DEE8ED"/>
<path d="M269.376 29.9602H266.652V32.6835H269.376V29.9602Z" fill="#9FAAB0"/>
<path d="M269.376 27.2368H266.652V29.9601H269.376V27.2368Z" fill="#F9A533"/>
<path d="M269.376 24.5135H266.652V27.2368H269.376V24.5135Z" fill="#F9A533"/>
<path d="M269.376 21.7901H266.652V24.5135H269.376V21.7901Z" fill="#F9A533"/>
<path d="M269.376 19.0667H266.652V21.7901H269.376V19.0667Z" fill="#F9A533"/>
<path d="M269.376 16.3434H266.652V19.0667H269.376V16.3434Z" fill="#F37920"/>
<path d="M269.376 13.62H266.652V16.3433H269.376V13.62Z" fill="black"/>
<path d="M269.376 10.8966H266.652V13.62H269.376V10.8966Z" fill="black"/>
<path d="M272.099 89.8837H269.376V92.607H272.099V89.8837Z" fill="black"/>
<path d="M272.099 87.1603H269.376V89.8836H272.099V87.1603Z" fill="#A32633"/>
<path d="M272.099 84.4369H269.376V87.1602H272.099V84.4369Z" fill="#A32633"/>
<path d="M272.099 81.7136H269.376V84.437H272.099V81.7136Z" fill="black"/>
<path d="M272.099 78.9902H269.376V81.7136H272.099V78.9902Z" fill="#124F8A"/>
<path d="M272.099 76.2668H269.376V78.9901H272.099V76.2668Z" fill="#3F2731"/>
<path d="M272.099 73.5403H269.376V76.2636H272.099V73.5403Z" fill="black"/>
<path d="M272.099 70.817H269.376V73.5403H272.099V70.817Z" fill="#3B4566"/>
<path d="M272.099 68.0936H269.376V70.8169H272.099V68.0936Z" fill="#F37623"/>
<path d="M272.099 65.3702H269.376V68.0936H272.099V65.3702Z" fill="#F37623"/>
<path d="M272.099 62.6469H269.376V65.3702H272.099V62.6469Z" fill="#F37623"/>
<path d="M272.099 59.9235H269.376V62.6469H272.099V59.9235Z" fill="black"/>
<path d="M272.099 57.2001H269.376V59.9235H272.099V57.2001Z" fill="#5C6E73"/>
<path d="M272.099 54.4768H269.376V57.2002H272.099V54.4768Z" fill="#7C8D92"/>
<path d="M272.099 51.7502H269.376V54.4736H272.099V51.7502Z" fill="#909CA0"/>
<path d="M272.099 49.0269H269.376V51.7503H272.099V49.0269Z" fill="#7C8E93"/>
<path d="M272.099 46.3035H269.376V49.0269H272.099V46.3035Z" fill="black"/>
<path d="M272.099 43.5801H269.376V46.3035H272.099V43.5801Z" fill="black"/>
<path d="M272.099 40.8568H269.376V43.5801H272.099V40.8568Z" fill="#A0AFB5"/>
<path d="M272.099 38.1334H269.376V40.8568H272.099V38.1334Z" fill="#DEE8ED"/>
<path d="M272.099 35.4101H269.376V38.1335H272.099V35.4101Z" fill="#C6D5DC"/>
<path d="M272.099 32.6867H269.376V35.4101H272.099V32.6867Z" fill="#DEE8ED"/>
<path d="M272.099 29.9602H269.376V32.6835H272.099V29.9602Z" fill="#9FAAB0"/>
<path d="M272.099 27.2368H269.376V29.9601H272.099V27.2368Z" fill="#F37920"/>
<path d="M272.099 24.5135H269.376V27.2368H272.099V24.5135Z" fill="#F9A533"/>
<path d="M272.099 21.7901H269.376V24.5135H272.099V21.7901Z" fill="#F9A533"/>
<path d="M272.099 19.0667H269.376V21.7901H272.099V19.0667Z" fill="#F9A533"/>
<path d="M272.099 16.3434H269.376V19.0667H272.099V16.3434Z" fill="#F37920"/>
<path d="M272.099 13.62H269.376V16.3433H272.099V13.62Z" fill="black"/>
<path d="M274.822 89.8837H272.099V92.607H274.822V89.8837Z" fill="black"/>
<path d="M274.822 87.1603H272.099V89.8836H274.822V87.1603Z" fill="#A32633"/>
<path d="M274.822 84.4369H272.099V87.1602H274.822V84.4369Z" fill="#A32633"/>
<path d="M274.822 81.7136H272.099V84.437H274.822V81.7136Z" fill="black"/>
<path d="M274.822 78.9902H272.099V81.7136H274.822V78.9902Z" fill="#124F8A"/>
<path d="M274.822 76.2668H272.099V78.9901H274.822V76.2668Z" fill="#3F2731"/>
<path d="M274.822 73.5403H272.099V76.2636H274.822V73.5403Z" fill="black"/>
<path d="M274.822 70.817H272.099V73.5403H274.822V70.817Z" fill="#3B4566"/>
<path d="M274.822 68.0936H272.099V70.8169H274.822V68.0936Z" fill="#5B6987"/>
<path d="M274.822 65.3702H272.099V68.0936H274.822V65.3702Z" fill="#F37623"/>
<path d="M274.822 62.6469H272.099V65.3702H274.822V62.6469Z" fill="#F37623"/>
<path d="M274.822 59.9235H272.099V62.6469H274.822V59.9235Z" fill="black"/>
<path d="M274.822 57.2001H272.099V59.9235H274.822V57.2001Z" fill="black"/>
<path d="M274.822 54.4768H272.099V57.2002H274.822V54.4768Z" fill="#5C6E73"/>
<path d="M274.822 51.7502H272.099V54.4736H274.822V51.7502Z" fill="#5C6E73"/>
<path d="M274.822 49.0269H272.099V51.7503H274.822V49.0269Z" fill="black"/>
<path d="M274.822 46.3035H272.099V49.0269H274.822V46.3035Z" fill="#D2D17C"/>
<path d="M274.822 43.5801H272.099V46.3035H274.822V43.5801Z" fill="black"/>
<path d="M274.822 40.8568H272.099V43.5801H274.822V40.8568Z" fill="#A0AFB5"/>
<path d="M274.822 38.1334H272.099V40.8568H274.822V38.1334Z" fill="#DEE8ED"/>
<path d="M274.822 35.4101H272.099V38.1335H274.822V35.4101Z" fill="#C6D5DC"/>
<path d="M274.822 32.6867H272.099V35.4101H274.822V32.6867Z" fill="#C6D5DC"/>
<path d="M274.822 29.9602H272.099V32.6835H274.822V29.9602Z" fill="#9FAAB0"/>
<path d="M274.822 27.2368H272.099V29.9601H274.822V27.2368Z" fill="#F37920"/>
<path d="M274.822 24.5135H272.099V27.2368H274.822V24.5135Z" fill="#F37920"/>
<path d="M274.822 21.7901H272.099V24.5135H274.822V21.7901Z" fill="#F9A533"/>
<path d="M274.822 19.0667H272.099V21.7901H274.822V19.0667Z" fill="#F9A533"/>
<path d="M274.822 16.3434H272.099V19.0667H274.822V16.3434Z" fill="black"/>
<path d="M277.549 89.8837H274.826V92.607H277.549V89.8837Z" fill="black"/>
<path d="M277.549 87.1603H274.826V89.8836H277.549V87.1603Z" fill="#A32633"/>
<path d="M277.549 84.4369H274.826V87.1602H277.549V84.4369Z" fill="black"/>
<path d="M277.549 81.7136H274.826V84.437H277.549V81.7136Z" fill="black"/>
<path d="M277.549 78.9902H274.826V81.7136H277.549V78.9902Z" fill="black"/>
<path d="M277.549 76.2668H274.826V78.9901H277.549V76.2668Z" fill="black"/>
<path d="M277.549 73.5403H274.826V76.2636H277.549V73.5403Z" fill="#3F2731"/>
<path d="M277.549 70.817H274.826V73.5403H277.549V70.817Z" fill="black"/>
<path d="M277.549 68.0936H274.826V70.8169H277.549V68.0936Z" fill="#3B4566"/>
<path d="M277.549 65.3702H274.826V68.0936H277.549V65.3702Z" fill="#5B6987"/>
<path d="M277.549 62.6469H274.826V65.3702H277.549V62.6469Z" fill="#5B6987"/>
<path d="M277.549 59.9235H274.826V62.6469H277.549V59.9235Z" fill="black"/>
<path d="M277.549 57.2001H274.826V59.9235H277.549V57.2001Z" fill="#5C6E73"/>
<path d="M277.549 54.4768H274.826V57.2002H277.549V54.4768Z" fill="#384C53"/>
<path d="M277.549 51.7502H274.826V54.4736H277.549V51.7502Z" fill="#384C53"/>
<path d="M277.549 49.0269H274.826V51.7503H277.549V49.0269Z" fill="black"/>
<path d="M277.549 46.3035H274.826V49.0269H277.549V46.3035Z" fill="black"/>
<path d="M277.549 43.5801H274.826V46.3035H277.549V43.5801Z" fill="black"/>
<path d="M277.549 40.8568H274.826V43.5801H277.549V40.8568Z" fill="#DEE8ED"/>
<path d="M277.549 38.1334H274.826V40.8568H277.549V38.1334Z" fill="#C6D5DC"/>
<path d="M277.549 35.4101H274.826V38.1335H277.549V35.4101Z" fill="#C6D5DC"/>
<path d="M277.549 32.6867H274.826V35.4101H277.549V32.6867Z" fill="#C6D5DC"/>
<path d="M277.549 29.9602H274.826V32.6835H277.549V29.9602Z" fill="#9FAAB0"/>
<path d="M277.549 27.2368H274.826V29.9601H277.549V27.2368Z" fill="#F37920"/>
<path d="M277.549 24.5135H274.826V27.2368H277.549V24.5135Z" fill="#F37920"/>
<path d="M277.549 21.7901H274.826V24.5135H277.549V21.7901Z" fill="#F9A533"/>
<path d="M277.549 19.0667H274.826V21.7901H277.549V19.0667Z" fill="#F9A533"/>
<path d="M277.549 16.3434H274.826V19.0667H277.549V16.3434Z" fill="black"/>
<path d="M280.273 91.343H277.549V93.4327H280.273V91.343Z" fill="black"/>
<path d="M280.273 89.2532H277.549V91.3461H280.273V89.2532Z" fill="black"/>
<path d="M280.273 87.1603H277.549V89.25H280.273V87.1603Z" fill="black"/>
<path d="M280.273 84.4369H277.549V87.1602H280.273V84.4369Z" fill="#1498D5"/>
<path d="M280.273 81.7136H277.549V84.437H280.273V81.7136Z" fill="black"/>
<path d="M280.273 78.9902H277.549V81.7136H280.273V78.9902Z" fill="#5B6987"/>
<path d="M280.273 76.2668H277.549V78.9901H280.273V76.2668Z" fill="#5B6987"/>
<path d="M280.273 73.5403H277.549V76.2636H280.273V73.5403Z" fill="black"/>
<path d="M280.273 70.817H277.549V73.5403H280.273V70.817Z" fill="#3F2731"/>
<path d="M280.273 68.0936H277.549V70.8169H280.273V68.0936Z" fill="black"/>
<path d="M282.996 65.3702H280.273V68.0936H282.996V65.3702Z" fill="black"/>
<path d="M280.273 65.3702H277.549V68.0936H280.273V65.3702Z" fill="black"/>
<path d="M280.273 62.6469H277.549V65.3702H280.273V62.6469Z" fill="black"/>
<path d="M280.273 51.7502H277.549V54.4736H280.273V51.7502Z" fill="#5C6E73"/>
<path d="M280.273 49.0269H277.549V51.7503H280.273V49.0269Z" fill="#5C6E73"/>
<path d="M280.273 46.3035H277.549V49.0269H280.273V46.3035Z" fill="#384C53"/>
<path d="M280.273 43.5801H277.549V46.3035H280.273V43.5801Z" fill="#DEE8ED"/>
<path d="M280.273 40.8568H277.549V43.5801H280.273V40.8568Z" fill="#C6D5DC"/>
<path d="M280.273 38.1334H277.549V40.8568H280.273V38.1334Z" fill="#C6D5DC"/>
<path d="M280.273 35.4101H277.549V38.1335H280.273V35.4101Z" fill="#C6D5DC"/>
<path d="M280.273 32.6867H277.549V35.4101H280.273V32.6867Z" fill="#C6D5DC"/>
<path d="M280.273 29.9602H277.549V32.6835H280.273V29.9602Z" fill="#9FAAB0"/>
<path d="M280.273 27.2368H277.549V29.9601H280.273V27.2368Z" fill="#F37920"/>
<path d="M280.273 24.5135H277.549V27.2368H280.273V24.5135Z" fill="#F37920"/>
<path d="M280.273 21.7901H277.549V24.5135H280.273V21.7901Z" fill="#F9A533"/>
<path d="M280.273 19.0667H277.549V21.7901H280.273V19.0667Z" fill="#F9A533"/>
<path d="M280.273 16.3434H277.549V19.0667H280.273V16.3434Z" fill="black"/>
<path d="M282.996 91.343H280.273V93.4327H282.996V91.343Z" fill="black"/>
<path d="M282.996 89.2532H280.273V91.3461H282.996V89.2532Z" fill="#3F2731"/>
<path d="M282.996 87.1603H280.273V89.25H282.996V87.1603Z" fill="#124F8A"/>
<path d="M282.996 84.4369H280.273V87.1602H282.996V84.4369Z" fill="black"/>
<path d="M282.996 81.7136H280.273V84.437H282.996V81.7136Z" fill="#262B44"/>
<path d="M282.996 78.9902H280.273V81.7136H282.996V78.9902Z" fill="#F37920"/>
<path d="M282.996 76.2668H280.273V78.9901H282.996V76.2668Z" fill="#F9A533"/>
<path d="M282.996 73.5403H280.273V76.2636H282.996V73.5403Z" fill="black"/>
<path d="M282.996 70.817H280.273V73.5403H282.996V70.817Z" fill="black"/>
<path d="M282.996 68.0936H280.273V70.8169H282.996V68.0936Z" fill="#A32633"/>
<path d="M282.996 49.0269H280.273V51.7503H282.996V49.0269Z" fill="#919DA1"/>
<path d="M282.996 46.3035H280.273V49.0269H282.996V46.3035Z" fill="#384C53"/>
<path d="M282.996 43.5801H280.273V46.3035H282.996V43.5801Z" fill="#384C53"/>
<path d="M282.996 40.8568H280.273V43.5801H282.996V40.8568Z" fill="#C6D5DC"/>
<path d="M282.996 38.1334H280.273V40.8568H282.996V38.1334Z" fill="#C6D5DC"/>
<path d="M282.996 35.4101H280.273V38.1335H282.996V35.4101Z" fill="#C6D5DC"/>
<path d="M282.996 32.6867H280.273V35.4101H282.996V32.6867Z" fill="#C6D5DC"/>
<path d="M282.996 29.9602H280.273V32.6835H282.996V29.9602Z" fill="#9FAAB0"/>
<path d="M282.996 27.2368H280.273V29.9601H282.996V27.2368Z" fill="#F37920"/>
<path d="M282.996 24.5135H280.273V27.2368H282.996V24.5135Z" fill="#F37920"/>
<path d="M282.996 21.7901H280.273V24.5135H282.996V21.7901Z" fill="#F9A533"/>
<path d="M282.996 19.0667H280.273V21.7901H282.996V19.0667Z" fill="#F9A533"/>
<path d="M282.996 16.3434H280.273V19.0667H282.996V16.3434Z" fill="black"/>
<path d="M285.719 91.343H282.996V93.4327H285.719V91.343Z" fill="black"/>
<path d="M285.719 89.2532H282.996V92.6102H285.719V89.2532Z" fill="black"/>
<path d="M285.719 87.1603H282.996V89.25H285.719V87.1603Z" fill="black"/>
<path d="M285.719 84.4369H282.996V87.1602H285.719V84.4369Z" fill="black"/>
<path d="M285.719 81.7136H282.996V84.437H285.719V81.7136Z" fill="#262B44"/>
<path d="M285.719 78.9902H282.996V81.7136H285.719V78.9902Z" fill="#F37920"/>
<path d="M285.719 76.2668H282.996V78.9901H285.719V76.2668Z" fill="#F37920"/>
<path d="M285.719 73.5403H282.996V76.2636H285.719V73.5403Z" fill="black"/>
<path d="M285.719 70.817H282.996V73.5403H285.719V70.817Z" fill="#F9A533"/>
<path d="M285.719 68.0936H282.996V70.8169H285.719V68.0936Z" fill="#A32633"/>
<path d="M285.719 49.0269H282.996V51.7503H285.719V49.0269Z" fill="#919DA1"/>
<path d="M285.719 46.3035H282.996V49.0269H285.719V46.3035Z" fill="#5C6E73"/>
<path d="M285.719 43.5801H282.996V46.3035H285.719V43.5801Z" fill="#384C53"/>
<path d="M285.719 40.8568H282.996V43.5801H285.719V40.8568Z" fill="#384C53"/>
<path d="M285.719 38.1334H282.996V40.8568H285.719V38.1334Z" fill="#919DA1"/>
<path d="M285.719 35.4101H282.996V38.1335H285.719V35.4101Z" fill="#919DA1"/>
<path d="M285.719 32.6867H282.996V35.4101H285.719V32.6867Z" fill="#919DA1"/>
<path d="M285.719 29.9602H282.996V32.6835H285.719V29.9602Z" fill="black"/>
<path d="M285.719 27.2368H282.996V29.9601H285.719V27.2368Z" fill="#F37920"/>
<path d="M285.719 24.5135H282.996V27.2368H285.719V24.5135Z" fill="#F37920"/>
<path d="M285.719 21.7901H282.996V24.5135H285.719V21.7901Z" fill="#F37920"/>
<path d="M285.719 19.0667H282.996V21.7901H285.719V19.0667Z" fill="#F9A533"/>
<path d="M285.719 16.3434H282.996V19.0667H285.719V16.3434Z" fill="#F9A533"/>
<path d="M285.719 13.62H282.996V16.3433H285.719V13.62Z" fill="black"/>
<path d="M288.443 89.8837H285.719V92.607H288.443V89.8837Z" fill="black"/>
<path d="M288.443 87.1603H285.719V89.8836H288.443V87.1603Z" fill="#A32633"/>
<path d="M288.443 84.4369H285.719V87.1602H288.443V84.4369Z" fill="black"/>
<path d="M288.443 81.7136H285.719V84.437H288.443V81.7136Z" fill="black"/>
<path d="M288.443 78.9902H285.719V81.7136H288.443V78.9902Z" fill="black"/>
<path d="M288.443 76.2668H285.719V78.9901H288.443V76.2668Z" fill="black"/>
<path d="M288.443 73.5403H285.719V76.2636H288.443V73.5403Z" fill="#C5D4DB"/>
<path d="M288.443 70.817H285.719V73.5403H288.443V70.817Z" fill="#F37920"/>
<path d="M288.443 68.0936H285.719V70.8169H288.443V68.0936Z" fill="#3F2731"/>
<path d="M288.443 49.0269H285.719V51.7503H288.443V49.0269Z" fill="#919DA1"/>
<path d="M288.443 46.3035H285.719V49.0269H288.443V46.3035Z" fill="#919DA1"/>
<path d="M288.443 43.5801H285.719V46.3035H288.443V43.5801Z" fill="#919DA1"/>
<path d="M288.443 40.8568H285.719V43.5801H288.443V40.8568Z" fill="#919DA1"/>
<path d="M288.443 38.1334H285.719V40.8568H288.443V38.1334Z" fill="#919DA1"/>
<path d="M288.443 35.4101H285.719V38.1335H288.443V35.4101Z" fill="#919DA1"/>
<path d="M288.443 32.6867H285.719V35.4101H288.443V32.6867Z" fill="#919DA1"/>
<path d="M288.443 29.9602H285.719V32.6835H288.443V29.9602Z" fill="black"/>
<path d="M288.443 27.2368H285.719V29.9601H288.443V27.2368Z" fill="#F37920"/>
<path d="M288.443 24.5135H285.719V27.2368H288.443V24.5135Z" fill="#F37920"/>
<path d="M288.443 21.7901H285.719V24.5135H288.443V21.7901Z" fill="#F37920"/>
<path d="M288.443 19.0667H285.719V21.7901H288.443V19.0667Z" fill="#F9A533"/>
<path d="M288.443 16.3434H285.719V19.0667H288.443V16.3434Z" fill="#F9A533"/>
<path d="M288.443 13.62H285.719V16.3433H288.443V13.62Z" fill="#F9A533"/>
<path d="M288.443 10.8966H285.719V13.62H288.443V10.8966Z" fill="black"/>
<path d="M291.166 89.8837H288.442V92.607H291.166V89.8837Z" fill="black"/>
<path d="M291.166 87.1603H288.442V89.8836H291.166V87.1603Z" fill="#A32633"/>
<path d="M291.166 84.4369H288.442V87.1602H291.166V84.4369Z" fill="#A32633"/>
<path d="M291.166 81.7136H288.442V84.437H291.166V81.7136Z" fill="#A32633"/>
<path d="M291.166 78.9902H288.442V81.7136H291.166V78.9902Z" fill="#A32633"/>
<path d="M291.166 76.2668H288.442V78.9901H291.166V76.2668Z" fill="black"/>
<path d="M291.166 73.5403H288.442V76.2636H291.166V73.5403Z" fill="#C5D4DB"/>
<path d="M291.166 70.817H288.442V73.5403H291.166V70.817Z" fill="#C5D4DB"/>
<path d="M291.166 68.0936H288.442V70.8169H291.166V68.0936Z" fill="#F37920"/>
<path d="M291.166 49.0269H288.442V51.7503H291.166V49.0269Z" fill="black"/>
<path d="M288.443 51.7534H285.719V54.4768H288.443V51.7534Z" fill="black"/>
<path d="M285.719 51.7534H282.996V54.4768H285.719V51.7534Z" fill="black"/>
<path d="M282.996 51.7534H280.273V54.4768H282.996V51.7534Z" fill="black"/>
<path d="M280.273 54.4768H277.549V57.2002H280.273V54.4768Z" fill="black"/>
<path d="M280.273 57.2001H277.549V59.9235H280.273V57.2001Z" fill="black"/>
<path d="M280.273 59.9235H277.549V62.6469H280.273V59.9235Z" fill="black"/>
<path d="M291.166 46.3035H288.442V49.0269H291.166V46.3035Z" fill="black"/>
<path d="M291.166 43.5801H288.442V46.3035H291.166V43.5801Z" fill="black"/>
<path d="M291.166 40.8568H288.442V43.5801H291.166V40.8568Z" fill="black"/>
<path d="M291.166 38.1334H288.442V40.8568H291.166V38.1334Z" fill="black"/>
<path d="M291.166 35.4101H288.442V38.1335H291.166V35.4101Z" fill="black"/>
<path d="M291.166 32.6867H288.442V35.4101H291.166V32.6867Z" fill="black"/>
<path d="M291.166 29.9602H288.442V32.6835H291.166V29.9602Z" fill="black"/>
<path d="M291.166 27.2368H288.442V29.9601H291.166V27.2368Z" fill="black"/>
<path d="M291.166 24.5135H288.442V27.2368H291.166V24.5135Z" fill="black"/>
<path d="M291.166 21.7901H288.442V24.5135H291.166V21.7901Z" fill="#F37920"/>
<path d="M291.166 19.0667H288.442V21.7901H291.166V19.0667Z" fill="#F37920"/>
<path d="M291.166 16.3434H288.442V19.0667H291.166V16.3434Z" fill="#F37920"/>
<path d="M291.166 13.62H288.442V16.3433H291.166V13.62Z" fill="#F9A533"/>
<path d="M291.166 10.8966H288.442V13.62H291.166V10.8966Z" fill="#F9A533"/>
<path d="M291.166 8.17007H288.442V10.8934H291.166V8.17007Z" fill="black"/>
<path d="M293.889 89.8837H291.166V92.607H293.889V89.8837Z" fill="black"/>
<path d="M293.889 87.1603H291.166V89.8836H293.889V87.1603Z" fill="#A32633"/>
<path d="M293.889 84.4369H291.166V87.1602H293.889V84.4369Z" fill="#A32633"/>
<path d="M293.889 81.7136H291.166V84.437H293.889V81.7136Z" fill="#A32633"/>
<path d="M293.889 78.9902H291.166V81.7136H293.889V78.9902Z" fill="#A32633"/>
<path d="M293.889 76.2668H291.166V78.9901H293.889V76.2668Z" fill="#A32633"/>
<path d="M293.889 73.5403H291.166V76.2636H293.889V73.5403Z" fill="black"/>
<path d="M293.889 70.817H291.166V73.5403H293.889V70.817Z" fill="black"/>
<path d="M293.889 68.0936H291.166V70.8169H293.889V68.0936Z" fill="black"/>
<path d="M291.179 65.383H285.418V68.1064H291.179V65.383Z" fill="black"/>
<path d="M293.889 21.7901H291.166V24.5135H293.889V21.7901Z" fill="black"/>
<path d="M293.889 19.0667H291.166V21.7901H293.889V19.0667Z" fill="black"/>
<path d="M293.889 16.3434H291.166V19.0667H293.889V16.3434Z" fill="black"/>
<path d="M293.889 13.62H291.166V16.3433H293.889V13.62Z" fill="black"/>
<path d="M293.889 10.8966H291.166V13.62H293.889V10.8966Z" fill="black"/>
<path d="M293.889 8.17007H291.166V10.8934H293.889V8.17007Z" fill="black"/>
<path d="M293.889 5.44669H291.166V8.17005H293.889V5.44669Z" fill="black"/>
<path d="M296.613 89.8837H293.889V92.607H296.613V89.8837Z" fill="black"/>
<path d="M296.613 87.1603H293.889V89.8836H296.613V87.1603Z" fill="#A32633"/>
<path d="M296.613 84.4369H293.889V87.1602H296.613V84.4369Z" fill="#A32633"/>
<path d="M296.613 81.7136H293.889V84.437H296.613V81.7136Z" fill="#A32633"/>
<path d="M296.613 78.9902H293.889V81.7136H296.613V78.9902Z" fill="black"/>
<path d="M296.613 76.2668H293.889V78.9901H296.613V76.2668Z" fill="black"/>
<path d="M296.613 73.5403H293.889V76.2636H296.613V73.5403Z" fill="black"/>
<path d="M296.613 70.817H293.889V73.5403H296.613V70.817Z" fill="black"/>
<path d="M296.613 68.0936H293.889V70.8169H296.613V68.0936Z" fill="black"/>
<path d="M299.339 89.8837H296.616V92.607H299.339V89.8837Z" fill="black"/>
<path d="M299.339 87.1603H296.616V89.8836H299.339V87.1603Z" fill="#A32633"/>
<path d="M299.339 84.4369H296.616V87.1602H299.339V84.4369Z" fill="#A32633"/>
<path d="M299.339 81.7136H296.616V84.437H299.339V81.7136Z" fill="black"/>
<path d="M302.063 89.8837H299.339V92.607H302.063V89.8837Z" fill="black"/>
<path d="M302.063 87.1603H299.339V89.8836H302.063V87.1603Z" fill="#A32633"/>
<path d="M302.063 84.4369H299.339V87.1602H302.063V84.4369Z" fill="black"/>
<path d="M304.786 89.8837H302.062V92.607H304.786V89.8837Z" fill="black"/>
<path d="M304.786 87.1603H302.062V89.8836H304.786V87.1603Z" fill="black"/>
<path d="M307.509 89.8837H304.786V92.607H307.509V89.8837Z" fill="black"/>
<path d="M233.233 78.1791L231.844 80.5212L234.187 81.9101L235.576 79.568L233.233 78.1791Z" fill="black"/>
<path d="M230.322 76.0934L228.941 78.4409L231.289 79.8214L232.669 77.4739L230.322 76.0934Z" fill="black"/>
<path d="M227.973 74.7104L226.593 77.0579L228.94 78.4384L230.321 76.0909L227.973 74.7104Z" fill="black"/>
<path d="M236.399 76.5078L235.018 78.8553L237.365 80.2359L238.746 77.8884L236.399 76.5078Z" fill="black"/>
<path d="M234.051 75.1291L232.67 77.4766L235.018 78.8572L236.398 76.5097L234.051 75.1291Z" fill="#F37623"/>
<path d="M231.702 73.7461L230.322 76.0936L232.669 77.4742L234.05 75.1267L231.702 73.7461Z" fill="#FAAC35"/>
<path d="M229.355 72.3644L227.974 74.7119L230.322 76.0924L231.702 73.7449L229.355 72.3644Z" fill="black"/>
<path d="M210.57 61.3174L209.189 63.6649L211.537 65.0454L212.918 62.6979L210.57 61.3174Z" fill="black"/>
<path d="M208.222 59.9388L206.842 62.2863L209.189 63.6668L210.57 61.3193L208.222 59.9388Z" fill="black"/>
<path d="M205.875 58.5569L204.494 60.9044L206.842 62.285L208.222 59.9375L205.875 58.5569Z" fill="black"/>
<path d="M240.128 75.5404L238.747 77.8879L241.095 79.2684L242.475 76.921L240.128 75.5404Z" fill="black"/>
<path d="M237.777 74.1601L236.397 76.5076L238.744 77.8881L240.125 75.5406L237.777 74.1601Z" fill="#F37623"/>
<path d="M235.431 72.7787L234.051 75.1262L236.398 76.5067L237.779 74.1593L235.431 72.7787Z" fill="#FAAC35"/>
<path d="M233.081 71.3985L231.7 73.746L234.048 75.1265L235.428 72.779L233.081 71.3985Z" fill="#FAAC35"/>
<path d="M230.733 70.0166L229.352 72.3641L231.7 73.7447L233.08 71.3972L230.733 70.0166Z" fill="black"/>
<path d="M218.995 63.1116L217.615 65.459L219.962 66.8396L221.343 64.4921L218.995 63.1116Z" fill="black"/>
<path d="M216.645 61.7313L215.265 64.0788L217.612 65.4594L218.993 63.1119L216.645 61.7313Z" fill="black"/>
<path d="M214.299 60.35L212.918 62.6974L215.266 64.078L216.646 61.7305L214.299 60.35Z" fill="black"/>
<path d="M211.951 58.9713L210.571 61.3188L212.918 62.6994L214.299 60.3519L211.951 58.9713Z" fill="white"/>
<path d="M209.601 57.591L208.221 59.9385L210.568 61.3191L211.949 58.9716L209.601 57.591Z" fill="white"/>
<path d="M207.255 56.2097L205.874 58.5572L208.222 59.9378L209.602 57.5903L207.255 56.2097Z" fill="white"/>
<path d="M204.905 54.8262L203.524 57.1737L205.872 58.5543L207.252 56.2068L204.905 54.8262Z" fill="black"/>
<path d="M202.557 53.4476L201.176 55.7951L203.524 57.1757L204.904 54.8282L202.557 53.4476Z" fill="black"/>
<path d="M243.854 74.5745L242.474 76.922L244.821 78.3026L246.202 75.9551L243.854 74.5745Z" fill="black"/>
<path d="M241.508 73.1899L240.127 75.5374L242.475 76.9179L243.856 74.5704L241.508 73.1899Z" fill="black"/>
<path d="M239.16 71.8113L237.78 74.1588L240.127 75.5393L241.508 73.1918L239.16 71.8113Z" fill="#F37623"/>
<path d="M236.81 70.431L235.429 72.7785L237.776 74.1591L239.157 71.8116L236.81 70.431Z" fill="#FAAC35"/>
<path d="M234.463 69.0496L233.083 71.3971L235.43 72.7777L236.811 70.4302L234.463 69.0496Z" fill="black"/>
<path d="M232.113 67.6662L230.732 70.0137L233.08 71.3943L234.46 69.0468L232.113 67.6662Z" fill="black"/>
<path d="M229.769 66.2876L228.388 68.6351L230.736 70.0156L232.116 67.6681L229.769 66.2876Z" fill="black"/>
<path d="M227.418 64.9073L226.038 67.2548L228.385 68.6354L229.766 66.2879L227.418 64.9073Z" fill="black"/>
<path d="M225.072 63.526L223.692 65.8735L226.039 67.254L227.42 64.9066L225.072 63.526Z" fill="black"/>
<path d="M222.725 62.1473L221.344 64.4948L223.691 65.8754L225.072 63.5279L222.725 62.1473Z" fill="black"/>
<path d="M220.374 60.7671L218.993 63.1146L221.341 64.4951L222.721 62.1476L220.374 60.7671Z" fill="white"/>
<path d="M218.028 59.3825L216.647 61.73L218.995 63.1106L220.376 60.7631L218.028 59.3825Z" fill="white"/>
<path d="M215.678 58.0022L214.297 60.3497L216.645 61.7303L218.025 59.3828L215.678 58.0022Z" fill="white"/>
<path d="M213.33 56.6237L211.949 58.9712L214.297 60.3518L215.678 58.0043L213.33 56.6237Z" fill="white"/>
<path d="M210.984 55.2422L209.603 57.5897L211.951 58.9703L213.331 56.6228L210.984 55.2422Z" fill="white"/>
<path d="M208.634 53.862L207.253 56.2095L209.601 57.5901L210.981 55.2426L208.634 53.862Z" fill="white"/>
<path d="M206.286 52.4802L204.906 54.8277L207.253 56.2083L208.634 53.8608L206.286 52.4802Z" fill="white"/>
<path d="M203.94 51.0972L202.56 53.4447L204.907 54.8253L206.288 52.4778L203.94 51.0972Z" fill="white"/>
<path d="M201.593 49.7185L200.212 52.066L202.56 53.4466L203.94 51.0991L201.593 49.7185Z" fill="black"/>
<path d="M199.242 48.3383L197.862 50.6858L200.209 52.0664L201.59 49.7189L199.242 48.3383Z" fill="black"/>
<path d="M245.237 72.2256L243.856 74.5731L246.204 75.9537L247.584 73.6062L245.237 72.2256Z" fill="black"/>
<path d="M242.886 70.8421L241.506 73.1896L243.853 74.5702L245.234 72.2227L242.886 70.8421Z" fill="black"/>
<path d="M240.539 69.4636L239.158 71.8111L241.506 73.1917L242.886 70.8442L240.539 69.4636Z" fill="#FAAC35"/>
<path d="M238.193 68.0822L236.812 70.4297L239.16 71.8103L240.54 69.4628L238.193 68.0822Z" fill="#E33C45"/>
<path d="M235.845 66.7019L234.465 69.0494L236.812 70.43L238.193 68.0825L235.845 66.7019Z" fill="#E33C45"/>
<path d="M233.498 65.3233L232.117 67.6708L234.465 69.0514L235.845 66.7039L233.498 65.3233Z" fill="white"/>
<path d="M231.149 63.9371L229.768 66.2846L232.116 67.6652L233.496 65.3177L231.149 63.9371Z" fill="white"/>
<path d="M228.801 62.5585L227.421 64.906L229.768 66.2866L231.149 63.9391L228.801 62.5585Z" fill="white"/>
<path d="M226.451 61.1783L225.07 63.5258L227.418 64.9063L228.798 62.5589L226.451 61.1783Z" fill="white"/>
<path d="M224.105 59.7969L222.724 62.1444L225.072 63.525L226.452 61.1775L224.105 59.7969Z" fill="white"/>
<path d="M221.757 58.4183L220.377 60.7657L222.724 62.1463L224.105 59.7988L221.757 58.4183Z" fill="white"/>
<path d="M219.407 57.0348L218.026 59.3823L220.374 60.7629L221.754 58.4154L219.407 57.0348Z" fill="#FAAC35"/>
<path d="M217.059 55.6562L215.679 58.0037L218.026 59.3843L219.407 57.0368L217.059 55.6562Z" fill="#FAAC35"/>
<path d="M214.71 54.2732L213.33 56.6207L215.677 58.0013L217.058 55.6538L214.71 54.2732Z" fill="#FAAC35"/>
<path d="M212.363 52.8946L210.982 55.2421L213.33 56.6226L214.71 54.2751L212.363 52.8946Z" fill="white"/>
<path d="M210.015 51.5144L208.635 53.8619L210.982 55.2424L212.363 52.895L210.015 51.5144Z" fill="white"/>
<path d="M207.669 50.1298L206.289 52.4772L208.636 53.8578L210.017 51.5103L207.669 50.1298Z" fill="white"/>
<path d="M205.321 48.7511L203.941 51.0986L206.288 52.4792L207.669 50.1317L205.321 48.7511Z" fill="white"/>
<path d="M203.504 47.9237L202.115 50.2658L204.457 51.6547L205.846 49.3126L203.504 47.9237Z" fill="white"/>
<path d="M200.625 45.9895L199.244 48.337L201.592 49.7175L202.972 47.3701L200.625 45.9895Z" fill="white"/>
<path d="M198.275 44.6093L196.894 46.9568L199.242 48.3374L200.622 45.9899L198.275 44.6093Z" fill="black"/>
<path d="M195.927 43.2307L194.546 45.5781L196.894 46.9587L198.274 44.6112L195.927 43.2307Z" fill="black"/>
<path d="M251.312 72.6396L249.931 74.9871L252.279 76.3676L253.659 74.0201L251.312 72.6396Z" fill="#743F3A"/>
<path d="M248.963 71.2566L247.583 73.6041L249.93 74.9847L251.311 72.6372L248.963 71.2566Z" fill="#743F3A"/>
<path d="M247.583 73.607L246.202 75.9545L248.55 77.3351L249.93 74.9876L247.583 73.607Z" fill="black"/>
<path d="M249.934 74.9874L248.553 77.3348L250.9 78.7154L252.281 76.3679L249.934 74.9874Z" fill="black"/>
<path d="M246.615 69.878L245.235 72.2255L247.582 73.606L248.963 71.2585L246.615 69.878Z" fill="#3F2731"/>
<path d="M244.885 69.1987L243.496 71.5408L245.838 72.9297L247.227 70.5877L244.885 69.1987Z" fill="#3F2731"/>
<path d="M241.922 67.1132L240.542 69.4607L242.889 70.8413L244.27 68.4938L241.922 67.1132Z" fill="#A22633"/>
<path d="M239.575 65.7346L238.194 68.082L240.542 69.4626L241.922 67.1151L239.575 65.7346Z" fill="#E33C45"/>
<path d="M237.224 64.3543L235.844 66.7018L238.191 68.0824L239.572 65.7349L237.224 64.3543Z" fill="white"/>
<path d="M234.878 62.9729L233.497 65.3204L235.845 66.701L237.225 64.3535L234.878 62.9729Z" fill="#E33C45"/>
<path d="M232.53 61.5943L231.15 63.9418L233.497 65.3223L234.878 62.9748L232.53 61.5943Z" fill="#F37623"/>
<path d="M230.18 60.2109L228.799 62.5583L231.147 63.9389L232.527 61.5914L230.18 60.2109Z" fill="#F37623"/>
<path d="M227.834 58.8295L226.453 61.177L228.801 62.5576L230.181 60.2101L227.834 58.8295Z" fill="#F37623"/>
<path d="M225.483 57.4492L224.103 59.7967L226.45 61.1773L227.831 58.8298L225.483 57.4492Z" fill="#F37623"/>
<path d="M223.136 56.0706L221.755 58.4181L224.103 59.7987L225.483 57.4512L223.136 56.0706Z" fill="#FAAC35"/>
<path d="M220.786 54.6872L219.405 57.0347L221.753 58.4152L223.133 56.0677L220.786 54.6872Z" fill="#FAAC35"/>
<path d="M218.44 53.3058L217.059 55.6533L219.407 57.0338L220.787 54.6863L218.44 53.3058Z" fill="#FAAC35"/>
<path d="M216.095 51.9272L214.714 54.2747L217.062 55.6552L218.442 53.3077L216.095 51.9272Z" fill="#FAAC35"/>
<path d="M213.744 50.5469L212.364 52.8944L214.711 54.275L216.092 51.9275L213.744 50.5469Z" fill="#F37623"/>
<path d="M211.398 49.1655L210.018 51.513L212.365 52.8936L213.746 50.5461L211.398 49.1655Z" fill="#F37623"/>
<path d="M209.048 47.7853L207.667 50.1328L210.015 51.5133L211.395 49.1658L209.048 47.7853Z" fill="white"/>
<path d="M206.7 46.4035L205.32 48.751L207.667 50.1316L209.048 47.7841L206.7 46.4035Z" fill="white"/>
<path d="M204.354 45.0221L202.974 47.3696L205.321 48.7501L206.702 46.4026L204.354 45.0221Z" fill="white"/>
<path d="M202.004 43.6418L200.623 45.9893L202.97 47.3699L204.351 45.0224L202.004 43.6418Z" fill="white"/>
<path d="M199.656 42.2632L198.275 44.6107L200.623 45.9913L202.003 43.6438L199.656 42.2632Z" fill="white"/>
<path d="M197.835 41.4019L196.446 43.744L198.788 45.1329L200.177 42.7908L197.835 41.4019Z" fill="white"/>
<path d="M194.96 39.4984L193.579 41.8459L195.926 43.2265L197.307 40.879L194.96 39.4984Z" fill="black"/>
<path d="M192.612 38.1197L191.231 40.4672L193.579 41.8478L194.959 39.5003L192.612 38.1197Z" fill="black"/>
<path d="M252.692 70.2892L251.312 72.6367L253.659 74.0172L255.04 71.6698L252.692 70.2892Z" fill="black"/>
<path d="M250.348 68.9106L248.967 71.2581L251.315 72.6386L252.695 70.2911L250.348 68.9106Z" fill="black"/>
<path d="M247.999 67.5275L246.618 69.875L248.966 71.2556L250.346 68.9081L247.999 67.5275Z" fill="black"/>
<path d="M245.651 66.1489L244.271 68.4964L246.618 69.877L247.999 67.5295L245.651 66.1489Z" fill="black"/>
<path d="M243.301 64.7654L241.92 67.1129L244.268 68.4935L245.648 66.146L243.301 64.7654Z" fill="#F37623"/>
<path d="M240.953 63.3868L239.573 65.7343L241.92 67.1149L243.301 64.7674L240.953 63.3868Z" fill="#A22633"/>
<path d="M238.607 62.0054L237.227 64.3529L239.574 65.7335L240.955 63.386L238.607 62.0054Z" fill="#A22633"/>
<path d="M236.257 60.6252L234.876 62.9727L237.224 64.3533L238.604 62.0058L236.257 60.6252Z" fill="#BFC9DA"/>
<path d="M233.909 59.2466L232.528 61.5941L234.876 62.9746L236.257 60.6271L233.909 59.2466Z" fill="#BFC9DA"/>
<path d="M232.16 58.502L230.771 60.8441L233.113 62.233L234.502 59.8909L232.16 58.502Z" fill="#BFC9DA"/>
<path d="M229.212 56.4818L227.832 58.8293L230.179 60.2099L231.56 57.8624L229.212 56.4818Z" fill="#BFC9DA"/>
<path d="M226.865 55.1031L225.484 57.4506L227.832 58.8312L229.212 56.4837L226.865 55.1031Z" fill="#BFC9DA"/>
<path d="M224.519 53.7201L223.139 56.0676L225.486 57.4482L226.867 55.1007L224.519 53.7201Z" fill="#BFC9DA"/>
<path d="M222.172 52.3416L220.791 54.6891L223.139 56.0697L224.519 53.7222L222.172 52.3416Z" fill="#F37623"/>
<path d="M219.821 50.9581L218.441 53.3056L220.788 54.6862L222.169 52.3387L219.821 50.9581Z" fill="#F37623"/>
<path d="M217.475 49.5768L216.094 51.9243L218.442 53.3048L219.822 50.9573L217.475 49.5768Z" fill="#F37623"/>
<path d="M215.127 48.198L213.747 50.5455L216.094 51.9261L217.475 49.5786L215.127 48.198Z" fill="#BFC9DA"/>
<path d="M212.777 46.8178L211.396 49.1653L213.744 50.5459L215.124 48.1984L212.777 46.8178Z" fill="#BFC9DA"/>
<path d="M210.429 45.4392L209.049 47.7867L211.396 49.1673L212.777 46.8198L210.429 45.4392Z" fill="#BFC9DA"/>
<path d="M208.081 44.053L206.7 46.4005L209.047 47.7811L210.428 45.4336L208.081 44.053Z" fill="#BFC9DA"/>
<path d="M205.733 42.6744L204.352 45.0219L206.7 46.4025L208.08 44.055L205.733 42.6744Z" fill="#BFC9DA"/>
<path d="M203.382 41.2941L202.002 43.6416L204.349 45.0222L205.73 42.6747L203.382 41.2941Z" fill="#BFC9DA"/>
<path d="M201.036 39.9128L199.656 42.2603L202.003 43.6408L203.384 41.2933L201.036 39.9128Z" fill="black"/>
<path d="M198.692 38.5342L197.311 40.8817L199.659 42.2622L201.039 39.9147L198.692 38.5342Z" fill="black"/>
<path d="M247.03 63.8012L245.649 66.1487L247.997 67.5293L249.377 65.1818L247.03 63.8012Z" fill="black"/>
<path d="M249.379 65.1428L247.999 67.4903L250.346 68.8709L251.727 66.5234L249.379 65.1428Z" fill="black"/>
<path d="M244.684 62.4167L243.303 64.7642L245.651 66.1447L247.031 63.7972L244.684 62.4167Z" fill="#F37623"/>
<path d="M242.333 61.0365L240.953 63.384L243.3 64.7645L244.681 62.4171L242.333 61.0365Z" fill="#F37623"/>
<path d="M239.986 59.6578L238.605 62.0053L240.953 63.3859L242.333 61.0384L239.986 59.6578Z" fill="black"/>
<path d="M237.64 58.2764L236.259 60.6239L238.607 62.0045L239.987 59.657L237.64 58.2764Z" fill="black"/>
<path d="M235.289 56.8962L233.909 59.2437L236.256 60.6243L237.637 58.2768L235.289 56.8962Z" fill="black"/>
<path d="M232.942 55.5176L231.561 57.8651L233.909 59.2456L235.289 56.8981L232.942 55.5176Z" fill="black"/>
<path d="M230.594 54.1342L229.214 56.4816L231.561 57.8622L232.942 55.5147L230.594 54.1342Z" fill="black"/>
<path d="M228.248 52.7527L226.868 55.1002L229.215 56.4807L230.596 54.1332L228.248 52.7527Z" fill="black"/>
<path d="M225.898 51.3725L224.517 53.72L226.864 55.1005L228.245 52.753L225.898 51.3725Z" fill="#BFC9DA"/>
<path d="M223.55 49.9939L222.17 52.3414L224.517 53.7219L225.898 51.3744L223.55 49.9939Z" fill="#BFC9DA"/>
<path d="M221.204 48.6093L219.823 50.9568L222.171 52.3374L223.551 49.9899L221.204 48.6093Z" fill="#BFC9DA"/>
<path d="M218.854 47.229L217.473 49.5765L219.821 50.9571L221.201 48.6096L218.854 47.229Z" fill="#BFC9DA"/>
<path d="M216.506 45.8504L215.125 48.1979L217.473 49.5785L218.853 47.231L216.506 45.8504Z" fill="#BFC9DA"/>
<path d="M214.157 44.4674L212.777 46.8149L215.124 48.1955L216.505 45.848L214.157 44.4674Z" fill="#BFC9DA"/>
<path d="M211.809 43.0888L210.429 45.4363L212.776 46.8169L214.157 44.4694L211.809 43.0888Z" fill="#BFC9DA"/>
<path d="M209.462 41.7102L208.081 44.0577L210.429 45.4382L211.809 43.0908L209.462 41.7102Z" fill="#BFC9DA"/>
<path d="M207.113 40.324L205.733 42.6714L208.08 44.052L209.461 41.7045L207.113 40.324Z" fill="black"/>
<path d="M204.769 38.9453L203.388 41.2928L205.736 42.6734L207.116 40.3259L204.769 38.9453Z" fill="black"/>
<path d="M248.413 61.4525L247.033 63.7999L249.38 65.1805L250.761 62.833L248.413 61.4525Z" fill="black"/>
<path d="M246.063 60.0722L244.682 62.4197L247.03 63.8002L248.41 61.4528L246.063 60.0722Z" fill="#F37623"/>
<path d="M243.715 58.6904L242.334 61.0378L244.682 62.4184L246.062 60.0709L243.715 58.6904Z" fill="#F37623"/>
<path d="M241.366 57.3074L239.985 59.6548L242.333 61.0354L243.714 58.6879L241.366 57.3074Z" fill="#F37623"/>
<path d="M239.018 55.9288L237.638 58.2762L239.985 59.6568L241.366 57.3093L239.018 55.9288Z" fill="black"/>
<path d="M227.279 49.0264L225.898 51.3739L228.246 52.7545L229.627 50.407L227.279 49.0264Z" fill="black"/>
<path d="M224.93 47.6434L223.55 49.9909L225.897 51.3715L227.278 49.024L224.93 47.6434Z" fill="black"/>
<path d="M222.583 46.2648L221.202 48.6123L223.55 49.9929L224.93 47.6454L222.583 46.2648Z" fill="black"/>
<path d="M220.235 44.883L218.854 47.2305L221.202 48.611L222.583 46.2636L220.235 44.883Z" fill="#BFC9DA"/>
<path d="M217.886 43.5L216.506 45.8475L218.853 47.228L220.234 44.8806L217.886 43.5Z" fill="#BFC9DA"/>
<path d="M215.539 42.1213L214.158 44.4688L216.506 45.8494L217.886 43.5019L215.539 42.1213Z" fill="#BFC9DA"/>
<path d="M213.188 40.7411L211.808 43.0886L214.155 44.4691L215.536 42.1217L213.188 40.7411Z" fill="black"/>
<path d="M210.845 39.3598L209.465 41.7073L211.812 43.0878L213.193 40.7404L210.845 39.3598Z" fill="black"/>
<path d="M247.441 57.7245L246.061 60.072L248.408 61.4526L249.789 59.1051L247.441 57.7245Z" fill="black"/>
<path d="M245.095 56.3399L243.714 58.6874L246.062 60.068L247.442 57.7205L245.095 56.3399Z" fill="#F37623"/>
<path d="M242.748 54.9613L241.367 57.3088L243.714 58.6893L245.095 56.3419L242.748 54.9613Z" fill="#F37623"/>
<path d="M240.4 53.5811L239.019 55.9286L241.367 57.3092L242.747 54.9617L240.4 53.5811Z" fill="black"/>
<path d="M221.615 42.5357L220.235 44.8832L222.582 46.2638L223.963 43.9163L221.615 42.5357Z" fill="black"/>
<path d="M219.268 41.1539L217.887 43.5014L220.235 44.882L221.615 42.5345L219.268 41.1539Z" fill="black"/>
<path d="M216.919 39.7709L215.538 42.1184L217.886 43.499L219.266 41.1515L216.919 39.7709Z" fill="black"/>
<path d="M246.479 53.997L245.099 56.3445L247.446 57.7251L248.827 55.3776L246.479 53.997Z" fill="black"/>
<path d="M244.129 52.6136L242.749 54.9611L245.096 56.3417L246.477 53.9942L244.129 52.6136Z" fill="black"/>
<path d="M241.783 51.2322L240.402 53.5797L242.75 54.9603L244.13 52.6128L241.783 51.2322Z" fill="black"/>
<path d="M240.811 47.5043L239.431 49.8518L241.778 51.2324L243.159 48.8849L240.811 47.5043Z" fill="black"/>
<path d="M244.542 46.5342L243.161 48.8817L245.509 50.2622L246.889 47.9147L244.542 46.5342Z" fill="black"/>
<path d="M242.194 45.1555L240.814 47.503L243.161 48.8836L244.542 46.5361L242.194 45.1555Z" fill="black"/>
<path d="M239.844 43.7753L238.463 46.1227L240.811 47.5033L242.191 45.1558L239.844 43.7753Z" fill="black"/>
<path d="M279.885 53.1992L277.483 54.4836L278.768 56.885L281.169 55.6006L279.885 53.1992Z" fill="black"/>
<path d="M282.285 51.918L279.884 53.2025L281.168 55.6039L283.57 54.3195L282.285 51.918Z" fill="black"/>
<path d="M284.688 50.6293L282.286 51.9138L283.571 54.3152L285.972 53.0308L284.688 50.6293Z" fill="black"/>
<path d="M278.766 56.8872L276.365 58.1716L277.649 60.573L280.051 59.2886L278.766 56.8872Z" fill="black"/>
<path d="M281.166 55.6L278.764 56.8844L280.049 59.2858L282.45 58.0014L281.166 55.6Z" fill="#FAAC35"/>
<path d="M283.57 54.3174L281.168 55.6018L282.453 58.0033L284.854 56.7188L283.57 54.3174Z" fill="white"/>
<path d="M285.971 53.0331L283.569 54.3175L284.854 56.719L287.255 55.4345L285.971 53.0331Z" fill="#A22633"/>
<path d="M288.372 51.7476L285.971 53.032L287.255 55.4335L289.657 54.1491L288.372 51.7476Z" fill="black"/>
<path d="M290.773 50.4633L288.372 51.7477L289.656 54.1492L292.058 52.8648L290.773 50.4633Z" fill="black"/>
<path d="M293.177 49.1807L290.776 50.4651L292.06 52.8665L294.462 51.5821L293.177 49.1807Z" fill="black"/>
<path d="M295.576 47.8936L293.175 49.178L294.459 51.5795L296.861 50.2951L295.576 47.8936Z" fill="black"/>
<path d="M297.98 46.611L295.579 47.8954L296.863 50.2969L299.264 49.0125L297.98 46.611Z" fill="black"/>
<path d="M300.382 45.3256L297.981 46.61L299.265 49.0114L301.667 47.727L300.382 45.3256Z" fill="black"/>
<path d="M277.649 60.5734L275.247 61.8578L276.531 64.2593L278.933 62.9749L277.649 60.5734Z" fill="black"/>
<path d="M280.051 59.288L277.649 60.5724L278.934 62.9738L281.335 61.6894L280.051 59.288Z" fill="#5B6987"/>
<path d="M282.454 58.0021L280.053 59.2866L281.337 61.688L283.739 60.4036L282.454 58.0021Z" fill="#FAAC35"/>
<path d="M284.855 56.7211L282.454 58.0055L283.738 60.407L286.139 59.1225L284.855 56.7211Z" fill="#A22633"/>
<path d="M287.258 55.4324L284.856 56.7169L286.14 59.1183L288.542 57.8339L287.258 55.4324Z" fill="#E33C45"/>
<path d="M289.658 54.1513L287.257 55.4357L288.541 57.8372L290.943 56.5528L289.658 54.1513Z" fill="#FAAC35"/>
<path d="M292.062 52.8655L289.661 54.1499L290.945 56.5514L293.346 55.2669L292.062 52.8655Z" fill="#FAAC35"/>
<path d="M294.462 51.5816L292.06 52.866L293.344 55.2674L295.746 53.983L294.462 51.5816Z" fill="#F37623"/>
<path d="M296.865 50.2957L294.463 51.5801L295.748 53.9816L298.149 52.6972L296.865 50.2957Z" fill="#F37623"/>
<path d="M299.264 49.0119L296.863 50.2963L298.147 52.6977L300.549 51.4133L299.264 49.0119Z" fill="black"/>
<path d="M278.932 62.9728L276.531 64.2572L277.815 66.6587L280.217 65.3742L278.932 62.9728Z" fill="black"/>
<path d="M281.333 61.6917L278.932 62.9761L280.216 65.3775L282.618 64.0931L281.333 61.6917Z" fill="#5B6987"/>
<path d="M283.736 60.403L281.334 61.6874L282.619 64.0889L285.02 62.8045L283.736 60.403Z" fill="#F37623"/>
<path d="M286.136 59.1219L283.735 60.4063L285.019 62.8078L287.421 61.5234L286.136 59.1219Z" fill="#F37623"/>
<path d="M288.54 57.8361L286.139 59.1205L287.423 61.522L289.824 60.2376L288.54 57.8361Z" fill="#FAAC35"/>
<path d="M290.942 56.5507L288.541 57.8351L289.825 60.2365L292.227 58.9521L290.942 56.5507Z" fill="#F37623"/>
<path d="M293.343 55.2664L290.941 56.5508L292.226 58.9522L294.627 57.6678L293.343 55.2664Z" fill="#F37623"/>
<path d="M295.747 53.9838L293.345 55.2682L294.63 57.6696L297.031 56.3852L295.747 53.9838Z" fill="#F37623"/>
<path d="M298.146 52.6966L295.745 53.981L297.029 56.3825L299.431 55.0981L298.146 52.6966Z" fill="black"/>
<path d="M280.218 65.3765L277.817 66.6609L279.101 69.0623L281.503 67.7779L280.218 65.3765Z" fill="black"/>
<path d="M282.62 64.091L280.219 65.3754L281.503 67.7769L283.905 66.4925L282.62 64.091Z" fill="#5B6987"/>
<path d="M285.021 62.8067L282.62 64.0911L283.904 66.4926L286.306 65.2082L285.021 62.8067Z" fill="#3B4566"/>
<path d="M287.425 61.5241L285.023 62.8085L286.308 65.2099L288.709 63.9255L287.425 61.5241Z" fill="#3B4566"/>
<path d="M289.827 60.2355L287.426 61.5199L288.71 63.9214L291.111 62.6369L289.827 60.2355Z" fill="#F37623"/>
<path d="M292.228 58.9544L289.826 60.2388L291.111 62.6402L293.512 61.3558L292.228 58.9544Z" fill="#F37623"/>
<path d="M294.632 57.6685L292.23 58.9529L293.515 61.3544L295.916 60.07L294.632 57.6685Z" fill="#F37623"/>
<path d="M297.031 56.3847L294.63 57.6691L295.914 60.0705L298.316 58.7861L297.031 56.3847Z" fill="#3B4566"/>
<path d="M299.435 55.0988L297.033 56.3832L298.318 58.7847L300.719 57.5003L299.435 55.0988Z" fill="black"/>
<path d="M283.903 66.4947L281.502 67.7791L282.786 70.1806L285.188 68.8962L283.903 66.4947Z" fill="black"/>
<path d="M286.307 65.2089L283.905 66.4933L285.189 68.8947L287.591 67.6103L286.307 65.2089Z" fill="black"/>
<path d="M288.706 63.9249L286.304 65.2094L287.589 67.6108L289.99 66.3264L288.706 63.9249Z" fill="black"/>
<path d="M293.511 61.358L291.109 62.6425L292.394 65.0439L294.795 63.7595L293.511 61.358Z" fill="#3B4566"/>
<path d="M291.11 62.6391L288.708 63.9235L289.993 66.325L292.394 65.0406L291.11 62.6391Z" fill="#5B6987"/>
<path d="M295.913 60.0694L293.511 61.3538L294.796 63.7553L297.197 62.4709L295.913 60.0694Z" fill="#3B4566"/>
<path d="M298.316 58.7868L295.915 60.0712L297.199 62.4726L299.601 61.1882L298.316 58.7868Z" fill="black"/>
<path d="M292.394 65.04L289.992 66.3244L291.277 68.7259L293.678 67.4414L292.394 65.04Z" fill="black"/>
<path d="M294.798 63.7574L292.396 65.0418L293.681 67.4433L296.082 66.1588L294.798 63.7574Z" fill="black"/>
<path d="M297.199 62.473L294.797 63.7574L296.082 66.1589L298.483 64.8745L297.199 62.473Z" fill="black"/>
</g>
<defs>
<clipPath id="clip0_3417_86065">
<rect width="600" height="93.4359" fill="white"/>
</clipPath>
</defs>
</svg>
