<svg width="500" height="299" viewBox="0 0 500 299" fill="none" xmlns="http://www.w3.org/2000/svg">
<g clip-path="url(#clip0_3417_92516)">
<path d="M105.147 186.531H99.5214V192.157H105.147V186.531Z" fill="black"/>
<path d="M105.147 180.909H99.5214V186.532H105.147V180.909Z" fill="black"/>
<path d="M105.147 175.283H99.5214V180.909H105.147V175.283Z" fill="black"/>
<path d="M105.147 169.658H99.5214V175.283H105.147V169.658Z" fill="black"/>
<path d="M110.772 186.531H105.147V192.157H110.772V186.531Z" fill="black"/>
<path d="M110.772 180.909H105.147V186.532H110.772V180.909Z" fill="#A32633"/>
<path d="M110.772 175.283H105.147V180.909H110.772V175.283Z" fill="#A32633"/>
<path d="M110.772 169.658H105.147V175.283H110.772V169.658Z" fill="#A32633"/>
<path d="M110.772 164.035H105.147V169.658H110.772V164.035Z" fill="black"/>
<path d="M110.772 158.409H105.147V164.035H110.772V158.409Z" fill="black"/>
<path d="M110.772 152.784H105.147V158.409H110.772V152.784Z" fill="black"/>
<path d="M110.772 147.161H105.147V152.784H110.772V147.161Z" fill="black"/>
<path d="M110.772 107.785H105.147V113.411H110.772V107.785Z" fill="#FAAC35"/>
<path d="M110.772 102.162H105.147V107.785H110.772V102.162Z" fill="#FAAC35"/>
<path d="M110.772 45.9149H105.147V51.5405H110.772V45.9149Z" fill="black"/>
<path d="M110.772 40.2894H105.147V45.912H110.772V40.2894Z" fill="black"/>
<path d="M110.772 34.6637H105.147V40.2893H110.772V34.6637Z" fill="black"/>
<path d="M110.772 29.0381H105.147V34.6637H110.772V29.0381Z" fill="black"/>
<path d="M110.772 23.4155H105.147V29.0381H110.772V23.4155Z" fill="black"/>
<path d="M110.772 17.7899H105.147V23.4155H110.772V17.7899Z" fill="black"/>
<path d="M110.772 12.1643H105.147V17.7899H110.772V12.1643Z" fill="black"/>
<path d="M116.395 186.531H110.772V192.157H116.395V186.531Z" fill="black"/>
<path d="M116.395 180.909H110.772V186.532H116.395V180.909Z" fill="#A32633"/>
<path d="M116.395 175.283H110.772V180.909H116.395V175.283Z" fill="#A32633"/>
<path d="M116.395 169.658H110.772V175.283H116.395V169.658Z" fill="#A32633"/>
<path d="M116.395 164.035H110.772V169.658H116.395V164.035Z" fill="#A32633"/>
<path d="M116.395 158.409H110.772V164.035H116.395V158.409Z" fill="#A32633"/>
<path d="M116.395 152.927H110.772V158.553H116.395V152.927Z" fill="#A32633"/>
<path d="M116.395 107.785H110.772V113.411H116.395V107.785Z" fill="#FAAC35"/>
<path d="M116.395 102.162H110.772V107.785H116.395V102.162Z" fill="black"/>
<path d="M116.395 96.5366H110.772V102.162H116.395V96.5366Z" fill="black"/>
<path d="M116.395 90.9109H110.772V96.5365H116.395V90.9109Z" fill="black"/>
<path d="M116.395 85.2882H110.772V90.9109H116.395V85.2882Z" fill="black"/>
<path d="M116.395 79.6627H110.772V85.2883H116.395V79.6627Z" fill="black"/>
<path d="M116.395 74.037H110.772V79.6626H116.395V74.037Z" fill="black"/>
<path d="M116.395 68.4144H110.772V74.0371H116.395V68.4144Z" fill="black"/>
<path d="M116.395 62.7888H110.772V68.4144H116.395V62.7888Z" fill="black"/>
<path d="M116.395 57.1631H110.772V62.7887H116.395V57.1631Z" fill="black"/>
<path d="M116.395 51.5376H110.772V57.1603H116.395V51.5376Z" fill="black"/>
<path d="M116.395 45.9149H110.772V51.5405H116.395V45.9149Z" fill="#F9A533"/>
<path d="M116.395 40.2894H110.772V45.912H116.395V40.2894Z" fill="#F9A533"/>
<path d="M116.395 34.6637H110.772V40.2893H116.395V34.6637Z" fill="#F9A533"/>
<path d="M116.395 29.0381H110.772V34.6637H116.395V29.0381Z" fill="#F9A533"/>
<path d="M116.395 23.4155H110.772V29.0381H116.395V23.4155Z" fill="#F9A533"/>
<path d="M116.395 17.7899H110.772V23.4155H116.395V17.7899Z" fill="black"/>
<path d="M122.023 186.531H116.398V192.157H122.023V186.531Z" fill="black"/>
<path d="M122.023 180.909H116.398V186.532H122.023V180.909Z" fill="#A32633"/>
<path d="M122.023 175.283H116.398V180.909H122.023V175.283Z" fill="#A32633"/>
<path d="M122.023 169.658H116.398V175.283H122.023V169.658Z" fill="#A32633"/>
<path d="M122.023 164.035H116.398V169.658H122.023V164.035Z" fill="#A32633"/>
<path d="M122.023 158.409H116.398V164.035H122.023V158.409Z" fill="black"/>
<path d="M122.023 135.91H116.398V141.536H122.023V135.91Z" fill="black"/>
<path d="M122.023 130.284H116.398V135.907H122.023V130.284Z" fill="black"/>
<path d="M122.023 124.662H116.398V130.287H122.023V124.662Z" fill="#F37623"/>
<path d="M122.023 119.036H116.398V124.659H122.023V119.036Z" fill="#FAAC35"/>
<path d="M122.023 113.41H116.398V119.036H122.023V113.41Z" fill="#FAAC35"/>
<path d="M122.023 107.785H116.398V113.411H122.023V107.785Z" fill="black"/>
<path d="M122.023 102.162H116.398V107.785H122.023V102.162Z" fill="#5C6E73"/>
<path d="M122.023 96.5366H116.398V102.162H122.023V96.5366Z" fill="#5C6E73"/>
<path d="M122.023 90.9109H116.398V96.5365H122.023V90.9109Z" fill="#5C6E73"/>
<path d="M122.023 85.2882H116.398V90.9109H122.023V85.2882Z" fill="#C6D5DC"/>
<path d="M122.023 79.6627H116.398V85.2883H122.023V79.6627Z" fill="#C6D5DC"/>
<path d="M122.023 74.037H116.398V79.6626H122.023V74.037Z" fill="#C6D5DC"/>
<path d="M122.023 68.4144H116.398V74.0371H122.023V68.4144Z" fill="#C6D5DC"/>
<path d="M122.023 62.7888H116.398V68.4144H122.023V62.7888Z" fill="black"/>
<path d="M122.023 57.1631H116.398V62.7887H122.023V57.1631Z" fill="#F9A533"/>
<path d="M122.023 51.5376H116.398V57.1603H122.023V51.5376Z" fill="#F9A533"/>
<path d="M122.023 45.9149H116.398V51.5405H122.023V45.9149Z" fill="#F9A533"/>
<path d="M122.023 40.2894H116.398V45.912H122.023V40.2894Z" fill="#F9A533"/>
<path d="M122.023 34.6637H116.398V40.2893H122.023V34.6637Z" fill="#F37920"/>
<path d="M122.023 29.0381H116.398V34.6637H122.023V29.0381Z" fill="#F37920"/>
<path d="M122.023 23.4155H116.398V29.0381H122.023V23.4155Z" fill="black"/>
<path d="M127.646 186.531H122.02V192.157H127.646V186.531Z" fill="black"/>
<path d="M127.646 180.909H122.02V186.532H127.646V180.909Z" fill="#A32633"/>
<path d="M127.646 175.283H122.02V180.909H127.646V175.283Z" fill="black"/>
<path d="M127.646 169.658H122.02V175.283H127.646V169.658Z" fill="black"/>
<path d="M127.646 164.035H122.02V169.658H127.646V164.035Z" fill="black"/>
<path d="M127.646 158.409H122.02V164.035H127.646V158.409Z" fill="black"/>
<path d="M127.646 152.784H122.02V158.409H127.646V152.784Z" fill="black"/>
<path d="M127.646 141.535H122.02V147.161H127.646V141.535Z" fill="black"/>
<path d="M127.646 135.91H122.02V141.536H127.646V135.91Z" fill="black"/>
<path d="M127.646 130.284H122.02V135.907H127.646V130.284Z" fill="#3B4566"/>
<path d="M127.646 124.662H122.02V130.287H127.646V124.662Z" fill="#F37623"/>
<path d="M127.646 119.036H122.02V124.659H127.646V119.036Z" fill="black"/>
<path d="M127.646 113.41H122.02V119.036H127.646V113.41Z" fill="black"/>
<path d="M127.646 107.785H122.02V113.411H127.646V107.785Z" fill="#384C53"/>
<path d="M127.646 102.162H122.02V107.785H127.646V102.162Z" fill="black"/>
<path d="M127.646 96.5366H122.02V102.162H127.646V96.5366Z" fill="black"/>
<path d="M127.646 90.9109H122.02V96.5365H127.646V90.9109Z" fill="black"/>
<path d="M127.646 85.2882H122.02V90.9109H127.646V85.2882Z" fill="#DEE8ED"/>
<path d="M127.646 79.6627H122.02V85.2883H127.646V79.6627Z" fill="#DEE8ED"/>
<path d="M127.646 74.037H122.02V79.6626H127.646V74.037Z" fill="#C5D4DB"/>
<path d="M127.646 68.4144H122.02V74.0371H127.646V68.4144Z" fill="#C6D5DC"/>
<path d="M127.646 62.7888H122.02V68.4144H127.646V62.7888Z" fill="black"/>
<path d="M127.646 57.1631H122.02V62.7887H127.646V57.1631Z" fill="#F9A533"/>
<path d="M127.646 51.5376H122.02V57.1603H127.646V51.5376Z" fill="#F9A533"/>
<path d="M127.646 45.9149H122.02V51.5405H127.646V45.9149Z" fill="#F9A533"/>
<path d="M127.646 40.2894H122.02V45.912H127.646V40.2894Z" fill="#F37920"/>
<path d="M127.646 34.6637H122.02V40.2893H127.646V34.6637Z" fill="#F37920"/>
<path d="M127.646 29.0381H122.02V34.6637H127.646V29.0381Z" fill="black"/>
<path d="M133.269 186.531H127.646V192.157H133.269V186.531Z" fill="black"/>
<path d="M133.269 180.909H127.646V186.532H133.269V180.909Z" fill="black"/>
<path d="M133.269 175.283H127.646V180.909H133.269V175.283Z" fill="black"/>
<path d="M133.269 169.658H127.646V175.283H133.269V169.658Z" fill="#262B44"/>
<path d="M133.269 164.035H127.646V169.658H133.269V164.035Z" fill="#F37920"/>
<path d="M133.269 158.409H127.646V164.035H133.269V158.409Z" fill="#F9A533"/>
<path d="M133.269 152.784H127.646V158.409H133.269V152.784Z" fill="black"/>
<path d="M133.269 147.161H127.646V152.784H133.269V147.161Z" fill="black"/>
<path d="M133.269 141.535H127.646V147.161H133.269V141.535Z" fill="black"/>
<path d="M133.269 135.91H127.646V141.536H133.269V135.91Z" fill="black"/>
<path d="M133.269 130.284H127.646V135.907H133.269V130.284Z" fill="black"/>
<path d="M133.269 124.662H127.646V130.287H133.269V124.662Z" fill="black"/>
<path d="M133.269 119.036H127.646V124.659H133.269V119.036Z" fill="#5C6E73"/>
<path d="M133.269 113.41H127.646V119.036H133.269V113.41Z" fill="#7C8D92"/>
<path d="M133.269 107.785H127.646V113.411H133.269V107.785Z" fill="#5C6E73"/>
<path d="M133.269 102.162H127.646V107.785H133.269V102.162Z" fill="black"/>
<path d="M133.269 96.5366H127.646V102.162H133.269V96.5366Z" fill="#D2D17C"/>
<path d="M133.269 90.9109H127.646V96.5365H133.269V90.9109Z" fill="black"/>
<path d="M133.269 85.2882H127.646V90.9109H133.269V85.2882Z" fill="#A0AFB5"/>
<path d="M133.269 79.6627H127.646V85.2883H133.269V79.6627Z" fill="#DEE8ED"/>
<path d="M133.269 74.037H127.646V79.6626H133.269V74.037Z" fill="#DEE8ED"/>
<path d="M133.269 68.4144H127.646V74.0371H133.269V68.4144Z" fill="#DEE8ED"/>
<path d="M133.269 62.7888H127.646V68.4144H133.269V62.7888Z" fill="#9FAAB0"/>
<path d="M133.269 57.1631H127.646V62.7887H133.269V57.1631Z" fill="#F9A533"/>
<path d="M133.269 51.5376H127.646V57.1603H133.269V51.5376Z" fill="#F9A533"/>
<path d="M133.269 45.9149H127.646V51.5405H133.269V45.9149Z" fill="#F9A533"/>
<path d="M133.269 40.2894H127.646V45.912H133.269V40.2894Z" fill="#F37920"/>
<path d="M133.269 34.6637H127.646V40.2893H133.269V34.6637Z" fill="black"/>
<path d="M138.898 189.546H133.272V193.865H138.898V189.546Z" fill="black"/>
<path d="M138.898 185.227H133.272V189.546H138.898V185.227Z" fill="black"/>
<path d="M138.898 180.909H133.272V185.228H138.898V180.909Z" fill="#1498D5"/>
<path d="M138.898 175.283H133.272V180.909H138.898V175.283Z" fill="#1498D5"/>
<path d="M138.898 169.658H133.272V175.283H138.898V169.658Z" fill="black"/>
<path d="M138.898 164.035H133.272V169.658H138.898V164.035Z" fill="#262B44"/>
<path d="M138.898 158.409H133.272V164.035H138.898V158.409Z" fill="#5B6987"/>
<path d="M138.898 152.784H133.272V158.409H138.898V152.784Z" fill="black"/>
<path d="M138.898 147.161H133.272V152.784H138.898V147.161Z" fill="#5B6987"/>
<path d="M138.898 141.535H133.272V147.161H138.898V141.535Z" fill="#F9A533"/>
<path d="M138.898 135.91H133.272V141.536H138.898V135.91Z" fill="#F9A533"/>
<path d="M138.898 130.284H133.272V135.907H138.898V130.284Z" fill="#F9A533"/>
<path d="M138.898 124.662H133.272V130.287H138.898V124.662Z" fill="black"/>
<path d="M138.898 119.036H133.272V124.659H138.898V119.036Z" fill="black"/>
<path d="M138.898 113.41H133.272V119.036H138.898V113.41Z" fill="#909CA0"/>
<path d="M138.898 107.785H133.272V113.411H138.898V107.785Z" fill="#909CA0"/>
<path d="M138.898 102.162H133.272V107.785H138.898V102.162Z" fill="#7C8E93"/>
<path d="M138.898 96.5366H133.272V102.162H138.898V96.5366Z" fill="black"/>
<path d="M138.898 90.9109H133.272V96.5365H138.898V90.9109Z" fill="black"/>
<path d="M138.898 85.2882H133.272V90.9109H138.898V85.2882Z" fill="#A0AFB5"/>
<path d="M138.898 79.6627H133.272V85.2883H138.898V79.6627Z" fill="#DEE8ED"/>
<path d="M138.898 74.037H133.272V79.6626H138.898V74.037Z" fill="#DEE8ED"/>
<path d="M138.898 68.4144H133.272V74.0371H138.898V68.4144Z" fill="#DEE8ED"/>
<path d="M138.898 62.7888H133.272V68.4144H138.898V62.7888Z" fill="#B0BABE"/>
<path d="M138.898 57.1631H133.272V62.7887H138.898V57.1631Z" fill="#F9A533"/>
<path d="M138.898 51.5376H133.272V57.1603H138.898V51.5376Z" fill="#F9A533"/>
<path d="M138.898 45.9149H133.272V51.5405H138.898V45.9149Z" fill="#F9A533"/>
<path d="M138.898 40.2894H133.272V45.912H138.898V40.2894Z" fill="#F9A533"/>
<path d="M138.898 34.6637H133.272V40.2893H138.898V34.6637Z" fill="#F9A533"/>
<path d="M138.898 29.0381H133.272V34.6637H138.898V29.0381Z" fill="black"/>
<path d="M138.898 23.4155H133.272V29.0381H138.898V23.4155Z" fill="black"/>
<path d="M144.523 189.546H138.898V193.865H144.523V189.546Z" fill="black"/>
<path d="M144.523 185.227H138.898V189.546H144.523V185.227Z" fill="#3F2731"/>
<path d="M144.523 180.909H138.898V185.228H144.523V180.909Z" fill="#124F8A"/>
<path d="M144.523 175.283H138.898V180.909H144.523V175.283Z" fill="#124F8A"/>
<path d="M144.523 169.658H138.898V175.283H144.523V169.658Z" fill="black"/>
<path d="M144.523 164.035H138.898V169.658H144.523V164.035Z" fill="black"/>
<path d="M144.523 158.409H138.898V164.035H144.523V158.409Z" fill="black"/>
<path d="M144.523 152.784H138.898V158.409H144.523V152.784Z" fill="black"/>
<path d="M144.523 147.161H138.898V152.784H144.523V147.161Z" fill="#5B6987"/>
<path d="M144.523 141.535H138.898V147.161H144.523V141.535Z" fill="#F9A533"/>
<path d="M144.523 135.91H138.898V141.536H144.523V135.91Z" fill="#E43C45"/>
<path d="M144.523 130.284H138.898V135.907H144.523V130.284Z" fill="#F9A533"/>
<path d="M144.523 124.662H138.898V130.287H144.523V124.662Z" fill="black"/>
<path d="M144.523 119.036H138.898V124.659H144.523V119.036Z" fill="#5C6E73"/>
<path d="M144.523 113.41H138.898V119.036H144.523V113.41Z" fill="#7C8D92"/>
<path d="M144.523 107.785H138.898V113.411H144.523V107.785Z" fill="#5C6E73"/>
<path d="M144.523 102.162H138.898V107.785H144.523V102.162Z" fill="#C6D5DC"/>
<path d="M144.523 96.5366H138.898V102.162H144.523V96.5366Z" fill="#7C8E93"/>
<path d="M144.523 90.9109H138.898V96.5365H144.523V90.9109Z" fill="#384C53"/>
<path d="M144.523 85.2882H138.898V90.9109H144.523V85.2882Z" fill="#384C53"/>
<path d="M144.523 79.6627H138.898V85.2883H144.523V79.6627Z" fill="#DEE8ED"/>
<path d="M144.523 74.037H138.898V79.6626H144.523V74.037Z" fill="#DEE8ED"/>
<path d="M144.523 68.4144H138.898V74.0371H144.523V68.4144Z" fill="#DEE8ED"/>
<path d="M144.523 62.7888H138.898V68.4144H144.523V62.7888Z" fill="#B0BABE"/>
<path d="M144.523 57.1631H138.898V62.7887H144.523V57.1631Z" fill="#F9A533"/>
<path d="M144.523 51.5376H138.898V57.1603H144.523V51.5376Z" fill="#F9A533"/>
<path d="M144.523 45.9149H138.898V51.5405H144.523V45.9149Z" fill="#F9A533"/>
<path d="M144.523 40.2894H138.898V45.912H144.523V40.2894Z" fill="#E43C45"/>
<path d="M144.523 34.6637H138.898V40.2893H144.523V34.6637Z" fill="#E43C45"/>
<path d="M144.523 29.0381H138.898V34.6637H144.523V29.0381Z" fill="#F9A533"/>
<path d="M144.523 23.4155H138.898V29.0381H144.523V23.4155Z" fill="#F9A533"/>
<path d="M144.523 17.7899H138.898V23.4155H144.523V17.7899Z" fill="black"/>
<path d="M144.523 12.1643H138.898V17.7899H144.523V12.1643Z" fill="black"/>
<path d="M150.143 189.546H144.52V193.865H150.143V189.546Z" fill="black"/>
<path d="M150.143 185.227H144.52V189.546H150.143V185.227Z" fill="black"/>
<path d="M150.143 180.909H144.52V185.228H150.143V180.909Z" fill="black"/>
<path d="M150.143 175.283H144.52V180.909H150.143V175.283Z" fill="black"/>
<path d="M150.143 169.658H144.52V175.283H150.143V169.658Z" fill="black"/>
<path d="M150.143 164.035H144.52V169.658H150.143V164.035Z" fill="#1498D5"/>
<path d="M150.143 158.409H144.52V164.035H150.143V158.409Z" fill="#F9A533"/>
<path d="M150.143 152.784H144.52V158.409H150.143V152.784Z" fill="black"/>
<path d="M150.143 147.161H144.52V152.784H150.143V147.161Z" fill="#5B6987"/>
<path d="M150.143 141.535H144.52V147.161H150.143V141.535Z" fill="#A32633"/>
<path d="M150.143 135.91H144.52V141.536H150.143V135.91Z" fill="#DEE8ED"/>
<path d="M150.143 130.284H144.52V135.907H150.143V130.284Z" fill="#F9A533"/>
<path d="M150.143 124.662H144.52V130.287H150.143V124.662Z" fill="black"/>
<path d="M150.143 119.036H144.52V124.659H150.143V119.036Z" fill="black"/>
<path d="M150.143 113.41H144.52V119.036H150.143V113.41Z" fill="#909CA0"/>
<path d="M150.143 107.785H144.52V113.411H150.143V107.785Z" fill="#384C53"/>
<path d="M150.143 102.162H144.52V107.785H150.143V102.162Z" fill="black"/>
<path d="M150.143 96.5366H144.52V102.162H150.143V96.5366Z" fill="#919DA1"/>
<path d="M150.143 90.9109H144.52V96.5365H150.143V90.9109Z" fill="#7C8E93"/>
<path d="M150.143 85.2882H144.52V90.9109H150.143V85.2882Z" fill="#5C6E73"/>
<path d="M150.143 79.6627H144.52V85.2883H150.143V79.6627Z" fill="#DEE8ED"/>
<path d="M150.143 74.037H144.52V79.6626H150.143V74.037Z" fill="#DEE8ED"/>
<path d="M150.143 68.4144H144.52V74.0371H150.143V68.4144Z" fill="#DEE8ED"/>
<path d="M150.143 62.7888H144.52V68.4144H150.143V62.7888Z" fill="#B0BABE"/>
<path d="M150.143 57.1631H144.52V62.7887H150.143V57.1631Z" fill="#F9A533"/>
<path d="M150.143 51.5376H144.52V57.1603H150.143V51.5376Z" fill="#F9A533"/>
<path d="M150.143 45.9149H144.52V51.5405H150.143V45.9149Z" fill="#A32633"/>
<path d="M150.143 40.2894H144.52V45.912H150.143V40.2894Z" fill="#E43C45"/>
<path d="M150.143 34.6637H144.52V40.2893H150.143V34.6637Z" fill="white"/>
<path d="M150.143 29.0381H144.52V34.6637H150.143V29.0381Z" fill="#E43C45"/>
<path d="M150.143 23.4155H144.52V29.0381H150.143V23.4155Z" fill="#F37920"/>
<path d="M150.143 17.7899H144.52V23.4125H150.143V17.7899Z" fill="#F37920"/>
<path d="M150.143 12.1643H144.52V17.7899H150.143V12.1643Z" fill="#F9A533"/>
<path d="M150.143 6.54156H144.52V12.1642H150.143V6.54156Z" fill="black"/>
<path d="M150.143 0.915955H144.52V6.54155H150.143V0.915955Z" fill="black"/>
<path d="M155.771 186.531H150.146V192.157H155.771V186.531Z" fill="black"/>
<path d="M155.771 180.909H150.146V186.532H155.771V180.909Z" fill="#A32633"/>
<path d="M155.771 175.283H150.146V180.909H155.771V175.283Z" fill="#A32633"/>
<path d="M155.771 169.658H150.146V175.283H155.771V169.658Z" fill="black"/>
<path d="M155.771 164.035H150.146V169.658H155.771V164.035Z" fill="#1498D5"/>
<path d="M155.771 158.409H150.146V164.035H155.771V158.409Z" fill="#F9A533"/>
<path d="M155.771 152.784H150.146V158.409H155.771V152.784Z" fill="black"/>
<path d="M155.771 147.161H150.146V152.784H155.771V147.161Z" fill="#5B6987"/>
<path d="M155.771 141.535H150.146V147.161H155.771V141.535Z" fill="#A32633"/>
<path d="M155.771 135.91H150.146V141.536H155.771V135.91Z" fill="#A32633"/>
<path d="M155.771 130.284H150.146V135.907H155.771V130.284Z" fill="#F9A533"/>
<path d="M155.771 124.662H150.146V130.287H155.771V124.662Z" fill="black"/>
<path d="M155.771 119.036H150.146V124.659H155.771V119.036Z" fill="#5C6E73"/>
<path d="M155.771 113.41H150.146V119.036H155.771V113.41Z" fill="#7C8D92"/>
<path d="M155.771 107.785H150.146V113.411H155.771V107.785Z" fill="#49636C"/>
<path d="M155.771 102.162H150.146V107.785H155.771V102.162Z" fill="#384C53"/>
<path d="M155.771 96.5366H150.146V102.162H155.771V96.5366Z" fill="#919DA1"/>
<path d="M155.771 90.9109H150.146V96.5365H155.771V90.9109Z" fill="#7C8E93"/>
<path d="M155.771 85.2882H150.146V90.9109H155.771V85.2882Z" fill="#5C6E73"/>
<path d="M155.771 79.6627H150.146V85.2883H155.771V79.6627Z" fill="#DEE8ED"/>
<path d="M155.771 74.037H150.146V79.6626H155.771V74.037Z" fill="#DEE8ED"/>
<path d="M155.771 68.4144H150.146V74.0371H155.771V68.4144Z" fill="#DEE8ED"/>
<path d="M155.771 62.7888H150.146V68.4144H155.771V62.7888Z" fill="#B0BABE"/>
<path d="M155.771 57.1631H150.146V62.7887H155.771V57.1631Z" fill="#F9A533"/>
<path d="M155.771 51.5376H150.146V57.1603H155.771V51.5376Z" fill="#F9A533"/>
<path d="M155.771 45.9149H150.146V51.5405H155.771V45.9149Z" fill="#F9A533"/>
<path d="M155.771 40.2894H150.146V45.912H155.771V40.2894Z" fill="#A32633"/>
<path d="M155.771 34.6637H150.146V40.2893H155.771V34.6637Z" fill="#F37920"/>
<path d="M155.771 29.0381H150.146V34.6637H155.771V29.0381Z" fill="#F37920"/>
<path d="M155.771 23.4155H150.146V29.0381H155.771V23.4155Z" fill="#F37920"/>
<path d="M155.771 17.7899H150.146V23.4155H155.771V17.7899Z" fill="black"/>
<path d="M155.771 12.1643H150.146V17.7899H155.771V12.1643Z" fill="black"/>
<path d="M161.397 186.531H155.771V192.157H161.397V186.531Z" fill="black"/>
<path d="M161.397 180.909H155.771V186.532H161.397V180.909Z" fill="#A32633"/>
<path d="M161.397 175.283H155.771V180.909H161.397V175.283Z" fill="#A32633"/>
<path d="M161.397 169.658H155.771V175.283H161.397V169.658Z" fill="black"/>
<path d="M161.397 164.035H155.771V169.658H161.397V164.035Z" fill="#1498D5"/>
<path d="M161.397 158.409H155.771V164.035H161.397V158.409Z" fill="#F37920"/>
<path d="M161.397 152.784H155.771V158.409H161.397V152.784Z" fill="black"/>
<path d="M161.397 147.161H155.771V152.784H161.397V147.161Z" fill="#3B4566"/>
<path d="M161.397 141.535H155.771V147.161H161.397V141.535Z" fill="#F37623"/>
<path d="M161.397 135.91H155.771V141.536H161.397V135.91Z" fill="#A32633"/>
<path d="M161.397 130.284H155.771V135.907H161.397V130.284Z" fill="#F9A533"/>
<path d="M161.397 124.662H155.771V130.287H161.397V124.662Z" fill="black"/>
<path d="M161.397 119.036H155.771V124.659H161.397V119.036Z" fill="black"/>
<path d="M161.397 113.41H155.771V119.036H161.397V113.41Z" fill="#909CA0"/>
<path d="M161.397 107.785H155.771V113.411H161.397V107.785Z" fill="#5C6E73"/>
<path d="M161.397 102.162H155.771V107.785H161.397V102.162Z" fill="#C6D5DC"/>
<path d="M161.397 96.5366H155.771V102.162H161.397V96.5366Z" fill="#7C8E93"/>
<path d="M161.397 90.9109H155.771V96.5365H161.397V90.9109Z" fill="#384C53"/>
<path d="M161.397 85.2882H155.771V90.9109H161.397V85.2882Z" fill="#384C53"/>
<path d="M161.397 79.6627H155.771V85.2883H161.397V79.6627Z" fill="#DEE8ED"/>
<path d="M161.397 74.037H155.771V79.6626H161.397V74.037Z" fill="#DEE8ED"/>
<path d="M161.397 68.4144H155.771V74.0371H161.397V68.4144Z" fill="#DEE8ED"/>
<path d="M161.397 62.7888H155.771V68.4144H161.397V62.7888Z" fill="#9FAAB0"/>
<path d="M161.397 57.1631H155.771V62.7887H161.397V57.1631Z" fill="#F9A533"/>
<path d="M161.397 51.5376H155.771V57.1603H161.397V51.5376Z" fill="#F9A533"/>
<path d="M161.397 45.9149H155.771V51.5405H161.397V45.9149Z" fill="#F9A533"/>
<path d="M161.397 40.2894H155.771V45.912H161.397V40.2894Z" fill="#F9A533"/>
<path d="M161.397 34.6637H155.771V40.2893H161.397V34.6637Z" fill="#F37920"/>
<path d="M161.397 29.0381H155.771V34.6637H161.397V29.0381Z" fill="black"/>
<path d="M161.397 23.4155H155.771V29.0381H161.397V23.4155Z" fill="black"/>
<path d="M167.019 186.531H161.396V192.157H167.019V186.531Z" fill="black"/>
<path d="M167.019 180.909H161.396V186.532H167.019V180.909Z" fill="#A32633"/>
<path d="M167.019 175.283H161.396V180.909H167.019V175.283Z" fill="#A32633"/>
<path d="M167.019 169.658H161.396V175.283H167.019V169.658Z" fill="black"/>
<path d="M167.019 164.035H161.396V169.658H167.019V164.035Z" fill="#124F8A"/>
<path d="M167.019 158.409H161.396V164.035H167.019V158.409Z" fill="#3F2731"/>
<path d="M167.019 152.784H161.396V158.409H167.019V152.784Z" fill="black"/>
<path d="M167.019 147.161H161.396V152.784H167.019V147.161Z" fill="#3B4566"/>
<path d="M167.019 141.535H161.396V147.161H167.019V141.535Z" fill="#F37623"/>
<path d="M167.019 135.91H161.396V141.536H167.019V135.91Z" fill="#F37623"/>
<path d="M167.019 130.284H161.396V135.907H167.019V130.284Z" fill="#F37623"/>
<path d="M167.019 124.662H161.396V130.287H167.019V124.662Z" fill="black"/>
<path d="M167.019 119.036H161.396V124.659H167.019V119.036Z" fill="#5C6E73"/>
<path d="M167.019 113.41H161.396V119.036H167.019V113.41Z" fill="#7C8D92"/>
<path d="M167.019 107.785H161.396V113.411H167.019V107.785Z" fill="#909CA0"/>
<path d="M167.019 102.162H161.396V107.785H167.019V102.162Z" fill="#7C8E93"/>
<path d="M167.019 96.5366H161.396V102.162H167.019V96.5366Z" fill="black"/>
<path d="M167.019 90.9109H161.396V96.5365H167.019V90.9109Z" fill="black"/>
<path d="M167.019 85.2882H161.396V90.9109H167.019V85.2882Z" fill="#A0AFB5"/>
<path d="M167.019 79.6627H161.396V85.2883H167.019V79.6627Z" fill="#DEE8ED"/>
<path d="M167.019 74.037H161.396V79.6626H167.019V74.037Z" fill="#C6D5DC"/>
<path d="M167.019 68.4144H161.396V74.0371H167.019V68.4144Z" fill="#DEE8ED"/>
<path d="M167.019 62.7888H161.396V68.4144H167.019V62.7888Z" fill="#9FAAB0"/>
<path d="M167.019 57.1631H161.396V62.7887H167.019V57.1631Z" fill="#F37920"/>
<path d="M167.019 51.5376H161.396V57.1603H167.019V51.5376Z" fill="#F9A533"/>
<path d="M167.019 45.9149H161.396V51.5405H167.019V45.9149Z" fill="#F9A533"/>
<path d="M167.019 40.2894H161.396V45.912H167.019V40.2894Z" fill="#F9A533"/>
<path d="M167.019 34.6637H161.396V40.2893H167.019V34.6637Z" fill="#F37920"/>
<path d="M167.019 29.0381H161.396V34.6637H167.019V29.0381Z" fill="black"/>
<path d="M172.645 186.531H167.019V192.157H172.645V186.531Z" fill="black"/>
<path d="M172.645 180.909H167.019V186.532H172.645V180.909Z" fill="#A32633"/>
<path d="M172.645 175.283H167.019V180.909H172.645V175.283Z" fill="#A32633"/>
<path d="M172.645 169.658H167.019V175.283H172.645V169.658Z" fill="black"/>
<path d="M172.645 164.035H167.019V169.658H172.645V164.035Z" fill="#124F8A"/>
<path d="M172.645 158.409H167.019V164.035H172.645V158.409Z" fill="#3F2731"/>
<path d="M172.645 152.784H167.019V158.409H172.645V152.784Z" fill="black"/>
<path d="M172.645 147.161H167.019V152.784H172.645V147.161Z" fill="#3B4566"/>
<path d="M172.645 141.535H167.019V147.161H172.645V141.535Z" fill="#5B6987"/>
<path d="M172.645 135.91H167.019V141.536H172.645V135.91Z" fill="#F37623"/>
<path d="M172.645 130.284H167.019V135.907H172.645V130.284Z" fill="#F37623"/>
<path d="M172.645 124.662H167.019V130.287H172.645V124.662Z" fill="black"/>
<path d="M172.645 119.036H167.019V124.659H172.645V119.036Z" fill="black"/>
<path d="M172.645 113.41H167.019V119.036H172.645V113.41Z" fill="#5C6E73"/>
<path d="M172.645 107.785H167.019V113.411H172.645V107.785Z" fill="#5C6E73"/>
<path d="M172.645 102.162H167.019V107.785H172.645V102.162Z" fill="black"/>
<path d="M172.645 96.5366H167.019V102.162H172.645V96.5366Z" fill="#D2D17C"/>
<path d="M172.645 90.9109H167.019V96.5365H172.645V90.9109Z" fill="black"/>
<path d="M172.645 85.2882H167.019V90.9109H172.645V85.2882Z" fill="#A0AFB5"/>
<path d="M172.645 79.6627H167.019V85.2883H172.645V79.6627Z" fill="#DEE8ED"/>
<path d="M172.645 74.037H167.019V79.6626H172.645V74.037Z" fill="#C6D5DC"/>
<path d="M172.645 68.4144H167.019V74.0371H172.645V68.4144Z" fill="#C6D5DC"/>
<path d="M172.645 62.7888H167.019V68.4144H172.645V62.7888Z" fill="#9FAAB0"/>
<path d="M172.645 57.1631H167.019V62.7887H172.645V57.1631Z" fill="#F37920"/>
<path d="M172.645 51.5376H167.019V57.1603H172.645V51.5376Z" fill="#F37920"/>
<path d="M172.645 45.9149H167.019V51.5405H172.645V45.9149Z" fill="#F9A533"/>
<path d="M172.645 40.2894H167.019V45.912H172.645V40.2894Z" fill="#F9A533"/>
<path d="M172.645 34.6637H167.019V40.2893H172.645V34.6637Z" fill="black"/>
<path d="M178.268 186.531H172.645V192.157H178.268V186.531Z" fill="black"/>
<path d="M178.268 180.909H172.645V186.532H178.268V180.909Z" fill="#A32633"/>
<path d="M178.268 175.283H172.645V180.909H178.268V175.283Z" fill="black"/>
<path d="M178.268 169.658H172.645V175.283H178.268V169.658Z" fill="black"/>
<path d="M178.268 164.035H172.645V169.658H178.268V164.035Z" fill="black"/>
<path d="M178.268 158.409H172.645V164.035H178.268V158.409Z" fill="black"/>
<path d="M178.268 152.784H172.645V158.409H178.268V152.784Z" fill="#3F2731"/>
<path d="M178.268 147.161H172.645V152.784H178.268V147.161Z" fill="black"/>
<path d="M178.268 141.535H172.645V147.161H178.268V141.535Z" fill="#3B4566"/>
<path d="M178.268 135.91H172.645V141.536H178.268V135.91Z" fill="#5B6987"/>
<path d="M178.268 130.284H172.645V135.907H178.268V130.284Z" fill="#5B6987"/>
<path d="M178.268 124.662H172.645V130.287H178.268V124.662Z" fill="black"/>
<path d="M178.268 119.036H172.645V124.659H178.268V119.036Z" fill="#5C6E73"/>
<path d="M178.268 113.41H172.645V119.036H178.268V113.41Z" fill="#384C53"/>
<path d="M178.268 107.785H172.645V113.411H178.268V107.785Z" fill="#384C53"/>
<path d="M178.268 102.162H172.645V107.785H178.268V102.162Z" fill="black"/>
<path d="M178.268 96.5366H172.645V102.162H178.268V96.5366Z" fill="black"/>
<path d="M178.268 90.9109H172.645V96.5365H178.268V90.9109Z" fill="black"/>
<path d="M178.268 85.2882H172.645V90.9109H178.268V85.2882Z" fill="#DEE8ED"/>
<path d="M178.268 79.6627H172.645V85.2883H178.268V79.6627Z" fill="#C6D5DC"/>
<path d="M178.268 74.037H172.645V79.6626H178.268V74.037Z" fill="#C6D5DC"/>
<path d="M178.268 68.4144H172.645V74.0371H178.268V68.4144Z" fill="#C6D5DC"/>
<path d="M178.268 62.7888H172.645V68.4144H178.268V62.7888Z" fill="#9FAAB0"/>
<path d="M178.268 57.1631H172.645V62.7887H178.268V57.1631Z" fill="#F37920"/>
<path d="M178.268 51.5376H172.645V57.1603H178.268V51.5376Z" fill="#F37920"/>
<path d="M178.268 45.9149H172.645V51.5405H178.268V45.9149Z" fill="#F9A533"/>
<path d="M178.268 40.2894H172.645V45.912H178.268V40.2894Z" fill="#F9A533"/>
<path d="M178.268 34.6637H172.645V40.2893H178.268V34.6637Z" fill="black"/>
<path d="M183.893 189.546H178.268V193.865H183.893V189.546Z" fill="black"/>
<path d="M183.893 185.227H178.268V189.546H183.893V185.227Z" fill="black"/>
<path d="M183.893 180.909H178.268V185.228H183.893V180.909Z" fill="black"/>
<path d="M183.893 175.283H178.268V180.909H183.893V175.283Z" fill="#1498D5"/>
<path d="M183.893 169.658H178.268V175.283H183.893V169.658Z" fill="black"/>
<path d="M183.893 164.035H178.268V169.658H183.893V164.035Z" fill="#5B6987"/>
<path d="M183.893 158.409H178.268V164.035H183.893V158.409Z" fill="#5B6987"/>
<path d="M183.893 152.784H178.268V158.409H183.893V152.784Z" fill="black"/>
<path d="M183.893 147.161H178.268V152.784H183.893V147.161Z" fill="#3F2731"/>
<path d="M183.893 141.535H178.268V147.161H183.893V141.535Z" fill="black"/>
<path d="M189.519 135.91H183.893V141.536H189.519V135.91Z" fill="black"/>
<path d="M183.893 135.91H178.268V141.536H183.893V135.91Z" fill="black"/>
<path d="M183.893 130.284H178.268V135.907H183.893V130.284Z" fill="black"/>
<path d="M183.893 107.785H178.268V113.411H183.893V107.785Z" fill="#5C6E73"/>
<path d="M183.893 102.162H178.268V107.785H183.893V102.162Z" fill="#5C6E73"/>
<path d="M183.893 96.5366H178.268V102.162H183.893V96.5366Z" fill="#384C53"/>
<path d="M183.893 90.9109H178.268V96.5365H183.893V90.9109Z" fill="#DEE8ED"/>
<path d="M183.893 85.2882H178.268V90.9109H183.893V85.2882Z" fill="#C6D5DC"/>
<path d="M183.893 79.6627H178.268V85.2883H183.893V79.6627Z" fill="#C6D5DC"/>
<path d="M183.893 74.037H178.268V79.6626H183.893V74.037Z" fill="#C6D5DC"/>
<path d="M183.893 68.4144H178.268V74.0371H183.893V68.4144Z" fill="#C6D5DC"/>
<path d="M183.893 62.7888H178.268V68.4144H183.893V62.7888Z" fill="#9FAAB0"/>
<path d="M183.893 57.1631H178.268V62.7887H183.893V57.1631Z" fill="#F37920"/>
<path d="M183.893 51.5376H178.268V57.1603H183.893V51.5376Z" fill="#F37920"/>
<path d="M183.893 45.9149H178.268V51.5405H183.893V45.9149Z" fill="#F9A533"/>
<path d="M183.893 40.2894H178.268V45.912H183.893V40.2894Z" fill="#F9A533"/>
<path d="M183.893 34.6637H178.268V40.2893H183.893V34.6637Z" fill="black"/>
<path d="M189.519 189.546H183.893V193.865H189.519V189.546Z" fill="black"/>
<path d="M189.519 185.227H183.893V189.546H189.519V185.227Z" fill="#3F2731"/>
<path d="M189.519 180.909H183.893V185.228H189.519V180.909Z" fill="#124F8A"/>
<path d="M189.519 175.283H183.893V180.909H189.519V175.283Z" fill="black"/>
<path d="M189.519 169.658H183.893V175.283H189.519V169.658Z" fill="#262B44"/>
<path d="M189.519 164.035H183.893V169.658H189.519V164.035Z" fill="#F37920"/>
<path d="M189.519 158.409H183.893V164.035H189.519V158.409Z" fill="#F9A533"/>
<path d="M189.519 152.784H183.893V158.409H189.519V152.784Z" fill="black"/>
<path d="M189.519 147.161H183.893V152.784H189.519V147.161Z" fill="black"/>
<path d="M189.519 141.535H183.893V147.161H189.519V141.535Z" fill="#A32633"/>
<path d="M189.519 102.162H183.893V107.785H189.519V102.162Z" fill="#919DA1"/>
<path d="M189.519 96.5366H183.893V102.162H189.519V96.5366Z" fill="#384C53"/>
<path d="M189.519 90.9109H183.893V96.5365H189.519V90.9109Z" fill="#384C53"/>
<path d="M189.519 85.2882H183.893V90.9109H189.519V85.2882Z" fill="#C6D5DC"/>
<path d="M189.519 79.6627H183.893V85.2883H189.519V79.6627Z" fill="#C6D5DC"/>
<path d="M189.519 74.037H183.893V79.6626H189.519V74.037Z" fill="#C6D5DC"/>
<path d="M189.519 68.4144H183.893V74.0371H189.519V68.4144Z" fill="#C6D5DC"/>
<path d="M189.519 62.7888H183.893V68.4144H189.519V62.7888Z" fill="#9FAAB0"/>
<path d="M189.519 57.1631H183.893V62.7887H189.519V57.1631Z" fill="#F37920"/>
<path d="M189.519 51.5376H183.893V57.1603H189.519V51.5376Z" fill="#F37920"/>
<path d="M189.519 45.9149H183.893V51.5405H189.519V45.9149Z" fill="#F9A533"/>
<path d="M189.519 40.2894H183.893V45.912H189.519V40.2894Z" fill="#F9A533"/>
<path d="M189.519 34.6637H183.893V40.2893H189.519V34.6637Z" fill="black"/>
<path d="M195.141 189.546H189.519V193.865H195.141V189.546Z" fill="black"/>
<path d="M195.141 185.227H189.519V192.157H195.141V185.227Z" fill="black"/>
<path d="M195.141 180.909H189.519V185.228H195.141V180.909Z" fill="black"/>
<path d="M195.141 175.283H189.519V180.909H195.141V175.283Z" fill="black"/>
<path d="M195.141 169.658H189.519V175.283H195.141V169.658Z" fill="#262B44"/>
<path d="M195.141 164.035H189.519V169.658H195.141V164.035Z" fill="#F37920"/>
<path d="M195.141 158.409H189.519V164.035H195.141V158.409Z" fill="#F37920"/>
<path d="M195.141 152.784H189.519V158.409H195.141V152.784Z" fill="black"/>
<path d="M195.141 147.161H189.519V152.784H195.141V147.161Z" fill="#F9A533"/>
<path d="M195.141 141.535H189.519V147.161H195.141V141.535Z" fill="#A32633"/>
<path d="M195.141 102.162H189.519V107.785H195.141V102.162Z" fill="#919DA1"/>
<path d="M195.141 96.5366H189.519V102.162H195.141V96.5366Z" fill="#5C6E73"/>
<path d="M195.141 90.9109H189.519V96.5365H195.141V90.9109Z" fill="#384C53"/>
<path d="M195.141 85.2882H189.519V90.9109H195.141V85.2882Z" fill="#384C53"/>
<path d="M195.141 79.6627H189.519V85.2883H195.141V79.6627Z" fill="#919DA1"/>
<path d="M195.141 74.037H189.519V79.6626H195.141V74.037Z" fill="#919DA1"/>
<path d="M195.141 68.4144H189.519V74.0371H195.141V68.4144Z" fill="#919DA1"/>
<path d="M195.141 62.7888H189.519V68.4144H195.141V62.7888Z" fill="black"/>
<path d="M195.141 57.1631H189.519V62.7887H195.141V57.1631Z" fill="#F37920"/>
<path d="M195.141 51.5376H189.519V57.1603H195.141V51.5376Z" fill="#F37920"/>
<path d="M195.141 45.9149H189.519V51.5405H195.141V45.9149Z" fill="#F37920"/>
<path d="M195.141 40.2894H189.519V45.912H195.141V40.2894Z" fill="#F9A533"/>
<path d="M195.141 34.6637H189.519V40.2893H195.141V34.6637Z" fill="#F9A533"/>
<path d="M195.141 29.0381H189.519V34.6637H195.141V29.0381Z" fill="black"/>
<path d="M200.767 186.531H195.141V192.157H200.767V186.531Z" fill="black"/>
<path d="M200.767 180.909H195.141V186.532H200.767V180.909Z" fill="#A32633"/>
<path d="M200.767 175.283H195.141V180.909H200.767V175.283Z" fill="black"/>
<path d="M200.767 169.658H195.141V175.283H200.767V169.658Z" fill="black"/>
<path d="M200.767 164.035H195.141V169.658H200.767V164.035Z" fill="black"/>
<path d="M200.767 158.409H195.141V164.035H200.767V158.409Z" fill="black"/>
<path d="M200.767 152.784H195.141V158.409H200.767V152.784Z" fill="#C5D4DB"/>
<path d="M200.767 147.161H195.141V152.784H200.767V147.161Z" fill="#F37920"/>
<path d="M200.767 141.535H195.141V147.161H200.767V141.535Z" fill="#3F2731"/>
<path d="M200.767 102.162H195.141V107.785H200.767V102.162Z" fill="#919DA1"/>
<path d="M200.767 96.5366H195.141V102.162H200.767V96.5366Z" fill="#919DA1"/>
<path d="M200.767 90.9109H195.141V96.5365H200.767V90.9109Z" fill="#919DA1"/>
<path d="M200.767 85.2882H195.141V90.9109H200.767V85.2882Z" fill="#919DA1"/>
<path d="M200.767 79.6627H195.141V85.2883H200.767V79.6627Z" fill="#919DA1"/>
<path d="M200.767 74.037H195.141V79.6626H200.767V74.037Z" fill="#919DA1"/>
<path d="M200.767 68.4144H195.141V74.0371H200.767V68.4144Z" fill="#919DA1"/>
<path d="M200.767 62.7888H195.141V68.4144H200.767V62.7888Z" fill="black"/>
<path d="M200.767 57.1631H195.141V62.7887H200.767V57.1631Z" fill="#F37920"/>
<path d="M200.767 51.5376H195.141V57.1603H200.767V51.5376Z" fill="#F37920"/>
<path d="M200.767 45.9149H195.141V51.5405H200.767V45.9149Z" fill="#F37920"/>
<path d="M200.767 40.2894H195.141V45.912H200.767V40.2894Z" fill="#F9A533"/>
<path d="M200.767 34.6637H195.141V40.2893H200.767V34.6637Z" fill="#F9A533"/>
<path d="M200.767 29.0381H195.141V34.6637H200.767V29.0381Z" fill="#F9A533"/>
<path d="M200.767 23.4155H195.141V29.0381H200.767V23.4155Z" fill="black"/>
<path d="M206.393 186.531H200.767V192.157H206.393V186.531Z" fill="black"/>
<path d="M206.393 180.909H200.767V186.532H206.393V180.909Z" fill="#A32633"/>
<path d="M206.393 175.283H200.767V180.909H206.393V175.283Z" fill="#A32633"/>
<path d="M206.393 169.658H200.767V175.283H206.393V169.658Z" fill="#A32633"/>
<path d="M206.393 164.035H200.767V169.658H206.393V164.035Z" fill="#A32633"/>
<path d="M206.393 158.409H200.767V164.035H206.393V158.409Z" fill="black"/>
<path d="M206.393 152.784H200.767V158.409H206.393V152.784Z" fill="#C5D4DB"/>
<path d="M206.393 147.161H200.767V152.784H206.393V147.161Z" fill="#C5D4DB"/>
<path d="M206.393 141.535H200.767V147.161H206.393V141.535Z" fill="#F37920"/>
<path d="M206.393 102.162H200.767V107.785H206.393V102.162Z" fill="black"/>
<path d="M200.77 107.788H195.144V113.41H200.77V107.788Z" fill="black"/>
<path d="M195.144 107.788H189.519V113.41H195.144V107.788Z" fill="black"/>
<path d="M189.519 107.788H183.893V113.41H189.519V107.788Z" fill="black"/>
<path d="M183.893 113.413H178.268V119.036H183.893V113.413Z" fill="black"/>
<path d="M183.893 119.036H178.268V124.659H183.893V119.036Z" fill="black"/>
<path d="M183.893 124.662H178.268V130.284H183.893V124.662Z" fill="black"/>
<path d="M206.393 96.5366H200.767V102.162H206.393V96.5366Z" fill="black"/>
<path d="M206.393 90.9109H200.767V96.5365H206.393V90.9109Z" fill="black"/>
<path d="M206.393 85.2882H200.767V90.9109H206.393V85.2882Z" fill="black"/>
<path d="M206.393 79.6627H200.767V85.2883H206.393V79.6627Z" fill="black"/>
<path d="M206.393 74.037H200.767V79.6626H206.393V74.037Z" fill="black"/>
<path d="M206.393 68.4144H200.767V74.0371H206.393V68.4144Z" fill="black"/>
<path d="M206.393 62.7888H200.767V68.4144H206.393V62.7888Z" fill="black"/>
<path d="M206.393 57.1631H200.767V62.7887H206.393V57.1631Z" fill="black"/>
<path d="M206.393 51.5376H200.767V57.1603H206.393V51.5376Z" fill="black"/>
<path d="M206.393 45.9149H200.767V51.5405H206.393V45.9149Z" fill="#F37920"/>
<path d="M206.393 40.2894H200.767V45.912H206.393V40.2894Z" fill="#F37920"/>
<path d="M206.393 34.6637H200.767V40.2893H206.393V34.6637Z" fill="#F37920"/>
<path d="M206.393 29.0381H200.767V34.6637H206.393V29.0381Z" fill="#F9A533"/>
<path d="M206.393 23.4155H200.767V29.0381H206.393V23.4155Z" fill="#F9A533"/>
<path d="M206.393 17.7899H200.767V23.4155H206.393V17.7899Z" fill="black"/>
<path d="M212.016 186.531H206.393V192.157H212.016V186.531Z" fill="black"/>
<path d="M212.016 180.909H206.393V186.532H212.016V180.909Z" fill="#A32633"/>
<path d="M212.016 175.283H206.393V180.909H212.016V175.283Z" fill="#A32633"/>
<path d="M212.016 169.658H206.393V175.283H212.016V169.658Z" fill="#A32633"/>
<path d="M212.016 164.035H206.393V169.658H212.016V164.035Z" fill="#A32633"/>
<path d="M212.016 158.409H206.393V164.035H212.016V158.409Z" fill="#A32633"/>
<path d="M212.016 152.784H206.393V158.409H212.016V152.784Z" fill="black"/>
<path d="M212.016 147.161H206.393V152.784H212.016V147.161Z" fill="black"/>
<path d="M212.016 141.535H206.393V147.161H212.016V141.535Z" fill="black"/>
<path d="M206.419 135.936H194.522V141.562H206.419V135.936Z" fill="black"/>
<path d="M212.016 45.9149H206.393V51.5405H212.016V45.9149Z" fill="black"/>
<path d="M212.016 40.2894H206.393V45.912H212.016V40.2894Z" fill="black"/>
<path d="M212.016 34.6637H206.393V40.2893H212.016V34.6637Z" fill="black"/>
<path d="M212.016 29.0381H206.393V34.6637H212.016V29.0381Z" fill="black"/>
<path d="M212.016 23.4155H206.393V29.0381H212.016V23.4155Z" fill="black"/>
<path d="M212.016 17.7899H206.393V23.4155H212.016V17.7899Z" fill="black"/>
<path d="M212.016 12.1643H206.393V17.7899H212.016V12.1643Z" fill="black"/>
<path d="M217.644 186.531H212.019V192.157H217.644V186.531Z" fill="black"/>
<path d="M217.644 180.909H212.019V186.532H217.644V180.909Z" fill="#A32633"/>
<path d="M217.644 175.283H212.019V180.909H217.644V175.283Z" fill="#A32633"/>
<path d="M217.644 169.658H212.019V175.283H217.644V169.658Z" fill="#A32633"/>
<path d="M217.644 164.035H212.019V169.658H217.644V164.035Z" fill="black"/>
<path d="M217.644 158.409H212.019V164.035H217.644V158.409Z" fill="black"/>
<path d="M217.644 152.784H212.019V158.409H217.644V152.784Z" fill="black"/>
<path d="M217.644 147.161H212.019V152.784H217.644V147.161Z" fill="black"/>
<path d="M217.644 141.535H212.019V147.161H217.644V141.535Z" fill="black"/>
<path d="M223.27 186.531H217.644V192.157H223.27V186.531Z" fill="black"/>
<path d="M223.27 180.909H217.644V186.532H223.27V180.909Z" fill="#A32633"/>
<path d="M223.27 175.283H217.644V180.909H223.27V175.283Z" fill="#A32633"/>
<path d="M223.27 169.658H217.644V175.283H223.27V169.658Z" fill="black"/>
<path d="M228.889 186.531H223.267V192.157H228.889V186.531Z" fill="black"/>
<path d="M228.889 180.909H223.267V186.532H228.889V180.909Z" fill="#A32633"/>
<path d="M228.889 175.283H223.267V180.909H228.889V175.283Z" fill="black"/>
<path d="M234.518 186.531H228.892V192.157H234.518V186.531Z" fill="black"/>
<path d="M234.518 180.909H228.892V186.532H234.518V180.909Z" fill="black"/>
<path d="M240.141 186.531H234.518V192.157H240.141V186.531Z" fill="black"/>
<path d="M85.5664 160.898L82.7146 165.747L87.5612 168.597L90.4131 163.748L85.5664 160.898Z" fill="black"/>
<path d="M80.7175 158.049L77.8657 162.898L82.7149 165.75L85.5667 160.901L80.7175 158.049Z" fill="black"/>
<path d="M75.867 155.197L73.0151 160.046L77.8643 162.898L80.7161 158.048L75.867 155.197Z" fill="black"/>
<path d="M93.2666 158.904L90.4163 163.75L95.2654 166.602L98.1158 161.756L93.2666 158.904Z" fill="black"/>
<path d="M88.4163 156.053L85.5659 160.899L90.4126 163.75L93.2629 158.903L88.4163 156.053Z" fill="#F37623"/>
<path d="M83.5657 153.2L80.7153 158.047L85.5645 160.899L88.4148 156.052L83.5657 153.2Z" fill="#FAAC35"/>
<path d="M78.7168 150.349L75.8665 155.195L80.7156 158.047L83.566 153.2L78.7168 150.349Z" fill="black"/>
<path d="M39.9299 127.539L37.0796 132.386L41.9288 135.238L44.7791 130.391L39.9299 127.539Z" fill="black"/>
<path d="M35.0793 124.688L32.229 129.535L37.0757 132.385L39.926 127.538L35.0793 124.688Z" fill="black"/>
<path d="M29.9384 122.763L27.0708 127.598L31.9088 130.468L34.7764 125.632L29.9384 122.763Z" fill="black"/>
<path d="M100.967 156.908L98.1154 161.757L102.965 164.609L105.816 159.759L100.967 156.908Z" fill="black"/>
<path d="M96.1165 154.052L93.2646 158.901L98.1138 161.753L100.966 156.904L96.1165 154.052Z" fill="#F37623"/>
<path d="M91.1069 152.34L88.2378 157.178L93.0733 160.045L95.9424 155.207L91.1069 152.34Z" fill="#FAAC35"/>
<path d="M86.4199 148.352L83.5681 153.202L88.4173 156.053L91.2691 151.204L86.4199 148.352Z" fill="#FAAC35"/>
<path d="M81.5696 145.498L78.7178 150.348L83.5669 153.199L86.4188 148.35L81.5696 145.498Z" fill="black"/>
<path d="M57.3267 131.243L54.4749 136.092L59.324 138.944L62.1758 134.094L57.3267 131.243Z" fill="black"/>
<path d="M52.2394 129.381L49.3704 134.219L54.2084 137.088L57.0774 132.25L52.2394 129.381Z" fill="black"/>
<path d="M47.6301 125.54L44.7783 130.389L49.625 133.239L52.4768 128.39L47.6301 125.54Z" fill="black"/>
<path d="M42.7796 122.687L39.9277 127.537L44.7769 130.388L47.6287 125.539L42.7796 122.687Z" fill="white"/>
<path d="M37.9346 119.838L35.0828 124.687L39.9294 127.537L42.7812 122.688L37.9346 119.838Z" fill="white"/>
<path d="M33.0801 116.988L30.2283 121.837L35.0774 124.689L37.9293 119.839L33.0801 116.988Z" fill="white"/>
<path d="M27.9484 115.032L25.0793 119.87L29.9174 122.739L32.7864 117.901L27.9484 115.032Z" fill="black"/>
<path d="M23.3845 111.283L20.5327 116.132L25.3794 118.982L28.2312 114.133L23.3845 111.283Z" fill="black"/>
<path d="M108.668 154.907L105.816 159.756L110.663 162.607L113.515 157.757L108.668 154.907Z" fill="black"/>
<path d="M103.818 152.058L100.966 156.908L105.815 159.759L108.667 154.91L103.818 152.058Z" fill="black"/>
<path d="M98.9678 149.205L96.116 154.054L100.965 156.906L103.817 152.056L98.9678 149.205Z" fill="#F37623"/>
<path d="M94.1201 146.353L91.2683 151.203L96.115 154.053L98.9668 149.204L94.1201 146.353Z" fill="#FAAC35"/>
<path d="M89.2722 143.502L86.4204 148.351L91.2696 151.203L94.1214 146.354L89.2722 143.502Z" fill="black"/>
<path d="M84.4231 140.651L81.5713 145.5L86.4205 148.352L89.2723 143.503L84.4231 140.651Z" fill="black"/>
<path d="M79.5757 137.8L76.7239 142.649L81.5705 145.499L84.4224 140.65L79.5757 137.8Z" fill="black"/>
<path d="M74.5419 136.003L71.6729 140.841L76.5109 143.71L79.3799 138.872L74.5419 136.003Z" fill="black"/>
<path d="M69.8733 132.096L67.0215 136.945L71.8707 139.797L74.7225 134.947L69.8733 132.096Z" fill="black"/>
<path d="M65.0283 129.246L62.1765 134.095L67.0232 136.946L69.875 132.096L65.0283 129.246Z" fill="black"/>
<path d="M60.1782 126.393L57.3264 131.243L62.1756 134.094L65.0274 129.245L60.1782 126.393Z" fill="white"/>
<path d="M55.3289 123.542L52.4771 128.391L57.3262 131.243L60.178 126.394L55.3289 123.542Z" fill="white"/>
<path d="M50.4783 120.691L47.6265 125.54L52.4731 128.39L55.3249 123.541L50.4783 120.691Z" fill="white"/>
<path d="M45.6309 117.84L42.7791 122.689L47.6282 125.541L50.48 120.692L45.6309 117.84Z" fill="white"/>
<path d="M40.7832 114.989L37.9314 119.838L42.778 122.688L45.6299 117.839L40.7832 114.989Z" fill="white"/>
<path d="M35.9353 112.135L33.0835 116.984L37.9327 119.836L40.7845 114.986L35.9353 112.135Z" fill="white"/>
<path d="M30.8207 110.175L27.9517 115.013L32.7897 117.882L35.6587 113.044L30.8207 110.175Z" fill="white"/>
<path d="M26.2388 106.435L23.387 111.284L28.2336 114.135L31.0854 109.285L26.2388 106.435Z" fill="white"/>
<path d="M21.388 103.581L18.5361 108.43L23.3853 111.282L26.2371 106.433L21.388 103.581Z" fill="black"/>
<path d="M16.5364 100.731L13.6846 105.58L18.5337 108.432L21.3856 103.583L16.5364 100.731Z" fill="black"/>
<path d="M111.417 151.236L108.549 156.071L113.385 158.939L116.252 154.103L111.417 151.236Z" fill="black"/>
<path d="M106.669 147.208L103.819 152.055L108.668 154.906L111.519 150.06L106.669 147.208Z" fill="black"/>
<path d="M101.821 144.359L98.9703 149.206L103.82 152.058L106.67 147.211L101.821 144.359Z" fill="#FAAC35"/>
<path d="M96.97 141.508L94.1196 146.355L98.9663 149.205L101.817 144.359L96.97 141.508Z" fill="#E33C45"/>
<path d="M92.1221 138.654L89.2717 143.501L94.1209 146.353L96.9712 141.506L92.1221 138.654Z" fill="#E33C45"/>
<path d="M87.2705 135.804L84.4202 140.651L89.2693 143.503L92.1197 138.656L87.2705 135.804Z" fill="white"/>
<path d="M82.4255 132.954L79.5752 137.801L84.4218 140.651L87.2722 135.805L82.4255 132.954Z" fill="white"/>
<path d="M77.575 130.099L74.7246 134.946L79.5738 137.798L82.4241 132.951L77.575 130.099Z" fill="white"/>
<path d="M72.7246 127.248L69.8743 132.095L74.7234 134.946L77.5738 130.1L72.7246 127.248Z" fill="white"/>
<path d="M67.8755 124.399L65.0251 129.246L69.8718 132.096L72.7222 127.25L67.8755 124.399Z" fill="white"/>
<path d="M63.0276 121.548L60.1772 126.395L65.0264 129.247L67.8768 124.4L63.0276 121.548Z" fill="white"/>
<path d="M57.9787 119.666L55.1111 124.502L59.9491 127.371L62.8167 122.535L57.9787 119.666Z" fill="#FAAC35"/>
<path d="M53.3325 115.843L50.4822 120.69L55.3288 123.54L58.1792 118.694L53.3325 115.843Z" fill="#FAAC35"/>
<path d="M48.4832 112.995L45.6328 117.841L50.482 120.693L53.3323 115.846L48.4832 112.995Z" fill="#FAAC35"/>
<path d="M43.6326 110.141L40.7822 114.987L45.6289 117.838L48.4792 112.991L43.6326 110.141Z" fill="white"/>
<path d="M38.547 108.188L35.6794 113.024L40.5175 115.893L43.385 111.057L38.547 108.188Z" fill="white"/>
<path d="M33.9375 104.438L31.0872 109.285L35.9363 112.137L38.7867 107.29L33.9375 104.438Z" fill="white"/>
<path d="M29.0881 101.587L26.2378 106.434L31.0845 109.284L33.9348 104.437L29.0881 101.587Z" fill="white"/>
<path d="M24.238 98.7343L21.3877 103.581L26.2369 106.433L29.0872 101.586L24.238 98.7343Z" fill="white"/>
<path d="M19.3877 95.8833L16.5374 100.73L21.3865 103.582L24.2369 98.7352L19.3877 95.8833Z" fill="white"/>
<path d="M14.5381 93.0347L11.6877 97.8813L16.5344 100.732L19.3847 95.885L14.5381 93.0347Z" fill="black"/>
<path d="M9.69067 90.1807L6.84033 95.0273L11.6895 97.8792L14.5399 93.0325L9.69067 90.1807Z" fill="black"/>
<path d="M124.068 150.914L121.216 155.763L126.062 158.613L128.914 153.764L124.068 150.914Z" fill="#743F3A"/>
<path d="M119.217 148.063L116.366 152.912L121.215 155.764L124.067 150.915L119.217 148.063Z" fill="#743F3A"/>
<path d="M116.366 152.91L113.515 157.76L118.364 160.611L121.216 155.762L116.366 152.91Z" fill="black"/>
<path d="M121.132 156.972L118.263 161.81L123.101 164.679L125.97 159.841L121.132 156.972Z" fill="black"/>
<path d="M114.37 145.209L111.518 150.058L116.364 152.908L119.216 148.059L114.37 145.209Z" fill="#3F2731"/>
<path d="M109.522 142.358L106.671 147.207L111.52 150.059L114.372 145.21L109.522 142.358Z" fill="#3F2731"/>
<path d="M104.67 139.508L101.818 144.357L106.668 147.209L109.519 142.359L104.67 139.508Z" fill="#A22633"/>
<path d="M99.8252 136.655L96.9734 141.504L101.82 144.355L104.672 139.505L99.8252 136.655Z" fill="#E33C45"/>
<path d="M94.9722 133.802L92.1204 138.652L96.9695 141.503L99.8214 136.654L94.9722 133.802Z" fill="white"/>
<path d="M90.1233 130.954L87.2715 135.803L92.1207 138.655L94.9725 133.806L90.1233 130.954Z" fill="#E33C45"/>
<path d="M85.2752 128.1L82.4233 132.949L87.27 135.799L90.1218 130.95L85.2752 128.1Z" fill="#F37623"/>
<path d="M80.4277 125.249L77.5759 130.098L82.4251 132.95L85.2769 128.101L80.4277 125.249Z" fill="#F37623"/>
<path d="M75.423 123.418L72.554 128.256L77.392 131.125L80.261 126.287L75.423 123.418Z" fill="#F37623"/>
<path d="M70.7278 119.549L67.876 124.398L72.7226 127.249L75.5745 122.4L70.7278 119.549Z" fill="#F37623"/>
<path d="M65.8804 116.695L63.0286 121.544L67.8777 124.396L70.7296 119.547L65.8804 116.695Z" fill="#FAAC35"/>
<path d="M61.0327 113.844L58.1809 118.693L63.0301 121.545L65.8819 116.696L61.0327 113.844Z" fill="#FAAC35"/>
<path d="M55.9911 111.94L53.1221 116.778L57.9576 119.646L60.8266 114.807L55.9911 111.94Z" fill="#FAAC35"/>
<path d="M51.3357 108.142L48.4839 112.991L53.3331 115.843L56.1849 110.993L51.3357 108.142Z" fill="#FAAC35"/>
<path d="M46.4883 105.29L43.6365 110.14L48.4831 112.99L51.3349 108.141L46.4883 105.29Z" fill="#F37623"/>
<path d="M41.6353 102.438L38.7834 107.287L43.6326 110.139L46.4844 105.29L41.6353 102.438Z" fill="#F37623"/>
<path d="M36.7859 99.5864L33.9341 104.436L38.7833 107.287L41.6351 102.438L36.7859 99.5864Z" fill="white"/>
<path d="M31.9409 96.7368L29.0891 101.586L33.9358 104.436L36.7876 99.5871L31.9409 96.7368Z" fill="white"/>
<path d="M27.0908 93.8842L24.239 98.7333L29.0882 101.585L31.94 96.736L27.0908 93.8842Z" fill="white"/>
<path d="M22.2415 91.0357L19.3896 95.8848L24.2388 98.7366L27.0906 93.8875L22.2415 91.0357Z" fill="white"/>
<path d="M17.3909 88.1817L14.5391 93.0309L19.3857 95.8812L22.2375 91.032L17.3909 88.1817Z" fill="white"/>
<path d="M12.5435 85.3306L9.69165 90.1797L14.5408 93.0316L17.3926 88.1824L12.5435 85.3306Z" fill="white"/>
<path d="M7.41154 83.2403L4.54248 88.0783L9.38049 90.9474L12.2495 86.1093L7.41154 83.2403Z" fill="black"/>
<path d="M2.84645 79.6279L-0.00537109 84.4771L4.84128 87.3274L7.6931 82.4783L2.84645 79.6279Z" fill="black"/>
<path d="M126.919 146.066L124.067 150.915L128.914 153.766L131.766 148.916L126.919 146.066Z" fill="black"/>
<path d="M122.069 143.211L119.217 148.06L124.066 150.912L126.918 146.063L122.069 143.211Z" fill="black"/>
<path d="M117.223 140.361L114.372 145.21L119.218 148.061L122.07 143.211L117.223 140.361Z" fill="black"/>
<path d="M112.37 137.508L109.518 142.358L114.368 145.209L117.219 140.36L112.37 137.508Z" fill="black"/>
<path d="M107.521 134.657L104.67 139.506L109.519 142.358L112.371 137.509L107.521 134.657Z" fill="#F37623"/>
<path d="M102.674 131.806L99.8219 136.655L104.669 139.506L107.52 134.656L102.674 131.806Z" fill="#A22633"/>
<path d="M97.8259 128.955L94.9741 133.804L99.8233 136.656L102.675 131.807L97.8259 128.955Z" fill="#A22633"/>
<path d="M92.9771 126.106L90.1252 130.956L94.9744 133.807L97.8262 128.958L92.9771 126.106Z" fill="#BFC9DA"/>
<path d="M88.1294 123.252L85.2776 128.101L90.1242 130.952L92.9761 126.103L88.1294 123.252Z" fill="#BFC9DA"/>
<path d="M83.2786 120.401L80.4268 125.25L85.2759 128.102L88.1277 123.253L83.2786 120.401Z" fill="#BFC9DA"/>
<path d="M78.4309 117.55L75.5791 122.399L80.4283 125.251L83.2801 120.402L78.4309 117.55Z" fill="#BFC9DA"/>
<path d="M73.5821 114.699L70.7302 119.548L75.5769 122.398L78.4287 117.549L73.5821 114.699Z" fill="#BFC9DA"/>
<path d="M68.7319 111.846L65.8801 116.695L70.7293 119.547L73.5811 114.698L68.7319 111.846Z" fill="#BFC9DA"/>
<path d="M63.8841 108.995L61.0322 113.844L65.8814 116.696L68.7332 111.847L63.8841 108.995Z" fill="#F37623"/>
<path d="M59.0335 106.141L56.1816 110.99L61.0283 113.841L63.8801 108.991L59.0335 106.141Z" fill="#F37623"/>
<path d="M54.1846 103.292L51.3328 108.142L56.1819 110.993L59.0338 106.144L54.1846 103.292Z" fill="#F37623"/>
<path d="M49.3367 100.441L46.4849 105.29L51.3315 108.141L54.1833 103.292L49.3367 100.441Z" fill="#BFC9DA"/>
<path d="M44.489 97.5902L41.6372 102.439L46.4864 105.291L49.3382 100.442L44.489 97.5902Z" fill="#BFC9DA"/>
<path d="M39.6402 94.7387L36.7883 99.5878L41.6375 102.44L44.4893 97.5905L39.6402 94.7387Z" fill="#BFC9DA"/>
<path d="M34.7896 91.8876L31.9377 96.7368L36.7844 99.5872L39.6362 94.738L34.7896 91.8876Z" fill="#BFC9DA"/>
<path d="M29.9417 89.0366L27.0898 93.8857L31.939 96.7376L34.7908 91.8884L29.9417 89.0366Z" fill="#BFC9DA"/>
<path d="M24.8559 86.9893L21.9868 91.8273L26.8248 94.6964L29.6939 89.8584L24.8559 86.9893Z" fill="#BFC9DA"/>
<path d="M20.2451 83.3339L17.3933 88.1831L22.24 91.0334L25.0918 86.1843L20.2451 83.3339Z" fill="black"/>
<path d="M15.3972 80.4829L12.5454 85.3321L17.3946 88.1839L20.2464 83.3347L15.3972 80.4829Z" fill="black"/>
<path d="M115.223 132.663L112.373 137.51L117.222 140.362L120.072 135.515L115.223 132.663Z" fill="black"/>
<path d="M120.026 136.584L117.159 141.42L121.997 144.289L124.864 139.453L120.026 136.584Z" fill="black"/>
<path d="M110.376 129.809L107.526 134.656L112.375 137.508L115.225 132.661L110.376 129.809Z" fill="#F37623"/>
<path d="M105.523 126.961L102.673 131.808L107.519 134.658L110.37 129.811L105.523 126.961Z" fill="#F37623"/>
<path d="M100.594 125.182L97.7263 130.018L102.564 132.887L105.432 128.051L100.594 125.182Z" fill="black"/>
<path d="M95.8281 121.256L92.9778 126.102L97.827 128.954L100.677 124.108L95.8281 121.256Z" fill="black"/>
<path d="M90.9807 118.405L88.1304 123.251L92.977 126.102L95.8274 121.255L90.9807 118.405Z" fill="black"/>
<path d="M86.1287 115.555L83.2783 120.401L88.1275 123.253L90.9778 118.406L86.1287 115.555Z" fill="black"/>
<path d="M81.2783 112.701L78.428 117.547L83.2771 120.399L86.1275 115.552L81.2783 112.701Z" fill="black"/>
<path d="M76.4334 109.851L73.583 114.698L78.4297 117.548L81.28 112.701L76.4334 109.851Z" fill="black"/>
<path d="M71.5813 107.001L68.731 111.848L73.5801 114.699L76.4305 109.853L71.5813 107.001Z" fill="#BFC9DA"/>
<path d="M66.7339 104.147L63.8835 108.994L68.7327 111.845L71.5831 106.999L66.7339 104.147Z" fill="#BFC9DA"/>
<path d="M61.8862 101.296L59.0359 106.143L63.8826 108.993L66.7329 104.146L61.8862 101.296Z" fill="#BFC9DA"/>
<path d="M57.0354 98.4447L54.1851 103.291L59.0342 106.143L61.8846 101.297L57.0354 98.4447Z" fill="#BFC9DA"/>
<path d="M52.0123 96.4855L49.1448 101.321L53.9803 104.189L56.8479 99.3531L52.0123 96.4855Z" fill="#BFC9DA"/>
<path d="M47.3389 92.7451L44.4885 97.5918L49.3377 100.444L52.188 95.597L47.3389 92.7451Z" fill="#BFC9DA"/>
<path d="M42.4912 89.891L39.6409 94.7377L44.49 97.5895L47.3404 92.7428L42.4912 89.891Z" fill="#BFC9DA"/>
<path d="M37.6433 87.04L34.793 91.8867L39.6396 94.737L42.49 89.8903L37.6433 87.04Z" fill="#BFC9DA"/>
<path d="M32.7915 84.1914L29.9412 89.0381L34.7903 91.8899L37.6407 87.0433L32.7915 84.1914Z" fill="black"/>
<path d="M27.9414 81.3359L25.0911 86.1826L29.9403 89.0344L32.7906 84.1877L27.9414 81.3359Z" fill="black"/>
<path d="M118.075 127.813L115.224 132.662L120.073 135.514L122.925 130.665L118.075 127.813Z" fill="black"/>
<path d="M113.181 126.062L110.312 130.9L115.15 133.769L118.019 128.931L113.181 126.062Z" fill="#F37623"/>
<path d="M108.379 122.111L105.527 126.96L110.374 129.81L113.226 124.961L108.379 122.111Z" fill="#F37623"/>
<path d="M103.465 120.323L100.596 125.161L105.434 128.03L108.303 123.192L103.465 120.323Z" fill="#F37623"/>
<path d="M98.678 116.404L95.8262 121.253L100.675 124.105L103.527 119.256L98.678 116.404Z" fill="black"/>
<path d="M74.4341 102.151L71.5823 107L76.4314 109.852L79.2833 105.003L74.4341 102.151Z" fill="black"/>
<path d="M69.5864 99.2967L66.7346 104.146L71.5838 106.998L74.4356 102.149L69.5864 99.2967Z" fill="black"/>
<path d="M64.7385 96.4457L61.8867 101.295L66.7334 104.145L69.5852 99.296L64.7385 96.4457Z" fill="black"/>
<path d="M59.8897 93.5971L57.0378 98.4463L61.887 101.298L64.7388 96.4489L59.8897 93.5971Z" fill="#BFC9DA"/>
<path d="M55.0391 90.746L52.1873 95.5952L57.0339 98.4456L59.8857 93.5964L55.0391 90.746Z" fill="#BFC9DA"/>
<path d="M50.1912 87.892L47.3394 92.7411L52.1885 95.593L55.0403 90.7438L50.1912 87.892Z" fill="#BFC9DA"/>
<path d="M45.3411 85.0395L42.4893 89.8887L47.3384 92.7405L50.1902 87.8913L45.3411 85.0395Z" fill="black"/>
<path d="M40.4946 82.1924L37.6428 87.0416L42.4895 89.8919L45.3413 85.0427L40.4946 82.1924Z" fill="black"/>
<path d="M116.075 120.113L113.225 124.959L118.074 127.811L120.924 122.964L116.075 120.113Z" fill="black"/>
<path d="M111.193 118.338L108.325 123.174L113.16 126.041L116.028 121.206L111.193 118.338Z" fill="#F37623"/>
<path d="M106.378 114.41L103.528 119.257L108.377 122.109L111.227 117.262L106.378 114.41Z" fill="#F37623"/>
<path d="M101.528 111.559L98.6776 116.406L103.527 119.257L106.377 114.411L101.528 111.559Z" fill="black"/>
<path d="M62.7407 88.7495L59.8904 93.5961L64.7396 96.448L67.5899 91.6013L62.7407 88.7495Z" fill="black"/>
<path d="M57.8933 85.8955L55.043 90.7422L59.8896 93.5925L62.74 88.7459L57.8933 85.8955Z" fill="black"/>
<path d="M53.0413 83.0454L50.1909 87.892L55.0401 90.7439L57.8904 85.8972L53.0413 83.0454Z" fill="black"/>
<path d="M114.078 112.411L111.226 117.26L116.073 120.11L118.925 115.261L114.078 112.411Z" fill="black"/>
<path d="M109.231 109.56L106.379 114.409L111.228 117.261L114.08 112.412L109.231 109.56Z" fill="black"/>
<path d="M104.383 106.709L101.531 111.558L106.381 114.41L109.232 109.561L104.383 106.709Z" fill="black"/>
<path d="M102.387 99.0071L99.5349 103.856L104.382 106.707L107.233 101.857L102.387 99.0071Z" fill="black"/>
<path d="M110.082 97.0116L107.231 101.858L112.08 104.71L114.931 99.8634L110.082 97.0116Z" fill="black"/>
<path d="M105.237 94.162L102.386 99.0086L107.233 101.859L110.083 97.0123L105.237 94.162Z" fill="black"/>
<path d="M100.386 91.3094L97.5356 96.156L102.385 99.0078L105.235 94.1612L100.386 91.3094Z" fill="black"/>
<path d="M183.106 110.792L178.148 113.444L180.8 118.402L185.758 115.75L183.106 110.792Z" fill="black"/>
<path d="M188.067 108.139L183.106 110.793L185.758 115.751L190.719 113.097L188.067 108.139Z" fill="black"/>
<path d="M193.028 105.485L188.07 108.137L190.722 113.095L195.68 110.443L193.028 105.485Z" fill="black"/>
<path d="M180.803 118.402L175.842 121.055L178.495 126.016L183.456 123.363L180.803 118.402Z" fill="black"/>
<path d="M185.757 115.75L180.799 118.402L183.452 123.362L188.41 120.711L185.757 115.75Z" fill="#FAAC35"/>
<path d="M190.721 113.098L185.76 115.751L188.413 120.711L193.374 118.058L190.721 113.098Z" fill="white"/>
<path d="M195.679 110.447L190.721 113.098L193.374 118.059L198.332 115.407L195.679 110.447Z" fill="#A22633"/>
<path d="M200.64 107.791L195.679 110.444L198.332 115.405L203.293 112.752L200.64 107.791Z" fill="black"/>
<path d="M205.601 105.14L200.64 107.793L203.293 112.754L208.254 110.101L205.601 105.14Z" fill="black"/>
<path d="M210.558 102.487L205.6 105.138L208.253 110.099L213.211 107.447L210.558 102.487Z" fill="black"/>
<path d="M215.519 99.8342L210.558 102.487L213.211 107.448L218.172 104.795L215.519 99.8342Z" fill="black"/>
<path d="M220.477 97.1832L215.516 99.8364L218.17 104.797L223.13 102.144L220.477 97.1832Z" fill="black"/>
<path d="M225.438 94.5292L220.48 97.181L223.133 102.142L228.091 99.4899L225.438 94.5292Z" fill="black"/>
<path d="M178.493 126.016L173.532 128.669L176.184 133.627L181.145 130.974L178.493 126.016Z" fill="black"/>
<path d="M183.454 123.363L178.493 126.017L181.145 130.975L186.105 128.321L183.454 123.363Z" fill="#5B6987"/>
<path d="M188.413 120.711L183.455 123.363L186.106 128.321L191.064 125.669L188.413 120.711Z" fill="#FAAC35"/>
<path d="M193.373 118.058L188.413 120.712L191.065 125.67L196.025 123.017L193.373 118.058Z" fill="#A22633"/>
<path d="M198.332 115.407L193.374 118.059L196.025 123.017L200.983 120.365L198.332 115.407Z" fill="#E33C45"/>
<path d="M203.294 112.752L198.334 115.406L200.985 120.364L205.946 117.711L203.294 112.752Z" fill="#FAAC35"/>
<path d="M208.252 110.099L203.292 112.752L205.944 117.71L210.904 115.057L208.252 110.099Z" fill="#FAAC35"/>
<path d="M213.211 107.447L208.252 110.099L210.904 115.057L215.862 112.405L213.211 107.447Z" fill="#F37623"/>
<path d="M218.171 104.795L213.211 107.448L215.863 112.406L220.823 109.753L218.171 104.795Z" fill="#F37623"/>
<path d="M223.135 102.143L218.175 104.796L220.826 109.754L225.787 107.101L223.135 102.143Z" fill="black"/>
<path d="M181.144 130.974L176.183 133.627L178.837 138.588L183.797 135.935L181.144 130.974Z" fill="black"/>
<path d="M186.108 128.322L181.147 130.975L183.8 135.935L188.761 133.282L186.108 128.322Z" fill="#5B6987"/>
<path d="M191.063 125.672L186.105 128.324L188.758 133.284L193.716 130.633L191.063 125.672Z" fill="#F37623"/>
<path d="M196.024 123.017L191.063 125.67L193.717 130.63L198.677 127.977L196.024 123.017Z" fill="#F37623"/>
<path d="M200.983 120.366L196.025 123.018L198.678 127.978L203.636 125.326L200.983 120.366Z" fill="#FAAC35"/>
<path d="M205.946 117.713L200.986 120.366L203.639 125.327L208.599 122.674L205.946 117.713Z" fill="#F37623"/>
<path d="M210.905 115.058L205.945 117.711L208.598 122.672L213.559 120.019L210.905 115.058Z" fill="#F37623"/>
<path d="M215.861 112.406L210.903 115.058L213.556 120.018L218.514 117.366L215.861 112.406Z" fill="#F37623"/>
<path d="M220.825 109.753L215.865 112.406L218.518 117.367L223.478 114.714L220.825 109.753Z" fill="black"/>
<path d="M183.802 135.933L178.841 138.587L181.494 143.547L186.455 140.894L183.802 135.933Z" fill="black"/>
<path d="M188.76 133.282L183.799 135.936L186.453 140.896L191.413 138.243L188.76 133.282Z" fill="#5B6987"/>
<path d="M193.719 130.632L188.761 133.283L191.414 138.244L196.372 135.592L193.719 130.632Z" fill="#3B4566"/>
<path d="M198.678 127.977L193.717 130.63L196.37 135.59L201.331 132.937L198.678 127.977Z" fill="#3B4566"/>
<path d="M203.637 125.324L198.678 127.976L201.332 132.936L206.29 130.285L203.637 125.324Z" fill="#F37623"/>
<path d="M208.597 122.672L203.637 125.325L206.29 130.285L211.25 127.632L208.597 122.672Z" fill="#F37623"/>
<path d="M213.558 120.019L208.598 122.672L211.251 127.633L216.212 124.98L213.558 120.019Z" fill="#F37623"/>
<path d="M218.517 117.369L213.559 120.021L216.212 124.982L221.17 122.33L218.517 117.369Z" fill="#3B4566"/>
<path d="M223.476 114.715L218.516 117.368L221.169 122.328L226.129 119.675L223.476 114.715Z" fill="black"/>
<path d="M191.411 138.244L186.45 140.897L189.102 145.855L194.063 143.202L191.411 138.244Z" fill="black"/>
<path d="M196.369 135.59L191.411 138.241L194.063 143.2L199.021 140.548L196.369 135.59Z" fill="black"/>
<path d="M201.333 132.937L196.372 135.591L199.024 140.549L203.985 137.895L201.333 132.937Z" fill="black"/>
<path d="M206.289 130.288L201.331 132.939L203.983 137.898L208.941 135.246L206.289 130.288Z" fill="#5B6987"/>
<path d="M211.25 127.635L206.289 130.288L208.941 135.246L213.902 132.593L211.25 127.635Z" fill="#3B4566"/>
<path d="M216.212 124.977L211.251 127.631L213.903 132.589L218.864 129.935L216.212 124.977Z" fill="#3B4566"/>
<path d="M221.17 122.326L216.212 124.978L218.864 129.936L223.822 127.284L221.17 122.326Z" fill="black"/>
<path d="M208.942 135.245L203.984 137.896L206.638 142.857L211.596 140.205L208.942 135.245Z" fill="black"/>
<path d="M213.903 132.592L208.943 135.245L211.596 140.206L216.556 137.553L213.903 132.592Z" fill="black"/>
<path d="M218.863 129.938L213.903 132.592L216.556 137.552L221.517 134.899L218.863 129.938Z" fill="black"/>
<path d="M293.648 185.657V178.725L287.762 178.655V95.519H293.648V88.5864H358.384V130.188H340.729V144.056H358.384V185.657H293.648Z" fill="black"/>
<path d="M299.543 102.455H293.657V171.722H299.543V178.655H352.506V150.989H317.189V150.921H334.843V123.255H352.498V95.5191H299.543V102.455Z" fill="black"/>
<path d="M441.644 298.312V237.203H422.195V191.35H500V237.185H480.547V298.295L441.644 298.312Z" fill="black"/>
<path d="M428.677 198.99V229.545H448.13V290.582H474.062V229.545H493.515V198.99H428.677Z" fill="black"/>
<path d="M273.07 298.312V290.672L266.584 290.596V198.99H273.07V191.35H344.39V298.312H273.07Z" fill="black"/>
<path d="M279.552 206.628H273.07V282.942H279.552V290.582H337.907V229.545H305.487V260.024H311.972V260.103H299.005V229.545H337.893V198.99H279.552V206.628Z" fill="black"/>
<path d="M72.3347 298.312V191.35H111.243H150.131V298.312H72.3347Z" fill="black"/>
<path d="M117.719 206.628V229.545H104.752V198.99H78.8167V290.582H104.752V260.024H117.719V290.582H143.654V244.823V198.99H117.719V206.628Z" fill="black"/>
<path d="M344.39 298.312V191.35H383.278H422.166V298.312H344.39Z" fill="black"/>
<path d="M389.775 206.628V229.545H376.807V198.99H350.872V290.582H376.807V260.024H389.775V290.582H415.71V198.99H389.775V206.628Z" fill="black"/>
<path d="M266.585 191.35H227.697V298.312H266.585V191.35Z" fill="black"/>
<path d="M234.167 206.628V290.582H260.102V198.99H234.167V206.628Z" fill="black"/>
<path d="M217.381 185.657V88.5835H282.116V95.5161H287.999V178.725H282.116V185.657H217.381Z" fill="black"/>
<path d="M276.227 102.455V95.5191H223.261V178.725H276.227V171.792H282.113V102.455H276.227ZM258.573 130.188V150.989H246.801V123.255H258.573V130.188Z" fill="black"/>
<path d="M358.383 185.657V95.519H364.269V88.5864H423.119V95.519H429.004V185.657H358.383Z" fill="black"/>
<path d="M417.236 102.455V95.5191H370.161V102.455H364.275V178.725H387.815V150.989H399.584V178.725H423.124V102.455H417.236Z" fill="black"/>
<path d="M429.005 185.657V88.5835H493.743V95.5161H499.629V178.725H493.743V185.657H429.005Z" fill="black"/>
<path d="M487.857 102.455V95.5191H434.89V178.725H487.857V171.792H493.74V102.455H487.857ZM470.199 130.188V150.989H458.431V123.255H470.199V130.188Z" fill="black"/>
<path d="M149.88 298.312V191.35H221.2V198.99H227.682V298.312H149.88Z" fill="black"/>
<path d="M214.717 206.628V198.99H156.362V290.582H182.294V229.545H195.261V290.582H221.197V206.628H214.717Z" fill="black"/>
<path d="M282.113 171.722H276.227V178.655H223.261V109.317H276.227V116.252H282.113V171.722ZM258.573 164.786V123.185H246.801V164.786H258.573Z" fill="#9E8D61"/>
<path d="M352.498 178.655H299.543V171.722H293.66V116.252H299.543V109.317H352.509V123.185H317.188V137.053H334.843V150.921H317.188V164.786H352.498V178.655Z" fill="#9E8D61"/>
<path d="M423.119 178.655H399.578V150.921H387.809V178.655H364.269V116.252H370.155V109.317H417.23V116.252H423.113L423.119 178.655ZM399.578 137.053V123.185H387.809V137.053H399.578Z" fill="#9E8D61"/>
<path d="M493.74 171.722H487.857V178.655H434.89V109.317H487.857V116.252H493.74V171.722ZM470.199 164.786V123.185H458.431V164.786H470.199Z" fill="#9E8D61"/>
<path d="M143.654 290.582H117.719V260.024H104.752V290.582H78.8167V214.192H104.752V244.747H117.719V214.192H143.654V244.747H137.169V260.024H143.654V290.582Z" fill="#9E8D61"/>
<path d="M221.199 290.582H195.264V229.472H182.294V290.582H156.359V214.192H214.717V221.829H221.199V290.582Z" fill="#9E8D61"/>
<path d="M260.102 290.582H234.167V214.192H260.102V290.582Z" fill="#9E8D61"/>
<path d="M337.907 290.582H279.552V282.942H273.07V221.832H279.552V214.192H337.907V229.469H299.02V275.304H311.984V260.024H305.502V244.747H337.922L337.907 290.582Z" fill="#9E8D61"/>
<path d="M415.71 290.582H389.775V260.024H376.807V290.582H350.872V214.192H376.807V244.747H389.775V214.192H415.71V290.582Z" fill="#9E8D61"/>
<path d="M493.515 229.469H474.062V290.579H448.13V229.469H428.677V214.192H493.515V229.469Z" fill="#9E8D61"/>
<path d="M282.113 164.857H276.227V171.792H223.261V102.455H276.227V109.387H282.113V164.857ZM258.573 157.924V116.32H246.801V157.924H258.573Z" fill="#876C1F"/>
<path d="M352.498 171.792H299.543V164.857H293.66V109.387H299.543V102.455H352.509V116.32H317.188V130.188H334.843V144.056H317.188V157.924H352.498V171.792Z" fill="#876C1F"/>
<path d="M423.119 171.792H399.578V144.056H387.809V171.792H364.269V109.387H370.155V102.455H417.23V109.387H423.113L423.119 171.792ZM399.578 130.188V116.32H387.809V130.188H399.578Z" fill="#876C1F"/>
<path d="M493.74 164.857H487.857V171.792H434.89V102.455H487.857V109.387H493.74V164.857ZM470.199 157.924V116.32H458.431V157.924H470.199Z" fill="#876C1F"/>
<path d="M143.654 283.018H117.719V252.463H104.752V283.018H78.8167V206.628H104.752V237.185H117.719V206.628H143.654V237.185H137.169V252.463H143.654V283.018Z" fill="#876C1F"/>
<path d="M221.199 283.018H195.264V221.908H182.294V283.018H156.359V206.628H214.717V214.268H221.199V283.018Z" fill="#876C1F"/>
<path d="M260.102 283.018H234.167V206.628H260.102V283.018Z" fill="#876C1F"/>
<path d="M337.907 283.018H279.552V275.38H273.07V214.271H279.552V206.63H337.907V221.908H299.02V267.743H311.984V252.466H305.502V237.188H337.922L337.907 283.018Z" fill="#876C1F"/>
<path d="M415.71 283.018H389.775V252.463H376.807V283.018H350.872V206.628H376.807V237.185H389.775V206.628H415.71V283.018Z" fill="#876C1F"/>
<path d="M493.515 221.905H474.062V283.015H448.13V221.905H428.677V206.628H493.515V221.905Z" fill="#876C1F"/>
<path d="M234.427 198.99H260.362V275.38H234.427V198.99ZM276.239 164.857H223.261V95.5191H276.227V102.455H282.113V157.924H276.227L276.239 164.857ZM258.584 109.387H246.801V150.989H258.573L258.584 109.387ZM299.779 164.857H352.746V150.989H317.422V137.123H335.077V123.255H317.422V109.387H352.734V95.5191H299.768V102.455H293.882V157.924H299.768L299.779 164.857ZM117.719 229.545H104.752V198.99H78.8167V275.38H104.752V244.823H117.719V275.38H143.654V244.823H137.169V229.545H143.654V198.99H117.719V229.545ZM214.974 198.99H156.622V275.38H182.557V214.271H195.524V275.38H221.474V206.628H214.974V198.99ZM488.091 164.857H435.124V95.5191H488.091V102.455H493.982V157.924H488.097L488.091 164.857ZM470.436 109.387H458.667V150.989H470.436V109.387ZM279.812 206.628H273.33V267.737H279.812V275.377H338.164V229.545H305.747V244.823H312.229V260.103H299.25V214.268H338.138V198.99H279.812V206.628ZM428.931 198.99V214.268H448.381V275.377H474.319V214.268H493.769V198.99H428.931ZM390.043 229.545H377.076V198.99H351.141V275.38H377.076V244.823H390.043V275.38H415.978V198.99H390.043V229.545ZM388.052 164.857H364.515V102.455H370.398V95.5191H417.472V102.455H423.358V164.857H399.818V137.123H388.046L388.052 164.857ZM388.052 123.255H399.824V109.387H388.052V123.255Z" fill="white"/>
<path d="M218.857 137.123H206.419V146.333H218.857V137.123Z" fill="black"/>
<path d="M230.735 191.353H221.2V200.888H230.735V191.353Z" fill="black"/>
</g>
<defs>
<clipPath id="clip0_3417_92516">
<rect width="500" height="297.382" fill="white" transform="translate(0 0.916016)"/>
</clipPath>
</defs>
</svg>
