<svg width="340" height="274" viewBox="0 0 340 274" fill="none" xmlns="http://www.w3.org/2000/svg">
<g clip-path="url(#clip0_3417_94887)">
<path d="M148.872 263.099H140.907V271.064H148.872V263.099Z" fill="black"/>
<path d="M148.872 255.137H140.907V263.1H148.872V255.137Z" fill="black"/>
<path d="M148.872 247.172H140.907V255.137H148.872V247.172Z" fill="black"/>
<path d="M148.872 239.208H140.907V247.172H148.872V239.208Z" fill="black"/>
<path d="M156.836 263.099H148.872V271.064H156.836V263.099Z" fill="black"/>
<path d="M156.836 255.137H148.872V263.1H156.836V255.137Z" fill="#A32633"/>
<path d="M156.836 247.172H148.872V255.137H156.836V247.172Z" fill="#A32633"/>
<path d="M156.836 239.208H148.872V247.172H156.836V239.208Z" fill="#A32633"/>
<path d="M156.836 231.247H148.872V239.21H156.836V231.247Z" fill="black"/>
<path d="M156.836 223.282H148.872V231.247H156.836V223.282Z" fill="black"/>
<path d="M156.836 215.318H148.872V223.283H156.836V215.318Z" fill="black"/>
<path d="M156.836 207.355H148.872V215.318H156.836V207.355Z" fill="black"/>
<path d="M156.836 151.607H148.872V159.572H156.836V151.607Z" fill="#FAAC35"/>
<path d="M156.836 143.645H148.872V151.607H156.836V143.645Z" fill="#FAAC35"/>
<path d="M156.836 64.0067H148.872V71.9713H156.836V64.0067Z" fill="black"/>
<path d="M156.836 56.0441H148.872V64.0067H156.836V56.0441Z" fill="black"/>
<path d="M156.836 48.0795H148.872V56.0441H156.836V48.0795Z" fill="black"/>
<path d="M156.836 40.1169H148.872V48.0815H156.836V40.1169Z" fill="black"/>
<path d="M156.836 32.1543H148.872V40.1169H156.836V32.1543Z" fill="black"/>
<path d="M156.836 24.1897H148.872V32.1543H156.836V24.1897Z" fill="black"/>
<path d="M156.836 16.2251H148.872V24.1897H156.836V16.2251Z" fill="black"/>
<path d="M164.799 263.099H156.836V271.064H164.799V263.099Z" fill="black"/>
<path d="M164.799 255.137H156.836V263.1H164.799V255.137Z" fill="#A32633"/>
<path d="M164.799 247.172H156.836V255.137H164.799V247.172Z" fill="#A32633"/>
<path d="M164.799 239.208H156.836V247.172H164.799V239.208Z" fill="#A32633"/>
<path d="M164.799 231.247H156.836V239.21H164.799V231.247Z" fill="#A32633"/>
<path d="M164.799 223.282H156.836V231.247H164.799V223.282Z" fill="#A32633"/>
<path d="M164.799 215.519H156.836V223.484H164.799V215.519Z" fill="#A32633"/>
<path d="M164.799 151.607H156.836V159.572H164.799V151.607Z" fill="#FAAC35"/>
<path d="M164.799 143.645H156.836V151.607H164.799V143.645Z" fill="black"/>
<path d="M164.799 135.682H156.836V143.647H164.799V135.682Z" fill="black"/>
<path d="M164.799 127.717H156.836V135.682H164.799V127.717Z" fill="black"/>
<path d="M164.799 119.755H156.836V127.717H164.799V119.755Z" fill="black"/>
<path d="M164.799 111.79H156.836V119.755H164.799V111.79Z" fill="black"/>
<path d="M164.799 103.826H156.836V111.79H164.799V103.826Z" fill="black"/>
<path d="M164.799 95.863H156.836V103.826H164.799V95.863Z" fill="black"/>
<path d="M164.799 87.8984H156.836V95.863H164.799V87.8984Z" fill="black"/>
<path d="M164.799 79.9338H156.836V87.8984H164.799V79.9338Z" fill="black"/>
<path d="M164.799 71.9712H156.836V79.9338H164.799V71.9712Z" fill="black"/>
<path d="M164.799 64.0067H156.836V71.9713H164.799V64.0067Z" fill="#F9A533"/>
<path d="M164.799 56.0441H156.836V64.0067H164.799V56.0441Z" fill="#F9A533"/>
<path d="M164.799 48.0795H156.836V56.0441H164.799V48.0795Z" fill="#F9A533"/>
<path d="M164.799 40.1169H156.836V48.0815H164.799V40.1169Z" fill="#F9A533"/>
<path d="M164.799 32.1543H156.836V40.1169H164.799V32.1543Z" fill="#F9A533"/>
<path d="M164.799 24.1897H156.836V32.1543H164.799V24.1897Z" fill="black"/>
<path d="M172.764 263.099H164.799V271.064H172.764V263.099Z" fill="black"/>
<path d="M172.764 255.137H164.799V263.1H172.764V255.137Z" fill="#A32633"/>
<path d="M172.764 247.172H164.799V255.137H172.764V247.172Z" fill="#A32633"/>
<path d="M172.764 239.208H164.799V247.172H172.764V239.208Z" fill="#A32633"/>
<path d="M172.764 231.247H164.799V239.21H172.764V231.247Z" fill="#A32633"/>
<path d="M172.764 223.282H164.799V231.247H172.764V223.282Z" fill="black"/>
<path d="M172.764 191.426H164.799V199.391H172.764V191.426Z" fill="black"/>
<path d="M172.764 183.464H164.799V191.426H172.764V183.464Z" fill="black"/>
<path d="M172.764 175.499H164.799V183.464H172.764V175.499Z" fill="#F37623"/>
<path d="M172.764 167.536H164.799V175.499H172.764V167.536Z" fill="#FAAC35"/>
<path d="M172.764 159.572H164.799V167.536H172.764V159.572Z" fill="#FAAC35"/>
<path d="M172.764 151.607H164.799V159.572H172.764V151.607Z" fill="black"/>
<path d="M172.764 143.645H164.799V151.607H172.764V143.645Z" fill="#5C6E73"/>
<path d="M172.764 135.682H164.799V143.647H172.764V135.682Z" fill="#5C6E73"/>
<path d="M172.764 127.717H164.799V135.682H172.764V127.717Z" fill="#5C6E73"/>
<path d="M172.764 119.755H164.799V127.717H172.764V119.755Z" fill="#C6D5DC"/>
<path d="M172.764 111.79H164.799V119.755H172.764V111.79Z" fill="#C6D5DC"/>
<path d="M172.764 103.826H164.799V111.79H172.764V103.826Z" fill="#C6D5DC"/>
<path d="M172.764 95.863H164.799V103.826H172.764V95.863Z" fill="#C6D5DC"/>
<path d="M172.764 87.8984H164.799V95.863H172.764V87.8984Z" fill="black"/>
<path d="M172.764 79.9338H164.799V87.8984H172.764V79.9338Z" fill="#F9A533"/>
<path d="M172.764 71.9712H164.799V79.9338H172.764V71.9712Z" fill="#F9A533"/>
<path d="M172.764 64.0067H164.799V71.9713H172.764V64.0067Z" fill="#F9A533"/>
<path d="M172.764 56.0441H164.799V64.0067H172.764V56.0441Z" fill="#F9A533"/>
<path d="M172.764 48.0795H164.799V56.0441H172.764V48.0795Z" fill="#F37920"/>
<path d="M172.764 40.1169H164.799V48.0815H172.764V40.1169Z" fill="#F37920"/>
<path d="M172.764 32.1543H164.799V40.1169H172.764V32.1543Z" fill="black"/>
<path d="M180.726 263.099H172.762V271.064H180.726V263.099Z" fill="black"/>
<path d="M180.726 255.137H172.762V263.1H180.726V255.137Z" fill="#A32633"/>
<path d="M180.726 247.172H172.762V255.137H180.726V247.172Z" fill="black"/>
<path d="M180.726 239.208H172.762V247.172H180.726V239.208Z" fill="black"/>
<path d="M180.726 231.247H172.762V239.21H180.726V231.247Z" fill="black"/>
<path d="M180.726 223.282H172.762V231.247H180.726V223.282Z" fill="black"/>
<path d="M180.726 215.318H172.762V223.283H180.726V215.318Z" fill="black"/>
<path d="M180.726 199.391H172.762V207.355H180.726V199.391Z" fill="black"/>
<path d="M180.726 191.426H172.762V199.391H180.726V191.426Z" fill="black"/>
<path d="M180.726 183.464H172.762V191.426H180.726V183.464Z" fill="#3B4566"/>
<path d="M180.726 175.499H172.762V183.464H180.726V175.499Z" fill="#F37623"/>
<path d="M180.726 167.536H172.762V175.499H180.726V167.536Z" fill="black"/>
<path d="M180.726 159.572H172.762V167.536H180.726V159.572Z" fill="black"/>
<path d="M180.726 151.607H172.762V159.572H180.726V151.607Z" fill="#384C53"/>
<path d="M180.726 143.645H172.762V151.607H180.726V143.645Z" fill="black"/>
<path d="M180.726 135.682H172.762V143.647H180.726V135.682Z" fill="black"/>
<path d="M180.726 127.717H172.762V135.682H180.726V127.717Z" fill="black"/>
<path d="M180.726 119.755H172.762V127.717H180.726V119.755Z" fill="#DEE8ED"/>
<path d="M180.726 111.79H172.762V119.755H180.726V111.79Z" fill="#DEE8ED"/>
<path d="M180.726 103.826H172.762V111.79H180.726V103.826Z" fill="#C5D4DB"/>
<path d="M180.726 95.863H172.762V103.826H180.726V95.863Z" fill="#C6D5DC"/>
<path d="M180.726 87.8984H172.762V95.863H180.726V87.8984Z" fill="black"/>
<path d="M180.726 79.9338H172.762V87.8984H180.726V79.9338Z" fill="#F9A533"/>
<path d="M180.726 71.9712H172.762V79.9338H180.726V71.9712Z" fill="#F9A533"/>
<path d="M180.726 64.0067H172.762V71.9713H180.726V64.0067Z" fill="#F9A533"/>
<path d="M180.726 56.0441H172.762V64.0067H180.726V56.0441Z" fill="#F37920"/>
<path d="M180.726 48.0795H172.762V56.0441H180.726V48.0795Z" fill="#F37920"/>
<path d="M180.726 40.1169H172.762V48.0815H180.726V40.1169Z" fill="black"/>
<path d="M188.689 263.099H180.726V271.064H188.689V263.099Z" fill="black"/>
<path d="M188.689 255.137H180.726V263.1H188.689V255.137Z" fill="black"/>
<path d="M188.689 247.172H180.726V255.137H188.689V247.172Z" fill="black"/>
<path d="M188.689 239.208H180.726V247.172H188.689V239.208Z" fill="#262B44"/>
<path d="M188.689 231.247H180.726V239.21H188.689V231.247Z" fill="#F37920"/>
<path d="M188.689 223.282H180.726V231.247H188.689V223.282Z" fill="#F9A533"/>
<path d="M188.689 215.318H180.726V223.283H188.689V215.318Z" fill="black"/>
<path d="M188.689 207.355H180.726V215.318H188.689V207.355Z" fill="black"/>
<path d="M188.689 199.391H180.726V207.355H188.689V199.391Z" fill="black"/>
<path d="M188.689 191.426H180.726V199.391H188.689V191.426Z" fill="black"/>
<path d="M188.689 183.464H180.726V191.426H188.689V183.464Z" fill="black"/>
<path d="M188.689 175.499H180.726V183.464H188.689V175.499Z" fill="black"/>
<path d="M188.689 167.536H180.726V175.499H188.689V167.536Z" fill="#5C6E73"/>
<path d="M188.689 159.572H180.726V167.536H188.689V159.572Z" fill="#7C8D92"/>
<path d="M188.689 151.607H180.726V159.572H188.689V151.607Z" fill="#5C6E73"/>
<path d="M188.689 143.645H180.726V151.607H188.689V143.645Z" fill="black"/>
<path d="M188.689 135.682H180.726V143.647H188.689V135.682Z" fill="#D2D17C"/>
<path d="M188.689 127.717H180.726V135.682H188.689V127.717Z" fill="black"/>
<path d="M188.689 119.755H180.726V127.717H188.689V119.755Z" fill="#A0AFB5"/>
<path d="M188.689 111.79H180.726V119.755H188.689V111.79Z" fill="#DEE8ED"/>
<path d="M188.689 103.826H180.726V111.79H188.689V103.826Z" fill="#DEE8ED"/>
<path d="M188.689 95.863H180.726V103.826H188.689V95.863Z" fill="#DEE8ED"/>
<path d="M188.689 87.8984H180.726V95.863H188.689V87.8984Z" fill="#9FAAB0"/>
<path d="M188.689 79.9338H180.726V87.8984H188.689V79.9338Z" fill="#F9A533"/>
<path d="M188.689 71.9712H180.726V79.9338H188.689V71.9712Z" fill="#F9A533"/>
<path d="M188.689 64.0067H180.726V71.9713H188.689V64.0067Z" fill="#F9A533"/>
<path d="M188.689 56.0441H180.726V64.0067H188.689V56.0441Z" fill="#F37920"/>
<path d="M188.689 48.0795H180.726V56.0441H188.689V48.0795Z" fill="black"/>
<path d="M196.653 267.367H188.689V273.481H196.653V267.367Z" fill="black"/>
<path d="M196.653 261.252H188.689V267.367H196.653V261.252Z" fill="black"/>
<path d="M196.653 255.137H188.689V261.252H196.653V255.137Z" fill="#1498D5"/>
<path d="M196.653 247.172H188.689V255.137H196.653V247.172Z" fill="#1498D5"/>
<path d="M196.653 239.208H188.689V247.172H196.653V239.208Z" fill="black"/>
<path d="M196.653 231.247H188.689V239.21H196.653V231.247Z" fill="#262B44"/>
<path d="M196.653 223.282H188.689V231.247H196.653V223.282Z" fill="#5B6987"/>
<path d="M196.653 215.318H188.689V223.283H196.653V215.318Z" fill="black"/>
<path d="M196.653 207.355H188.689V215.318H196.653V207.355Z" fill="#5B6987"/>
<path d="M196.653 199.391H188.689V207.355H196.653V199.391Z" fill="#F9A533"/>
<path d="M196.653 191.426H188.689V199.391H196.653V191.426Z" fill="#F9A533"/>
<path d="M196.653 183.464H188.689V191.426H196.653V183.464Z" fill="#F9A533"/>
<path d="M196.653 175.499H188.689V183.464H196.653V175.499Z" fill="black"/>
<path d="M196.653 167.536H188.689V175.499H196.653V167.536Z" fill="black"/>
<path d="M196.653 159.572H188.689V167.536H196.653V159.572Z" fill="#909CA0"/>
<path d="M196.653 151.607H188.689V159.572H196.653V151.607Z" fill="#909CA0"/>
<path d="M196.653 143.645H188.689V151.607H196.653V143.645Z" fill="#7C8E93"/>
<path d="M196.653 135.682H188.689V143.647H196.653V135.682Z" fill="black"/>
<path d="M196.653 127.717H188.689V135.682H196.653V127.717Z" fill="black"/>
<path d="M196.653 119.755H188.689V127.717H196.653V119.755Z" fill="#A0AFB5"/>
<path d="M196.653 111.79H188.689V119.755H196.653V111.79Z" fill="#DEE8ED"/>
<path d="M196.653 103.826H188.689V111.79H196.653V103.826Z" fill="#DEE8ED"/>
<path d="M196.653 95.863H188.689V103.826H196.653V95.863Z" fill="#DEE8ED"/>
<path d="M196.653 87.8984H188.689V95.863H196.653V87.8984Z" fill="#B0BABE"/>
<path d="M196.653 79.9338H188.689V87.8984H196.653V79.9338Z" fill="#F9A533"/>
<path d="M196.653 71.9712H188.689V79.9338H196.653V71.9712Z" fill="#F9A533"/>
<path d="M196.653 64.0067H188.689V71.9713H196.653V64.0067Z" fill="#F9A533"/>
<path d="M196.653 56.0441H188.689V64.0067H196.653V56.0441Z" fill="#F9A533"/>
<path d="M196.653 48.0795H188.689V56.0441H196.653V48.0795Z" fill="#F9A533"/>
<path d="M196.653 40.1169H188.689V48.0815H196.653V40.1169Z" fill="black"/>
<path d="M196.653 32.1543H188.689V40.1169H196.653V32.1543Z" fill="black"/>
<path d="M204.618 267.367H196.653V273.481H204.618V267.367Z" fill="black"/>
<path d="M204.618 261.252H196.653V267.367H204.618V261.252Z" fill="#3F2731"/>
<path d="M204.618 255.137H196.653V261.252H204.618V255.137Z" fill="#124F8A"/>
<path d="M204.618 247.172H196.653V255.137H204.618V247.172Z" fill="#124F8A"/>
<path d="M204.618 239.208H196.653V247.172H204.618V239.208Z" fill="black"/>
<path d="M204.618 231.247H196.653V239.21H204.618V231.247Z" fill="black"/>
<path d="M204.618 223.282H196.653V231.247H204.618V223.282Z" fill="black"/>
<path d="M204.618 215.318H196.653V223.283H204.618V215.318Z" fill="black"/>
<path d="M204.618 207.355H196.653V215.318H204.618V207.355Z" fill="#5B6987"/>
<path d="M204.618 199.391H196.653V207.355H204.618V199.391Z" fill="#F9A533"/>
<path d="M204.618 191.426H196.653V199.391H204.618V191.426Z" fill="#E43C45"/>
<path d="M204.618 183.464H196.653V191.426H204.618V183.464Z" fill="#F9A533"/>
<path d="M204.618 175.499H196.653V183.464H204.618V175.499Z" fill="black"/>
<path d="M204.618 167.536H196.653V175.499H204.618V167.536Z" fill="#5C6E73"/>
<path d="M204.618 159.572H196.653V167.536H204.618V159.572Z" fill="#7C8D92"/>
<path d="M204.618 151.607H196.653V159.572H204.618V151.607Z" fill="#5C6E73"/>
<path d="M204.618 143.645H196.653V151.607H204.618V143.645Z" fill="#C6D5DC"/>
<path d="M204.618 135.682H196.653V143.647H204.618V135.682Z" fill="#7C8E93"/>
<path d="M204.618 127.717H196.653V135.682H204.618V127.717Z" fill="#384C53"/>
<path d="M204.618 119.755H196.653V127.717H204.618V119.755Z" fill="#384C53"/>
<path d="M204.618 111.79H196.653V119.755H204.618V111.79Z" fill="#DEE8ED"/>
<path d="M204.618 103.826H196.653V111.79H204.618V103.826Z" fill="#DEE8ED"/>
<path d="M204.618 95.863H196.653V103.826H204.618V95.863Z" fill="#DEE8ED"/>
<path d="M204.618 87.8984H196.653V95.863H204.618V87.8984Z" fill="#B0BABE"/>
<path d="M204.618 79.9338H196.653V87.8984H204.618V79.9338Z" fill="#F9A533"/>
<path d="M204.618 71.9712H196.653V79.9338H204.618V71.9712Z" fill="#F9A533"/>
<path d="M204.618 64.0067H196.653V71.9713H204.618V64.0067Z" fill="#F9A533"/>
<path d="M204.618 56.0441H196.653V64.0067H204.618V56.0441Z" fill="#E43C45"/>
<path d="M204.618 48.0795H196.653V56.0441H204.618V48.0795Z" fill="#E43C45"/>
<path d="M204.618 40.1169H196.653V48.0815H204.618V40.1169Z" fill="#F9A533"/>
<path d="M204.618 32.1543H196.653V40.1169H204.618V32.1543Z" fill="#F9A533"/>
<path d="M204.618 24.1897H196.653V32.1543H204.618V24.1897Z" fill="black"/>
<path d="M204.618 16.2251H196.653V24.1897H204.618V16.2251Z" fill="black"/>
<path d="M212.581 267.367H204.618V273.481H212.581V267.367Z" fill="black"/>
<path d="M212.581 261.252H204.618V267.367H212.581V261.252Z" fill="black"/>
<path d="M212.581 255.137H204.618V261.252H212.581V255.137Z" fill="black"/>
<path d="M212.581 247.172H204.618V255.137H212.581V247.172Z" fill="black"/>
<path d="M212.581 239.208H204.618V247.172H212.581V239.208Z" fill="black"/>
<path d="M212.581 231.247H204.618V239.21H212.581V231.247Z" fill="#1498D5"/>
<path d="M212.581 223.282H204.618V231.247H212.581V223.282Z" fill="#F9A533"/>
<path d="M212.581 215.318H204.618V223.283H212.581V215.318Z" fill="black"/>
<path d="M212.581 207.355H204.618V215.318H212.581V207.355Z" fill="#5B6987"/>
<path d="M212.581 199.391H204.618V207.355H212.581V199.391Z" fill="#A32633"/>
<path d="M212.581 191.426H204.618V199.391H212.581V191.426Z" fill="#DEE8ED"/>
<path d="M212.581 183.464H204.618V191.426H212.581V183.464Z" fill="#F9A533"/>
<path d="M212.581 175.499H204.618V183.464H212.581V175.499Z" fill="black"/>
<path d="M212.581 167.536H204.618V175.499H212.581V167.536Z" fill="black"/>
<path d="M212.581 159.572H204.618V167.536H212.581V159.572Z" fill="#909CA0"/>
<path d="M212.581 151.607H204.618V159.572H212.581V151.607Z" fill="#384C53"/>
<path d="M212.581 143.645H204.618V151.607H212.581V143.645Z" fill="black"/>
<path d="M212.581 135.682H204.618V143.647H212.581V135.682Z" fill="#919DA1"/>
<path d="M212.581 127.717H204.618V135.682H212.581V127.717Z" fill="#7C8E93"/>
<path d="M212.581 119.755H204.618V127.717H212.581V119.755Z" fill="#5C6E73"/>
<path d="M212.581 111.79H204.618V119.755H212.581V111.79Z" fill="#DEE8ED"/>
<path d="M212.581 103.826H204.618V111.79H212.581V103.826Z" fill="#DEE8ED"/>
<path d="M212.581 95.863H204.618V103.826H212.581V95.863Z" fill="#DEE8ED"/>
<path d="M212.581 87.8984H204.618V95.863H212.581V87.8984Z" fill="#B0BABE"/>
<path d="M212.581 79.9338H204.618V87.8984H212.581V79.9338Z" fill="#F9A533"/>
<path d="M212.581 71.9712H204.618V79.9338H212.581V71.9712Z" fill="#F9A533"/>
<path d="M212.581 64.0067H204.618V71.9713H212.581V64.0067Z" fill="#A32633"/>
<path d="M212.581 56.0441H204.618V64.0067H212.581V56.0441Z" fill="#E43C45"/>
<path d="M212.581 48.0795H204.618V56.0441H212.581V48.0795Z" fill="white"/>
<path d="M212.581 40.1169H204.618V48.0815H212.581V40.1169Z" fill="#E43C45"/>
<path d="M212.581 32.1543H204.618V40.1169H212.581V32.1543Z" fill="#F37920"/>
<path d="M212.581 24.1897H204.618V32.1523H212.581V24.1897Z" fill="#F37920"/>
<path d="M212.581 16.2251H204.618V24.1897H212.581V16.2251Z" fill="#F9A533"/>
<path d="M212.581 8.26257H204.618V16.2252H212.581V8.26257Z" fill="black"/>
<path d="M212.581 0.297974H204.618V8.26257H212.581V0.297974Z" fill="black"/>
<path d="M220.545 263.099H212.581V271.064H220.545V263.099Z" fill="black"/>
<path d="M220.545 255.137H212.581V263.1H220.545V255.137Z" fill="#A32633"/>
<path d="M220.545 247.172H212.581V255.137H220.545V247.172Z" fill="#A32633"/>
<path d="M220.545 239.208H212.581V247.172H220.545V239.208Z" fill="black"/>
<path d="M220.545 231.247H212.581V239.21H220.545V231.247Z" fill="#1498D5"/>
<path d="M220.545 223.282H212.581V231.247H220.545V223.282Z" fill="#F9A533"/>
<path d="M220.545 215.318H212.581V223.283H220.545V215.318Z" fill="black"/>
<path d="M220.545 207.355H212.581V215.318H220.545V207.355Z" fill="#5B6987"/>
<path d="M220.545 199.391H212.581V207.355H220.545V199.391Z" fill="#A32633"/>
<path d="M220.545 191.426H212.581V199.391H220.545V191.426Z" fill="#A32633"/>
<path d="M220.545 183.464H212.581V191.426H220.545V183.464Z" fill="#F9A533"/>
<path d="M220.545 175.499H212.581V183.464H220.545V175.499Z" fill="black"/>
<path d="M220.545 167.536H212.581V175.499H220.545V167.536Z" fill="#5C6E73"/>
<path d="M220.545 159.572H212.581V167.536H220.545V159.572Z" fill="#7C8D92"/>
<path d="M220.545 151.607H212.581V159.572H220.545V151.607Z" fill="#49636C"/>
<path d="M220.545 143.645H212.581V151.607H220.545V143.645Z" fill="#384C53"/>
<path d="M220.545 135.682H212.581V143.647H220.545V135.682Z" fill="#919DA1"/>
<path d="M220.545 127.717H212.581V135.682H220.545V127.717Z" fill="#7C8E93"/>
<path d="M220.545 119.755H212.581V127.717H220.545V119.755Z" fill="#5C6E73"/>
<path d="M220.545 111.79H212.581V119.755H220.545V111.79Z" fill="#DEE8ED"/>
<path d="M220.545 103.826H212.581V111.79H220.545V103.826Z" fill="#DEE8ED"/>
<path d="M220.545 95.863H212.581V103.826H220.545V95.863Z" fill="#DEE8ED"/>
<path d="M220.545 87.8984H212.581V95.863H220.545V87.8984Z" fill="#B0BABE"/>
<path d="M220.545 79.9338H212.581V87.8984H220.545V79.9338Z" fill="#F9A533"/>
<path d="M220.545 71.9712H212.581V79.9338H220.545V71.9712Z" fill="#F9A533"/>
<path d="M220.545 64.0067H212.581V71.9713H220.545V64.0067Z" fill="#F9A533"/>
<path d="M220.545 56.0441H212.581V64.0067H220.545V56.0441Z" fill="#A32633"/>
<path d="M220.545 48.0795H212.581V56.0441H220.545V48.0795Z" fill="#F37920"/>
<path d="M220.545 40.1169H212.581V48.0815H220.545V40.1169Z" fill="#F37920"/>
<path d="M220.545 32.1543H212.581V40.1169H220.545V32.1543Z" fill="#F37920"/>
<path d="M220.545 24.1897H212.581V32.1543H220.545V24.1897Z" fill="black"/>
<path d="M220.545 16.2251H212.581V24.1897H220.545V16.2251Z" fill="black"/>
<path d="M228.51 263.099H220.545V271.064H228.51V263.099Z" fill="black"/>
<path d="M228.51 255.137H220.545V263.1H228.51V255.137Z" fill="#A32633"/>
<path d="M228.51 247.172H220.545V255.137H228.51V247.172Z" fill="#A32633"/>
<path d="M228.51 239.208H220.545V247.172H228.51V239.208Z" fill="black"/>
<path d="M228.51 231.247H220.545V239.21H228.51V231.247Z" fill="#1498D5"/>
<path d="M228.51 223.282H220.545V231.247H228.51V223.282Z" fill="#F37920"/>
<path d="M228.51 215.318H220.545V223.283H228.51V215.318Z" fill="black"/>
<path d="M228.51 207.355H220.545V215.318H228.51V207.355Z" fill="#3B4566"/>
<path d="M228.51 199.391H220.545V207.355H228.51V199.391Z" fill="#F37623"/>
<path d="M228.51 191.426H220.545V199.391H228.51V191.426Z" fill="#A32633"/>
<path d="M228.51 183.464H220.545V191.426H228.51V183.464Z" fill="#F9A533"/>
<path d="M228.51 175.499H220.545V183.464H228.51V175.499Z" fill="black"/>
<path d="M228.51 167.536H220.545V175.499H228.51V167.536Z" fill="black"/>
<path d="M228.51 159.572H220.545V167.536H228.51V159.572Z" fill="#909CA0"/>
<path d="M228.51 151.607H220.545V159.572H228.51V151.607Z" fill="#5C6E73"/>
<path d="M228.51 143.645H220.545V151.607H228.51V143.645Z" fill="#C6D5DC"/>
<path d="M228.51 135.682H220.545V143.647H228.51V135.682Z" fill="#7C8E93"/>
<path d="M228.51 127.717H220.545V135.682H228.51V127.717Z" fill="#384C53"/>
<path d="M228.51 119.755H220.545V127.717H228.51V119.755Z" fill="#384C53"/>
<path d="M228.51 111.79H220.545V119.755H228.51V111.79Z" fill="#DEE8ED"/>
<path d="M228.51 103.826H220.545V111.79H228.51V103.826Z" fill="#DEE8ED"/>
<path d="M228.51 95.863H220.545V103.826H228.51V95.863Z" fill="#DEE8ED"/>
<path d="M228.51 87.8984H220.545V95.863H228.51V87.8984Z" fill="#9FAAB0"/>
<path d="M228.51 79.9338H220.545V87.8984H228.51V79.9338Z" fill="#F9A533"/>
<path d="M228.51 71.9712H220.545V79.9338H228.51V71.9712Z" fill="#F9A533"/>
<path d="M228.51 64.0067H220.545V71.9713H228.51V64.0067Z" fill="#F9A533"/>
<path d="M228.51 56.0441H220.545V64.0067H228.51V56.0441Z" fill="#F9A533"/>
<path d="M228.51 48.0795H220.545V56.0441H228.51V48.0795Z" fill="#F37920"/>
<path d="M228.51 40.1169H220.545V48.0815H228.51V40.1169Z" fill="black"/>
<path d="M228.51 32.1543H220.545V40.1169H228.51V32.1543Z" fill="black"/>
<path d="M236.472 263.099H228.51V271.064H236.472V263.099Z" fill="black"/>
<path d="M236.472 255.137H228.51V263.1H236.472V255.137Z" fill="#A32633"/>
<path d="M236.472 247.172H228.51V255.137H236.472V247.172Z" fill="#A32633"/>
<path d="M236.472 239.208H228.51V247.172H236.472V239.208Z" fill="black"/>
<path d="M236.472 231.247H228.51V239.21H236.472V231.247Z" fill="#124F8A"/>
<path d="M236.472 223.282H228.51V231.247H236.472V223.282Z" fill="#3F2731"/>
<path d="M236.472 215.318H228.51V223.283H236.472V215.318Z" fill="black"/>
<path d="M236.472 207.355H228.51V215.318H236.472V207.355Z" fill="#3B4566"/>
<path d="M236.472 199.391H228.51V207.355H236.472V199.391Z" fill="#F37623"/>
<path d="M236.472 191.426H228.51V199.391H236.472V191.426Z" fill="#F37623"/>
<path d="M236.472 183.464H228.51V191.426H236.472V183.464Z" fill="#F37623"/>
<path d="M236.472 175.499H228.51V183.464H236.472V175.499Z" fill="black"/>
<path d="M236.472 167.536H228.51V175.499H236.472V167.536Z" fill="#5C6E73"/>
<path d="M236.472 159.572H228.51V167.536H236.472V159.572Z" fill="#7C8D92"/>
<path d="M236.472 151.607H228.51V159.572H236.472V151.607Z" fill="#909CA0"/>
<path d="M236.472 143.645H228.51V151.607H236.472V143.645Z" fill="#7C8E93"/>
<path d="M236.472 135.682H228.51V143.647H236.472V135.682Z" fill="black"/>
<path d="M236.472 127.717H228.51V135.682H236.472V127.717Z" fill="black"/>
<path d="M236.472 119.755H228.51V127.717H236.472V119.755Z" fill="#A0AFB5"/>
<path d="M236.472 111.79H228.51V119.755H236.472V111.79Z" fill="#DEE8ED"/>
<path d="M236.472 103.826H228.51V111.79H236.472V103.826Z" fill="#C6D5DC"/>
<path d="M236.472 95.863H228.51V103.826H236.472V95.863Z" fill="#DEE8ED"/>
<path d="M236.472 87.8984H228.51V95.863H236.472V87.8984Z" fill="#9FAAB0"/>
<path d="M236.472 79.9338H228.51V87.8984H236.472V79.9338Z" fill="#F37920"/>
<path d="M236.472 71.9712H228.51V79.9338H236.472V71.9712Z" fill="#F9A533"/>
<path d="M236.472 64.0067H228.51V71.9713H236.472V64.0067Z" fill="#F9A533"/>
<path d="M236.472 56.0441H228.51V64.0067H236.472V56.0441Z" fill="#F9A533"/>
<path d="M236.472 48.0795H228.51V56.0441H236.472V48.0795Z" fill="#F37920"/>
<path d="M236.472 40.1169H228.51V48.0815H236.472V40.1169Z" fill="black"/>
<path d="M244.437 263.099H236.472V271.064H244.437V263.099Z" fill="black"/>
<path d="M244.437 255.137H236.472V263.1H244.437V255.137Z" fill="#A32633"/>
<path d="M244.437 247.172H236.472V255.137H244.437V247.172Z" fill="#A32633"/>
<path d="M244.437 239.208H236.472V247.172H244.437V239.208Z" fill="black"/>
<path d="M244.437 231.247H236.472V239.21H244.437V231.247Z" fill="#124F8A"/>
<path d="M244.437 223.282H236.472V231.247H244.437V223.282Z" fill="#3F2731"/>
<path d="M244.437 215.318H236.472V223.283H244.437V215.318Z" fill="black"/>
<path d="M244.437 207.355H236.472V215.318H244.437V207.355Z" fill="#3B4566"/>
<path d="M244.437 199.391H236.472V207.355H244.437V199.391Z" fill="#5B6987"/>
<path d="M244.437 191.426H236.472V199.391H244.437V191.426Z" fill="#F37623"/>
<path d="M244.437 183.464H236.472V191.426H244.437V183.464Z" fill="#F37623"/>
<path d="M244.437 175.499H236.472V183.464H244.437V175.499Z" fill="black"/>
<path d="M244.437 167.536H236.472V175.499H244.437V167.536Z" fill="black"/>
<path d="M244.437 159.572H236.472V167.536H244.437V159.572Z" fill="#5C6E73"/>
<path d="M244.437 151.607H236.472V159.572H244.437V151.607Z" fill="#5C6E73"/>
<path d="M244.437 143.645H236.472V151.607H244.437V143.645Z" fill="black"/>
<path d="M244.437 135.682H236.472V143.647H244.437V135.682Z" fill="#D2D17C"/>
<path d="M244.437 127.717H236.472V135.682H244.437V127.717Z" fill="black"/>
<path d="M244.437 119.755H236.472V127.717H244.437V119.755Z" fill="#A0AFB5"/>
<path d="M244.437 111.79H236.472V119.755H244.437V111.79Z" fill="#DEE8ED"/>
<path d="M244.437 103.826H236.472V111.79H244.437V103.826Z" fill="#C6D5DC"/>
<path d="M244.437 95.863H236.472V103.826H244.437V95.863Z" fill="#C6D5DC"/>
<path d="M244.437 87.8984H236.472V95.863H244.437V87.8984Z" fill="#9FAAB0"/>
<path d="M244.437 79.9338H236.472V87.8984H244.437V79.9338Z" fill="#F37920"/>
<path d="M244.437 71.9712H236.472V79.9338H244.437V71.9712Z" fill="#F37920"/>
<path d="M244.437 64.0067H236.472V71.9713H244.437V64.0067Z" fill="#F9A533"/>
<path d="M244.437 56.0441H236.472V64.0067H244.437V56.0441Z" fill="#F9A533"/>
<path d="M244.437 48.0795H236.472V56.0441H244.437V48.0795Z" fill="black"/>
<path d="M252.399 263.099H244.437V271.064H252.399V263.099Z" fill="black"/>
<path d="M252.399 255.137H244.437V263.1H252.399V255.137Z" fill="#A32633"/>
<path d="M252.399 247.172H244.437V255.137H252.399V247.172Z" fill="black"/>
<path d="M252.399 239.208H244.437V247.172H252.399V239.208Z" fill="black"/>
<path d="M252.399 231.247H244.437V239.21H252.399V231.247Z" fill="black"/>
<path d="M252.399 223.282H244.437V231.247H252.399V223.282Z" fill="black"/>
<path d="M252.399 215.318H244.437V223.283H252.399V215.318Z" fill="#3F2731"/>
<path d="M252.399 207.355H244.437V215.318H252.399V207.355Z" fill="black"/>
<path d="M252.399 199.391H244.437V207.355H252.399V199.391Z" fill="#3B4566"/>
<path d="M252.399 191.426H244.437V199.391H252.399V191.426Z" fill="#5B6987"/>
<path d="M252.399 183.464H244.437V191.426H252.399V183.464Z" fill="#5B6987"/>
<path d="M252.399 175.499H244.437V183.464H252.399V175.499Z" fill="black"/>
<path d="M252.399 167.536H244.437V175.499H252.399V167.536Z" fill="#5C6E73"/>
<path d="M252.399 159.572H244.437V167.536H252.399V159.572Z" fill="#384C53"/>
<path d="M252.399 151.607H244.437V159.572H252.399V151.607Z" fill="#384C53"/>
<path d="M252.399 143.645H244.437V151.607H252.399V143.645Z" fill="black"/>
<path d="M252.399 135.682H244.437V143.647H252.399V135.682Z" fill="black"/>
<path d="M252.399 127.717H244.437V135.682H252.399V127.717Z" fill="black"/>
<path d="M252.399 119.755H244.437V127.717H252.399V119.755Z" fill="#DEE8ED"/>
<path d="M252.399 111.79H244.437V119.755H252.399V111.79Z" fill="#C6D5DC"/>
<path d="M252.399 103.826H244.437V111.79H252.399V103.826Z" fill="#C6D5DC"/>
<path d="M252.399 95.863H244.437V103.826H252.399V95.863Z" fill="#C6D5DC"/>
<path d="M252.399 87.8984H244.437V95.863H252.399V87.8984Z" fill="#9FAAB0"/>
<path d="M252.399 79.9338H244.437V87.8984H252.399V79.9338Z" fill="#F37920"/>
<path d="M252.399 71.9712H244.437V79.9338H252.399V71.9712Z" fill="#F37920"/>
<path d="M252.399 64.0067H244.437V71.9713H252.399V64.0067Z" fill="#F9A533"/>
<path d="M252.399 56.0441H244.437V64.0067H252.399V56.0441Z" fill="#F9A533"/>
<path d="M252.399 48.0795H244.437V56.0441H252.399V48.0795Z" fill="black"/>
<path d="M260.364 267.367H252.399V273.481H260.364V267.367Z" fill="black"/>
<path d="M260.364 261.252H252.399V267.367H260.364V261.252Z" fill="black"/>
<path d="M260.364 255.137H252.399V261.252H260.364V255.137Z" fill="black"/>
<path d="M260.364 247.172H252.399V255.137H260.364V247.172Z" fill="#1498D5"/>
<path d="M260.364 239.208H252.399V247.172H260.364V239.208Z" fill="black"/>
<path d="M260.364 231.247H252.399V239.21H260.364V231.247Z" fill="#5B6987"/>
<path d="M260.364 223.282H252.399V231.247H260.364V223.282Z" fill="#5B6987"/>
<path d="M260.364 215.318H252.399V223.283H260.364V215.318Z" fill="black"/>
<path d="M260.364 207.355H252.399V215.318H260.364V207.355Z" fill="#3F2731"/>
<path d="M260.364 199.391H252.399V207.355H260.364V199.391Z" fill="black"/>
<path d="M268.327 191.426H260.362V199.391H268.327V191.426Z" fill="black"/>
<path d="M260.364 191.426H252.399V199.391H260.364V191.426Z" fill="black"/>
<path d="M260.364 183.464H252.399V191.426H260.364V183.464Z" fill="black"/>
<path d="M260.364 151.607H252.399V159.572H260.364V151.607Z" fill="#5C6E73"/>
<path d="M260.364 143.645H252.399V151.607H260.364V143.645Z" fill="#5C6E73"/>
<path d="M260.364 135.682H252.399V143.647H260.364V135.682Z" fill="#384C53"/>
<path d="M260.364 127.717H252.399V135.682H260.364V127.717Z" fill="#DEE8ED"/>
<path d="M260.364 119.755H252.399V127.717H260.364V119.755Z" fill="#C6D5DC"/>
<path d="M260.364 111.79H252.399V119.755H260.364V111.79Z" fill="#C6D5DC"/>
<path d="M260.364 103.826H252.399V111.79H260.364V103.826Z" fill="#C6D5DC"/>
<path d="M260.364 95.863H252.399V103.826H260.364V95.863Z" fill="#C6D5DC"/>
<path d="M260.364 87.8984H252.399V95.863H260.364V87.8984Z" fill="#9FAAB0"/>
<path d="M260.364 79.9338H252.399V87.8984H260.364V79.9338Z" fill="#F37920"/>
<path d="M260.364 71.9712H252.399V79.9338H260.364V71.9712Z" fill="#F37920"/>
<path d="M260.364 64.0067H252.399V71.9713H260.364V64.0067Z" fill="#F9A533"/>
<path d="M260.364 56.0441H252.399V64.0067H260.364V56.0441Z" fill="#F9A533"/>
<path d="M260.364 48.0795H252.399V56.0441H260.364V48.0795Z" fill="black"/>
<path d="M268.327 267.367H260.362V273.481H268.327V267.367Z" fill="black"/>
<path d="M268.327 261.252H260.362V267.367H268.327V261.252Z" fill="#3F2731"/>
<path d="M268.327 255.137H260.362V261.252H268.327V255.137Z" fill="#124F8A"/>
<path d="M268.327 247.172H260.362V255.137H268.327V247.172Z" fill="black"/>
<path d="M268.327 239.208H260.362V247.172H268.327V239.208Z" fill="#262B44"/>
<path d="M268.327 231.247H260.362V239.21H268.327V231.247Z" fill="#F37920"/>
<path d="M268.327 223.282H260.362V231.247H268.327V223.282Z" fill="#F9A533"/>
<path d="M268.327 215.318H260.362V223.283H268.327V215.318Z" fill="black"/>
<path d="M268.327 207.355H260.362V215.318H268.327V207.355Z" fill="black"/>
<path d="M268.327 199.391H260.362V207.355H268.327V199.391Z" fill="#A32633"/>
<path d="M268.327 143.645H260.362V151.607H268.327V143.645Z" fill="#919DA1"/>
<path d="M268.327 135.682H260.362V143.647H268.327V135.682Z" fill="#384C53"/>
<path d="M268.327 127.717H260.362V135.682H268.327V127.717Z" fill="#384C53"/>
<path d="M268.327 119.755H260.362V127.717H268.327V119.755Z" fill="#C6D5DC"/>
<path d="M268.327 111.79H260.362V119.755H268.327V111.79Z" fill="#C6D5DC"/>
<path d="M268.327 103.826H260.362V111.79H268.327V103.826Z" fill="#C6D5DC"/>
<path d="M268.327 95.863H260.362V103.826H268.327V95.863Z" fill="#C6D5DC"/>
<path d="M268.327 87.8984H260.362V95.863H268.327V87.8984Z" fill="#9FAAB0"/>
<path d="M268.327 79.9338H260.362V87.8984H268.327V79.9338Z" fill="#F37920"/>
<path d="M268.327 71.9712H260.362V79.9338H268.327V71.9712Z" fill="#F37920"/>
<path d="M268.327 64.0067H260.362V71.9713H268.327V64.0067Z" fill="#F9A533"/>
<path d="M268.327 56.0441H260.362V64.0067H268.327V56.0441Z" fill="#F9A533"/>
<path d="M268.327 48.0795H260.362V56.0441H268.327V48.0795Z" fill="black"/>
<path d="M276.289 267.367H268.327V273.481H276.289V267.367Z" fill="black"/>
<path d="M276.289 261.252H268.327V271.064H276.289V261.252Z" fill="black"/>
<path d="M276.289 255.137H268.327V261.252H276.289V255.137Z" fill="black"/>
<path d="M276.289 247.172H268.327V255.137H276.289V247.172Z" fill="black"/>
<path d="M276.289 239.208H268.327V247.172H276.289V239.208Z" fill="#262B44"/>
<path d="M276.289 231.247H268.327V239.21H276.289V231.247Z" fill="#F37920"/>
<path d="M276.289 223.282H268.327V231.247H276.289V223.282Z" fill="#F37920"/>
<path d="M276.289 215.318H268.327V223.283H276.289V215.318Z" fill="black"/>
<path d="M276.289 207.355H268.327V215.318H276.289V207.355Z" fill="#F9A533"/>
<path d="M276.289 199.391H268.327V207.355H276.289V199.391Z" fill="#A32633"/>
<path d="M276.289 143.645H268.327V151.607H276.289V143.645Z" fill="#919DA1"/>
<path d="M276.289 135.682H268.327V143.647H276.289V135.682Z" fill="#5C6E73"/>
<path d="M276.289 127.717H268.327V135.682H276.289V127.717Z" fill="#384C53"/>
<path d="M276.289 119.755H268.327V127.717H276.289V119.755Z" fill="#384C53"/>
<path d="M276.289 111.79H268.327V119.755H276.289V111.79Z" fill="#919DA1"/>
<path d="M276.289 103.826H268.327V111.79H276.289V103.826Z" fill="#919DA1"/>
<path d="M276.289 95.863H268.327V103.826H276.289V95.863Z" fill="#919DA1"/>
<path d="M276.289 87.8984H268.327V95.863H276.289V87.8984Z" fill="black"/>
<path d="M276.289 79.9338H268.327V87.8984H276.289V79.9338Z" fill="#F37920"/>
<path d="M276.289 71.9712H268.327V79.9338H276.289V71.9712Z" fill="#F37920"/>
<path d="M276.289 64.0067H268.327V71.9713H276.289V64.0067Z" fill="#F37920"/>
<path d="M276.289 56.0441H268.327V64.0067H276.289V56.0441Z" fill="#F9A533"/>
<path d="M276.289 48.0795H268.327V56.0441H276.289V48.0795Z" fill="#F9A533"/>
<path d="M276.289 40.1169H268.327V48.0815H276.289V40.1169Z" fill="black"/>
<path d="M284.254 263.099H276.289V271.064H284.254V263.099Z" fill="black"/>
<path d="M284.254 255.137H276.289V263.1H284.254V255.137Z" fill="#A32633"/>
<path d="M284.254 247.172H276.289V255.137H284.254V247.172Z" fill="black"/>
<path d="M284.254 239.208H276.289V247.172H284.254V239.208Z" fill="black"/>
<path d="M284.254 231.247H276.289V239.21H284.254V231.247Z" fill="black"/>
<path d="M284.254 223.282H276.289V231.247H284.254V223.282Z" fill="black"/>
<path d="M284.254 215.318H276.289V223.283H284.254V215.318Z" fill="#C5D4DB"/>
<path d="M284.254 207.355H276.289V215.318H284.254V207.355Z" fill="#F37920"/>
<path d="M284.254 199.391H276.289V207.355H284.254V199.391Z" fill="#3F2731"/>
<path d="M284.254 143.645H276.289V151.607H284.254V143.645Z" fill="#919DA1"/>
<path d="M284.254 135.682H276.289V143.647H284.254V135.682Z" fill="#919DA1"/>
<path d="M284.254 127.717H276.289V135.682H284.254V127.717Z" fill="#919DA1"/>
<path d="M284.254 119.755H276.289V127.717H284.254V119.755Z" fill="#919DA1"/>
<path d="M284.254 111.79H276.289V119.755H284.254V111.79Z" fill="#919DA1"/>
<path d="M284.254 103.826H276.289V111.79H284.254V103.826Z" fill="#919DA1"/>
<path d="M284.254 95.863H276.289V103.826H284.254V95.863Z" fill="#919DA1"/>
<path d="M284.254 87.8984H276.289V95.863H284.254V87.8984Z" fill="black"/>
<path d="M284.254 79.9338H276.289V87.8984H284.254V79.9338Z" fill="#F37920"/>
<path d="M284.254 71.9712H276.289V79.9338H284.254V71.9712Z" fill="#F37920"/>
<path d="M284.254 64.0067H276.289V71.9713H284.254V64.0067Z" fill="#F37920"/>
<path d="M284.254 56.0441H276.289V64.0067H284.254V56.0441Z" fill="#F9A533"/>
<path d="M284.254 48.0795H276.289V56.0441H284.254V48.0795Z" fill="#F9A533"/>
<path d="M284.254 40.1169H276.289V48.0815H284.254V40.1169Z" fill="#F9A533"/>
<path d="M284.254 32.1543H276.289V40.1169H284.254V32.1543Z" fill="black"/>
<path d="M292.219 263.099H284.254V271.064H292.219V263.099Z" fill="black"/>
<path d="M292.219 255.137H284.254V263.1H292.219V255.137Z" fill="#A32633"/>
<path d="M292.219 247.172H284.254V255.137H292.219V247.172Z" fill="#A32633"/>
<path d="M292.219 239.208H284.254V247.172H292.219V239.208Z" fill="#A32633"/>
<path d="M292.219 231.247H284.254V239.21H292.219V231.247Z" fill="#A32633"/>
<path d="M292.219 223.282H284.254V231.247H292.219V223.282Z" fill="black"/>
<path d="M292.219 215.318H284.254V223.283H292.219V215.318Z" fill="#C5D4DB"/>
<path d="M292.219 207.355H284.254V215.318H292.219V207.355Z" fill="#C5D4DB"/>
<path d="M292.219 199.391H284.254V207.355H292.219V199.391Z" fill="#F37920"/>
<path d="M292.219 143.645H284.254V151.607H292.219V143.645Z" fill="black"/>
<path d="M284.256 151.609H276.291V159.572H284.256V151.609Z" fill="black"/>
<path d="M276.291 151.609H268.327V159.572H276.291V151.609Z" fill="black"/>
<path d="M268.327 151.609H260.362V159.572H268.327V151.609Z" fill="black"/>
<path d="M260.364 159.574H252.399V167.536H260.364V159.574Z" fill="black"/>
<path d="M260.364 167.536H252.399V175.499H260.364V167.536Z" fill="black"/>
<path d="M260.364 175.501H252.399V183.464H260.364V175.501Z" fill="black"/>
<path d="M292.219 135.682H284.254V143.647H292.219V135.682Z" fill="black"/>
<path d="M292.219 127.717H284.254V135.682H292.219V127.717Z" fill="black"/>
<path d="M292.219 119.755H284.254V127.717H292.219V119.755Z" fill="black"/>
<path d="M292.219 111.79H284.254V119.755H292.219V111.79Z" fill="black"/>
<path d="M292.219 103.826H284.254V111.79H292.219V103.826Z" fill="black"/>
<path d="M292.219 95.863H284.254V103.826H292.219V95.863Z" fill="black"/>
<path d="M292.219 87.8984H284.254V95.863H292.219V87.8984Z" fill="black"/>
<path d="M292.219 79.9338H284.254V87.8984H292.219V79.9338Z" fill="black"/>
<path d="M292.219 71.9712H284.254V79.9338H292.219V71.9712Z" fill="black"/>
<path d="M292.219 64.0067H284.254V71.9713H292.219V64.0067Z" fill="#F37920"/>
<path d="M292.219 56.0441H284.254V64.0067H292.219V56.0441Z" fill="#F37920"/>
<path d="M292.219 48.0795H284.254V56.0441H292.219V48.0795Z" fill="#F37920"/>
<path d="M292.219 40.1169H284.254V48.0815H292.219V40.1169Z" fill="#F9A533"/>
<path d="M292.219 32.1543H284.254V40.1169H292.219V32.1543Z" fill="#F9A533"/>
<path d="M292.219 24.1897H284.254V32.1543H292.219V24.1897Z" fill="black"/>
<path d="M300.181 263.099H292.219V271.064H300.181V263.099Z" fill="black"/>
<path d="M300.181 255.137H292.219V263.1H300.181V255.137Z" fill="#A32633"/>
<path d="M300.181 247.172H292.219V255.137H300.181V247.172Z" fill="#A32633"/>
<path d="M300.181 239.208H292.219V247.172H300.181V239.208Z" fill="#A32633"/>
<path d="M300.181 231.247H292.219V239.21H300.181V231.247Z" fill="#A32633"/>
<path d="M300.181 223.282H292.219V231.247H300.181V223.282Z" fill="#A32633"/>
<path d="M300.181 215.318H292.219V223.283H300.181V215.318Z" fill="black"/>
<path d="M300.181 207.355H292.219V215.318H300.181V207.355Z" fill="black"/>
<path d="M300.181 199.391H292.219V207.355H300.181V199.391Z" fill="black"/>
<path d="M292.255 191.462H275.41V199.427H292.255V191.462Z" fill="black"/>
<path d="M300.181 64.0067H292.219V71.9713H300.181V64.0067Z" fill="black"/>
<path d="M300.181 56.0441H292.219V64.0067H300.181V56.0441Z" fill="black"/>
<path d="M300.181 48.0795H292.219V56.0441H300.181V48.0795Z" fill="black"/>
<path d="M300.181 40.1169H292.219V48.0815H300.181V40.1169Z" fill="black"/>
<path d="M300.181 32.1543H292.219V40.1169H300.181V32.1543Z" fill="black"/>
<path d="M300.181 24.1897H292.219V32.1543H300.181V24.1897Z" fill="black"/>
<path d="M300.181 16.2251H292.219V24.1897H300.181V16.2251Z" fill="black"/>
<path d="M308.146 263.099H300.181V271.064H308.146V263.099Z" fill="black"/>
<path d="M308.146 255.137H300.181V263.1H308.146V255.137Z" fill="#A32633"/>
<path d="M308.146 247.172H300.181V255.137H308.146V247.172Z" fill="#A32633"/>
<path d="M308.146 239.208H300.181V247.172H308.146V239.208Z" fill="#A32633"/>
<path d="M308.146 231.247H300.181V239.21H308.146V231.247Z" fill="black"/>
<path d="M308.146 223.282H300.181V231.247H308.146V223.282Z" fill="black"/>
<path d="M308.146 215.318H300.181V223.283H308.146V215.318Z" fill="black"/>
<path d="M308.146 207.355H300.181V215.318H308.146V207.355Z" fill="black"/>
<path d="M308.146 199.391H300.181V207.355H308.146V199.391Z" fill="black"/>
<path d="M316.11 263.099H308.146V271.064H316.11V263.099Z" fill="black"/>
<path d="M316.11 255.137H308.146V263.1H316.11V255.137Z" fill="#A32633"/>
<path d="M316.11 247.172H308.146V255.137H316.11V247.172Z" fill="#A32633"/>
<path d="M316.11 239.208H308.146V247.172H316.11V239.208Z" fill="black"/>
<path d="M324.073 263.099H316.11V271.064H324.073V263.099Z" fill="black"/>
<path d="M324.073 255.137H316.11V263.1H324.073V255.137Z" fill="#A32633"/>
<path d="M324.073 247.172H316.11V255.137H324.073V247.172Z" fill="black"/>
<path d="M332.037 263.099H324.073V271.064H332.037V263.099Z" fill="black"/>
<path d="M332.037 255.137H324.073V263.1H332.037V255.137Z" fill="black"/>
<path d="M340 263.099H332.037V271.064H340V263.099Z" fill="black"/>
<path d="M121.15 226.801L117.112 233.666L123.976 237.703L128.013 230.837L121.15 226.801Z" fill="black"/>
<path d="M114.283 222.764L110.246 229.629L117.111 233.667L121.149 226.801L114.283 222.764Z" fill="black"/>
<path d="M107.417 218.725L103.38 225.59L110.245 229.628L114.282 222.762L107.417 218.725Z" fill="black"/>
<path d="M131.923 225.15L127.862 231.998L134.711 236.06L138.772 229.212L131.923 225.15Z" fill="black"/>
<path d="M125.186 219.934L121.149 226.798L128.013 230.834L132.049 223.971L125.186 219.934Z" fill="#F37623"/>
<path d="M118.319 215.899L114.283 222.763L121.148 226.8L125.185 219.937L118.319 215.899Z" fill="#FAAC35"/>
<path d="M111.455 211.861L107.418 218.725L114.284 222.762L118.32 215.899L111.455 211.861Z" fill="black"/>
<path d="M56.5331 179.566L52.4966 186.43L59.3619 190.467L63.3985 183.604L56.5331 179.566Z" fill="black"/>
<path d="M49.6696 175.528L45.6331 182.392L52.4967 186.428L56.5332 179.565L49.6696 175.528Z" fill="black"/>
<path d="M42.8034 171.491L38.7668 178.355L45.6322 182.392L49.6687 175.529L42.8034 171.491Z" fill="black"/>
<path d="M142.952 221.145L138.915 228.01L145.78 232.048L149.818 225.182L142.952 221.145Z" fill="black"/>
<path d="M136.088 217.107L132.05 223.972L138.916 228.01L142.953 221.144L136.088 217.107Z" fill="#F37623"/>
<path d="M129.224 213.069L125.187 219.934L132.05 223.971L136.088 217.106L129.224 213.069Z" fill="#FAAC35"/>
<path d="M122.358 209.034L118.321 215.899L125.186 219.937L129.223 213.072L122.358 209.034Z" fill="#FAAC35"/>
<path d="M115.492 204.995L111.454 211.86L118.32 215.898L122.357 209.033L115.492 204.995Z" fill="black"/>
<path d="M81.166 184.812L77.1284 191.677L83.9938 195.714L88.0313 188.849L81.166 184.812Z" fill="black"/>
<path d="M74.2998 180.772L70.2622 187.638L77.1276 191.675L81.1651 184.81L74.2998 180.772Z" fill="black"/>
<path d="M67.206 177.64L63.144 184.49L69.9919 188.551L74.0538 181.701L67.206 177.64Z" fill="black"/>
<path d="M60.57 172.7L56.5325 179.565L63.3978 183.603L67.4354 176.737L60.57 172.7Z" fill="white"/>
<path d="M53.7065 168.662L49.6689 175.527L56.5326 179.564L60.5701 172.699L53.7065 168.662Z" fill="white"/>
<path d="M46.8405 164.625L42.803 171.49L49.6683 175.528L53.7059 168.663L46.8405 164.625Z" fill="white"/>
<path d="M39.976 160.589L35.9385 167.454L42.8038 171.492L46.8414 164.627L39.976 160.589Z" fill="black"/>
<path d="M33.1125 156.551L29.075 163.417L35.9386 167.453L39.9761 160.588L33.1125 156.551Z" fill="black"/>
<path d="M153.857 218.315L149.819 225.181L156.683 229.217L160.72 222.352L153.857 218.315Z" fill="black"/>
<path d="M146.93 215.455L142.868 222.304L149.718 226.366L153.78 219.517L146.93 215.455Z" fill="black"/>
<path d="M140.125 210.241L136.087 217.106L142.953 221.143L146.99 214.278L140.125 210.241Z" fill="#F37623"/>
<path d="M133.26 206.205L129.223 213.07L136.086 217.106L140.124 210.241L133.26 206.205Z" fill="#FAAC35"/>
<path d="M126.395 202.166L122.358 209.031L129.223 213.069L133.261 206.203L126.395 202.166Z" fill="black"/>
<path d="M119.529 198.129L115.491 204.994L122.357 209.032L126.394 202.166L119.529 198.129Z" fill="black"/>
<path d="M112.538 195.141L108.476 201.991L115.324 206.052L119.386 199.202L112.538 195.141Z" fill="black"/>
<path d="M105.799 190.054L101.762 196.919L108.627 200.957L112.665 194.092L105.799 190.054Z" fill="black"/>
<path d="M98.9348 186.018L94.8972 192.883L101.763 196.921L105.8 190.056L98.9348 186.018Z" fill="black"/>
<path d="M92.0703 181.982L88.0327 188.847L94.8963 192.884L98.9339 186.019L92.0703 181.982Z" fill="black"/>
<path d="M85.205 177.943L81.1675 184.809L88.0328 188.846L92.0704 181.981L85.205 177.943Z" fill="white"/>
<path d="M78.3388 173.906L74.3013 180.772L81.1666 184.809L85.2042 177.944L78.3388 173.906Z" fill="white"/>
<path d="M71.4753 169.869L67.4377 176.734L74.3014 180.77L78.3389 173.905L71.4753 169.869Z" fill="white"/>
<path d="M64.6071 165.832L60.5696 172.697L67.4349 176.734L71.4725 169.869L64.6071 165.832Z" fill="white"/>
<path d="M57.7436 161.796L53.7061 168.661L60.5697 172.698L64.6072 165.832L57.7436 161.796Z" fill="white"/>
<path d="M50.8774 157.759L46.8398 164.624L53.7052 168.662L57.7427 161.796L50.8774 157.759Z" fill="white"/>
<path d="M44.0129 153.723L39.9753 160.588L46.8407 164.626L50.8783 157.76L44.0129 153.723Z" fill="white"/>
<path d="M37.1494 149.685L33.1118 156.55L39.9754 160.587L44.013 153.721L37.1494 149.685Z" fill="white"/>
<path d="M30.2834 145.648L26.2458 152.513L33.1112 156.551L37.1488 149.686L30.2834 145.648Z" fill="black"/>
<path d="M23.4172 141.611L19.3796 148.476L26.245 152.514L30.2825 145.649L23.4172 141.611Z" fill="black"/>
<path d="M157.892 211.452L153.856 218.316L160.719 222.352L164.756 215.488L157.892 211.452Z" fill="black"/>
<path d="M150.992 208.578L146.931 215.426L153.78 219.488L157.841 212.64L150.992 208.578Z" fill="black"/>
<path d="M144.113 204.515L140.052 211.363L146.901 215.425L150.962 208.577L144.113 204.515Z" fill="#FAAC35"/>
<path d="M137.296 199.34L133.26 206.204L140.123 210.24L144.16 203.377L137.296 199.34Z" fill="#E33C45"/>
<path d="M130.431 195.301L126.395 202.165L133.26 206.203L137.297 199.339L130.431 195.301Z" fill="#E33C45"/>
<path d="M123.567 191.265L119.53 198.129L126.396 202.167L130.432 195.303L123.567 191.265Z" fill="white"/>
<path d="M116.702 187.229L112.666 194.093L119.529 198.13L123.566 191.266L116.702 187.229Z" fill="white"/>
<path d="M109.837 183.191L105.8 190.054L112.666 194.092L116.702 187.228L109.837 183.191Z" fill="white"/>
<path d="M102.971 179.154L98.9342 186.017L105.8 190.055L109.836 183.191L102.971 179.154Z" fill="white"/>
<path d="M96.1064 175.118L92.0698 181.981L98.9334 186.018L102.97 179.154L96.1064 175.118Z" fill="white"/>
<path d="M89.2411 171.079L85.2046 177.942L92.07 181.98L96.1065 175.116L89.2411 171.079Z" fill="white"/>
<path d="M82.3744 167.043L78.3379 173.906L85.2032 177.944L89.2398 171.08L82.3744 167.043Z" fill="#FAAC35"/>
<path d="M75.3317 163.886L71.2708 170.734L78.1186 174.795L82.1795 167.947L75.3317 163.886Z" fill="#FAAC35"/>
<path d="M68.6449 158.968L64.6084 165.832L71.4737 169.869L75.5103 163.006L68.6449 158.968Z" fill="#FAAC35"/>
<path d="M61.7804 154.934L57.7439 161.798L64.6075 165.834L68.644 158.971L61.7804 154.934Z" fill="white"/>
<path d="M54.6976 151.697L50.6367 158.544L57.4863 162.606L61.5472 155.759L54.6976 151.697Z" fill="white"/>
<path d="M48.049 146.856L44.0125 153.72L50.8778 157.757L54.9143 150.894L48.049 146.856Z" fill="white"/>
<path d="M41.1855 142.82L37.1489 149.684L44.0126 153.721L48.0491 146.857L41.1855 142.82Z" fill="white"/>
<path d="M34.3192 138.783L30.2827 145.647L37.1481 149.685L41.1846 142.821L34.3192 138.783Z" fill="white"/>
<path d="M27.1852 135.443L23.1243 142.291L29.9738 146.353L34.0347 139.505L27.1852 135.443Z" fill="white"/>
<path d="M20.5912 130.71L16.5547 137.573L23.4183 141.61L27.4548 134.746L20.5912 130.71Z" fill="black"/>
<path d="M13.7252 126.673L9.68872 133.536L16.5541 137.574L20.5906 130.71L13.7252 126.673Z" fill="black"/>
<path d="M175.659 212.661L171.621 219.526L178.485 223.562L182.523 216.697L175.659 212.661Z" fill="#743F3A"/>
<path d="M168.794 208.622L164.756 215.487L171.622 219.525L175.659 212.659L168.794 208.622Z" fill="#743F3A"/>
<path d="M164.757 215.488L160.719 222.353L167.585 226.391L171.622 219.525L164.757 215.488Z" fill="black"/>
<path d="M171.622 219.527L167.584 226.392L174.45 230.43L178.487 223.564L171.622 219.527Z" fill="black"/>
<path d="M161.929 204.586L157.892 211.451L164.755 215.488L168.793 208.622L161.929 204.586Z" fill="#3F2731"/>
<path d="M155.055 201.699L150.993 208.549L157.842 212.611L161.904 205.761L155.055 201.699Z" fill="#3F2731"/>
<path d="M148.2 196.511L144.162 203.376L151.027 207.414L155.065 200.549L148.2 196.511Z" fill="#A22633"/>
<path d="M141.335 192.475L137.298 199.34L144.161 203.377L148.199 196.512L141.335 192.475Z" fill="#E33C45"/>
<path d="M134.47 188.436L130.432 195.302L137.298 199.339L141.335 192.474L134.47 188.436Z" fill="white"/>
<path d="M127.542 185.447L123.48 192.297L130.33 196.359L134.392 189.509L127.542 185.447Z" fill="#E33C45"/>
<path d="M120.739 180.363L116.702 187.229L123.565 191.265L127.603 184.4L120.739 180.363Z" fill="#F37623"/>
<path d="M113.874 176.324L109.836 183.19L116.702 187.227L120.739 180.362L113.874 176.324Z" fill="#F37623"/>
<path d="M106.909 173.259L102.847 180.108L109.697 184.17L113.759 177.321L106.909 173.259Z" fill="#F37623"/>
<path d="M100.143 168.252L96.1055 175.118L102.969 179.154L107.007 172.289L100.143 168.252Z" fill="#F37623"/>
<path d="M93.2778 164.214L89.2402 171.079L96.1056 175.117L100.143 168.251L93.2778 164.214Z" fill="#FAAC35"/>
<path d="M86.2721 161.069L82.2102 167.918L89.0598 171.98L93.1217 165.131L86.2721 161.069Z" fill="#FAAC35"/>
<path d="M79.5471 156.141L75.5095 163.006L82.3731 167.042L86.4107 160.177L79.5471 156.141Z" fill="#FAAC35"/>
<path d="M72.6818 152.102L68.6443 158.967L75.5096 163.005L79.5472 156.139L72.6818 152.102Z" fill="#FAAC35"/>
<path d="M65.8173 148.066L61.7798 154.931L68.6434 158.968L72.681 152.102L65.8173 148.066Z" fill="#F37623"/>
<path d="M58.9523 144.029L54.9148 150.894L61.7802 154.932L65.8177 148.067L58.9523 144.029Z" fill="#F37623"/>
<path d="M52.0878 139.991L48.0503 146.856L54.9156 150.894L58.9532 144.029L52.0878 139.991Z" fill="white"/>
<path d="M45.2233 135.955L41.1858 142.82L48.0494 146.857L52.087 139.992L45.2233 135.955Z" fill="white"/>
<path d="M38.1274 132.629L34.0654 139.478L40.915 143.54L44.9769 136.691L38.1274 132.629Z" fill="white"/>
<path d="M31.4919 127.879L27.4543 134.745L34.3197 138.782L38.3572 131.917L31.4919 127.879Z" fill="white"/>
<path d="M24.6284 123.844L20.5908 130.709L27.4544 134.745L31.492 127.88L24.6284 123.844Z" fill="white"/>
<path d="M17.7602 119.807L13.7227 126.672L20.588 130.709L24.6256 123.844L17.7602 119.807Z" fill="white"/>
<path d="M10.8957 115.768L6.85815 122.634L13.7235 126.671L17.7611 119.806L10.8957 115.768Z" fill="black"/>
<path d="M4.03218 111.733L-0.00537109 118.598L6.85824 122.635L10.8958 115.769L4.03218 111.733Z" fill="black"/>
<path d="M179.698 205.794L175.66 212.66L182.524 216.696L186.562 209.831L179.698 205.794Z" fill="black"/>
<path d="M172.832 201.757L168.794 208.623L175.66 212.66L179.697 205.795L172.832 201.757Z" fill="black"/>
<path d="M165.968 197.719L161.931 204.585L168.794 208.621L172.832 201.756L165.968 197.719Z" fill="black"/>
<path d="M159.102 193.682L155.064 200.548L161.93 204.585L165.967 197.72L159.102 193.682Z" fill="black"/>
<path d="M152.239 190.76L148.177 197.609L155.027 201.671L159.089 194.822L152.239 190.76Z" fill="#F37623"/>
<path d="M145.372 185.609L141.335 192.474L148.198 196.511L152.236 189.645L145.372 185.609Z" fill="#A22633"/>
<path d="M138.506 181.572L134.468 188.437L141.334 192.475L145.371 185.609L138.506 181.572Z" fill="#A22633"/>
<path d="M131.64 177.535L127.602 184.4L134.468 188.438L138.505 181.572L131.64 177.535Z" fill="#BFC9DA"/>
<path d="M124.776 173.497L120.739 180.362L127.602 184.399L131.64 177.533L124.776 173.497Z" fill="#BFC9DA"/>
<path d="M117.91 169.46L113.872 176.325L120.738 180.363L124.775 173.497L117.91 169.46Z" fill="#BFC9DA"/>
<path d="M110.971 166.381L106.909 173.231L113.759 177.293L117.821 170.443L110.971 166.381Z" fill="#BFC9DA"/>
<path d="M104.182 161.386L100.145 168.251L107.008 172.288L111.046 165.423L104.182 161.386Z" fill="#BFC9DA"/>
<path d="M97.3159 157.349L93.2783 164.214L100.144 168.252L104.181 161.387L97.3159 157.349Z" fill="#BFC9DA"/>
<path d="M90.4506 153.31L86.4131 160.176L93.2784 164.213L97.316 157.348L90.4506 153.31Z" fill="#F37623"/>
<path d="M83.5861 149.274L79.5486 156.14L86.4122 160.176L90.4498 153.311L83.5861 149.274Z" fill="#F37623"/>
<path d="M76.7189 145.236L72.6814 152.101L79.5468 156.139L83.5843 149.273L76.7189 145.236Z" fill="#F37623"/>
<path d="M69.8544 141.2L65.8169 148.065L72.6805 152.101L76.718 145.236L69.8544 141.2Z" fill="#BFC9DA"/>
<path d="M62.9892 137.163L58.9517 144.028L65.817 148.066L69.8546 141.2L62.9892 137.163Z" fill="#BFC9DA"/>
<path d="M56.1247 133.125L52.0872 139.99L58.9525 144.028L62.99 137.162L56.1247 133.125Z" fill="#BFC9DA"/>
<path d="M49.2602 129.089L45.2227 135.954L52.0863 139.991L56.1238 133.125L49.2602 129.089Z" fill="#BFC9DA"/>
<path d="M42.3952 125.052L38.3577 131.917L45.223 135.955L49.2606 129.09L42.3952 125.052Z" fill="#BFC9DA"/>
<path d="M35.5288 121.013L31.4912 127.878L38.3566 131.916L42.3941 125.051L35.5288 121.013Z" fill="#BFC9DA"/>
<path d="M28.6645 116.977L24.627 123.842L31.4906 127.879L35.5281 121.014L28.6645 116.977Z" fill="black"/>
<path d="M21.7993 112.94L17.7617 119.806L24.6271 123.843L28.6646 116.978L21.7993 112.94Z" fill="black"/>
<path d="M163.138 186.819L159.101 193.683L165.967 197.72L170.003 190.857L163.138 186.819Z" fill="black"/>
<path d="M170.005 190.752L165.968 197.615L172.833 201.653L176.87 194.789L170.005 190.752Z" fill="black"/>
<path d="M156.272 182.782L152.235 189.646L159.1 193.683L163.137 186.82L156.272 182.782Z" fill="#F37623"/>
<path d="M149.408 178.744L145.372 185.608L152.235 189.644L156.272 182.781L149.408 178.744Z" fill="#F37623"/>
<path d="M142.542 174.707L138.505 181.571L145.371 185.608L149.407 178.745L142.542 174.707Z" fill="black"/>
<path d="M135.677 170.671L131.641 177.535L138.506 181.572L142.543 174.709L135.677 170.671Z" fill="black"/>
<path d="M128.814 166.633L124.777 173.497L131.641 177.534L135.678 170.67L128.814 166.633Z" fill="black"/>
<path d="M121.948 162.596L117.911 169.46L124.777 173.498L128.813 166.634L121.948 162.596Z" fill="black"/>
<path d="M115.033 159.504L110.972 166.351L117.822 170.413L121.883 163.566L115.033 159.504Z" fill="black"/>
<path d="M108.218 154.522L104.182 161.385L111.045 165.422L115.082 158.558L108.218 154.522Z" fill="black"/>
<path d="M101.352 150.485L97.3154 157.348L104.181 161.386L108.217 154.522L101.352 150.485Z" fill="#BFC9DA"/>
<path d="M94.4853 146.449L90.4487 153.312L97.3141 157.35L101.351 150.486L94.4853 146.449Z" fill="#BFC9DA"/>
<path d="M87.6217 142.411L83.5852 149.275L90.4488 153.311L94.4853 146.447L87.6217 142.411Z" fill="#BFC9DA"/>
<path d="M80.642 139.188L76.5811 146.036L83.4306 150.098L87.4915 143.25L80.642 139.188Z" fill="#BFC9DA"/>
<path d="M73.8922 134.336L69.8557 141.2L76.7193 145.236L80.7559 138.373L73.8922 134.336Z" fill="#BFC9DA"/>
<path d="M67.026 130.299L62.9895 137.163L69.8549 141.2L73.8914 134.337L67.026 130.299Z" fill="#BFC9DA"/>
<path d="M60.1608 126.26L56.1243 133.124L62.9896 137.161L67.0261 130.298L60.1608 126.26Z" fill="#BFC9DA"/>
<path d="M53.2963 122.224L49.2598 129.088L56.1234 133.124L60.1599 126.261L53.2963 122.224Z" fill="#BFC9DA"/>
<path d="M46.4311 118.186L42.3945 125.049L49.2599 129.087L53.2964 122.223L46.4311 118.186Z" fill="black"/>
<path d="M39.5666 114.15L35.53 121.013L42.3954 125.051L46.4319 118.187L39.5666 114.15Z" fill="black"/>
<path d="M167.175 179.953L163.137 186.818L170.003 190.856L174.04 183.99L167.175 179.953Z" fill="black"/>
<path d="M160.366 177.004L156.304 183.853L163.154 187.915L167.216 181.066L160.366 177.004Z" fill="#F37623"/>
<path d="M153.447 171.879L149.409 178.744L156.273 182.781L160.31 175.916L153.447 171.879Z" fill="#F37623"/>
<path d="M146.581 167.842L142.543 174.707L149.408 178.745L153.446 171.88L146.581 167.842Z" fill="#F37623"/>
<path d="M139.714 163.805L135.677 170.67L142.542 174.708L146.58 167.842L139.714 163.805Z" fill="black"/>
<path d="M105.389 143.619L101.351 150.485L108.216 154.522L112.254 147.657L105.389 143.619Z" fill="black"/>
<path d="M98.5224 139.582L94.4849 146.448L101.35 150.485L105.388 143.62L98.5224 139.582Z" fill="black"/>
<path d="M91.6589 135.545L87.6213 142.41L94.485 146.447L98.5225 139.581L91.6589 135.545Z" fill="black"/>
<path d="M84.7927 131.508L80.7551 138.373L87.6205 142.411L91.658 135.545L84.7927 131.508Z" fill="#BFC9DA"/>
<path d="M77.9291 127.47L73.8916 134.335L80.7552 138.372L84.7928 131.506L77.9291 127.47Z" fill="#BFC9DA"/>
<path d="M71.0629 123.433L67.0254 130.298L73.8907 134.336L77.9283 127.47L71.0629 123.433Z" fill="#BFC9DA"/>
<path d="M64.1987 119.397L60.1611 126.262L67.0265 130.3L71.064 123.434L64.1987 119.397Z" fill="black"/>
<path d="M57.3349 115.359L53.2974 122.224L60.161 126.261L64.1985 119.396L57.3349 115.359Z" fill="black"/>
<path d="M164.346 169.052L160.31 175.916L167.175 179.953L171.212 173.09L164.346 169.052Z" fill="black"/>
<path d="M157.483 165.015L153.446 171.878L160.31 175.915L164.347 169.051L157.483 165.015Z" fill="#F37623"/>
<path d="M150.672 162L146.611 168.847L153.461 172.909L157.522 166.062L150.672 162Z" fill="#F37623"/>
<path d="M143.752 156.942L139.716 163.805L146.581 167.843L150.618 160.979L143.752 156.942Z" fill="black"/>
<path d="M88.8305 124.644L84.7939 131.508L91.6593 135.545L95.6958 128.682L88.8305 124.644Z" fill="black"/>
<path d="M81.967 120.606L77.9304 127.47L84.794 131.507L88.8306 124.643L81.967 120.606Z" fill="black"/>
<path d="M75.1007 116.569L71.0642 123.433L77.9296 127.471L81.9661 120.607L75.1007 116.569Z" fill="black"/>
<path d="M161.522 158.149L157.484 165.015L164.348 169.051L168.385 162.186L161.522 158.149Z" fill="black"/>
<path d="M154.737 155.121L150.675 161.971L157.525 166.033L161.587 159.183L154.737 155.121Z" fill="black"/>
<path d="M147.787 150.075L143.75 156.941L150.615 160.978L154.653 154.113L147.787 150.075Z" fill="black"/>
<path d="M144.962 139.173L140.924 146.038L147.788 150.075L151.825 143.21L144.962 139.173Z" fill="black"/>
<path d="M155.985 137.301L151.924 144.148L158.773 148.21L162.834 141.363L155.985 137.301Z" fill="black"/>
<path d="M149 132.31L144.963 139.173L151.827 143.21L155.863 136.346L149 132.31Z" fill="black"/>
<path d="M142.132 128.271L138.096 135.135L144.961 139.172L148.998 132.308L142.132 128.271Z" fill="black"/>
<path d="M259.246 155.869L252.224 159.625L255.98 166.646L263.001 162.891L259.246 155.869Z" fill="black"/>
<path d="M266.269 152.113L259.246 155.869L263.001 162.89L270.025 159.134L266.269 152.113Z" fill="black"/>
<path d="M273.289 148.356L266.268 152.111L270.023 159.132L277.045 155.377L273.289 148.356Z" fill="black"/>
<path d="M255.981 166.644L248.958 170.4L252.714 177.423L259.737 173.667L255.981 166.644Z" fill="black"/>
<path d="M263.001 162.889L255.979 166.645L259.736 173.668L266.757 169.912L263.001 162.889Z" fill="#FAAC35"/>
<path d="M270.022 159.133L262.999 162.89L266.755 169.913L273.779 166.157L270.022 159.133Z" fill="white"/>
<path d="M277.045 155.379L270.024 159.135L273.78 166.158L280.801 162.403L277.045 155.379Z" fill="#A22633"/>
<path d="M284.067 151.622L277.043 155.378L280.8 162.401L287.823 158.645L284.067 151.622Z" fill="black"/>
<path d="M291.09 147.866L284.067 151.622L287.823 158.645L294.847 154.889L291.09 147.866Z" fill="black"/>
<path d="M298.112 144.11L291.091 147.865L294.847 154.889L301.868 151.133L298.112 144.11Z" fill="black"/>
<path d="M305.134 140.355L298.111 144.111L301.867 151.134L308.89 147.378L305.134 140.355Z" fill="black"/>
<path d="M312.155 136.599L305.132 140.355L308.889 147.378L315.912 143.622L312.155 136.599Z" fill="black"/>
<path d="M319.18 132.845L312.159 136.6L315.915 143.623L322.936 139.868L319.18 132.845Z" fill="black"/>
<path d="M252.713 177.422L245.69 181.179L249.445 188.2L256.468 184.444L252.713 177.422Z" fill="black"/>
<path d="M259.737 173.666L252.713 177.422L256.469 184.443L263.492 180.687L259.737 173.666Z" fill="#5B6987"/>
<path d="M266.757 169.913L259.736 173.668L263.491 180.689L270.513 176.934L266.757 169.913Z" fill="#FAAC35"/>
<path d="M273.779 166.157L266.756 169.913L270.511 176.935L277.534 173.178L273.779 166.157Z" fill="#A22633"/>
<path d="M280.801 162.401L273.779 166.156L277.535 173.178L284.556 169.423L280.801 162.401Z" fill="#E33C45"/>
<path d="M287.824 158.645L280.801 162.402L284.557 169.423L291.58 165.667L287.824 158.645Z" fill="#FAAC35"/>
<path d="M294.846 154.89L287.823 158.646L291.578 165.667L298.602 161.911L294.846 154.89Z" fill="#FAAC35"/>
<path d="M301.869 151.134L294.847 154.889L298.603 161.91L305.624 158.155L301.869 151.134Z" fill="#F37623"/>
<path d="M308.89 147.378L301.867 151.134L305.623 158.156L312.646 154.399L308.89 147.378Z" fill="#F37623"/>
<path d="M315.914 143.622L308.891 147.378L312.646 154.4L319.669 150.643L315.914 143.622Z" fill="black"/>
<path d="M256.469 184.446L249.446 188.202L253.202 195.226L260.225 191.469L256.469 184.446Z" fill="black"/>
<path d="M263.49 180.69L256.467 184.447L260.224 191.47L267.247 187.713L263.49 180.69Z" fill="#5B6987"/>
<path d="M270.512 176.932L263.491 180.688L267.247 187.711L274.268 183.956L270.512 176.932Z" fill="#F37623"/>
<path d="M277.534 173.177L270.511 176.933L274.267 183.956L281.29 180.2L277.534 173.177Z" fill="#F37623"/>
<path d="M284.556 169.422L277.534 173.177L281.291 180.201L288.312 176.445L284.556 169.422Z" fill="#FAAC35"/>
<path d="M291.58 165.667L284.557 169.423L288.313 176.446L295.337 172.69L291.58 165.667Z" fill="#F37623"/>
<path d="M298.602 161.911L291.579 165.668L295.335 172.691L302.358 168.934L298.602 161.911Z" fill="#F37623"/>
<path d="M305.622 158.155L298.6 161.91L302.357 168.933L309.378 165.178L305.622 158.155Z" fill="#F37623"/>
<path d="M312.645 154.398L305.622 158.154L309.378 165.177L316.402 161.421L312.645 154.398Z" fill="black"/>
<path d="M260.225 191.468L253.201 195.224L256.958 202.247L263.981 198.491L260.225 191.468Z" fill="black"/>
<path d="M267.246 187.712L260.223 191.468L263.979 198.491L271.003 194.735L267.246 187.712Z" fill="#5B6987"/>
<path d="M274.268 183.956L267.247 187.712L271.003 194.735L278.024 190.979L274.268 183.956Z" fill="#3B4566"/>
<path d="M281.292 180.199L274.268 183.955L278.025 190.978L285.048 187.222L281.292 180.199Z" fill="#3B4566"/>
<path d="M288.312 176.445L281.291 180.201L285.047 187.224L292.069 183.469L288.312 176.445Z" fill="#F37623"/>
<path d="M295.336 172.689L288.313 176.445L292.069 183.468L299.092 179.712L295.336 172.689Z" fill="#F37623"/>
<path d="M302.358 168.933L295.334 172.689L299.091 179.712L306.114 175.956L302.358 168.933Z" fill="#F37623"/>
<path d="M309.377 165.178L302.356 168.934L306.112 175.957L313.134 172.201L309.377 165.178Z" fill="#3B4566"/>
<path d="M316.403 161.422L309.38 165.178L313.136 172.201L320.159 168.445L316.403 161.422Z" fill="black"/>
<path d="M271.002 194.734L263.979 198.49L267.734 205.511L274.757 201.755L271.002 194.734Z" fill="black"/>
<path d="M278.025 190.981L271.003 194.736L274.759 201.757L281.78 198.002L278.025 190.981Z" fill="black"/>
<path d="M285.048 187.224L278.025 190.98L281.781 198.002L288.804 194.245L285.048 187.224Z" fill="black"/>
<path d="M292.068 183.467L285.047 187.223L288.802 194.244L295.824 190.489L292.068 183.467Z" fill="#5B6987"/>
<path d="M299.09 179.711L292.067 183.468L295.822 190.489L302.845 186.733L299.09 179.711Z" fill="#3B4566"/>
<path d="M306.113 175.955L299.09 179.711L302.845 186.732L309.869 182.976L306.113 175.955Z" fill="#3B4566"/>
<path d="M313.136 172.202L306.115 175.957L309.87 182.978L316.891 179.223L313.136 172.202Z" fill="black"/>
<path d="M295.823 190.489L288.802 194.244L292.558 201.268L299.579 197.512L295.823 190.489Z" fill="black"/>
<path d="M302.846 186.733L295.823 190.489L299.579 197.513L306.602 193.756L302.846 186.733Z" fill="black"/>
<path d="M309.871 182.976L302.848 186.733L306.604 193.756L313.627 190L309.871 182.976Z" fill="black"/>
</g>
<defs>
<clipPath id="clip0_3417_94887">
<rect width="340" height="273.184" fill="white" transform="translate(0 0.297974)"/>
</clipPath>
</defs>
</svg>
