<svg width="600" height="88" viewBox="0 0 600 88" fill="none" xmlns="http://www.w3.org/2000/svg">
<g clip-path="url(#clip0_3417_88493)">
<path d="M155.767 87.1431V82.085L151.473 82.0417V21.3699H155.767V16.3119H203.002V46.6694H190.122V56.7855H203.002V87.1431H155.767Z" fill="black"/>
<path d="M160.061 26.431H155.767V76.9744H160.061V82.0417H198.707V61.8559H172.944V61.8033H185.827V41.6175H198.707V21.3792H160.061V26.431Z" fill="black"/>
<path d="M561.533 86.9884V46.691H548.708V16.4757H600V46.691H587.178V86.9884H561.533Z" fill="black"/>
<path d="M552.984 21.5121V41.6547H565.806V81.8934H582.906V41.6547H595.73V21.5121H552.984Z" fill="black"/>
<path d="M450.404 86.9885V81.9521L446.129 81.9027V21.5215H450.404V16.485H497.42V86.9762L450.404 86.9885Z" fill="black"/>
<path d="M454.677 26.5486H450.404V76.857H454.677V81.8934H493.144V41.6547H471.774V61.7508H476.05V61.8034H467.501V41.6578H493.144V21.5153H454.677V26.5486Z" fill="black"/>
<path d="M318.076 86.9885V16.4974H343.718H369.364V86.9885H318.076Z" fill="black"/>
<path d="M347.994 26.5486V41.6547H339.446V21.5121H322.349V81.8934H339.446V61.7477H347.994V81.8934H365.092V51.743V21.5276H347.994V26.5486Z" fill="black"/>
<path d="M497.42 86.9885V16.4974H523.081H548.724V86.9885H497.42Z" fill="black"/>
<path d="M527.339 26.5486V41.6547H518.79V21.5121H501.693V81.8934H518.79V61.7477H527.339V81.8934H544.436V21.5121H527.339V26.5486Z" fill="black"/>
<path d="M446.128 16.4757H420.467V86.9668H446.128V16.4757Z" fill="black"/>
<path d="M424.759 26.5485V81.8902H441.856V21.509H424.759V26.5485Z" fill="black"/>
<path d="M100.113 87.1431V16.3119H147.351V21.3699H151.646V82.085H147.351V87.1431H100.113Z" fill="black"/>
<path d="M143.057 26.431V21.3699H104.41V82.085H143.057V77.0238H147.351V26.431H143.057ZM130.174 46.6694V61.8466H121.585V41.6082H130.174V46.6694Z" fill="black"/>
<path d="M203.002 87.1431V21.3699H207.296V16.3119H250.237V21.3699H254.535V87.1431H203.002Z" fill="black"/>
<path d="M245.946 26.431V21.3699H211.591V26.431H207.297V82.0819H224.474V61.8435H233.063V82.0819H250.237V26.431H245.946Z" fill="black"/>
<path d="M254.535 87.1431V16.3119H301.77V21.3699H306.064V82.085H301.77V87.1431H254.535Z" fill="black"/>
<path d="M297.476 26.431V21.3699H258.829V82.085H297.476V77.0238H301.77V26.431H297.476ZM284.592 46.6694V61.8466H276.004V41.6082H284.592V46.6694Z" fill="black"/>
<path d="M369.194 86.9885V16.4974H416.21V21.5338H420.483V86.9885H369.194Z" fill="black"/>
<path d="M411.934 26.5486V21.5121H373.467V81.8934H390.564V41.6547H399.113V81.8934H416.21V26.5517L411.934 26.5486Z" fill="black"/>
<path d="M147.351 76.9744H143.057V82.0418H104.41V31.4396H143.057V36.4977H147.351V76.9744ZM130.174 71.9133V41.5589H121.585V71.9133H130.174Z" fill="#9E8D61"/>
<path d="M198.707 82.0418H160.061V76.9837H155.767V36.4977H160.061V31.4396H198.707V41.5589H172.944V51.678H185.827V61.7941H172.944V71.9133H198.707V82.0418Z" fill="#9E8D61"/>
<path d="M250.237 82.0418H233.063V61.8034H224.474V82.0418H207.297V36.4977H211.591V31.4396H245.946V36.4977H250.237V82.0418ZM233.06 51.6873V41.5681H224.474V51.6873H233.06Z" fill="#9E8D61"/>
<path d="M301.77 76.9744H297.476V82.0418H258.829V31.4396H297.476V36.4977H301.77V76.9744ZM284.592 71.9133V41.5589H276.004V71.9133H284.592Z" fill="#9E8D61"/>
<path d="M365.092 81.8933H347.994V61.7477H339.446V81.8933H322.349V31.5323H339.446V51.678H347.994V31.5323H365.092V51.678H360.816V61.7477H365.092V81.8933Z" fill="#9E8D61"/>
<path d="M416.21 81.8933H399.113V41.6051H390.564V81.8933H373.467V31.5323H411.934V36.5688H416.207L416.21 81.8933Z" fill="#9E8D61"/>
<path d="M441.856 81.8933H424.759V31.5323H441.856V81.8933Z" fill="#9E8D61"/>
<path d="M493.144 81.8933H454.677V76.8569H450.404V36.5688H454.677V31.5323H493.144V41.6051H467.501V71.8205H476.047V61.7477H471.774V51.678H493.144V81.8933Z" fill="#9E8D61"/>
<path d="M544.436 81.8933H527.339V61.7477H518.79V81.8933H501.693V31.5323H518.79V51.678H527.339V31.5323H544.436V81.8933Z" fill="#9E8D61"/>
<path d="M595.727 41.6051H582.906V81.8933H565.809V41.6051H552.987V31.5323H595.73L595.727 41.6051Z" fill="#9E8D61"/>
<path d="M147.351 71.9658H143.057V77.0239H104.41V26.431H143.057V31.4891H147.351V71.9658ZM130.174 66.8923V36.5378H121.585V66.8923H130.174Z" fill="#876C1F"/>
<path d="M198.707 77.0239H160.061V71.9658H155.767V31.4891H160.061V26.431H198.707V36.5502H172.944V46.6694H185.827V56.7855H172.944V66.8923H198.707V77.0239Z" fill="#876C1F"/>
<path d="M250.237 77.0239H233.063V56.7855H224.474V77.0239H207.297V31.4891H211.591V26.431H245.946V31.4891H250.237V77.0239ZM233.06 46.6694V36.5502H224.474V46.6694H233.06Z" fill="#876C1F"/>
<path d="M301.77 71.9658H297.476V77.0239H258.829V26.431H297.476V31.4891H301.77V71.9658ZM284.592 66.8923V36.5378H276.004V66.8923H284.592Z" fill="#876C1F"/>
<path d="M365.092 76.9064H347.994V56.7639H339.446V76.9064H322.349V26.5485H339.446V46.6911H347.994V26.5485H365.092V46.6911H360.816V56.7639H365.092V76.9064Z" fill="#876C1F"/>
<path d="M416.21 76.9064H399.113V36.6213H390.564V76.9064H373.467V26.5485H411.934V31.5849H416.207L416.21 76.9064Z" fill="#876C1F"/>
<path d="M441.856 76.9064H424.759V26.5485H441.856V76.9064Z" fill="#876C1F"/>
<path d="M493.144 76.9064H454.677V71.87H450.404V31.5849H454.677V26.5485H493.144V36.6213H467.501V66.8336H476.047V56.7639H471.774V46.6911H493.144V76.9064Z" fill="#876C1F"/>
<path d="M544.436 76.9064H527.339V56.7639H518.79V76.9064H501.693V26.5485H518.79V46.6911H527.339V26.5485H544.436V76.9064Z" fill="#876C1F"/>
<path d="M595.727 36.6213H582.906V76.9064H565.809V36.6213H552.987V26.5485H595.73L595.727 36.6213Z" fill="#876C1F"/>
<path d="M424.919 21.5121H442.016V71.8699H424.919V21.5121ZM143.057 71.9658H104.41V21.3699H143.057V26.431H147.351V66.8923H143.057V71.9658ZM130.174 31.4891H121.585V61.8466H130.174V31.4891ZM160.234 71.9658H198.881V61.8466H173.115V51.7429H185.998V41.6237H173.115V31.5045H198.881V21.3853H160.234V26.4465H155.94V66.8923H160.234V71.9658ZM347.994 41.667H339.446V21.5245H322.349V71.8699H339.446V51.7429H347.994V71.8854H365.092V51.7429H360.816V41.6701H365.092V21.5276H347.994V41.667ZM412.107 21.5245H373.64V71.8699H390.737V31.5849H399.283V71.8699H416.38V26.5485H412.107V21.5245ZM297.649 71.9658H259.002V21.3699H297.649V26.431H301.943V66.8923H297.649V71.9658ZM284.766 31.4891H276.177V61.8466H284.766V31.4891ZM454.847 26.5423H450.581V66.8274H454.853V71.8638H493.324V41.6484H471.944V51.7429H476.22V61.8157H467.672V31.5849H493.333V21.5121H454.847V26.5423ZM553.164 21.5059V31.5787H565.988V71.8638H583.085V31.5849H595.891V21.5121L553.164 21.5059ZM527.502 41.6484H518.957V21.5059H501.86V71.8699H518.957V51.7429H527.502V71.8854H544.6V21.5121H527.502V41.6484ZM224.641 71.9472H207.47V26.431H211.764V21.3699H246.116V26.431H250.41V71.9658H233.233V51.7429H224.647L224.641 71.9472ZM224.641 41.5897H233.233V31.4705H224.647L224.641 41.5897Z" fill="white"/>
<path d="M47.671 84.5924H45.1204V87.1431H47.671V84.5924Z" fill="black"/>
<path d="M47.671 82.0417H45.1204V84.5924H47.671V82.0417Z" fill="black"/>
<path d="M47.671 79.4911H45.1204V82.0418H47.671V79.4911Z" fill="black"/>
<path d="M47.671 76.9404H45.1204V79.491H47.671V76.9404Z" fill="black"/>
<path d="M50.2216 84.5924H47.6709V87.1431H50.2216V84.5924Z" fill="black"/>
<path d="M50.2216 82.0417H47.6709V84.5924H50.2216V82.0417Z" fill="#A32633"/>
<path d="M50.2216 79.4911H47.6709V82.0418H50.2216V79.4911Z" fill="#A32633"/>
<path d="M50.2216 76.9404H47.6709V79.491H50.2216V76.9404Z" fill="#A32633"/>
<path d="M50.2216 74.3898H47.6709V76.9404H50.2216V74.3898Z" fill="black"/>
<path d="M50.2216 71.8422H47.6709V74.3929H50.2216V71.8422Z" fill="black"/>
<path d="M50.2216 69.2915H47.6709V71.8422H50.2216V69.2915Z" fill="black"/>
<path d="M50.2216 66.7408H47.6709V69.2914H50.2216V66.7408Z" fill="black"/>
<path d="M50.2216 48.8893H47.6709V51.44H50.2216V48.8893Z" fill="#FAAC35"/>
<path d="M50.2216 46.3386H47.6709V48.8893H50.2216V46.3386Z" fill="#FAAC35"/>
<path d="M50.2216 20.8382H47.6709V23.3889H50.2216V20.8382Z" fill="black"/>
<path d="M50.2216 18.2875H47.6709V20.8381H50.2216V18.2875Z" fill="black"/>
<path d="M50.2216 15.7368H47.6709V18.2875H50.2216V15.7368Z" fill="black"/>
<path d="M50.2216 13.1862H47.6709V15.7368H50.2216V13.1862Z" fill="black"/>
<path d="M50.2216 10.6354H47.6709V13.1861H50.2216V10.6354Z" fill="black"/>
<path d="M50.2216 8.08789H47.6709V10.6386H50.2216V8.08789Z" fill="black"/>
<path d="M50.2216 5.53723H47.6709V8.0879H50.2216V5.53723Z" fill="black"/>
<path d="M52.7726 84.5924H50.2219V87.1431H52.7726V84.5924Z" fill="black"/>
<path d="M52.7726 82.0417H50.2219V84.5924H52.7726V82.0417Z" fill="#A32633"/>
<path d="M52.7726 79.4911H50.2219V82.0418H52.7726V79.4911Z" fill="#A32633"/>
<path d="M52.7726 76.9404H50.2219V79.491H52.7726V76.9404Z" fill="#A32633"/>
<path d="M52.7726 74.3898H50.2219V76.9404H52.7726V74.3898Z" fill="#A32633"/>
<path d="M52.7726 71.8422H50.2219V74.3929H52.7726V71.8422Z" fill="#A32633"/>
<path d="M52.7726 69.3564H50.2219V71.9071H52.7726V69.3564Z" fill="#A32633"/>
<path d="M52.7726 48.8893H50.2219V51.44H52.7726V48.8893Z" fill="#FAAC35"/>
<path d="M52.7726 46.3386H50.2219V48.8893H52.7726V46.3386Z" fill="black"/>
<path d="M52.7726 43.788H50.2219V46.3386H52.7726V43.788Z" fill="black"/>
<path d="M52.7726 41.2373H50.2219V43.788H52.7726V41.2373Z" fill="black"/>
<path d="M52.7726 38.6898H50.2219V41.2404H52.7726V38.6898Z" fill="black"/>
<path d="M52.7726 36.139H50.2219V38.6897H52.7726V36.139Z" fill="black"/>
<path d="M52.7726 33.5883H50.2219V36.139H52.7726V33.5883Z" fill="black"/>
<path d="M52.7726 31.0377H50.2219V33.5884H52.7726V31.0377Z" fill="black"/>
<path d="M52.7726 28.487H50.2219V31.0377H52.7726V28.487Z" fill="black"/>
<path d="M52.7726 25.9364H50.2219V28.4871H52.7726V25.9364Z" fill="black"/>
<path d="M52.7726 23.3888H50.2219V25.9395H52.7726V23.3888Z" fill="black"/>
<path d="M52.7726 20.8382H50.2219V23.3889H52.7726V20.8382Z" fill="#F9A533"/>
<path d="M52.7726 18.2875H50.2219V20.8381H52.7726V18.2875Z" fill="#F9A533"/>
<path d="M52.7726 15.7368H50.2219V18.2875H52.7726V15.7368Z" fill="#F9A533"/>
<path d="M52.7726 13.1862H50.2219V15.7368H52.7726V13.1862Z" fill="#F9A533"/>
<path d="M52.7726 10.6354H50.2219V13.1861H52.7726V10.6354Z" fill="#F9A533"/>
<path d="M52.7726 8.08789H50.2219V10.6386H52.7726V8.08789Z" fill="black"/>
<path d="M55.3229 84.5924H52.7722V87.1431H55.3229V84.5924Z" fill="black"/>
<path d="M55.3229 82.0417H52.7722V84.5924H55.3229V82.0417Z" fill="#A32633"/>
<path d="M55.3229 79.4911H52.7722V82.0418H55.3229V79.4911Z" fill="#A32633"/>
<path d="M55.3229 76.9404H52.7722V79.491H55.3229V76.9404Z" fill="#A32633"/>
<path d="M55.3229 74.3898H52.7722V76.9404H55.3229V74.3898Z" fill="#A32633"/>
<path d="M55.3229 71.8422H52.7722V74.3929H55.3229V71.8422Z" fill="black"/>
<path d="M55.3229 61.6395H52.7722V64.1901H55.3229V61.6395Z" fill="black"/>
<path d="M55.3229 59.0889H52.7722V61.6395H55.3229V59.0889Z" fill="black"/>
<path d="M55.3229 56.5381H52.7722V59.0888H55.3229V56.5381Z" fill="#F37623"/>
<path d="M55.3229 53.9906H52.7722V56.5413H55.3229V53.9906Z" fill="#FAAC35"/>
<path d="M55.3229 51.4399H52.7722V53.9906H55.3229V51.4399Z" fill="#FAAC35"/>
<path d="M55.3229 48.8893H52.7722V51.44H55.3229V48.8893Z" fill="black"/>
<path d="M55.3229 46.3386H52.7722V48.8893H55.3229V46.3386Z" fill="#5C6E73"/>
<path d="M55.3229 43.788H52.7722V46.3386H55.3229V43.788Z" fill="#5C6E73"/>
<path d="M55.3229 41.2373H52.7722V43.788H55.3229V41.2373Z" fill="#5C6E73"/>
<path d="M55.3229 38.6898H52.7722V41.2404H55.3229V38.6898Z" fill="#C6D5DC"/>
<path d="M55.3229 36.139H52.7722V38.6897H55.3229V36.139Z" fill="#C6D5DC"/>
<path d="M55.3229 33.5883H52.7722V36.139H55.3229V33.5883Z" fill="#C6D5DC"/>
<path d="M55.3229 31.0377H52.7722V33.5884H55.3229V31.0377Z" fill="#C6D5DC"/>
<path d="M55.3229 28.487H52.7722V31.0377H55.3229V28.487Z" fill="black"/>
<path d="M55.3229 25.9364H52.7722V28.4871H55.3229V25.9364Z" fill="#F9A533"/>
<path d="M55.3229 23.3888H52.7722V25.9395H55.3229V23.3888Z" fill="#F9A533"/>
<path d="M55.3229 20.8382H52.7722V23.3889H55.3229V20.8382Z" fill="#F9A533"/>
<path d="M55.3229 18.2875H52.7722V20.8381H55.3229V18.2875Z" fill="#F9A533"/>
<path d="M55.3229 15.7368H52.7722V18.2875H55.3229V15.7368Z" fill="#F37920"/>
<path d="M55.3229 13.1862H52.7722V15.7368H55.3229V13.1862Z" fill="#F37920"/>
<path d="M55.3229 10.6354H52.7722V13.1861H55.3229V10.6354Z" fill="black"/>
<path d="M57.8739 84.5924H55.3232V87.1431H57.8739V84.5924Z" fill="black"/>
<path d="M57.8739 82.0417H55.3232V84.5924H57.8739V82.0417Z" fill="#A32633"/>
<path d="M57.8739 79.4911H55.3232V82.0418H57.8739V79.4911Z" fill="black"/>
<path d="M57.8739 76.9404H55.3232V79.491H57.8739V76.9404Z" fill="black"/>
<path d="M57.8739 74.3898H55.3232V76.9404H57.8739V74.3898Z" fill="black"/>
<path d="M57.8739 71.8422H55.3232V74.3929H57.8739V71.8422Z" fill="black"/>
<path d="M57.8739 69.2915H55.3232V71.8422H57.8739V69.2915Z" fill="black"/>
<path d="M57.8739 64.1902H55.3232V66.7409H57.8739V64.1902Z" fill="black"/>
<path d="M57.8739 61.6395H55.3232V64.1901H57.8739V61.6395Z" fill="black"/>
<path d="M57.8739 59.0889H55.3232V61.6395H57.8739V59.0889Z" fill="#3B4566"/>
<path d="M57.8739 56.5381H55.3232V59.0888H57.8739V56.5381Z" fill="#F37623"/>
<path d="M57.8739 53.9906H55.3232V56.5413H57.8739V53.9906Z" fill="black"/>
<path d="M57.8739 51.4399H55.3232V53.9906H57.8739V51.4399Z" fill="black"/>
<path d="M57.8739 48.8893H55.3232V51.44H57.8739V48.8893Z" fill="#384C53"/>
<path d="M57.8739 46.3386H55.3232V48.8893H57.8739V46.3386Z" fill="black"/>
<path d="M57.8739 43.788H55.3232V46.3386H57.8739V43.788Z" fill="black"/>
<path d="M57.8739 41.2373H55.3232V43.788H57.8739V41.2373Z" fill="black"/>
<path d="M57.8739 38.6898H55.3232V41.2404H57.8739V38.6898Z" fill="#DEE8ED"/>
<path d="M57.8739 36.139H55.3232V38.6897H57.8739V36.139Z" fill="#DEE8ED"/>
<path d="M57.8739 33.5883H55.3232V36.139H57.8739V33.5883Z" fill="#C5D4DB"/>
<path d="M57.8739 31.0377H55.3232V33.5884H57.8739V31.0377Z" fill="#C6D5DC"/>
<path d="M57.8739 28.487H55.3232V31.0377H57.8739V28.487Z" fill="black"/>
<path d="M57.8739 25.9364H55.3232V28.4871H57.8739V25.9364Z" fill="#F9A533"/>
<path d="M57.8739 23.3888H55.3232V25.9395H57.8739V23.3888Z" fill="#F9A533"/>
<path d="M57.8739 20.8382H55.3232V23.3889H57.8739V20.8382Z" fill="#F9A533"/>
<path d="M57.8739 18.2875H55.3232V20.8381H57.8739V18.2875Z" fill="#F37920"/>
<path d="M57.8739 15.7368H55.3232V18.2875H57.8739V15.7368Z" fill="#F37920"/>
<path d="M57.8739 13.1862H55.3232V15.7368H57.8739V13.1862Z" fill="black"/>
<path d="M60.4244 84.5924H57.8738V87.1431H60.4244V84.5924Z" fill="black"/>
<path d="M60.4244 82.0417H57.8738V84.5924H60.4244V82.0417Z" fill="black"/>
<path d="M60.4244 79.4911H57.8738V82.0418H60.4244V79.4911Z" fill="black"/>
<path d="M60.4244 76.9404H57.8738V79.491H60.4244V76.9404Z" fill="#262B44"/>
<path d="M60.4244 74.3898H57.8738V76.9404H60.4244V74.3898Z" fill="#F37920"/>
<path d="M60.4244 71.8422H57.8738V74.3929H60.4244V71.8422Z" fill="#F9A533"/>
<path d="M60.4244 69.2915H57.8738V71.8422H60.4244V69.2915Z" fill="black"/>
<path d="M60.4244 66.7408H57.8738V69.2914H60.4244V66.7408Z" fill="black"/>
<path d="M60.4244 64.1902H57.8738V66.7409H60.4244V64.1902Z" fill="black"/>
<path d="M60.4244 61.6395H57.8738V64.1901H60.4244V61.6395Z" fill="black"/>
<path d="M60.4244 59.0889H57.8738V61.6395H60.4244V59.0889Z" fill="black"/>
<path d="M60.4244 56.5381H57.8738V59.0888H60.4244V56.5381Z" fill="black"/>
<path d="M60.4244 53.9906H57.8738V56.5413H60.4244V53.9906Z" fill="#5C6E73"/>
<path d="M60.4244 51.4399H57.8738V53.9906H60.4244V51.4399Z" fill="#7C8D92"/>
<path d="M60.4244 48.8893H57.8738V51.44H60.4244V48.8893Z" fill="#5C6E73"/>
<path d="M60.4244 46.3386H57.8738V48.8893H60.4244V46.3386Z" fill="black"/>
<path d="M60.4244 43.788H57.8738V46.3386H60.4244V43.788Z" fill="#D2D17C"/>
<path d="M60.4244 41.2373H57.8738V43.788H60.4244V41.2373Z" fill="black"/>
<path d="M60.4244 38.6898H57.8738V41.2404H60.4244V38.6898Z" fill="#A0AFB5"/>
<path d="M60.4244 36.139H57.8738V38.6897H60.4244V36.139Z" fill="#DEE8ED"/>
<path d="M60.4244 33.5883H57.8738V36.139H60.4244V33.5883Z" fill="#DEE8ED"/>
<path d="M60.4244 31.0377H57.8738V33.5884H60.4244V31.0377Z" fill="#DEE8ED"/>
<path d="M60.4244 28.487H57.8738V31.0377H60.4244V28.487Z" fill="#9FAAB0"/>
<path d="M60.4244 25.9364H57.8738V28.4871H60.4244V25.9364Z" fill="#F9A533"/>
<path d="M60.4244 23.3888H57.8738V25.9395H60.4244V23.3888Z" fill="#F9A533"/>
<path d="M60.4244 20.8382H57.8738V23.3889H60.4244V20.8382Z" fill="#F9A533"/>
<path d="M60.4244 18.2875H57.8738V20.8381H60.4244V18.2875Z" fill="#F37920"/>
<path d="M60.4244 15.7368H57.8738V18.2875H60.4244V15.7368Z" fill="black"/>
<path d="M62.9721 85.9589H60.4214V87.916H62.9721V85.9589Z" fill="black"/>
<path d="M62.9721 83.9988H60.4214V85.9558H62.9721V83.9988Z" fill="black"/>
<path d="M62.9721 82.0417H60.4214V83.9988H62.9721V82.0417Z" fill="#1498D5"/>
<path d="M62.9721 79.4911H60.4214V82.0418H62.9721V79.4911Z" fill="#1498D5"/>
<path d="M62.9721 76.9404H60.4214V79.491H62.9721V76.9404Z" fill="black"/>
<path d="M62.9721 74.3898H60.4214V76.9404H62.9721V74.3898Z" fill="#262B44"/>
<path d="M62.9721 71.8422H60.4214V74.3929H62.9721V71.8422Z" fill="#5B6987"/>
<path d="M62.9721 69.2915H60.4214V71.8422H62.9721V69.2915Z" fill="black"/>
<path d="M62.9721 66.7408H60.4214V69.2914H62.9721V66.7408Z" fill="#5B6987"/>
<path d="M62.9721 64.1902H60.4214V66.7409H62.9721V64.1902Z" fill="#F9A533"/>
<path d="M62.9721 61.6395H60.4214V64.1901H62.9721V61.6395Z" fill="#F9A533"/>
<path d="M62.9721 59.0889H60.4214V61.6395H62.9721V59.0889Z" fill="#F9A533"/>
<path d="M62.9721 56.5381H60.4214V59.0888H62.9721V56.5381Z" fill="black"/>
<path d="M62.9721 53.9906H60.4214V56.5413H62.9721V53.9906Z" fill="black"/>
<path d="M62.9721 51.4399H60.4214V53.9906H62.9721V51.4399Z" fill="#909CA0"/>
<path d="M62.9721 48.8893H60.4214V51.44H62.9721V48.8893Z" fill="#909CA0"/>
<path d="M62.9721 46.3386H60.4214V48.8893H62.9721V46.3386Z" fill="#7C8E93"/>
<path d="M62.9721 43.788H60.4214V46.3386H62.9721V43.788Z" fill="black"/>
<path d="M62.9721 41.2373H60.4214V43.788H62.9721V41.2373Z" fill="black"/>
<path d="M62.9721 38.6898H60.4214V41.2404H62.9721V38.6898Z" fill="#A0AFB5"/>
<path d="M62.9721 36.139H60.4214V38.6897H62.9721V36.139Z" fill="#DEE8ED"/>
<path d="M62.9721 33.5883H60.4214V36.139H62.9721V33.5883Z" fill="#DEE8ED"/>
<path d="M62.9721 31.0377H60.4214V33.5884H62.9721V31.0377Z" fill="#DEE8ED"/>
<path d="M62.9721 28.487H60.4214V31.0377H62.9721V28.487Z" fill="#B0BABE"/>
<path d="M62.9721 25.9364H60.4214V28.4871H62.9721V25.9364Z" fill="#F9A533"/>
<path d="M62.9721 23.3888H60.4214V25.9395H62.9721V23.3888Z" fill="#F9A533"/>
<path d="M62.9721 20.8382H60.4214V23.3889H62.9721V20.8382Z" fill="#F9A533"/>
<path d="M62.9721 18.2875H60.4214V20.8381H62.9721V18.2875Z" fill="#F9A533"/>
<path d="M62.9721 15.7368H60.4214V18.2875H62.9721V15.7368Z" fill="#F9A533"/>
<path d="M62.9721 13.1862H60.4214V15.7368H62.9721V13.1862Z" fill="black"/>
<path d="M62.9721 10.6354H60.4214V13.1861H62.9721V10.6354Z" fill="black"/>
<path d="M65.5226 85.9589H62.9719V87.916H65.5226V85.9589Z" fill="black"/>
<path d="M65.5226 83.9988H62.9719V85.9558H65.5226V83.9988Z" fill="#3F2731"/>
<path d="M65.5226 82.0417H62.9719V83.9988H65.5226V82.0417Z" fill="#124F8A"/>
<path d="M65.5226 79.4911H62.9719V82.0418H65.5226V79.4911Z" fill="#124F8A"/>
<path d="M65.5226 76.9404H62.9719V79.491H65.5226V76.9404Z" fill="black"/>
<path d="M65.5226 74.3898H62.9719V76.9404H65.5226V74.3898Z" fill="black"/>
<path d="M65.5226 71.8422H62.9719V74.3929H65.5226V71.8422Z" fill="black"/>
<path d="M65.5226 69.2915H62.9719V71.8422H65.5226V69.2915Z" fill="black"/>
<path d="M65.5226 66.7408H62.9719V69.2914H65.5226V66.7408Z" fill="#5B6987"/>
<path d="M65.5226 64.1902H62.9719V66.7409H65.5226V64.1902Z" fill="#F9A533"/>
<path d="M65.5226 61.6395H62.9719V64.1901H65.5226V61.6395Z" fill="#E43C45"/>
<path d="M65.5226 59.0889H62.9719V61.6395H65.5226V59.0889Z" fill="#F9A533"/>
<path d="M65.5226 56.5381H62.9719V59.0888H65.5226V56.5381Z" fill="black"/>
<path d="M65.5226 53.9906H62.9719V56.5413H65.5226V53.9906Z" fill="#5C6E73"/>
<path d="M65.5226 51.4399H62.9719V53.9906H65.5226V51.4399Z" fill="#7C8D92"/>
<path d="M65.5226 48.8893H62.9719V51.44H65.5226V48.8893Z" fill="#5C6E73"/>
<path d="M65.5226 46.3386H62.9719V48.8893H65.5226V46.3386Z" fill="#C6D5DC"/>
<path d="M65.5226 43.788H62.9719V46.3386H65.5226V43.788Z" fill="#7C8E93"/>
<path d="M65.5226 41.2373H62.9719V43.788H65.5226V41.2373Z" fill="#384C53"/>
<path d="M65.5226 38.6898H62.9719V41.2404H65.5226V38.6898Z" fill="#384C53"/>
<path d="M65.5226 36.139H62.9719V38.6897H65.5226V36.139Z" fill="#DEE8ED"/>
<path d="M65.5226 33.5883H62.9719V36.139H65.5226V33.5883Z" fill="#DEE8ED"/>
<path d="M65.5226 31.0377H62.9719V33.5884H65.5226V31.0377Z" fill="#DEE8ED"/>
<path d="M65.5226 28.487H62.9719V31.0377H65.5226V28.487Z" fill="#B0BABE"/>
<path d="M65.5226 25.9364H62.9719V28.4871H65.5226V25.9364Z" fill="#F9A533"/>
<path d="M65.5226 23.3888H62.9719V25.9395H65.5226V23.3888Z" fill="#F9A533"/>
<path d="M65.5226 20.8382H62.9719V23.3889H65.5226V20.8382Z" fill="#F9A533"/>
<path d="M65.5226 18.2875H62.9719V20.8381H65.5226V18.2875Z" fill="#E43C45"/>
<path d="M65.5226 15.7368H62.9719V18.2875H65.5226V15.7368Z" fill="#E43C45"/>
<path d="M65.5226 13.1862H62.9719V15.7368H65.5226V13.1862Z" fill="#F9A533"/>
<path d="M65.5226 10.6354H62.9719V13.1861H65.5226V10.6354Z" fill="#F9A533"/>
<path d="M65.5226 8.08789H62.9719V10.6386H65.5226V8.08789Z" fill="black"/>
<path d="M65.5226 5.53723H62.9719V8.0879H65.5226V5.53723Z" fill="black"/>
<path d="M68.0734 85.9589H65.5227V87.916H68.0734V85.9589Z" fill="black"/>
<path d="M68.0734 83.9988H65.5227V85.9558H68.0734V83.9988Z" fill="black"/>
<path d="M68.0734 82.0417H65.5227V83.9988H68.0734V82.0417Z" fill="black"/>
<path d="M68.0734 79.4911H65.5227V82.0418H68.0734V79.4911Z" fill="black"/>
<path d="M68.0734 76.9404H65.5227V79.491H68.0734V76.9404Z" fill="black"/>
<path d="M68.0734 74.3898H65.5227V76.9404H68.0734V74.3898Z" fill="#1498D5"/>
<path d="M68.0734 71.8422H65.5227V74.3929H68.0734V71.8422Z" fill="#F9A533"/>
<path d="M68.0734 69.2915H65.5227V71.8422H68.0734V69.2915Z" fill="black"/>
<path d="M68.0734 66.7408H65.5227V69.2914H68.0734V66.7408Z" fill="#5B6987"/>
<path d="M68.0734 64.1902H65.5227V66.7409H68.0734V64.1902Z" fill="#A32633"/>
<path d="M68.0734 61.6395H65.5227V64.1901H68.0734V61.6395Z" fill="#DEE8ED"/>
<path d="M68.0734 59.0889H65.5227V61.6395H68.0734V59.0889Z" fill="#F9A533"/>
<path d="M68.0734 56.5381H65.5227V59.0888H68.0734V56.5381Z" fill="black"/>
<path d="M68.0734 53.9906H65.5227V56.5413H68.0734V53.9906Z" fill="black"/>
<path d="M68.0734 51.4399H65.5227V53.9906H68.0734V51.4399Z" fill="#909CA0"/>
<path d="M68.0734 48.8893H65.5227V51.44H68.0734V48.8893Z" fill="#384C53"/>
<path d="M68.0734 46.3386H65.5227V48.8893H68.0734V46.3386Z" fill="black"/>
<path d="M68.0734 43.788H65.5227V46.3386H68.0734V43.788Z" fill="#919DA1"/>
<path d="M68.0734 41.2373H65.5227V43.788H68.0734V41.2373Z" fill="#7C8E93"/>
<path d="M68.0734 38.6898H65.5227V41.2404H68.0734V38.6898Z" fill="#5C6E73"/>
<path d="M68.0734 36.139H65.5227V38.6897H68.0734V36.139Z" fill="#DEE8ED"/>
<path d="M68.0734 33.5883H65.5227V36.139H68.0734V33.5883Z" fill="#DEE8ED"/>
<path d="M68.0734 31.0377H65.5227V33.5884H68.0734V31.0377Z" fill="#DEE8ED"/>
<path d="M68.0734 28.487H65.5227V31.0377H68.0734V28.487Z" fill="#B0BABE"/>
<path d="M68.0734 25.9364H65.5227V28.4871H68.0734V25.9364Z" fill="#F9A533"/>
<path d="M68.0734 23.3888H65.5227V25.9395H68.0734V23.3888Z" fill="#F9A533"/>
<path d="M68.0734 20.8382H65.5227V23.3889H68.0734V20.8382Z" fill="#A32633"/>
<path d="M68.0734 18.2875H65.5227V20.8381H68.0734V18.2875Z" fill="#E43C45"/>
<path d="M68.0734 15.7368H65.5227V18.2875H68.0734V15.7368Z" fill="white"/>
<path d="M68.0734 13.1862H65.5227V15.7368H68.0734V13.1862Z" fill="#E43C45"/>
<path d="M68.0734 10.6354H65.5227V13.1861H68.0734V10.6354Z" fill="#F37920"/>
<path d="M68.0734 8.08789H65.5227V10.6386H68.0734V8.08789Z" fill="#F37920"/>
<path d="M68.0734 5.53723H65.5227V8.0879H68.0734V5.53723Z" fill="#F9A533"/>
<path d="M68.0734 2.98663H65.5227V5.5373H68.0734V2.98663Z" fill="black"/>
<path d="M68.0734 0.435852H65.5227V2.98652H68.0734V0.435852Z" fill="black"/>
<path d="M70.6242 84.5924H68.0735V87.1431H70.6242V84.5924Z" fill="black"/>
<path d="M70.6242 82.0417H68.0735V84.5924H70.6242V82.0417Z" fill="#A32633"/>
<path d="M70.6242 79.4911H68.0735V82.0418H70.6242V79.4911Z" fill="#A32633"/>
<path d="M70.6242 76.9404H68.0735V79.491H70.6242V76.9404Z" fill="black"/>
<path d="M70.6242 74.3898H68.0735V76.9404H70.6242V74.3898Z" fill="#1498D5"/>
<path d="M70.6242 71.8422H68.0735V74.3929H70.6242V71.8422Z" fill="#F9A533"/>
<path d="M70.6242 69.2915H68.0735V71.8422H70.6242V69.2915Z" fill="black"/>
<path d="M70.6242 66.7408H68.0735V69.2914H70.6242V66.7408Z" fill="#5B6987"/>
<path d="M70.6242 64.1902H68.0735V66.7409H70.6242V64.1902Z" fill="#A32633"/>
<path d="M70.6242 61.6395H68.0735V64.1901H70.6242V61.6395Z" fill="#A32633"/>
<path d="M70.6242 59.0889H68.0735V61.6395H70.6242V59.0889Z" fill="#F9A533"/>
<path d="M70.6242 56.5381H68.0735V59.0888H70.6242V56.5381Z" fill="black"/>
<path d="M70.6242 53.9906H68.0735V56.5413H70.6242V53.9906Z" fill="#5C6E73"/>
<path d="M70.6242 51.4399H68.0735V53.9906H70.6242V51.4399Z" fill="#7C8D92"/>
<path d="M70.6242 48.8893H68.0735V51.44H70.6242V48.8893Z" fill="#49636C"/>
<path d="M70.6242 46.3386H68.0735V48.8893H70.6242V46.3386Z" fill="#384C53"/>
<path d="M70.6242 43.788H68.0735V46.3386H70.6242V43.788Z" fill="#919DA1"/>
<path d="M70.6242 41.2373H68.0735V43.788H70.6242V41.2373Z" fill="#7C8E93"/>
<path d="M70.6242 38.6898H68.0735V41.2404H70.6242V38.6898Z" fill="#5C6E73"/>
<path d="M70.6242 36.139H68.0735V38.6897H70.6242V36.139Z" fill="#DEE8ED"/>
<path d="M70.6242 33.5883H68.0735V36.139H70.6242V33.5883Z" fill="#DEE8ED"/>
<path d="M70.6242 31.0377H68.0735V33.5884H70.6242V31.0377Z" fill="#DEE8ED"/>
<path d="M70.6242 28.487H68.0735V31.0377H70.6242V28.487Z" fill="#B0BABE"/>
<path d="M70.6242 25.9364H68.0735V28.4871H70.6242V25.9364Z" fill="#F9A533"/>
<path d="M70.6242 23.3888H68.0735V25.9395H70.6242V23.3888Z" fill="#F9A533"/>
<path d="M70.6242 20.8382H68.0735V23.3889H70.6242V20.8382Z" fill="#F9A533"/>
<path d="M70.6242 18.2875H68.0735V20.8381H70.6242V18.2875Z" fill="#A32633"/>
<path d="M70.6242 15.7368H68.0735V18.2875H70.6242V15.7368Z" fill="#F37920"/>
<path d="M70.6242 13.1862H68.0735V15.7368H70.6242V13.1862Z" fill="#F37920"/>
<path d="M70.6242 10.6354H68.0735V13.1861H70.6242V10.6354Z" fill="#F37920"/>
<path d="M70.6242 8.08789H68.0735V10.6386H70.6242V8.08789Z" fill="black"/>
<path d="M70.6242 5.53723H68.0735V8.0879H70.6242V5.53723Z" fill="black"/>
<path d="M73.1749 84.5924H70.6243V87.1431H73.1749V84.5924Z" fill="black"/>
<path d="M73.1749 82.0417H70.6243V84.5924H73.1749V82.0417Z" fill="#A32633"/>
<path d="M73.1749 79.4911H70.6243V82.0418H73.1749V79.4911Z" fill="#A32633"/>
<path d="M73.1749 76.9404H70.6243V79.491H73.1749V76.9404Z" fill="black"/>
<path d="M73.1749 74.3898H70.6243V76.9404H73.1749V74.3898Z" fill="#1498D5"/>
<path d="M73.1749 71.8422H70.6243V74.3929H73.1749V71.8422Z" fill="#F37920"/>
<path d="M73.1749 69.2915H70.6243V71.8422H73.1749V69.2915Z" fill="black"/>
<path d="M73.1749 66.7408H70.6243V69.2914H73.1749V66.7408Z" fill="#3B4566"/>
<path d="M73.1749 64.1902H70.6243V66.7409H73.1749V64.1902Z" fill="#F37623"/>
<path d="M73.1749 61.6395H70.6243V64.1901H73.1749V61.6395Z" fill="#A32633"/>
<path d="M73.1749 59.0889H70.6243V61.6395H73.1749V59.0889Z" fill="#F9A533"/>
<path d="M73.1749 56.5381H70.6243V59.0888H73.1749V56.5381Z" fill="black"/>
<path d="M73.1749 53.9906H70.6243V56.5413H73.1749V53.9906Z" fill="black"/>
<path d="M73.1749 51.4399H70.6243V53.9906H73.1749V51.4399Z" fill="#909CA0"/>
<path d="M73.1749 48.8893H70.6243V51.44H73.1749V48.8893Z" fill="#5C6E73"/>
<path d="M73.1749 46.3386H70.6243V48.8893H73.1749V46.3386Z" fill="#C6D5DC"/>
<path d="M73.1749 43.788H70.6243V46.3386H73.1749V43.788Z" fill="#7C8E93"/>
<path d="M73.1749 41.2373H70.6243V43.788H73.1749V41.2373Z" fill="#384C53"/>
<path d="M73.1749 38.6898H70.6243V41.2404H73.1749V38.6898Z" fill="#384C53"/>
<path d="M73.1749 36.139H70.6243V38.6897H73.1749V36.139Z" fill="#DEE8ED"/>
<path d="M73.1749 33.5883H70.6243V36.139H73.1749V33.5883Z" fill="#DEE8ED"/>
<path d="M73.1749 31.0377H70.6243V33.5884H73.1749V31.0377Z" fill="#DEE8ED"/>
<path d="M73.1749 28.487H70.6243V31.0377H73.1749V28.487Z" fill="#9FAAB0"/>
<path d="M73.1749 25.9364H70.6243V28.4871H73.1749V25.9364Z" fill="#F9A533"/>
<path d="M73.1749 23.3888H70.6243V25.9395H73.1749V23.3888Z" fill="#F9A533"/>
<path d="M73.1749 20.8382H70.6243V23.3889H73.1749V20.8382Z" fill="#F9A533"/>
<path d="M73.1749 18.2875H70.6243V20.8381H73.1749V18.2875Z" fill="#F9A533"/>
<path d="M73.1749 15.7368H70.6243V18.2875H73.1749V15.7368Z" fill="#F37920"/>
<path d="M73.1749 13.1862H70.6243V15.7368H73.1749V13.1862Z" fill="black"/>
<path d="M73.1749 10.6354H70.6243V13.1861H73.1749V10.6354Z" fill="black"/>
<path d="M75.7255 84.5924H73.1748V87.1431H75.7255V84.5924Z" fill="black"/>
<path d="M75.7255 82.0417H73.1748V84.5924H75.7255V82.0417Z" fill="#A32633"/>
<path d="M75.7255 79.4911H73.1748V82.0418H75.7255V79.4911Z" fill="#A32633"/>
<path d="M75.7255 76.9404H73.1748V79.491H75.7255V76.9404Z" fill="black"/>
<path d="M75.7255 74.3898H73.1748V76.9404H75.7255V74.3898Z" fill="#124F8A"/>
<path d="M75.7255 71.8422H73.1748V74.3929H75.7255V71.8422Z" fill="#3F2731"/>
<path d="M75.7255 69.2915H73.1748V71.8422H75.7255V69.2915Z" fill="black"/>
<path d="M75.7255 66.7408H73.1748V69.2914H75.7255V66.7408Z" fill="#3B4566"/>
<path d="M75.7255 64.1902H73.1748V66.7409H75.7255V64.1902Z" fill="#F37623"/>
<path d="M75.7255 61.6395H73.1748V64.1901H75.7255V61.6395Z" fill="#F37623"/>
<path d="M75.7255 59.0889H73.1748V61.6395H75.7255V59.0889Z" fill="#F37623"/>
<path d="M75.7255 56.5381H73.1748V59.0888H75.7255V56.5381Z" fill="black"/>
<path d="M75.7255 53.9906H73.1748V56.5413H75.7255V53.9906Z" fill="#5C6E73"/>
<path d="M75.7255 51.4399H73.1748V53.9906H75.7255V51.4399Z" fill="#7C8D92"/>
<path d="M75.7255 48.8893H73.1748V51.44H75.7255V48.8893Z" fill="#909CA0"/>
<path d="M75.7255 46.3386H73.1748V48.8893H75.7255V46.3386Z" fill="#7C8E93"/>
<path d="M75.7255 43.788H73.1748V46.3386H75.7255V43.788Z" fill="black"/>
<path d="M75.7255 41.2373H73.1748V43.788H75.7255V41.2373Z" fill="black"/>
<path d="M75.7255 38.6898H73.1748V41.2404H75.7255V38.6898Z" fill="#A0AFB5"/>
<path d="M75.7255 36.139H73.1748V38.6897H75.7255V36.139Z" fill="#DEE8ED"/>
<path d="M75.7255 33.5883H73.1748V36.139H75.7255V33.5883Z" fill="#C6D5DC"/>
<path d="M75.7255 31.0377H73.1748V33.5884H75.7255V31.0377Z" fill="#DEE8ED"/>
<path d="M75.7255 28.487H73.1748V31.0377H75.7255V28.487Z" fill="#9FAAB0"/>
<path d="M75.7255 25.9364H73.1748V28.4871H75.7255V25.9364Z" fill="#F37920"/>
<path d="M75.7255 23.3888H73.1748V25.9395H75.7255V23.3888Z" fill="#F9A533"/>
<path d="M75.7255 20.8382H73.1748V23.3889H75.7255V20.8382Z" fill="#F9A533"/>
<path d="M75.7255 18.2875H73.1748V20.8381H75.7255V18.2875Z" fill="#F9A533"/>
<path d="M75.7255 15.7368H73.1748V18.2875H75.7255V15.7368Z" fill="#F37920"/>
<path d="M75.7255 13.1862H73.1748V15.7368H75.7255V13.1862Z" fill="black"/>
<path d="M78.276 84.5924H75.7253V87.1431H78.276V84.5924Z" fill="black"/>
<path d="M78.276 82.0417H75.7253V84.5924H78.276V82.0417Z" fill="#A32633"/>
<path d="M78.276 79.4911H75.7253V82.0418H78.276V79.4911Z" fill="#A32633"/>
<path d="M78.276 76.9404H75.7253V79.491H78.276V76.9404Z" fill="black"/>
<path d="M78.276 74.3898H75.7253V76.9404H78.276V74.3898Z" fill="#124F8A"/>
<path d="M78.276 71.8422H75.7253V74.3929H78.276V71.8422Z" fill="#3F2731"/>
<path d="M78.276 69.2915H75.7253V71.8422H78.276V69.2915Z" fill="black"/>
<path d="M78.276 66.7408H75.7253V69.2914H78.276V66.7408Z" fill="#3B4566"/>
<path d="M78.276 64.1902H75.7253V66.7409H78.276V64.1902Z" fill="#5B6987"/>
<path d="M78.276 61.6395H75.7253V64.1901H78.276V61.6395Z" fill="#F37623"/>
<path d="M78.276 59.0889H75.7253V61.6395H78.276V59.0889Z" fill="#F37623"/>
<path d="M78.276 56.5381H75.7253V59.0888H78.276V56.5381Z" fill="black"/>
<path d="M78.276 53.9906H75.7253V56.5413H78.276V53.9906Z" fill="black"/>
<path d="M78.276 51.4399H75.7253V53.9906H78.276V51.4399Z" fill="#5C6E73"/>
<path d="M78.276 48.8893H75.7253V51.44H78.276V48.8893Z" fill="#5C6E73"/>
<path d="M78.276 46.3386H75.7253V48.8893H78.276V46.3386Z" fill="black"/>
<path d="M78.276 43.788H75.7253V46.3386H78.276V43.788Z" fill="#D2D17C"/>
<path d="M78.276 41.2373H75.7253V43.788H78.276V41.2373Z" fill="black"/>
<path d="M78.276 38.6898H75.7253V41.2404H78.276V38.6898Z" fill="#A0AFB5"/>
<path d="M78.276 36.139H75.7253V38.6897H78.276V36.139Z" fill="#DEE8ED"/>
<path d="M78.276 33.5883H75.7253V36.139H78.276V33.5883Z" fill="#C6D5DC"/>
<path d="M78.276 31.0377H75.7253V33.5884H78.276V31.0377Z" fill="#C6D5DC"/>
<path d="M78.276 28.487H75.7253V31.0377H78.276V28.487Z" fill="#9FAAB0"/>
<path d="M78.276 25.9364H75.7253V28.4871H78.276V25.9364Z" fill="#F37920"/>
<path d="M78.276 23.3888H75.7253V25.9395H78.276V23.3888Z" fill="#F37920"/>
<path d="M78.276 20.8382H75.7253V23.3889H78.276V20.8382Z" fill="#F9A533"/>
<path d="M78.276 18.2875H75.7253V20.8381H78.276V18.2875Z" fill="#F9A533"/>
<path d="M78.276 15.7368H75.7253V18.2875H78.276V15.7368Z" fill="black"/>
<path d="M80.8236 84.5924H78.2729V87.1431H80.8236V84.5924Z" fill="black"/>
<path d="M80.8236 82.0417H78.2729V84.5924H80.8236V82.0417Z" fill="#A32633"/>
<path d="M80.8236 79.4911H78.2729V82.0418H80.8236V79.4911Z" fill="black"/>
<path d="M80.8236 76.9404H78.2729V79.491H80.8236V76.9404Z" fill="black"/>
<path d="M80.8236 74.3898H78.2729V76.9404H80.8236V74.3898Z" fill="black"/>
<path d="M80.8236 71.8422H78.2729V74.3929H80.8236V71.8422Z" fill="black"/>
<path d="M80.8236 69.2915H78.2729V71.8422H80.8236V69.2915Z" fill="#3F2731"/>
<path d="M80.8236 66.7408H78.2729V69.2914H80.8236V66.7408Z" fill="black"/>
<path d="M80.8236 64.1902H78.2729V66.7409H80.8236V64.1902Z" fill="#3B4566"/>
<path d="M80.8236 61.6395H78.2729V64.1901H80.8236V61.6395Z" fill="#5B6987"/>
<path d="M80.8236 59.0889H78.2729V61.6395H80.8236V59.0889Z" fill="#5B6987"/>
<path d="M80.8236 56.5381H78.2729V59.0888H80.8236V56.5381Z" fill="black"/>
<path d="M80.8236 53.9906H78.2729V56.5413H80.8236V53.9906Z" fill="#5C6E73"/>
<path d="M80.8236 51.4399H78.2729V53.9906H80.8236V51.4399Z" fill="#384C53"/>
<path d="M80.8236 48.8893H78.2729V51.44H80.8236V48.8893Z" fill="#384C53"/>
<path d="M80.8236 46.3386H78.2729V48.8893H80.8236V46.3386Z" fill="black"/>
<path d="M80.8236 43.788H78.2729V46.3386H80.8236V43.788Z" fill="black"/>
<path d="M80.8236 41.2373H78.2729V43.788H80.8236V41.2373Z" fill="black"/>
<path d="M80.8236 38.6898H78.2729V41.2404H80.8236V38.6898Z" fill="#DEE8ED"/>
<path d="M80.8236 36.139H78.2729V38.6897H80.8236V36.139Z" fill="#C6D5DC"/>
<path d="M80.8236 33.5883H78.2729V36.139H80.8236V33.5883Z" fill="#C6D5DC"/>
<path d="M80.8236 31.0377H78.2729V33.5884H80.8236V31.0377Z" fill="#C6D5DC"/>
<path d="M80.8236 28.487H78.2729V31.0377H80.8236V28.487Z" fill="#9FAAB0"/>
<path d="M80.8236 25.9364H78.2729V28.4871H80.8236V25.9364Z" fill="#F37920"/>
<path d="M80.8236 23.3888H78.2729V25.9395H80.8236V23.3888Z" fill="#F37920"/>
<path d="M80.8236 20.8382H78.2729V23.3889H80.8236V20.8382Z" fill="#F9A533"/>
<path d="M80.8236 18.2875H78.2729V20.8381H80.8236V18.2875Z" fill="#F9A533"/>
<path d="M80.8236 15.7368H78.2729V18.2875H80.8236V15.7368Z" fill="black"/>
<path d="M83.3739 85.9589H80.8232V87.916H83.3739V85.9589Z" fill="black"/>
<path d="M83.3739 83.9988H80.8232V85.9558H83.3739V83.9988Z" fill="black"/>
<path d="M83.3739 82.0417H80.8232V83.9988H83.3739V82.0417Z" fill="black"/>
<path d="M83.3739 79.4911H80.8232V82.0418H83.3739V79.4911Z" fill="#1498D5"/>
<path d="M83.3739 76.9404H80.8232V79.491H83.3739V76.9404Z" fill="black"/>
<path d="M83.3739 74.3898H80.8232V76.9404H83.3739V74.3898Z" fill="#5B6987"/>
<path d="M83.3739 71.8422H80.8232V74.3929H83.3739V71.8422Z" fill="#5B6987"/>
<path d="M83.3739 69.2915H80.8232V71.8422H83.3739V69.2915Z" fill="black"/>
<path d="M83.3739 66.7408H80.8232V69.2914H83.3739V66.7408Z" fill="#3F2731"/>
<path d="M83.3739 64.1902H80.8232V66.7409H83.3739V64.1902Z" fill="black"/>
<path d="M85.9252 61.6395H83.3745V64.1901H85.9252V61.6395Z" fill="black"/>
<path d="M83.3739 61.6395H80.8232V64.1901H83.3739V61.6395Z" fill="black"/>
<path d="M83.3739 59.0889H80.8232V61.6395H83.3739V59.0889Z" fill="black"/>
<path d="M83.3739 48.8893H80.8232V51.44H83.3739V48.8893Z" fill="#5C6E73"/>
<path d="M83.3739 46.3386H80.8232V48.8893H83.3739V46.3386Z" fill="#5C6E73"/>
<path d="M83.3739 43.788H80.8232V46.3386H83.3739V43.788Z" fill="#384C53"/>
<path d="M83.3739 41.2373H80.8232V43.788H83.3739V41.2373Z" fill="#DEE8ED"/>
<path d="M83.3739 38.6898H80.8232V41.2404H83.3739V38.6898Z" fill="#C6D5DC"/>
<path d="M83.3739 36.139H80.8232V38.6897H83.3739V36.139Z" fill="#C6D5DC"/>
<path d="M83.3739 33.5883H80.8232V36.139H83.3739V33.5883Z" fill="#C6D5DC"/>
<path d="M83.3739 31.0377H80.8232V33.5884H83.3739V31.0377Z" fill="#C6D5DC"/>
<path d="M83.3739 28.487H80.8232V31.0377H83.3739V28.487Z" fill="#9FAAB0"/>
<path d="M83.3739 25.9364H80.8232V28.4871H83.3739V25.9364Z" fill="#F37920"/>
<path d="M83.3739 23.3888H80.8232V25.9395H83.3739V23.3888Z" fill="#F37920"/>
<path d="M83.3739 20.8382H80.8232V23.3889H83.3739V20.8382Z" fill="#F9A533"/>
<path d="M83.3739 18.2875H80.8232V20.8381H83.3739V18.2875Z" fill="#F9A533"/>
<path d="M83.3739 15.7368H80.8232V18.2875H83.3739V15.7368Z" fill="black"/>
<path d="M85.9252 85.9589H83.3745V87.916H85.9252V85.9589Z" fill="black"/>
<path d="M85.9252 83.9988H83.3745V85.9558H85.9252V83.9988Z" fill="#3F2731"/>
<path d="M85.9252 82.0417H83.3745V83.9988H85.9252V82.0417Z" fill="#124F8A"/>
<path d="M85.9252 79.4911H83.3745V82.0418H85.9252V79.4911Z" fill="black"/>
<path d="M85.9252 76.9404H83.3745V79.491H85.9252V76.9404Z" fill="#262B44"/>
<path d="M85.9252 74.3898H83.3745V76.9404H85.9252V74.3898Z" fill="#F37920"/>
<path d="M85.9252 71.8422H83.3745V74.3929H85.9252V71.8422Z" fill="#F9A533"/>
<path d="M85.9252 69.2915H83.3745V71.8422H85.9252V69.2915Z" fill="black"/>
<path d="M85.9252 66.7408H83.3745V69.2914H85.9252V66.7408Z" fill="black"/>
<path d="M85.9252 64.1902H83.3745V66.7409H85.9252V64.1902Z" fill="#A32633"/>
<path d="M85.9252 46.3386H83.3745V48.8893H85.9252V46.3386Z" fill="#919DA1"/>
<path d="M85.9252 43.788H83.3745V46.3386H85.9252V43.788Z" fill="#384C53"/>
<path d="M85.9252 41.2373H83.3745V43.788H85.9252V41.2373Z" fill="#384C53"/>
<path d="M85.9252 38.6898H83.3745V41.2404H85.9252V38.6898Z" fill="#C6D5DC"/>
<path d="M85.9252 36.139H83.3745V38.6897H85.9252V36.139Z" fill="#C6D5DC"/>
<path d="M85.9252 33.5883H83.3745V36.139H85.9252V33.5883Z" fill="#C6D5DC"/>
<path d="M85.9252 31.0377H83.3745V33.5884H85.9252V31.0377Z" fill="#C6D5DC"/>
<path d="M85.9252 28.487H83.3745V31.0377H85.9252V28.487Z" fill="#9FAAB0"/>
<path d="M85.9252 25.9364H83.3745V28.4871H85.9252V25.9364Z" fill="#F37920"/>
<path d="M85.9252 23.3888H83.3745V25.9395H85.9252V23.3888Z" fill="#F37920"/>
<path d="M85.9252 20.8382H83.3745V23.3889H85.9252V20.8382Z" fill="#F9A533"/>
<path d="M85.9252 18.2875H83.3745V20.8381H85.9252V18.2875Z" fill="#F9A533"/>
<path d="M85.9252 15.7368H83.3745V18.2875H85.9252V15.7368Z" fill="black"/>
<path d="M88.4755 85.9589H85.9248V87.916H88.4755V85.9589Z" fill="black"/>
<path d="M88.4755 83.9988H85.9248V87.14H88.4755V83.9988Z" fill="black"/>
<path d="M88.4755 82.0417H85.9248V83.9988H88.4755V82.0417Z" fill="black"/>
<path d="M88.4755 79.4911H85.9248V82.0418H88.4755V79.4911Z" fill="black"/>
<path d="M88.4755 76.9404H85.9248V79.491H88.4755V76.9404Z" fill="#262B44"/>
<path d="M88.4755 74.3898H85.9248V76.9404H88.4755V74.3898Z" fill="#F37920"/>
<path d="M88.4755 71.8422H85.9248V74.3929H88.4755V71.8422Z" fill="#F37920"/>
<path d="M88.4755 69.2915H85.9248V71.8422H88.4755V69.2915Z" fill="black"/>
<path d="M88.4755 66.7408H85.9248V69.2914H88.4755V66.7408Z" fill="#F9A533"/>
<path d="M88.4755 64.1902H85.9248V66.7409H88.4755V64.1902Z" fill="#A32633"/>
<path d="M88.4755 46.3386H85.9248V48.8893H88.4755V46.3386Z" fill="#919DA1"/>
<path d="M88.4755 43.788H85.9248V46.3386H88.4755V43.788Z" fill="#5C6E73"/>
<path d="M88.4755 41.2373H85.9248V43.788H88.4755V41.2373Z" fill="#384C53"/>
<path d="M88.4755 38.6898H85.9248V41.2404H88.4755V38.6898Z" fill="#384C53"/>
<path d="M88.4755 36.139H85.9248V38.6897H88.4755V36.139Z" fill="#919DA1"/>
<path d="M88.4755 33.5883H85.9248V36.139H88.4755V33.5883Z" fill="#919DA1"/>
<path d="M88.4755 31.0377H85.9248V33.5884H88.4755V31.0377Z" fill="#919DA1"/>
<path d="M88.4755 28.487H85.9248V31.0377H88.4755V28.487Z" fill="black"/>
<path d="M88.4755 25.9364H85.9248V28.4871H88.4755V25.9364Z" fill="#F37920"/>
<path d="M88.4755 23.3888H85.9248V25.9395H88.4755V23.3888Z" fill="#F37920"/>
<path d="M88.4755 20.8382H85.9248V23.3889H88.4755V20.8382Z" fill="#F37920"/>
<path d="M88.4755 18.2875H85.9248V20.8381H88.4755V18.2875Z" fill="#F9A533"/>
<path d="M88.4755 15.7368H85.9248V18.2875H88.4755V15.7368Z" fill="#F9A533"/>
<path d="M88.4755 13.1862H85.9248V15.7368H88.4755V13.1862Z" fill="black"/>
<path d="M91.0265 84.5924H88.4758V87.1431H91.0265V84.5924Z" fill="black"/>
<path d="M91.0265 82.0417H88.4758V84.5924H91.0265V82.0417Z" fill="#A32633"/>
<path d="M91.0265 79.4911H88.4758V82.0418H91.0265V79.4911Z" fill="black"/>
<path d="M91.0265 76.9404H88.4758V79.491H91.0265V76.9404Z" fill="black"/>
<path d="M91.0265 74.3898H88.4758V76.9404H91.0265V74.3898Z" fill="black"/>
<path d="M91.0265 71.8422H88.4758V74.3929H91.0265V71.8422Z" fill="black"/>
<path d="M91.0265 69.2915H88.4758V71.8422H91.0265V69.2915Z" fill="#C5D4DB"/>
<path d="M91.0265 66.7408H88.4758V69.2914H91.0265V66.7408Z" fill="#F37920"/>
<path d="M91.0265 64.1902H88.4758V66.7409H91.0265V64.1902Z" fill="#3F2731"/>
<path d="M91.0265 46.3386H88.4758V48.8893H91.0265V46.3386Z" fill="#919DA1"/>
<path d="M91.0265 43.788H88.4758V46.3386H91.0265V43.788Z" fill="#919DA1"/>
<path d="M91.0265 41.2373H88.4758V43.788H91.0265V41.2373Z" fill="#919DA1"/>
<path d="M91.0265 38.6898H88.4758V41.2404H91.0265V38.6898Z" fill="#919DA1"/>
<path d="M91.0265 36.139H88.4758V38.6897H91.0265V36.139Z" fill="#919DA1"/>
<path d="M91.0265 33.5883H88.4758V36.139H91.0265V33.5883Z" fill="#919DA1"/>
<path d="M91.0265 31.0377H88.4758V33.5884H91.0265V31.0377Z" fill="#919DA1"/>
<path d="M91.0265 28.487H88.4758V31.0377H91.0265V28.487Z" fill="black"/>
<path d="M91.0265 25.9364H88.4758V28.4871H91.0265V25.9364Z" fill="#F37920"/>
<path d="M91.0265 23.3888H88.4758V25.9395H91.0265V23.3888Z" fill="#F37920"/>
<path d="M91.0265 20.8382H88.4758V23.3889H91.0265V20.8382Z" fill="#F37920"/>
<path d="M91.0265 18.2875H88.4758V20.8381H91.0265V18.2875Z" fill="#F9A533"/>
<path d="M91.0265 15.7368H88.4758V18.2875H91.0265V15.7368Z" fill="#F9A533"/>
<path d="M91.0265 13.1862H88.4758V15.7368H91.0265V13.1862Z" fill="#F9A533"/>
<path d="M91.0265 10.6354H88.4758V13.1861H91.0265V10.6354Z" fill="black"/>
<path d="M93.5768 84.5924H91.0261V87.1431H93.5768V84.5924Z" fill="black"/>
<path d="M93.5768 82.0417H91.0261V84.5924H93.5768V82.0417Z" fill="#A32633"/>
<path d="M93.5768 79.4911H91.0261V82.0418H93.5768V79.4911Z" fill="#A32633"/>
<path d="M93.5768 76.9404H91.0261V79.491H93.5768V76.9404Z" fill="#A32633"/>
<path d="M93.5768 74.3898H91.0261V76.9404H93.5768V74.3898Z" fill="#A32633"/>
<path d="M93.5768 71.8422H91.0261V74.3929H93.5768V71.8422Z" fill="black"/>
<path d="M93.5768 69.2915H91.0261V71.8422H93.5768V69.2915Z" fill="#C5D4DB"/>
<path d="M93.5768 66.7408H91.0261V69.2914H93.5768V66.7408Z" fill="#C5D4DB"/>
<path d="M93.5768 64.1902H91.0261V66.7409H93.5768V64.1902Z" fill="#F37920"/>
<path d="M93.5768 46.3386H91.0261V48.8893H93.5768V46.3386Z" fill="black"/>
<path d="M91.0265 48.8893H88.4758V51.44H91.0265V48.8893Z" fill="black"/>
<path d="M88.4755 48.8893H85.9248V51.44H88.4755V48.8893Z" fill="black"/>
<path d="M85.9252 48.8893H83.3745V51.44H85.9252V48.8893Z" fill="black"/>
<path d="M83.3739 51.4399H80.8232V53.9906H83.3739V51.4399Z" fill="black"/>
<path d="M83.3739 53.9906H80.8232V56.5413H83.3739V53.9906Z" fill="black"/>
<path d="M83.3739 56.5413H80.8232V59.0919H83.3739V56.5413Z" fill="black"/>
<path d="M93.5768 43.788H91.0261V46.3386H93.5768V43.788Z" fill="black"/>
<path d="M93.5768 41.2373H91.0261V43.788H93.5768V41.2373Z" fill="black"/>
<path d="M93.5768 38.6898H91.0261V41.2404H93.5768V38.6898Z" fill="black"/>
<path d="M93.5768 36.139H91.0261V38.6897H93.5768V36.139Z" fill="black"/>
<path d="M93.5768 33.5883H91.0261V36.139H93.5768V33.5883Z" fill="black"/>
<path d="M93.5768 31.0377H91.0261V33.5884H93.5768V31.0377Z" fill="black"/>
<path d="M93.5768 28.487H91.0261V31.0377H93.5768V28.487Z" fill="black"/>
<path d="M93.5768 25.9364H91.0261V28.4871H93.5768V25.9364Z" fill="black"/>
<path d="M93.5768 23.3888H91.0261V25.9395H93.5768V23.3888Z" fill="black"/>
<path d="M93.5768 20.8382H91.0261V23.3889H93.5768V20.8382Z" fill="#F37920"/>
<path d="M93.5768 18.2875H91.0261V20.8381H93.5768V18.2875Z" fill="#F37920"/>
<path d="M93.5768 15.7368H91.0261V18.2875H93.5768V15.7368Z" fill="#F37920"/>
<path d="M93.5768 13.1862H91.0261V15.7368H93.5768V13.1862Z" fill="#F9A533"/>
<path d="M93.5768 10.6354H91.0261V13.1861H93.5768V10.6354Z" fill="#F9A533"/>
<path d="M93.5768 8.08789H91.0261V10.6386H93.5768V8.08789Z" fill="black"/>
<path d="M96.1273 84.5924H93.5767V87.1431H96.1273V84.5924Z" fill="black"/>
<path d="M96.1273 82.0417H93.5767V84.5924H96.1273V82.0417Z" fill="#A32633"/>
<path d="M96.1273 79.4911H93.5767V82.0418H96.1273V79.4911Z" fill="#A32633"/>
<path d="M96.1273 76.9404H93.5767V79.491H96.1273V76.9404Z" fill="#A32633"/>
<path d="M96.1273 74.3898H93.5767V76.9404H96.1273V74.3898Z" fill="#A32633"/>
<path d="M96.1273 71.8422H93.5767V74.3929H96.1273V71.8422Z" fill="#A32633"/>
<path d="M96.1273 69.2915H93.5767V71.8422H96.1273V69.2915Z" fill="black"/>
<path d="M96.1273 66.7408H93.5767V69.2914H96.1273V66.7408Z" fill="black"/>
<path d="M96.1273 64.1902H93.5767V66.7409H96.1273V64.1902Z" fill="black"/>
<path d="M93.5865 61.6519H88.1914V64.2025H93.5865V61.6519Z" fill="black"/>
<path d="M96.1273 20.8382H93.5767V23.3889H96.1273V20.8382Z" fill="black"/>
<path d="M96.1273 18.2875H93.5767V20.8381H96.1273V18.2875Z" fill="black"/>
<path d="M96.1273 15.7368H93.5767V18.2875H96.1273V15.7368Z" fill="black"/>
<path d="M96.1273 13.1862H93.5767V15.7368H96.1273V13.1862Z" fill="black"/>
<path d="M96.1273 10.6354H93.5767V13.1861H96.1273V10.6354Z" fill="black"/>
<path d="M96.1273 8.08789H93.5767V10.6386H96.1273V8.08789Z" fill="black"/>
<path d="M96.1273 5.53723H93.5767V8.0879H96.1273V5.53723Z" fill="black"/>
<path d="M98.6752 84.5924H96.1245V87.1431H98.6752V84.5924Z" fill="black"/>
<path d="M98.6752 82.0417H96.1245V84.5924H98.6752V82.0417Z" fill="#A32633"/>
<path d="M98.6752 79.4911H96.1245V82.0418H98.6752V79.4911Z" fill="#A32633"/>
<path d="M98.6752 76.9404H96.1245V79.491H98.6752V76.9404Z" fill="#A32633"/>
<path d="M98.6752 74.3898H96.1245V76.9404H98.6752V74.3898Z" fill="black"/>
<path d="M98.6752 71.8422H96.1245V74.3929H98.6752V71.8422Z" fill="black"/>
<path d="M98.6752 69.2915H96.1245V71.8422H98.6752V69.2915Z" fill="black"/>
<path d="M98.6752 66.7408H96.1245V69.2914H98.6752V66.7408Z" fill="black"/>
<path d="M98.6752 64.1902H96.1245V66.7409H98.6752V64.1902Z" fill="black"/>
<path d="M101.226 84.5924H98.6754V87.1431H101.226V84.5924Z" fill="black"/>
<path d="M101.226 82.0417H98.6754V84.5924H101.226V82.0417Z" fill="#A32633"/>
<path d="M101.226 79.4911H98.6754V82.0418H101.226V79.4911Z" fill="#A32633"/>
<path d="M101.226 76.9404H98.6754V79.491H101.226V76.9404Z" fill="black"/>
<path d="M103.776 84.5924H101.226V87.1431H103.776V84.5924Z" fill="black"/>
<path d="M103.776 82.0417H101.226V84.5924H103.776V82.0417Z" fill="#A32633"/>
<path d="M103.776 79.4911H101.226V82.0418H103.776V79.4911Z" fill="black"/>
<path d="M106.327 84.5924H103.777V87.1431H106.327V84.5924Z" fill="black"/>
<path d="M106.327 82.0417H103.777V84.5924H106.327V82.0417Z" fill="black"/>
<path d="M108.878 84.5924H106.327V87.1431H108.878V84.5924Z" fill="black"/>
<path d="M38.775 72.9832L37.4819 75.1818L39.6806 76.4748L40.9736 74.2762L38.775 72.9832Z" fill="black"/>
<path d="M36.5748 71.6908L35.2817 73.8895L37.4804 75.1825L38.7734 72.9839L36.5748 71.6908Z" fill="black"/>
<path d="M34.3773 70.3984L33.0842 72.597L35.2829 73.89L36.5759 71.6914L34.3773 70.3984Z" fill="black"/>
<path d="M41.1553 73.2152L39.8545 75.4088L42.0481 76.7096L43.3489 74.516L41.1553 73.2152Z" fill="black"/>
<path d="M40.0691 70.7832L38.7761 72.9818L40.9748 74.2748L42.2678 72.0762L40.0691 70.7832Z" fill="#F37623"/>
<path d="M37.869 69.4908L36.5759 71.6894L38.7746 72.9824L40.0676 70.7838L37.869 69.4908Z" fill="#FAAC35"/>
<path d="M35.6714 68.1952L34.3784 70.3938L36.577 71.6868L37.8701 69.4882L35.6714 68.1952Z" fill="black"/>
<path d="M18.0818 57.8569L16.7888 60.0555L18.9874 61.3486L20.2805 59.1499L18.0818 57.8569Z" fill="black"/>
<path d="M15.8843 56.5645L14.5913 58.7631L16.7899 60.0561L18.083 57.8575L15.8843 56.5645Z" fill="black"/>
<path d="M13.6868 55.2721L12.3938 57.4707L14.5924 58.7637L15.8855 56.5651L13.6868 55.2721Z" fill="black"/>
<path d="M45.7564 71.1706L44.4634 73.3693L46.662 74.6623L47.955 72.4637L45.7564 71.1706Z" fill="black"/>
<path d="M43.5589 69.8782L42.2659 72.0768L44.4645 73.3699L45.7575 71.1712L43.5589 69.8782Z" fill="#F37623"/>
<path d="M41.3616 68.5826L40.0686 70.7812L42.2672 72.0743L43.5603 69.8756L41.3616 68.5826Z" fill="#FAAC35"/>
<path d="M39.1641 67.2903L37.8711 69.4889L40.0697 70.7819L41.3628 68.5833L39.1641 67.2903Z" fill="#FAAC35"/>
<path d="M35.8477 67.1082L34.5469 69.3018L36.7404 70.6027L38.0413 68.4091L35.8477 67.1082Z" fill="black"/>
<path d="M25.9717 59.5383L24.6787 61.7369L26.8773 63.03L28.1704 60.8313L25.9717 59.5383Z" fill="black"/>
<path d="M22.6312 59.3048L21.3303 61.4984L23.5239 62.7993L24.8247 60.6057L22.6312 59.3048Z" fill="black"/>
<path d="M21.5745 56.9519L20.2815 59.1506L22.4801 60.4436L23.7732 58.245L21.5745 56.9519Z" fill="black"/>
<path d="M19.377 55.6595L18.084 57.8581L20.2826 59.1511L21.5756 56.9525L19.377 55.6595Z" fill="white"/>
<path d="M17.1766 54.367L15.8835 56.5657L18.0822 57.8587L19.3752 55.6601L17.1766 54.367Z" fill="white"/>
<path d="M14.9791 53.0715L13.686 55.2701L15.8847 56.5632L17.1777 54.3645L14.9791 53.0715Z" fill="white"/>
<path d="M12.7818 51.7792L11.4888 53.9778L13.6874 55.2708L14.9804 53.0722L12.7818 51.7792Z" fill="black"/>
<path d="M10.5843 50.4867L9.29126 52.6854L11.4899 53.9784L12.7829 51.7798L10.5843 50.4867Z" fill="black"/>
<path d="M49.252 70.2672L47.959 72.4658L50.1576 73.7588L51.4506 71.5602L49.252 70.2672Z" fill="black"/>
<path d="M47.0489 68.9732L45.7559 71.1719L47.9545 72.4649L49.2475 70.2663L47.0489 68.9732Z" fill="black"/>
<path d="M44.8514 67.6777L43.5583 69.8763L45.757 71.1694L47.05 68.9707L44.8514 67.6777Z" fill="#F37623"/>
<path d="M42.6539 66.3852L41.3608 68.5839L43.5595 69.8769L44.8525 67.6783L42.6539 66.3852Z" fill="#FAAC35"/>
<path d="M39.3531 66.2074L38.0522 68.4009L40.2458 69.7018L41.5467 67.5082L39.3531 66.2074Z" fill="black"/>
<path d="M38.2562 63.8003L36.9631 65.999L39.1618 67.292L40.4548 65.0934L38.2562 63.8003Z" fill="black"/>
<path d="M36.0587 62.508L34.7656 64.7067L36.9643 65.9997L38.2573 63.8011L36.0587 62.508Z" fill="black"/>
<path d="M33.8611 61.2156L32.5681 63.4142L34.7667 64.7072L36.0598 62.5086L33.8611 61.2156Z" fill="black"/>
<path d="M31.6636 59.9231L30.3706 62.1217L32.5692 63.4147L33.8623 61.2161L31.6636 59.9231Z" fill="black"/>
<path d="M29.4661 58.6307L28.1731 60.8293L30.3717 62.1224L31.6648 59.9237L29.4661 58.6307Z" fill="black"/>
<path d="M27.2635 57.3367L25.9705 59.5353L28.1691 60.8284L29.4621 58.6297L27.2635 57.3367Z" fill="white"/>
<path d="M25.0643 56.0438L23.7712 58.2424L25.9699 59.5355L27.2629 57.3368L25.0643 56.0438Z" fill="white"/>
<path d="M22.8668 54.7514L21.5737 56.9501L23.7724 58.2431L25.0654 56.0445L22.8668 54.7514Z" fill="white"/>
<path d="M20.6692 53.459L19.3762 55.6576L21.5749 56.9506L22.8679 54.752L20.6692 53.459Z" fill="white"/>
<path d="M18.4691 52.1666L17.176 54.3652L19.3747 55.6583L20.6677 53.4596L18.4691 52.1666Z" fill="white"/>
<path d="M16.2715 50.8741L14.9785 53.0727L17.1771 54.3657L18.4702 52.1671L16.2715 50.8741Z" fill="white"/>
<path d="M14.074 49.5816L12.781 51.7803L14.9796 53.0733L16.2727 50.8747L14.074 49.5816Z" fill="white"/>
<path d="M11.8765 48.2893L10.5835 50.4879L12.7821 51.7809L14.0752 49.5823L11.8765 48.2893Z" fill="white"/>
<path d="M9.67926 46.9968L8.38623 49.1954L10.5849 50.4885L11.8779 48.2898L9.67926 46.9968Z" fill="black"/>
<path d="M7.47906 45.7044L6.18604 47.9031L8.38467 49.1961L9.67769 46.9975L7.47906 45.7044Z" fill="black"/>
<path d="M50.5445 68.0667L49.2515 70.2653L51.4501 71.5583L52.7431 69.3597L50.5445 68.0667Z" fill="black"/>
<path d="M47.2591 67.9081L45.9583 70.1016L48.1518 71.4025L49.4527 69.2089L47.2591 67.9081Z" fill="black"/>
<path d="M46.1439 65.4803L44.8508 67.679L47.0495 68.972L48.3425 66.7734L46.1439 65.4803Z" fill="#FAAC35"/>
<path d="M42.856 65.3066L41.5552 67.5002L43.7487 68.801L45.0496 66.6075L42.856 65.3066Z" fill="#E33C45"/>
<path d="M41.7488 62.8954L40.4558 65.0941L42.6544 66.3871L43.9475 64.1885L41.7488 62.8954Z" fill="#E33C45"/>
<path d="M39.5518 61.6029L38.2588 63.8016L40.4574 65.0946L41.7504 62.896L39.5518 61.6029Z" fill="white"/>
<path d="M37.3511 60.3106L36.0581 62.5092L38.2567 63.8022L39.5498 61.6036L37.3511 60.3106Z" fill="white"/>
<path d="M34.0464 60.1036L32.7456 62.2972L34.9392 63.598L36.24 61.4044L34.0464 60.1036Z" fill="white"/>
<path d="M32.9561 57.7257L31.6631 59.9244L33.8617 61.2174L35.1547 59.0188L32.9561 57.7257Z" fill="white"/>
<path d="M30.7586 56.4302L29.4656 58.6288L31.6642 59.9218L32.9572 57.7232L30.7586 56.4302Z" fill="white"/>
<path d="M28.556 55.1362L27.2629 57.3348L29.4616 58.6279L30.7546 56.4292L28.556 55.1362Z" fill="white"/>
<path d="M26.3585 53.8437L25.0654 56.0423L27.2641 57.3353L28.5571 55.1367L26.3585 53.8437Z" fill="#FAAC35"/>
<path d="M24.1609 52.5513L22.8679 54.7499L25.0666 56.043L26.3596 53.8443L24.1609 52.5513Z" fill="#FAAC35"/>
<path d="M21.9634 51.2589L20.6704 53.4576L22.869 54.7506L24.1621 52.552L21.9634 51.2589Z" fill="#FAAC35"/>
<path d="M19.7659 49.9665L18.4729 52.1651L20.6715 53.4581L21.9646 51.2595L19.7659 49.9665Z" fill="white"/>
<path d="M17.5657 48.674L16.2727 50.8727L18.4713 52.1657L19.7644 49.9671L17.5657 48.674Z" fill="white"/>
<path d="M15.3682 47.3816L14.0752 49.5803L16.2738 50.8733L17.5669 48.6747L15.3682 47.3816Z" fill="white"/>
<path d="M13.1707 46.0892L11.8777 48.2878L14.0763 49.5809L15.3693 47.3822L13.1707 46.0892Z" fill="white"/>
<path d="M9.82037 45.7907L8.51953 47.9843L10.7131 49.2851L12.0139 47.0915L9.82037 45.7907Z" fill="white"/>
<path d="M8.7713 43.5069L7.47827 45.7056L9.6769 46.9986L10.9699 44.8L8.7713 43.5069Z" fill="white"/>
<path d="M6.57379 42.2145L5.28076 44.4131L7.47939 45.7062L8.77242 43.5075L6.57379 42.2145Z" fill="black"/>
<path d="M4.37384 40.9175L3.08081 43.1161L5.27944 44.4092L6.57247 42.2105L4.37384 40.9175Z" fill="black"/>
<path d="M56.2317 68.4541L54.9387 70.6528L57.1374 71.9458L58.4304 69.7472L56.2317 68.4541Z" fill="#743F3A"/>
<path d="M52.9688 68.3095L51.668 70.5031L53.8615 71.804L55.1624 69.6104L52.9688 68.3095Z" fill="#743F3A"/>
<path d="M52.742 69.3591L51.449 71.5577L53.6476 72.8508L54.9406 70.6521L52.742 69.3591Z" fill="black"/>
<path d="M54.9395 70.6515L53.6465 72.8501L55.8451 74.1431L57.1381 71.9445L54.9395 70.6515Z" fill="black"/>
<path d="M50.7669 67.0089L49.4661 69.2025L51.6596 70.5033L52.9605 68.3097L50.7669 67.0089Z" fill="#3F2731"/>
<path d="M49.6336 64.5753L48.3406 66.7739L50.5392 68.067L51.8322 65.8683L49.6336 64.5753Z" fill="#3F2731"/>
<path d="M47.4363 63.2829L46.1433 65.4815L48.3419 66.7745L49.635 64.5759L47.4363 63.2829Z" fill="#A22633"/>
<path d="M45.2388 61.9905L43.9458 64.1891L46.1444 65.4821L47.4375 63.2835L45.2388 61.9905Z" fill="#E33C45"/>
<path d="M43.0413 60.698L41.7483 62.8967L43.9469 64.1897L45.2399 61.9911L43.0413 60.698Z" fill="white"/>
<path d="M40.8443 59.4056L39.5513 61.6042L41.7499 62.8973L43.0429 60.6986L40.8443 59.4056Z" fill="#E33C45"/>
<path d="M37.5484 59.2028L36.2476 61.3964L38.4411 62.6972L39.742 60.5036L37.5484 59.2028Z" fill="#F37623"/>
<path d="M36.4461 56.8176L35.1531 59.0162L37.3517 60.3093L38.6447 58.1106L36.4461 56.8176Z" fill="#F37623"/>
<path d="M34.2486 55.5252L32.9556 57.7238L35.1542 59.0168L36.4472 56.8182L34.2486 55.5252Z" fill="#F37623"/>
<path d="M32.0516 54.2328L30.7585 56.4315L32.9572 57.7245L34.2502 55.5259L32.0516 54.2328Z" fill="#F37623"/>
<path d="M29.848 52.9388L28.5549 55.1374L30.7536 56.4304L32.0466 54.2318L29.848 52.9388Z" fill="#FAAC35"/>
<path d="M26.535 52.6944L25.2341 54.8879L27.4277 56.1888L28.7285 53.9952L26.535 52.6944Z" fill="#FAAC35"/>
<path d="M25.4534 50.3539L24.1604 52.5526L26.359 53.8456L27.6521 51.6469L25.4534 50.3539Z" fill="#FAAC35"/>
<path d="M23.2559 49.0615L21.9629 51.2601L24.1615 52.5532L25.4545 50.3545L23.2559 49.0615Z" fill="#FAAC35"/>
<path d="M21.0584 47.7691L19.7654 49.9677L21.964 51.2607L23.257 49.0621L21.0584 47.7691Z" fill="#F37623"/>
<path d="M18.858 46.4767L17.5649 48.6754L19.7636 49.9684L21.0566 47.7697L18.858 46.4767Z" fill="#F37623"/>
<path d="M16.659 45.1868L15.366 47.3854L17.5646 48.6785L18.8576 46.4798L16.659 45.1868Z" fill="white"/>
<path d="M14.4615 43.8944L13.1685 46.0931L15.3671 47.3861L16.6601 45.1875L14.4615 43.8944Z" fill="white"/>
<path d="M12.2645 42.602L10.9714 44.8006L13.1701 46.0936L14.4631 43.895L12.2645 42.602Z" fill="white"/>
<path d="M8.91485 42.2879L7.61401 44.4815L9.80759 45.7823L11.1084 43.5888L8.91485 42.2879Z" fill="white"/>
<path d="M7.86627 40.0141L6.57324 42.2128L8.77187 43.5058L10.0649 41.3072L7.86627 40.0141Z" fill="white"/>
<path d="M4.50885 39.685L3.20801 41.8785L5.40158 43.1794L6.70242 40.9858L4.50885 39.685Z" fill="white"/>
<path d="M3.46881 37.4277L2.17578 39.6263L4.37441 40.9193L5.66744 38.7207L3.46881 37.4277Z" fill="black"/>
<path d="M1.2713 36.1352L-0.0217285 38.3339L2.1769 39.6269L3.46993 37.4283L1.2713 36.1352Z" fill="black"/>
<path d="M57.5242 66.2568L56.2312 68.4554L58.4298 69.7484L59.7229 67.5498L57.5242 66.2568Z" fill="black"/>
<path d="M55.3238 64.9627L54.0308 67.1614L56.2294 68.4544L57.5224 66.2558L55.3238 64.9627Z" fill="black"/>
<path d="M53.1268 63.6703L51.8337 65.869L54.0324 67.162L55.3254 64.9634L53.1268 63.6703Z" fill="black"/>
<path d="M50.9293 62.3779L49.6362 64.5765L51.8349 65.8696L53.1279 63.6709L50.9293 62.3779Z" fill="black"/>
<path d="M48.7286 61.0855L47.4355 63.2841L49.6342 64.5771L50.9272 62.3785L48.7286 61.0855Z" fill="#F37623"/>
<path d="M46.5311 59.7931L45.238 61.9917L47.4367 63.2847L48.7297 61.0861L46.5311 59.7931Z" fill="#A22633"/>
<path d="M44.3336 58.5006L43.0405 60.6993L45.2392 61.9923L46.5322 59.7937L44.3336 58.5006Z" fill="#A22633"/>
<path d="M42.1365 57.2051L40.8435 59.4037L43.0421 60.6968L44.3352 58.4981L42.1365 57.2051Z" fill="#BFC9DA"/>
<path d="M38.8524 56.9981L37.5515 59.1917L39.7451 60.4925L41.0459 58.2989L38.8524 56.9981Z" fill="#BFC9DA"/>
<path d="M37.7383 54.6203L36.4453 56.8189L38.6439 58.1119L39.937 55.9133L37.7383 54.6203Z" fill="#BFC9DA"/>
<path d="M35.5413 53.3278L34.2483 55.5264L36.4469 56.8195L37.7399 54.6208L35.5413 53.3278Z" fill="#BFC9DA"/>
<path d="M33.3438 52.0353L32.0508 54.2339L34.2494 55.527L35.5424 53.3283L33.3438 52.0353Z" fill="#BFC9DA"/>
<path d="M31.1434 50.7414L29.8503 52.9401L32.049 54.2331L33.342 52.0345L31.1434 50.7414Z" fill="#BFC9DA"/>
<path d="M28.9432 49.449L27.6501 51.6476L29.8488 52.9406L31.1418 50.742L28.9432 49.449Z" fill="#F37623"/>
<path d="M25.6343 49.192L24.3335 51.3856L26.5271 52.6865L27.8279 50.4929L25.6343 49.192Z" fill="#F37623"/>
<path d="M23.4324 47.8913L22.1316 50.0849L24.3252 51.3857L25.626 49.1922L23.4324 47.8913Z" fill="#F37623"/>
<path d="M22.3506 45.5716L21.0576 47.7703L23.2562 49.0633L24.5493 46.8647L22.3506 45.5716Z" fill="#BFC9DA"/>
<path d="M20.1531 44.2792L18.8601 46.4778L21.0587 47.7709L22.3518 45.5722L20.1531 44.2792Z" fill="#BFC9DA"/>
<path d="M17.9532 42.9837L16.6602 45.1824L18.8588 46.4754L20.1518 44.2768L17.9532 42.9837Z" fill="#BFC9DA"/>
<path d="M15.7557 41.6913L14.4626 43.89L16.6613 45.183L17.9543 42.9843L15.7557 41.6913Z" fill="#BFC9DA"/>
<path d="M13.5582 40.3989L12.2651 42.5975L14.4638 43.8906L15.7568 41.6919L13.5582 40.3989Z" fill="#BFC9DA"/>
<path d="M11.3607 39.1064L10.0676 41.3051L12.2663 42.5981L13.5593 40.3994L11.3607 39.1064Z" fill="#BFC9DA"/>
<path d="M9.16046 37.814L7.86743 40.0126L10.0661 41.3057L11.3591 39.107L9.16046 37.814Z" fill="black"/>
<path d="M6.96051 36.52L5.66748 38.7186L7.86611 40.0117L9.15914 37.813L6.96051 36.52Z" fill="black"/>
<path d="M51.1644 61.3033L49.8635 63.4969L52.0571 64.7977L53.3579 62.6042L51.1644 61.3033Z" fill="black"/>
<path d="M53.3643 62.5681L52.0635 64.7617L54.257 66.0626L55.5579 63.869L53.3643 62.5681Z" fill="black"/>
<path d="M50.0211 58.885L48.728 61.0836L50.9267 62.3766L52.2197 60.178L50.0211 58.885Z" fill="#F37623"/>
<path d="M46.7579 58.6988L45.457 60.8923L47.6506 62.1932L48.9514 59.9996L46.7579 58.6988Z" fill="#F37623"/>
<path d="M45.6263 56.3001L44.3333 58.4988L46.5319 59.7918L47.8249 57.5932L45.6263 56.3001Z" fill="black"/>
<path d="M42.3548 56.0972L41.054 58.2908L43.2475 59.5916L44.5484 57.398L42.3548 56.0972Z" fill="black"/>
<path d="M40.1534 54.7965L38.8525 56.9901L41.0461 58.2909L42.347 56.0973L40.1534 54.7965Z" fill="black"/>
<path d="M39.0308 52.4228L37.7378 54.6214L39.9364 55.9144L41.2294 53.7158L39.0308 52.4228Z" fill="black"/>
<path d="M36.8333 51.1303L35.5403 53.329L37.7389 54.622L39.0319 52.4234L36.8333 51.1303Z" fill="black"/>
<path d="M34.6363 49.838L33.3433 52.0366L35.5419 53.3296L36.8349 51.131L34.6363 49.838Z" fill="black"/>
<path d="M32.4361 48.544L31.1431 50.7427L33.3417 52.0357L34.6347 49.8371L32.4361 48.544Z" fill="#BFC9DA"/>
<path d="M30.2357 47.2516L28.9426 49.4502L31.1413 50.7432L32.4343 48.5446L30.2357 47.2516Z" fill="#BFC9DA"/>
<path d="M28.0381 45.9591L26.7451 48.1577L28.9437 49.4507L30.2368 47.2521L28.0381 45.9591Z" fill="#BFC9DA"/>
<path d="M24.7335 45.6866L23.4326 47.8802L25.6262 49.181L26.927 46.9875L24.7335 45.6866Z" fill="#BFC9DA"/>
<path d="M22.5318 44.3858L21.231 46.5794L23.4245 47.8802L24.7254 45.6867L22.5318 44.3858Z" fill="#BFC9DA"/>
<path d="M21.4459 42.0788L20.1528 44.2774L22.3515 45.5704L23.6445 43.3718L21.4459 42.0788Z" fill="#BFC9DA"/>
<path d="M19.2454 40.7862L17.9524 42.9849L20.151 44.2779L21.444 42.0793L19.2454 40.7862Z" fill="#BFC9DA"/>
<path d="M17.0479 39.4939L15.7549 41.6925L17.9535 42.9855L19.2465 40.7869L17.0479 39.4939Z" fill="#BFC9DA"/>
<path d="M14.8504 38.2014L13.5574 40.4L15.756 41.6931L17.049 39.4944L14.8504 38.2014Z" fill="black"/>
<path d="M12.6534 36.909L11.3604 39.1077L13.559 40.4007L14.852 38.2021L12.6534 36.909Z" fill="black"/>
<path d="M53.5142 57.98L52.2212 60.1786L54.4198 61.4716L55.7128 59.273L53.5142 57.98Z" fill="black"/>
<path d="M51.3167 56.6876L50.0237 58.8862L52.2223 60.1793L53.5153 57.9806L51.3167 56.6876Z" fill="#F37623"/>
<path d="M49.116 55.3951L47.823 57.5938L50.0216 58.8868L51.3147 56.6881L49.116 55.3951Z" fill="#F37623"/>
<path d="M46.919 54.1026L45.626 56.3013L47.8246 57.5943L49.1176 55.3957L46.919 54.1026Z" fill="#F37623"/>
<path d="M44.7215 52.8103L43.4285 55.0089L45.6271 56.3019L46.9201 54.1033L44.7215 52.8103Z" fill="black"/>
<path d="M33.7283 46.3465L32.4353 48.5452L34.6339 49.8382L35.927 47.6396L33.7283 46.3465Z" fill="black"/>
<path d="M31.5313 45.0511L30.2383 47.2497L32.4369 48.5427L33.7299 46.3441L31.5313 45.0511Z" fill="black"/>
<path d="M29.3306 43.7586L28.0376 45.9573L30.2362 47.2503L31.5293 45.0517L29.3306 43.7586Z" fill="black"/>
<path d="M27.1331 42.4662L25.8401 44.6648L28.0387 45.9578L29.3317 43.7592L27.1331 42.4662Z" fill="#BFC9DA"/>
<path d="M24.9356 41.1737L23.6426 43.3724L25.8412 44.6654L27.1342 42.4668L24.9356 41.1737Z" fill="#BFC9DA"/>
<path d="M21.6309 40.8836L20.3301 43.0771L22.5237 44.378L23.8245 42.1844L21.6309 40.8836Z" fill="#BFC9DA"/>
<path d="M20.5379 38.5889L19.2449 40.7875L21.4435 42.0806L22.7365 39.8819L20.5379 38.5889Z" fill="black"/>
<path d="M18.3404 37.2965L17.0474 39.4951L19.246 40.7881L20.539 38.5895L18.3404 37.2965Z" fill="black"/>
<path d="M52.6089 54.4901L51.3159 56.6887L53.5145 57.9817L54.8076 55.7831L52.6089 54.4901Z" fill="black"/>
<path d="M50.4083 53.1977L49.1152 55.3964L51.3139 56.6894L52.6069 54.4908L50.4083 53.1977Z" fill="#F37623"/>
<path d="M48.2112 51.9053L46.9182 54.1039L49.1168 55.397L50.4099 53.1983L48.2112 51.9053Z" fill="#F37623"/>
<path d="M46.0137 50.6129L44.7207 52.8115L46.9193 54.1045L48.2124 51.9059L46.0137 50.6129Z" fill="black"/>
<path d="M28.4256 40.2688L27.1326 42.4674L29.3312 43.7604L30.6242 41.5618L28.4256 40.2688Z" fill="black"/>
<path d="M26.2286 38.9764L24.9355 41.175L27.1342 42.468L28.4272 40.2694L26.2286 38.9764Z" fill="black"/>
<path d="M24.0311 37.6839L22.738 39.8826L24.9367 41.1756L26.2297 38.977L24.0311 37.6839Z" fill="black"/>
<path d="M51.7007 51.0003L50.4077 53.199L52.6063 54.492L53.8994 52.2934L51.7007 51.0003Z" fill="black"/>
<path d="M48.4586 50.7932L47.1577 52.9868L49.3513 54.2877L50.6521 52.0941L48.4586 50.7932Z" fill="black"/>
<path d="M47.3062 48.4154L46.0132 50.6141L48.2118 51.9071L49.5048 49.7085L47.3062 48.4154Z" fill="black"/>
<path d="M46.4012 44.9225L45.1082 47.1212L47.3068 48.4142L48.5998 46.2155L46.4012 44.9225Z" fill="black"/>
<path d="M49.8926 44.0149L48.5996 46.2135L50.7982 47.5065L52.0913 45.3079L49.8926 44.0149Z" fill="black"/>
<path d="M47.6951 42.7225L46.4021 44.9211L48.6007 46.2141L49.8938 44.0155L47.6951 42.7225Z" fill="black"/>
<path d="M45.4976 41.43L44.2046 43.6287L46.4032 44.9217L47.6962 42.7231L45.4976 41.43Z" fill="black"/>
<path d="M83.037 50.2484L80.7878 51.4514L81.9908 53.7005L84.24 52.4976L83.037 50.2484Z" fill="black"/>
<path d="M85.2836 49.0461L83.0344 50.2491L84.2374 52.4983L86.4866 51.2953L85.2836 49.0461Z" fill="black"/>
<path d="M87.5302 47.8438L85.281 49.0468L86.484 51.2959L88.7331 50.093L87.5302 47.8438Z" fill="black"/>
<path d="M81.9872 53.7017L79.738 54.9047L80.941 57.1538L83.1902 55.9509L81.9872 53.7017Z" fill="black"/>
<path d="M84.2409 52.5006L81.9917 53.7036L83.1947 55.9528L85.4438 54.7498L84.2409 52.5006Z" fill="#FAAC35"/>
<path d="M86.4872 51.2983L84.238 52.5013L85.441 54.7505L87.6902 53.5475L86.4872 51.2983Z" fill="white"/>
<path d="M88.7338 50.096L86.4846 51.299L87.6876 53.5481L89.9368 52.3452L88.7338 50.096Z" fill="#A22633"/>
<path d="M90.9862 48.8923L88.7371 50.0952L89.94 52.3444L92.1892 51.1414L90.9862 48.8923Z" fill="black"/>
<path d="M93.2326 47.6899L90.9834 48.8928L92.1864 51.142L94.4355 49.939L93.2326 47.6899Z" fill="black"/>
<path d="M95.4823 46.4875L93.2332 47.6904L94.4361 49.9396L96.6853 48.7366L95.4823 46.4875Z" fill="black"/>
<path d="M97.7311 45.2837L95.4819 46.4866L96.6849 48.7358L98.9341 47.5328L97.7311 45.2837Z" fill="black"/>
<path d="M99.9777 44.0813L97.7285 45.2843L98.9315 47.5335L101.181 46.3305L99.9777 44.0813Z" fill="black"/>
<path d="M102.23 42.8775L99.9808 44.0805L101.184 46.3297L103.433 45.1267L102.23 42.8775Z" fill="black"/>
<path d="M80.9447 57.1533L78.6956 58.3563L79.8985 60.6054L82.1477 59.4025L80.9447 57.1533Z" fill="black"/>
<path d="M83.1911 55.9509L80.9419 57.1539L82.1449 59.403L84.394 58.2001L83.1911 55.9509Z" fill="#5B6987"/>
<path d="M85.4433 54.7471L83.1941 55.9501L84.3971 58.1992L86.6462 56.9963L85.4433 54.7471Z" fill="#FAAC35"/>
<path d="M87.6896 53.5448L85.4404 54.7478L86.6434 56.997L88.8926 55.794L87.6896 53.5448Z" fill="#A22633"/>
<path d="M89.9364 52.3425L87.6873 53.5455L88.8902 55.7946L91.1394 54.5917L89.9364 52.3425Z" fill="#E33C45"/>
<path d="M92.1886 51.1386L89.9395 52.3416L91.1424 54.5908L93.3916 53.3878L92.1886 51.1386Z" fill="#FAAC35"/>
<path d="M94.435 49.9363L92.1858 51.1393L93.3888 53.3885L95.6379 52.1855L94.435 49.9363Z" fill="#FAAC35"/>
<path d="M96.6845 48.7339L94.4353 49.9369L95.6383 52.1861L97.8874 50.9831L96.6845 48.7339Z" fill="#F37623"/>
<path d="M98.9337 47.5301L96.6846 48.7331L97.8875 50.9823L100.137 49.7793L98.9337 47.5301Z" fill="#F37623"/>
<path d="M101.18 46.3309L98.931 47.5339L100.134 49.783L102.383 48.5801L101.18 46.3309Z" fill="black"/>
<path d="M82.1471 59.3997L79.8979 60.6027L81.1009 62.8518L83.3501 61.6489L82.1471 59.3997Z" fill="black"/>
<path d="M84.3932 58.2005L82.144 59.4034L83.347 61.6526L85.5962 60.4496L84.3932 58.2005Z" fill="#5B6987"/>
<path d="M86.6459 56.9967L84.3967 58.1996L85.5997 60.4488L87.8489 59.2459L86.6459 56.9967Z" fill="#F37623"/>
<path d="M88.892 55.7944L86.6428 56.9973L87.8458 59.2465L90.095 58.0435L88.892 55.7944Z" fill="#F37623"/>
<path d="M91.1383 54.592L88.8892 55.7949L90.0921 58.0441L92.3413 56.8411L91.1383 54.592Z" fill="#FAAC35"/>
<path d="M93.391 53.3882L91.1418 54.5912L92.3448 56.8404L94.594 55.6374L93.391 53.3882Z" fill="#F37623"/>
<path d="M95.6371 52.1859L93.3879 53.3889L94.5909 55.638L96.8401 54.4351L95.6371 52.1859Z" fill="#F37623"/>
<path d="M97.8869 50.9835L95.6377 52.1865L96.8407 54.4356L99.0898 53.2327L97.8869 50.9835Z" fill="#F37623"/>
<path d="M100.136 49.7798L97.8872 50.9827L99.0902 53.2319L101.339 52.0289L100.136 49.7798Z" fill="black"/>
<path d="M83.351 61.652L81.1018 62.855L82.3048 65.1042L84.5539 63.9012L83.351 61.652Z" fill="black"/>
<path d="M85.5973 60.4497L83.3481 61.6526L84.5511 63.9018L86.8003 62.6989L85.5973 60.4497Z" fill="#5B6987"/>
<path d="M87.8495 59.2459L85.6003 60.4489L86.8033 62.698L89.0525 61.4951L87.8495 59.2459Z" fill="#3B4566"/>
<path d="M90.0959 58.0435L87.8467 59.2465L89.0496 61.4956L91.2988 60.2927L90.0959 58.0435Z" fill="#3B4566"/>
<path d="M92.3422 56.8412L90.093 58.0442L91.296 60.2934L93.5452 59.0904L92.3422 56.8412Z" fill="#F37623"/>
<path d="M94.5949 55.6374L92.3457 56.8403L93.5487 59.0895L95.7978 57.8865L94.5949 55.6374Z" fill="#F37623"/>
<path d="M96.8412 54.435L94.592 55.638L95.795 57.8872L98.0442 56.6842L96.8412 54.435Z" fill="#F37623"/>
<path d="M99.0907 53.2326L96.8416 54.4356L98.0445 56.6848L100.294 55.4818L99.0907 53.2326Z" fill="#3B4566"/>
<path d="M101.34 52.0289L99.0908 53.2319L100.294 55.481L102.543 54.2781L101.34 52.0289Z" fill="black"/>
<path d="M86.7995 62.6961L84.5503 63.899L85.7533 66.1482L88.0024 64.9453L86.7995 62.6961Z" fill="black"/>
<path d="M89.0517 61.4923L86.8025 62.6953L88.0055 64.9445L90.2546 63.7415L89.0517 61.4923Z" fill="black"/>
<path d="M91.2982 60.2899L89.0491 61.4929L90.252 63.742L92.5012 62.5391L91.2982 60.2899Z" fill="black"/>
<path d="M93.5448 59.0876L91.2957 60.2906L92.4986 62.5398L94.7478 61.3368L93.5448 59.0876Z" fill="#5B6987"/>
<path d="M95.7941 57.8853L93.5449 59.0883L94.7479 61.3374L96.9971 60.1345L95.7941 57.8853Z" fill="#3B4566"/>
<path d="M98.0434 56.6845L95.7942 57.8875L96.9972 60.1367L99.2463 58.9337L98.0434 56.6845Z" fill="#3B4566"/>
<path d="M100.29 55.4822L98.0406 56.6852L99.2436 58.9344L101.493 57.7314L100.29 55.4822Z" fill="black"/>
<path d="M94.7472 61.3372L92.498 62.5402L93.701 64.7893L95.9502 63.5864L94.7472 61.3372Z" fill="black"/>
<path d="M96.9965 60.1349L94.7473 61.3378L95.9503 63.587L98.1994 62.384L96.9965 60.1349Z" fill="black"/>
<path d="M99.246 58.9311L96.9968 60.134L98.1998 62.3832L100.449 61.1802L99.246 58.9311Z" fill="black"/>
</g>
<defs>
<clipPath id="clip0_3417_88493">
<rect width="600" height="87.4801" fill="white" transform="translate(0 0.435913)"/>
</clipPath>
</defs>
</svg>
