<svg width="24" height="25" viewBox="0 0 24 25" fill="none" xmlns="http://www.w3.org/2000/svg">
<g clip-path="url(#clip0_3417_97451)">
<path d="M22 24.5671L16.75 19.5671L17.38 21.5671H4.5C3.83696 21.5671 3.20107 21.3037 2.73223 20.8349C2.26339 20.3661 2 19.7302 2 19.0671V4.06714C2 3.4041 2.26339 2.76821 2.73223 2.29937C3.20107 1.83053 3.83696 1.56714 4.5 1.56714H19.5C20.163 1.56714 20.7989 1.83053 21.2678 2.29937C21.7366 2.76821 22 3.4041 22 4.06714V24.5671ZM12 7.36714C9.32 7.36714 7.44 8.51714 7.44 8.51714C8.47 7.59714 10.27 7.06714 10.27 7.06714L10.1 6.89714C8.41 6.92714 6.88 8.09714 6.88 8.09714C5.16 11.6871 5.27 14.7871 5.27 14.7871C6.67 16.5971 8.75 16.4671 8.75 16.4671L9.46 15.5671C8.21 15.2971 7.42 14.1871 7.42 14.1871C7.42 14.1871 9.3 15.4671 12 15.4671C14.7 15.4671 16.58 14.1871 16.58 14.1871C16.58 14.1871 15.79 15.2971 14.54 15.5671L15.25 16.4671C15.25 16.4671 17.33 16.5971 18.73 14.7871C18.73 14.7871 18.84 11.6871 17.12 8.09714C17.12 8.09714 15.59 6.92714 13.9 6.89714L13.73 7.06714C13.73 7.06714 15.53 7.59714 16.56 8.51714C16.56 8.51714 14.68 7.36714 12 7.36714V7.36714ZM9.93 11.1571C10.58 11.1571 11.11 11.7271 11.1 12.4271C11.1 13.1171 10.58 13.6971 9.93 13.6971C9.29 13.6971 8.77 13.1171 8.77 12.4271C8.77 11.7271 9.28 11.1571 9.93 11.1571ZM14.1 11.1571C14.75 11.1571 15.27 11.7271 15.27 12.4271C15.27 13.1171 14.75 13.6971 14.1 13.6971C13.46 13.6971 12.94 13.1171 12.94 12.4271C12.94 11.7271 13.45 11.1571 14.1 11.1571Z" fill="white"/>
</g>
<defs>
<clipPath id="clip0_3417_97451">
<rect width="24" height="24" fill="white" transform="translate(0 0.567139)"/>
</clipPath>
</defs>
</svg>
