<svg width="24" height="25" viewBox="0 0 24 25" fill="none" xmlns="http://www.w3.org/2000/svg">
<path d="M12 2.60718C6.5 2.60718 2 7.09718 2 12.6272C2 17.6272 5.66 21.7772 10.44 22.5272V15.5272H7.9V12.6272H10.44V10.4172C10.44 7.90718 11.93 6.52718 14.22 6.52718C15.31 6.52718 16.45 6.71718 16.45 6.71718V9.18718H15.19C13.95 9.18718 13.56 9.95718 13.56 10.7472V12.6272H16.34L15.89 15.5272H13.56V22.5272C15.9164 22.155 18.0622 20.9527 19.6099 19.1372C21.1577 17.3218 22.0054 15.0128 22 12.6272C22 7.09718 17.5 2.60718 12 2.60718V2.60718Z" fill="white"/>
</svg>
