<svg width="24" height="25" viewBox="0 0 24 25" fill="none" xmlns="http://www.w3.org/2000/svg">
<path d="M22.46 6.56714C21.69 6.91714 20.86 7.14714 20 7.25714C20.88 6.72714 21.56 5.88714 21.88 4.87714C21.05 5.37714 20.13 5.72714 19.16 5.92714C18.37 5.06714 17.26 4.56714 16 4.56714C13.65 4.56714 11.73 6.48714 11.73 8.85714C11.73 9.19714 11.77 9.52714 11.84 9.83714C8.28004 9.65714 5.11004 7.94714 3.00004 5.35714C2.63004 5.98714 2.42004 6.72714 2.42004 7.50714C2.42004 8.99714 3.17004 10.3171 4.33004 11.0671C3.62004 11.0671 2.96004 10.8671 2.38004 10.5671V10.5971C2.38004 12.6771 3.86004 14.4171 5.82004 14.8071C5.19077 14.9793 4.53013 15.0033 3.89004 14.8771C4.16165 15.7296 4.69358 16.4755 5.41106 17.0101C6.12854 17.5446 6.99549 17.8408 7.89004 17.8571C6.37367 19.0576 4.49404 19.7065 2.56004 19.6971C2.22004 19.6971 1.88004 19.6771 1.54004 19.6371C3.44004 20.8571 5.70004 21.5671 8.12004 21.5671C16 21.5671 20.33 15.0271 20.33 9.35714C20.33 9.16714 20.33 8.98714 20.32 8.79714C21.16 8.19714 21.88 7.43714 22.46 6.56714V6.56714Z" fill="white"/>
</svg>
