<svg width="24" height="25" viewBox="0 0 24 25" fill="none" xmlns="http://www.w3.org/2000/svg">
<path d="M10 15.5671L15.19 12.5671L10 9.56714V15.5671ZM21.56 7.73714C21.69 8.20714 21.78 8.83714 21.84 9.63714C21.91 10.4371 21.94 11.1271 21.94 11.7271L22 12.5671C22 14.7571 21.84 16.3671 21.56 17.3971C21.31 18.2971 20.73 18.8771 19.83 19.1271C19.36 19.2571 18.5 19.3471 17.18 19.4071C15.88 19.4771 14.69 19.5071 13.59 19.5071L12 19.5671C7.81 19.5671 5.2 19.4071 4.17 19.1271C3.27 18.8771 2.69 18.2971 2.44 17.3971C2.31 16.9271 2.22 16.2971 2.16 15.4971C2.09 14.6971 2.06 14.0071 2.06 13.4071L2 12.5671C2 10.3771 2.16 8.76714 2.44 7.73714C2.69 6.83714 3.27 6.25714 4.17 6.00714C4.64 5.87714 5.5 5.78714 6.82 5.72714C8.12 5.65714 9.31 5.62714 10.41 5.62714L12 5.56714C16.19 5.56714 18.8 5.72714 19.83 6.00714C20.73 6.25714 21.31 6.83714 21.56 7.73714V7.73714Z" fill="white"/>
</svg>
