<?xml version="1.0" standalone="no"?>
<!DOCTYPE svg PUBLIC "-//W3C//DTD SVG 20010904//EN"
 "http://www.w3.org/TR/2001/REC-SVG-20010904/DTD/svg10.dtd">
<svg version="1.0" xmlns="http://www.w3.org/2000/svg"
 width="80.000000pt" height="80.000000pt" viewBox="0 0 80.000000 80.000000"
 preserveAspectRatio="xMidYMid meet">
<metadata>
Created by potrace 1.14, written by Peter Selinger 2001-2017
</metadata>
<g transform="translate(0.000000,80.000000) scale(0.100000,-0.100000)"
fill="#000000" stroke="none">
<path d="M427 673 c-5 -7 -5 -17 -2 -23 3 -5 1 -10 -4 -10 -6 0 -11 -6 -11
-12 0 -7 -7 -21 -14 -31 -14 -18 -16 -17 -44 12 -16 17 -31 31 -34 31 -3 0 -5
-25 -5 -55 0 -30 4 -55 9 -55 4 0 8 -29 8 -64 0 -60 -1 -64 -21 -59 -19 5 -20
4 -10 -16 9 -17 9 -26 -2 -41 -14 -20 -15 -19 -53 17 -21 20 -39 40 -39 44 0
16 -16 21 -77 25 -35 2 -73 6 -86 9 -12 3 -22 1 -22 -5 0 -5 5 -10 10 -10 6 0
10 -6 10 -13 0 -7 9 -23 20 -35 11 -12 20 -26 20 -32 0 -5 5 -10 10 -10 6 0
10 -6 10 -13 0 -7 9 -18 20 -25 15 -9 20 -9 20 0 0 9 3 9 12 0 7 -7 21 -12 33
-12 11 0 31 -7 43 -16 21 -14 22 -18 8 -33 -14 -15 -13 -18 5 -29 13 -8 25 -9
37 -3 10 5 24 6 31 2 10 -7 10 -9 -2 -14 -9 -3 -12 -15 -9 -37 4 -31 6 -32 48
-28 24 2 44 0 44 -4 0 -8 97 0 112 8 4 3 9 0 13 -6 3 -6 18 -8 33 -5 15 3 55
5 90 6 34 1 62 3 62 6 0 2 -15 17 -34 33 -26 23 -35 40 -38 73 -3 23 -1 45 4
48 4 3 10 23 12 45 2 21 5 44 6 49 5 22 -1 25 -26 9 l-26 -17 5 79 c3 43 7 99
10 124 2 25 3 48 0 52 -2 4 -20 -7 -39 -24 -20 -18 -44 -32 -54 -32 -25 0 -69
35 -63 51 3 7 0 13 -5 13 -6 0 -12 10 -14 23 -2 15 -5 18 -11 10z"/>
</g>
</svg>
