<svg width="40" height="40" viewBox="0 0 40 40" fill="none" xmlns="http://www.w3.org/2000/svg">
<path d="M36.9231 15.3846V9.23077H33.8462V6.15385H30.7692V3.07692H24.6154V0H15.3846V3.07692H9.23077V6.15385H6.15385V9.23077H3.07692V15.3846H0V24.6154H3.07692V30.7692H6.15385V33.8462H9.23077V36.9231H15.3846V40H24.6154V36.9231H30.7692V33.8462H33.8462V30.7692H36.9231V24.6154H40V15.3846H36.9231Z" fill="#454545"/>
<path d="M33.8462 15.3848V9.23099H30.7693V6.15407H24.6154V3.07715H15.3847V6.15407H9.23081V9.23099H6.15389V15.3848H3.07697V24.6156H6.15389V30.7695H9.23081V33.8464H15.3847V36.9233H24.6154V33.8464H30.7693V30.7695H33.8462V24.6156H36.9231V15.3848H33.8462Z" fill="#2E2525"/>
<path d="M20 11.7002C15.4167 11.7002 11.6667 15.4419 11.6667 20.0502C11.6667 24.2169 14.7167 27.6752 18.7 28.3002V22.4669H16.5834V20.0502H18.7V18.2085C18.7 16.1169 19.9417 14.9669 21.85 14.9669C22.7584 14.9669 23.7084 15.1252 23.7084 15.1252V17.1835H22.6584C21.625 17.1835 21.3 17.8252 21.3 18.4835V20.0502H23.6167L23.2417 22.4669H21.3V28.3002C23.2637 27.9901 25.0519 26.9881 26.3416 25.4752C27.6314 23.9624 28.3378 22.0382 28.3334 20.0502C28.3334 15.4419 24.5834 11.7002 20 11.7002V11.7002Z" fill="white"/>
</svg>
