<svg width="40" height="40" viewBox="0 0 40 40" fill="none" xmlns="http://www.w3.org/2000/svg">
<path d="M36.9231 15.3846V9.23077H33.8462V6.15385H30.7692V3.07692H24.6154V0H15.3846V3.07692H9.23077V6.15385H6.15385V9.23077H3.07692V15.3846H0V24.6154H3.07692V30.7692H6.15385V33.8462H9.23077V36.9231H15.3846V40H24.6154V36.9231H30.7692V33.8462H33.8462V30.7692H36.9231V24.6154H40V15.3846H36.9231Z" fill="#454545"/>
<path d="M33.8462 15.3848V9.23099H30.7693V6.15407H24.6154V3.07715H15.3847V6.15407H9.23081V9.23099H6.15389V15.3848H3.07697V24.6156H6.15389V30.7695H9.23081V33.8464H15.3847V36.9233H24.6154V33.8464H30.7693V30.7695H33.8462V24.6156H36.9231V15.3848H33.8462Z" fill="#2E2525"/>
<path d="M28.3334 30.0002L23.9584 25.8335L24.4834 27.5002H13.75C13.1975 27.5002 12.6676 27.2807 12.2769 26.89C11.8862 26.4993 11.6667 25.9694 11.6667 25.4168V12.9168C11.6667 12.3643 11.8862 11.8344 12.2769 11.4437C12.6676 11.053 13.1975 10.8335 13.75 10.8335H26.25C26.8026 10.8335 27.3325 11.053 27.7232 11.4437C28.1139 11.8344 28.3334 12.3643 28.3334 12.9168V30.0002ZM20 15.6668C17.7667 15.6668 16.2 16.6252 16.2 16.6252C17.0584 15.8585 18.5584 15.4168 18.5584 15.4168L18.4167 15.2752C17.0084 15.3002 15.7334 16.2752 15.7334 16.2752C14.3 19.2668 14.3917 21.8502 14.3917 21.8502C15.5584 23.3585 17.2917 23.2502 17.2917 23.2502L17.8834 22.5002C16.8417 22.2752 16.1834 21.3502 16.1834 21.3502C16.1834 21.3502 17.75 22.4168 20 22.4168C22.25 22.4168 23.8167 21.3502 23.8167 21.3502C23.8167 21.3502 23.1584 22.2752 22.1167 22.5002L22.7084 23.2502C22.7084 23.2502 24.4417 23.3585 25.6084 21.8502C25.6084 21.8502 25.7 19.2668 24.2667 16.2752C24.2667 16.2752 22.9917 15.3002 21.5834 15.2752L21.4417 15.4168C21.4417 15.4168 22.9417 15.8585 23.8 16.6252C23.8 16.6252 22.2334 15.6668 20 15.6668V15.6668ZM18.275 18.8252C18.8167 18.8252 19.2584 19.3002 19.25 19.8835C19.25 20.4585 18.8167 20.9418 18.275 20.9418C17.7417 20.9418 17.3084 20.4585 17.3084 19.8835C17.3084 19.3002 17.7334 18.8252 18.275 18.8252ZM21.75 18.8252C22.2917 18.8252 22.725 19.3002 22.725 19.8835C22.725 20.4585 22.2917 20.9418 21.75 20.9418C21.2167 20.9418 20.7834 20.4585 20.7834 19.8835C20.7834 19.3002 21.2084 18.8252 21.75 18.8252Z" fill="white"/>
</svg>
