<svg width="40" height="40" viewBox="0 0 40 40" fill="none" xmlns="http://www.w3.org/2000/svg">
<path d="M36.9231 15.3846V9.23077H33.8462V6.15385H30.7692V3.07692H24.6154V0H15.3846V3.07692H9.23077V6.15385H6.15385V9.23077H3.07692V15.3846H0V24.6154H3.07692V30.7692H6.15385V33.8462H9.23077V36.9231H15.3846V40H24.6154V36.9231H30.7692V33.8462H33.8462V30.7692H36.9231V24.6154H40V15.3846H36.9231Z" fill="#454545"/>
<path d="M33.8461 15.3848V9.23099H30.7692V6.15407H24.6154V3.07715H15.3846V6.15407H9.23075V9.23099H6.15383V15.3848H3.0769V24.6156H6.15383V30.7695H9.23075V33.8464H15.3846V36.9233H24.6154V33.8464H30.7692V30.7695H33.8461V24.6156H36.9231V15.3848H33.8461Z" fill="#3581BC"/>
<path d="M33.8461 21.5386V24.6155H30.7692V27.6924H27.6923V30.7693H12.3077V27.6924H9.23075V24.6155H6.15383V21.5386H3.0769V24.6155H6.15383V30.7693H9.23075V33.8463H15.3846V36.9232H24.6154V33.8463H30.7692V30.7693H33.8461V24.6155H36.9231V21.5386H33.8461Z" fill="black" fill-opacity="0.1"/>
<path d="M12.3077 6.15381V9.23073H9.23077V15.3846H12.3077V12.3077H18.4615V9.23073H24.6154V6.15381H12.3077Z" fill="white" fill-opacity="0.5"/>
<path d="M12.3077 6.15381V9.23073H9.23077V12.3077H15.3846V9.23073H18.4615V6.15381H12.3077Z" fill="white"/>
<path d="M17.1499 25.5416L17.3832 22.0166L23.7832 16.2499C24.0666 15.9916 23.7249 15.8666 23.3499 16.0916L15.4499 21.0832L12.0332 19.9999C11.2999 19.7916 11.2916 19.2832 12.1999 18.9166L25.5082 13.7832C26.1166 13.5082 26.6999 13.9332 26.4666 14.8666L24.1999 25.5416C24.0416 26.2999 23.5832 26.4832 22.9499 26.1332L19.4999 23.5832L17.8416 25.1916C17.6499 25.3832 17.4916 25.5416 17.1499 25.5416Z" fill="white"/>
</svg>
