<svg width="40" height="40" viewBox="0 0 40 40" fill="none" xmlns="http://www.w3.org/2000/svg">
<path d="M36.9231 15.3846V9.23077H33.8462V6.15385H30.7692V3.07692H24.6154V0H15.3846V3.07692H9.23077V6.15385H6.15385V9.23077H3.07692V15.3846H0V24.6154H3.07692V30.7692H6.15385V33.8462H9.23077V36.9231H15.3846V40H24.6154V36.9231H30.7692V33.8462H33.8462V30.7692H36.9231V24.6154H40V15.3846H36.9231Z" fill="#454545"/>
<path d="M33.8461 15.3848V9.23099H30.7692V6.15407H24.6154V3.07715H15.3846V6.15407H9.23075V9.23099H6.15383V15.3848H3.0769V24.6156H6.15383V30.7695H9.23075V33.8464H15.3846V36.9233H24.6154V33.8464H30.7692V30.7695H33.8461V24.6156H36.9231V15.3848H33.8461Z" fill="#4699DF"/>
<path d="M33.8461 21.5386V24.6155H30.7692V27.6924H27.6923V30.7693H12.3077V27.6924H9.23075V24.6155H6.15383V21.5386H3.0769V24.6155H6.15383V30.7693H9.23075V33.8463H15.3846V36.9232H24.6154V33.8463H30.7692V30.7693H33.8461V24.6155H36.9231V21.5386H33.8461Z" fill="black" fill-opacity="0.1"/>
<path d="M12.3077 6.15381V9.23073H9.23077V15.3846H12.3077V12.3077H18.4615V9.23073H24.6154V6.15381H12.3077Z" fill="white" fill-opacity="0.5"/>
<path d="M12.3077 6.15381V9.23073H9.23077V12.3077H15.3846V9.23073H18.4615V6.15381H12.3077Z" fill="white"/>
<path d="M28.7167 15.0002C28.0751 15.2918 27.3834 15.4835 26.6667 15.5752C27.4001 15.1335 27.9667 14.4335 28.2334 13.5918C27.5417 14.0085 26.7751 14.3002 25.9667 14.4668C25.3084 13.7502 24.3834 13.3335 23.3334 13.3335C21.3751 13.3335 19.7751 14.9335 19.7751 16.9085C19.7751 17.1918 19.8084 17.4668 19.8667 17.7252C16.9001 17.5752 14.2584 16.1502 12.5001 13.9918C12.1917 14.5168 12.0167 15.1335 12.0167 15.7835C12.0167 17.0252 12.6417 18.1252 13.6084 18.7502C13.0167 18.7502 12.4667 18.5835 11.9834 18.3335V18.3585C11.9834 20.0918 13.2167 21.5418 14.8501 21.8668C14.3257 22.0103 13.7751 22.0303 13.2417 21.9252C13.4681 22.6356 13.9113 23.2572 14.5092 23.7026C15.1071 24.148 15.8296 24.3949 16.5751 24.4085C15.3114 25.4089 13.7451 25.9496 12.1334 25.9418C11.8501 25.9418 11.5667 25.9252 11.2834 25.8918C12.8667 26.9085 14.7501 27.5002 16.7667 27.5002C23.3334 27.5002 26.9417 22.0502 26.9417 17.3252C26.9417 17.1668 26.9417 17.0168 26.9334 16.8585C27.6334 16.3585 28.2334 15.7252 28.7167 15.0002Z" fill="white"/>
</svg>
