<svg width="40" height="40" viewBox="0 0 40 40" fill="none" xmlns="http://www.w3.org/2000/svg">
<path d="M36.9231 15.3846V9.23077H33.8462V6.15385H30.7692V3.07692H24.6154V0H15.3846V3.07692H9.23077V6.15385H6.15385V9.23077H3.07692V15.3846H0V24.6154H3.07692V30.7692H6.15385V33.8462H9.23077V36.9231H15.3846V40H24.6154V36.9231H30.7692V33.8462H33.8462V30.7692H36.9231V24.6154H40V15.3846H36.9231Z" fill="#454545"/>
<path d="M33.8461 15.3848V9.23099H30.7692V6.15407H24.6154V3.07715H15.3846V6.15407H9.23075V9.23099H6.15383V15.3848H3.0769V24.6156H6.15383V30.7695H9.23075V33.8464H15.3846V36.9233H24.6154V33.8464H30.7692V30.7695H33.8461V24.6156H36.9231V15.3848H33.8461Z" fill="#DF2F21"/>
<path d="M33.8461 21.5386V24.6155H30.7692V27.6924H27.6923V30.7693H12.3077V27.6924H9.23075V24.6155H6.15383V21.5386H3.0769V24.6155H6.15383V30.7693H9.23075V33.8463H15.3846V36.9232H24.6154V33.8463H30.7692V30.7693H33.8461V24.6155H36.9231V21.5386H33.8461Z" fill="black" fill-opacity="0.1"/>
<path d="M12.3077 6.15381V9.23073H9.23077V15.3846H12.3077V12.3077H18.4615V9.23073H24.6154V6.15381H12.3077Z" fill="white" fill-opacity="0.5"/>
<path d="M12.3077 6.15381V9.23073H9.23077V12.3077H15.3846V9.23073H18.4615V6.15381H12.3077Z" fill="white"/>
<path d="M18 23L23.19 20L18 17V23ZM29.56 15.17C29.69 15.64 29.78 16.27 29.84 17.07C29.91 17.87 29.94 18.56 29.94 19.16L30 20C30 22.19 29.84 23.8 29.56 24.83C29.31 25.73 28.73 26.31 27.83 26.56C27.36 26.69 26.5 26.78 25.18 26.84C23.88 26.91 22.69 26.94 21.59 26.94L20 27C15.81 27 13.2 26.84 12.17 26.56C11.27 26.31 10.69 25.73 10.44 24.83C10.31 24.36 10.22 23.73 10.16 22.93C10.09 22.13 10.06 21.44 10.06 20.84L10 20C10 17.81 10.16 16.2 10.44 15.17C10.69 14.27 11.27 13.69 12.17 13.44C12.64 13.31 13.5 13.22 14.82 13.16C16.12 13.09 17.31 13.06 18.41 13.06L20 13C24.19 13 26.8 13.16 27.83 13.44C28.73 13.69 29.31 14.27 29.56 15.17V15.17Z" fill="white"/>
</svg>
