<svg width="40" height="41" viewBox="0 0 40 41" fill="none" xmlns="http://www.w3.org/2000/svg">
<path d="M36.9231 15.5384V9.38458H33.8462V6.30766H30.7692V3.23073H24.6154V0.153809H15.3846V3.23073H9.23077V6.30766H6.15385V9.38458H3.07692V15.5384H0V24.7692H3.07692V30.923H6.15385V34H9.23077V37.0769H15.3846V40.1538H24.6154V37.0769H30.7692V34H33.8462V30.923H36.9231V24.7692H40V15.5384H36.9231Z" fill="#454545"/>
<path d="M33.8462 15.5387V9.3848H30.7693V6.30788H24.6154V3.23096H15.3847V6.30788H9.23081V9.3848H6.15389V15.5387H3.07697V24.7694H6.15389V30.9233H9.23081V34.0002H15.3847V37.0771H24.6154V34.0002H30.7693V30.9233H33.8462V24.7694H36.9231V15.5387H33.8462Z" fill="#2E2525"/>
<path d="M18 23.001L23.19 20.001L18 17.001V23.001ZM29.56 15.171C29.69 15.641 29.78 16.271 29.84 17.071C29.91 17.871 29.94 18.561 29.94 19.161L30 20.001C30 22.191 29.84 23.801 29.56 24.831C29.31 25.731 28.73 26.311 27.83 26.561C27.36 26.691 26.5 26.781 25.18 26.841C23.88 26.911 22.69 26.941 21.59 26.941L20 27.001C15.81 27.001 13.2 26.841 12.17 26.561C11.27 26.311 10.69 25.731 10.44 24.831C10.31 24.361 10.22 23.731 10.16 22.931C10.09 22.131 10.06 21.441 10.06 20.841L10 20.001C10 17.811 10.16 16.201 10.44 15.171C10.69 14.271 11.27 13.691 12.17 13.441C12.64 13.311 13.5 13.221 14.82 13.161C16.12 13.091 17.31 13.061 18.41 13.061L20 13.001C24.19 13.001 26.8 13.161 27.83 13.441C28.73 13.691 29.31 14.271 29.56 15.171V15.171Z" fill="white"/>
</svg>
