<svg width="927" height="81" viewBox="0 0 927 81" fill="none" xmlns="http://www.w3.org/2000/svg">
<g clip-path="url(#clip0_509:184)">
<path d="M314.571 80.1309V74.4073L308.847 74.35V5.72364H314.571V0H377.531V34.3418H360.36V45.7891H377.531V80.1309H314.571Z" fill="black"/>
<path d="M320.295 11.4473H314.571V17.1709V22.8945V34.3418V57.2363V62.96V68.6264H320.295V68.6836V74.35H371.807V68.6836V62.96V62.9027V57.2363V51.5127H337.466V51.4555H354.636V45.7891V40.0654V34.3418V28.6182H337.466H371.807V22.8945V17.1709V11.4473V5.72363H320.295V11.4473Z" fill="black"/>
<path d="M17.1709 80.1309V34.3418H0V0H68.6836V34.3418H51.5127V80.1309H17.1709Z" fill="black"/>
<path d="M5.72363 11.4473V17.1709V22.8945V28.6182H22.8945V34.3418V62.9027V62.96V68.6836V74.35H45.7891V68.6836V62.96V62.9027V34.3418V28.6182H62.96V22.8945V17.1709V11.4473V5.72363H5.72363V11.4473Z" fill="black"/>
<path d="M142.862 80.1309V74.4073L137.138 74.35V5.72364H142.862V0H205.822V34.3418H188.651V45.7891H205.822V80.1309H142.862Z" fill="black"/>
<path d="M148.586 11.4473H142.862V17.1709V22.8945V34.3418V57.2363V62.96V68.6264H148.586V68.6836V74.35H200.098V68.6836V62.96V62.9027V57.2363V51.5127H165.757V51.4555H182.928V45.7891V40.0654V34.3418V28.6182H165.757H200.098V22.8945V17.1709V11.4473V5.72363H148.586V11.4473Z" fill="black"/>
<path d="M68.4548 80.1309V0H102.797V22.8945V0H137.138V80.1309H68.4548Z" fill="black"/>
<path d="M108.52 11.4473V17.1709V28.6182H97.073V17.1709V11.4473V5.72363H74.1785V11.4473V17.1709V34.3418V62.9027V62.96V68.6836V74.35H97.073V68.6836V62.96V62.9027V51.4555H108.52V62.9027V62.96V68.6836V74.35H131.415V68.6836V62.96V62.9027V34.3418V17.1709V11.4473V5.72363H108.52V11.4473Z" fill="black"/>
<path d="M875.487 80.1309V34.3418H858.316V0H927V34.3418H909.829V80.1309H875.487Z" fill="black"/>
<path d="M864.04 5.72363V11.4473V17.1709V22.8945V28.6182H881.211V34.3418V62.9027V62.96V68.6836V74.35H904.105V68.6836V62.96V62.9027V34.3418V28.6182H921.276V22.8945V17.1709V11.4473V5.72363H864.04Z" fill="black"/>
<path d="M726.673 80.1309V74.4073L720.949 74.35V5.72364H726.673V0H789.633V80.1309H726.673Z" fill="black"/>
<path d="M732.396 11.4473H726.673V17.1709V22.8945V34.3418V57.2363V62.96V68.6264H732.396V68.6836V74.35H783.909V68.6836V62.96V62.9027V40.0654V34.3418V28.6182H755.291V34.3418V40.0654V45.7891V51.4555H761.015V51.5127H749.567V34.3418V28.6182H783.909V22.8945V17.1709V11.4473V5.72363H732.396V11.4473Z" fill="black"/>
<path d="M549.469 80.1309V0H583.811V22.8945V0H618.153V80.1309H549.469Z" fill="black"/>
<path d="M589.534 11.4473V17.1709V28.6182H578.087V17.1709V11.4473V5.72363H555.193V11.4473V17.1709V34.3418V62.9027V62.96V68.6836V74.35H578.087V68.6836V62.96V62.9027V51.4555H589.534V62.9027V62.96V68.6836V74.35H612.429V68.6836V62.96V62.9027V51.4555V45.7891V40.0654H606.705H612.429V34.3418V28.6182V17.1709V11.4473V5.72363H589.534V11.4473Z" fill="black"/>
<path d="M789.633 80.1309V0H823.975V22.8945V0H858.316V80.1309H789.633Z" fill="black"/>
<path d="M829.698 11.4473V17.1709V28.6182H818.251V17.1709V11.4473V5.72363H795.356V11.4473V17.1709V34.3418V62.9027V62.96V68.6836V74.35H818.251V68.6836V62.96V62.9027V51.4555H829.698V62.9027V62.96V68.6836V74.35H852.593V68.6836V62.96V62.9027V34.3418V17.1709V11.4473V5.72363H829.698V11.4473Z" fill="black"/>
<path d="M720.949 0H686.607V80.1309H720.949V0Z" fill="black"/>
<path d="M692.331 11.4473V17.1709V34.3418V62.9027V62.96V68.6836V74.35H715.226V68.6836V62.96V62.9027V34.3418V17.1709V11.4473V5.72363H692.331V11.4473Z" fill="black"/>
<path d="M240.393 80.1309V0H303.353V5.72364H309.076V74.4073H303.353V80.1309H240.393Z" fill="black"/>
<path d="M297.629 11.4473V5.72363H246.116V62.96V74.4072H297.629V68.6836H303.353V11.4473H297.629ZM280.458 34.3418V51.5127H269.011V28.6182H280.458V34.3418Z" fill="black"/>
<path d="M377.531 80.1309V5.72364H383.255V0H440.491V5.72364H446.215V80.1309H377.531Z" fill="black"/>
<path d="M434.767 11.4473V5.72363H388.978V11.4473H383.254V62.96V74.4072H406.149V62.96V51.5127H417.596V62.96V74.4072H440.491V62.96V11.4473H434.767Z" fill="black"/>
<path d="M446.215 80.1309V0H509.175V5.72364H514.899V74.4073H509.175V80.1309H446.215Z" fill="black"/>
<path d="M503.451 11.4473V5.72363H451.938V62.96V74.4072H503.451V68.6836H509.174V11.4473H503.451ZM486.28 34.3418V51.5127H474.833V28.6182H486.28V34.3418Z" fill="black"/>
<path d="M617.924 80.1309V0H680.884V5.72364H686.607V80.1309H617.924Z" fill="black"/>
<path d="M675.16 11.4473V5.72363H623.647V11.4473V17.1709V34.3418V62.9027V62.96V68.6836V74.35H646.542V68.6836V62.96V62.9027V34.3418V28.6182H657.989V34.3418V62.9027V62.96V68.6836V74.35H680.884V68.6836V62.96V62.9027V34.3418V22.8945V17.1709V11.4473H675.16Z" fill="black"/>
<path d="M62.96 28.5609H45.7891V74.35H22.8945V28.5609H5.72363V17.1136H62.96V28.5609Z" fill="#5A585B"/>
<path d="M131.415 74.35H108.52V51.4555H97.0728V74.35H74.1782V17.1136H97.0728V40.0082H108.52V17.1136H131.415V74.35Z" fill="#5A585B"/>
<path d="M200.098 74.35H148.585V68.6264H142.862V22.8373H148.585V17.1136H200.098V28.5609H165.756V40.0082H182.927V51.4555H165.756V62.9027H200.098V74.35Z" fill="#5A585B"/>
<path d="M303.353 68.6264H297.629V74.35H246.116V17.1136H297.629V22.8373H303.353V68.6264ZM280.458 62.9027V28.5609H269.011V62.9027H280.458Z" fill="#5A585B"/>
<path d="M371.807 74.35H320.294V68.6264H314.571V22.8373H320.294V17.1136H371.807V28.5609H337.465V40.0082H354.636V51.4555H337.465V62.9027H371.807V74.35Z" fill="#5A585B"/>
<path d="M440.491 74.35H417.596V51.4555H406.149V74.35H383.254V22.8373H388.978V17.1136H434.767V22.8373H440.491V74.35ZM417.596 40.0082V28.5609H406.149V40.0082H417.596Z" fill="#5A585B"/>
<path d="M509.174 68.6264H503.451V74.35H451.938V17.1136H503.451V22.8373H509.174V68.6264ZM486.28 62.9027V28.5609H474.833V62.9027H486.28Z" fill="#5A585B"/>
<path d="M612.429 74.35H589.534V51.4555H578.087V74.35H555.193V17.1136H578.087V40.0082H589.534V17.1136H612.429V40.0082H606.705V51.4555H612.429V74.35Z" fill="#5A585B"/>
<path d="M680.883 74.35H657.989V28.5609H646.542V74.35H623.647V17.1136H675.16V22.8373H680.883V74.35Z" fill="#5A585B"/>
<path d="M715.225 74.35H692.331V17.1136H715.225V74.35Z" fill="#5A585B"/>
<path d="M783.909 74.35H732.396V68.6264H726.672V22.8373H732.396V17.1136H783.909V28.5609H749.567V62.9027H761.014V51.4555H755.291V40.0082H783.909V74.35Z" fill="#5A585B"/>
<path d="M852.593 74.35H829.698V51.4555H818.251V74.35H795.356V17.1136H818.251V40.0082H829.698V17.1136H852.593V74.35Z" fill="#5A585B"/>
<path d="M921.276 28.5609H904.105V74.35H881.211V28.5609H864.04V17.1136H921.276V28.5609Z" fill="#5A585B"/>
<path d="M62.96 22.8945H45.7891V68.6836H22.8945V22.8945H5.72363V11.4473H62.96V22.8945Z" fill="#444245"/>
<path d="M131.415 68.6836H108.52V45.7891H97.0728V68.6836H74.1782V11.4473H97.0728V34.3418H108.52V11.4473H131.415V68.6836Z" fill="#444245"/>
<path d="M200.098 68.6836H148.585V62.96H142.862V17.1709H148.585V11.4473H200.098V22.8945H165.756V34.3418H182.927V45.7891H165.756V57.2364H200.098V68.6836Z" fill="#444245"/>
<path d="M303.353 62.96H297.629V68.6836H246.116V11.4473H297.629V17.1709H303.353V62.96ZM280.458 57.2364V22.8945H269.011V57.2364H280.458Z" fill="#444245"/>
<path d="M371.807 68.6836H320.294V62.96H314.571V17.1709H320.294V11.4473H371.807V22.8945H337.465V34.3418H354.636V45.7891H337.465V57.2364H371.807V68.6836Z" fill="#444245"/>
<path d="M440.491 68.6836H417.596V45.7891H406.149V68.6836H383.254V17.1709H388.978V11.4473H434.767V17.1709H440.491V68.6836ZM417.596 34.3418V22.8945H406.149V34.3418H417.596Z" fill="#444245"/>
<path d="M509.174 62.96H503.451V68.6836H451.938V11.4473H503.451V17.1709H509.174V62.96ZM486.28 57.2364V22.8945H474.833V57.2364H486.28Z" fill="#444245"/>
<path d="M612.429 68.6836H589.534V45.7891H578.087V68.6836H555.193V11.4473H578.087V34.3418H589.534V11.4473H612.429V34.3418H606.705V45.7891H612.429V68.6836Z" fill="#444245"/>
<path d="M680.883 68.6836H657.989V22.8945H646.542V68.6836H623.647V11.4473H675.16V17.1709H680.883V68.6836Z" fill="#444245"/>
<path d="M715.225 68.6836H692.331V11.4473H715.225V68.6836Z" fill="#444245"/>
<path d="M783.909 68.6836H732.396V62.96H726.672V17.1709H732.396V11.4473H783.909V22.8945H749.567V57.2364H761.014V45.7891H755.291V34.3418H783.909V68.6836Z" fill="#444245"/>
<path d="M852.593 68.6836H829.698V45.7891H818.251V68.6836H795.356V11.4473H818.251V34.3418H829.698V11.4473H852.593V68.6836Z" fill="#444245"/>
<path d="M921.276 22.8945H904.105V68.6836H881.211V22.8945H864.04V11.4473H921.276V22.8945Z" fill="#444245"/>
<path d="M62.96 17.1709H45.7891V62.96H22.8945V17.1709H5.72363V5.72363H62.96V17.1709ZM131.644 62.96H108.749V40.0654H97.3018V62.96H74.4073V5.72363H97.3018V28.6182H108.749V5.72363H131.644V62.96ZM200.327 62.96H148.815V57.2363H143.091V11.4473H148.815V5.72363H200.327V17.1709H165.985V28.6182H183.156V40.0654H165.985V51.5127H200.327V62.96ZM303.353 57.2363H297.629V62.96H246.116V5.72363H297.629V11.4473H303.353V57.2363ZM280.458 51.5127V17.1709H269.011V51.5127H280.458ZM372.036 62.96H320.524V57.2363H314.8V11.4473H320.524V5.72363H372.036V17.1709H337.694V28.6182H354.865V40.0654H337.694V51.5127H372.036V62.96ZM440.72 62.96H417.825V40.0654H406.378V62.96H383.484V11.4473H389.207V5.72363H434.996V11.4473H440.72V62.96ZM417.825 28.6182V17.1709H406.378V28.6182H417.825ZM509.404 57.2363H503.68V62.96H452.167V5.72363H503.68V11.4473H509.404V57.2363ZM486.509 51.5127V17.1709H475.062V51.5127H486.509ZM612.429 62.96H589.534V40.0654H578.087V62.96H555.193V5.72363H578.087V28.6182H589.534V5.72363H612.429V28.6182H606.705V40.0654H612.429V62.96ZM681.113 62.96H658.218V17.1709H646.771V62.96H623.876V5.72363H675.389V11.4473H681.113V62.96ZM715.454 62.96H692.56V5.72363H715.454V62.96ZM784.138 62.96H732.625V57.2363H726.902V11.4473H732.625V5.72363H784.138V17.1709H749.796V51.5127H761.243V40.0654H755.52V28.6182H784.138V62.96ZM852.822 62.96H829.927V40.0654H818.48V62.96H795.585V5.72363H818.48V28.6182H829.927V5.72363H852.822V62.96ZM921.505 17.1709H904.335V62.96H881.44V17.1709H864.269V5.72363H921.505V17.1709Z" fill="white"/>
<path d="M45.7891 34.3418H22.8945V62.96H45.7891V34.3418Z" fill="#E3E2E3"/>
<path d="M131.415 62.9027V34.3418H74.1785V62.9027H97.073V40.0654H108.52V62.9027H131.415Z" fill="#E3E2E3"/>
<path d="M200.098 62.9027V51.5127H165.757V40.0654H182.928V34.3418H142.862V57.2363H148.586V62.9027H200.098Z" fill="#E3E2E3"/>
<path d="M297.629 57.2363H303.353V34.3418H280.458V51.5127H269.011V34.3418H246.116V62.9027H297.629V57.2363Z" fill="#E3E2E3"/>
<path d="M852.593 62.9027V34.3418H795.356V62.9027H818.251V40.0654H829.698V62.9027H852.593Z" fill="#E3E2E3"/>
<path d="M612.429 62.9027V40.0654H606.705V34.3418H555.193V62.9027H578.087V40.0654H589.534V62.9027H612.429Z" fill="#E3E2E3"/>
<path d="M440.491 62.9027V34.3418H383.255V62.9027H406.149V40.0654H417.596V62.9027H440.491Z" fill="#E3E2E3"/>
<path d="M783.909 62.9027V34.3418H755.291V40.0654H761.015V51.5127H749.567V34.3418H726.673V57.2363H732.396V62.9027H783.909Z" fill="#E3E2E3"/>
<path d="M904.105 34.3418H881.211V62.96H904.105V34.3418Z" fill="#E3E2E3"/>
<path d="M371.807 62.9027V51.5127H337.466V40.0654H354.636V34.3418H314.571V57.2363H320.295V62.9027H371.807Z" fill="#E3E2E3"/>
<path d="M715.226 34.3418H692.331V62.96H715.226V34.3418Z" fill="#E3E2E3"/>
<path d="M503.451 57.2363H509.175V34.3418H486.28V51.5127H474.833V34.3418H451.938V62.9027H503.451V57.2363Z" fill="#E3E2E3"/>
<path d="M680.884 34.3418H657.989V62.96H680.884V34.3418Z" fill="#E3E2E3"/>
<path d="M646.542 34.3418H623.647V62.96H646.542V34.3418Z" fill="#E3E2E3"/>
</g>
<defs>
<clipPath id="clip0_509:184">
<rect width="927" height="80.1309" fill="white"/>
</clipPath>
</defs>
</svg>
