<svg width="901" height="141" viewBox="0 0 901 141" fill="none" xmlns="http://www.w3.org/2000/svg">
<g clip-path="url(#clip0_848_743)">
<path d="M89.6604 139.088V130.985L82.7816 130.904V33.7172H89.6604V25.6095H165.342V74.2411H144.7V90.4565H165.342V139.088H89.6604Z" fill="black"/>
<path d="M96.544 41.82H89.6604V122.796H96.544V130.904H158.468V98.5594H117.185V98.4778H137.826V66.1383H158.468V33.7172H96.544V41.82Z" fill="black"/>
<path d="M838.869 138.824V74.2796H818.324V25.8735H900.5V74.2796H879.955V138.824H838.869Z" fill="black"/>
<path d="M825.188 33.9428V66.2151H845.734V130.678H873.095V66.2151H893.64V33.9428H825.188Z" fill="black"/>
<path d="M660.827 138.824V130.755L653.982 130.678V33.9428H660.827V25.8735H736.153V138.824H660.827Z" fill="black"/>
<path d="M667.677 42.0073H660.827V122.609H667.677V130.678H729.303V66.2151H695.067V98.4058H701.917V98.4826H688.217V66.2151H729.303V33.9428H667.677V42.0073Z" fill="black"/>
<path d="M448.846 138.824V25.8735H489.932H531.018V138.824H448.846Z" fill="black"/>
<path d="M496.758 42.0073V66.2151H483.063V33.9428H455.672V130.678H483.063V98.4058H496.758V130.678H524.148V82.3489V33.9428H496.758V42.0073Z" fill="black"/>
<path d="M736.153 138.824V25.8735H777.238H818.324V138.824H736.153Z" fill="black"/>
<path d="M784.088 42.0073V66.2151H770.393V33.9428H742.998V130.678H770.393V98.4058H784.088V130.678H811.479V33.9428H784.088V42.0073Z" fill="black"/>
<path d="M653.982 25.8735H612.891V138.824H653.982V25.8735Z" fill="black"/>
<path d="M619.736 42.0073V130.678H647.127V33.9428H619.736V42.0073Z" fill="black"/>
<path d="M0.5 139.088V25.6095H76.1764V33.7172H83.0648V130.985H76.1764V139.088H0.5Z" fill="black"/>
<path d="M69.2976 41.82V33.7172H7.37399V130.985H69.2976V122.887H76.1764V41.82H69.2976ZM48.6564 74.2411V98.5594H34.8988V66.1383H48.6564V74.2411Z" fill="black"/>
<path d="M165.342 139.088V33.7172H172.22V25.6095H241.018V33.7172H247.897V139.088H165.342Z" fill="black"/>
<path d="M234.139 41.82V33.7172H179.099V41.82H172.22V130.985H199.74V98.5594H213.498V130.985H241.018V41.82H234.139Z" fill="black"/>
<path d="M247.897 139.088V25.6095H323.559V33.7172H330.443V130.985H323.559V139.088H247.897Z" fill="black"/>
<path d="M316.695 41.82V33.7172H254.771V130.985H316.695V122.887H323.559V41.82H316.695ZM296.053 74.2411V98.5594H282.277V66.1383H296.053V74.2411Z" fill="black"/>
<path d="M530.72 138.824V25.8735H606.046V33.9428H612.891V138.824H530.72Z" fill="black"/>
<path d="M599.196 42.0073V33.9428H537.57V130.678H564.96V66.2151H578.656V130.678H606.046V42.0073H599.196Z" fill="black"/>
<path d="M76.1764 122.796H69.2976V130.904H7.37399V49.8461H69.2976V57.949H76.1764V122.796ZM48.6564 114.693V66.0567H34.8988V114.693H48.6564Z" fill="#9E8D61"/>
<path d="M158.458 130.904H96.5344V122.796H89.6604V57.949H96.5392V49.8461H158.463V66.0567H117.18V82.2672H137.822V98.4778H117.18V114.693H158.463L158.458 130.904Z" fill="#9E8D61"/>
<path d="M241.018 130.904H213.498V98.4778H199.74V130.904H172.22V57.9394H179.099V49.8461H234.139V57.949H241.018V130.904ZM213.498 82.2672V66.0567H199.74V82.2672H213.498Z" fill="#9E8D61"/>
<path d="M323.559 122.796H316.695V130.904H254.771V49.8461H316.695V57.949H323.559V122.796ZM296.053 114.693V66.0567H282.277V114.693H296.053Z" fill="#9E8D61"/>
<path d="M524.148 130.678H496.758V98.4058H483.063V130.678H455.672V49.9949H483.063V82.2672H496.758V49.9949H524.148V82.2672H517.298V98.4058H524.148V130.678Z" fill="#9E8D61"/>
<path d="M606.046 130.678H578.656V66.1335H564.96V130.678H537.57V49.9949H599.196V58.0834H606.046V130.678Z" fill="#9E8D61"/>
<path d="M647.132 130.678H619.736V49.9949H647.127L647.132 130.678Z" fill="#9E8D61"/>
<path d="M729.303 130.678H667.677V122.609H660.827V58.0834H667.677V49.9949H729.303V66.1335H688.217V114.54H701.912V98.4058H695.067V82.2672H729.303V130.678Z" fill="#9E8D61"/>
<path d="M811.479 130.678H784.088V98.4058H770.393V130.678H742.998V49.9949H770.393V82.2672H784.088V49.9949H811.479V130.678Z" fill="#9E8D61"/>
<path d="M893.65 66.1335H873.105V130.678H845.743V66.1335H825.188V49.9949H893.664L893.65 66.1335Z" fill="#9E8D61"/>
<path d="M76.1764 114.77H69.2976V122.887H7.37399V41.8201H69.2976V49.9229H76.1764V114.77ZM48.6564 106.667V58.0306H34.8988V106.667H48.6564Z" fill="#876C1F"/>
<path d="M158.458 122.887H96.5344V114.77H89.6604V49.9229H96.5392V41.8201H158.463V58.0306H117.18V74.2412H137.822V90.4565H117.18V106.667H158.463L158.458 122.887Z" fill="#876C1F"/>
<path d="M241.018 122.887H213.498V90.4565H199.74V122.887H172.22V49.9229H179.099V41.8201H234.139V49.9229H241.018V122.887ZM213.498 74.2412V58.0306H199.74V74.2412H213.498Z" fill="#876C1F"/>
<path d="M323.559 114.77H316.695V122.887H254.771V41.8201H316.695V49.9229H323.559V114.77ZM296.053 106.667V58.0306H282.277V106.667H296.053Z" fill="#876C1F"/>
<path d="M524.148 122.69H496.758V90.4181H483.063V122.69H455.672V42.0073H483.063V74.2796H496.758V42.0073H524.148V74.2796H517.298V90.4181H524.148V122.69Z" fill="#876C1F"/>
<path d="M606.046 122.69H578.656V58.1458H564.96V122.69H537.57V42.0073H599.196V50.0765H606.046V122.69Z" fill="#876C1F"/>
<path d="M647.132 122.69H619.736V42.0073H647.127L647.132 122.69Z" fill="#876C1F"/>
<path d="M729.303 122.69H667.677V114.621H660.827V50.0765H667.677V42.0073H729.303V58.1458H688.217V106.566H701.912V90.4181H695.067V74.2796H729.303V122.69Z" fill="#876C1F"/>
<path d="M811.479 122.69H784.088V90.4181H770.393V122.69H742.998V42.0073H770.393V74.2796H784.088V42.0073H811.479V122.69Z" fill="#876C1F"/>
<path d="M893.65 58.1458H873.105V122.69H845.743V58.1458H825.188V42.0073H893.664L893.65 58.1458Z" fill="#876C1F"/>
<path d="M620.015 33.9428H647.405V114.621H620.015V33.9428ZM69.2976 114.77H7.37399V33.7172H69.2976V41.82H76.1764V106.667H69.2976V114.77ZM48.6564 49.9229H34.8988V98.5594H48.6564V49.9229ZM96.8176 114.77H158.741V98.5594H117.459V82.3488H138.1V66.1383H117.459V49.9229H158.741V33.7172H96.8176V41.82H89.9388V106.667H96.8176V114.77ZM496.758 66.2151H483.063V33.9428H455.672V114.621H483.063V82.3488H496.758V114.621H524.148V82.3488H517.298V66.2151H524.148V33.9428H496.758V66.2151ZM599.484 33.9428H537.844V114.621H565.234V50.0765H578.934V114.621H606.324V42.012H599.479L599.484 33.9428ZM316.968 114.77H255.045V33.7172H316.968V41.82H323.852V106.667H316.968V114.77ZM296.332 49.9229H282.569V98.5594H296.332V49.9229ZM667.95 42.0073H661.1V106.566H667.95V114.636H729.581V66.2151H695.341V82.3488H702.186V98.4874H688.491V50.0765H729.581V33.9428H667.95V42.0073ZM825.448 33.938V50.0717H845.993V114.621H873.383V50.0765H893.924V33.9428L825.448 33.938ZM784.386 66.2151H770.691V33.9428H743.3V114.621H770.691V82.3488H784.386V114.621H811.748V33.9428H784.386V66.2151ZM200.014 114.77H172.494V41.8056H179.373V33.7172H234.413V41.82H241.292V114.784H213.772V82.3488H200.014V114.77ZM200.014 66.1383H213.772V49.9229H200.014V66.1383Z" fill="white"/>
<path d="M363.709 134.826H359.623V138.911H363.709V134.826Z" fill="black"/>
<path d="M363.709 130.74H359.623V134.826H363.709V130.74Z" fill="black"/>
<path d="M363.709 126.655H359.623V130.74H363.709V126.655Z" fill="black"/>
<path d="M363.709 122.57H359.623V126.655H363.709V122.57Z" fill="black"/>
<path d="M367.794 134.826H363.708V138.911H367.794V134.826Z" fill="black"/>
<path d="M367.794 130.74H363.708V134.826H367.794V130.74Z" fill="#A32633"/>
<path d="M367.794 126.655H363.708V130.74H367.794V126.655Z" fill="#A32633"/>
<path d="M367.794 122.57H363.708V126.655H367.794V122.57Z" fill="#A32633"/>
<path d="M367.794 118.485H363.708V122.57H367.794V118.485Z" fill="black"/>
<path d="M367.794 114.4H363.708V118.485H367.794V114.4Z" fill="black"/>
<path d="M367.794 110.31H363.708V114.395H367.794V110.31Z" fill="black"/>
<path d="M367.794 106.225H363.708V110.31H367.794V106.225Z" fill="black"/>
<path d="M367.794 77.6254H363.708V81.7104H367.794V77.6254Z" fill="#FAAC35"/>
<path d="M367.794 73.5403H363.708V77.6254H367.794V73.5403Z" fill="#FAAC35"/>
<path d="M367.794 32.6851H363.708V36.7702H367.794V32.6851Z" fill="black"/>
<path d="M367.794 28.6001H363.708V32.6851H367.794V28.6001Z" fill="black"/>
<path d="M367.794 24.5151H363.708V28.6001H367.794V24.5151Z" fill="black"/>
<path d="M367.794 20.43H363.708V24.515H367.794V20.43Z" fill="black"/>
<path d="M367.794 16.3449H363.708V20.43H367.794V16.3449Z" fill="black"/>
<path d="M367.794 12.2551H363.708V16.3402H367.794V12.2551Z" fill="black"/>
<path d="M367.794 8.17004H363.708V12.2551H367.794V8.17004Z" fill="black"/>
<path d="M371.879 134.826H367.794V138.911H371.879V134.826Z" fill="black"/>
<path d="M371.879 130.74H367.794V134.826H371.879V130.74Z" fill="#A32633"/>
<path d="M371.879 126.655H367.794V130.74H371.879V126.655Z" fill="#A32633"/>
<path d="M371.879 122.57H367.794V126.655H371.879V122.57Z" fill="#A32633"/>
<path d="M371.879 118.485H367.794V122.57H371.879V118.485Z" fill="#A32633"/>
<path d="M371.879 114.4H367.794V118.485H371.879V114.4Z" fill="#A32633"/>
<path d="M371.879 110.416H367.794V114.501H371.879V110.416Z" fill="#A32633"/>
<path d="M371.879 77.6254H367.794V81.7104H371.879V77.6254Z" fill="#FAAC35"/>
<path d="M371.879 73.5403H367.794V77.6254H371.879V73.5403Z" fill="black"/>
<path d="M371.879 69.4553H367.794V73.5404H371.879V69.4553Z" fill="black"/>
<path d="M371.879 65.3702H367.794V69.4553H371.879V65.3702Z" fill="black"/>
<path d="M371.879 61.2852H367.794V65.3702H371.879V61.2852Z" fill="black"/>
<path d="M371.879 57.2001H367.794V61.2852H371.879V57.2001Z" fill="black"/>
<path d="M371.879 53.1151H367.794V57.2002H371.879V53.1151Z" fill="black"/>
<path d="M371.879 49.0301H367.794V53.1151H371.879V49.0301Z" fill="black"/>
<path d="M371.879 44.9402H367.794V49.0253H371.879V44.9402Z" fill="black"/>
<path d="M371.879 40.8552H367.794V44.9403H371.879V40.8552Z" fill="black"/>
<path d="M371.879 36.7701H367.794V40.8552H371.879V36.7701Z" fill="black"/>
<path d="M371.879 32.6851H367.794V36.7702H371.879V32.6851Z" fill="#F9A533"/>
<path d="M371.879 28.6001H367.794V32.6851H371.879V28.6001Z" fill="#F9A533"/>
<path d="M371.879 24.5151H367.794V28.6001H371.879V24.5151Z" fill="#F9A533"/>
<path d="M371.879 20.43H367.794V24.515H371.879V20.43Z" fill="#F9A533"/>
<path d="M371.879 16.3449H367.794V20.43H371.879V16.3449Z" fill="#F9A533"/>
<path d="M371.879 12.2551H367.794V16.3402H371.879V12.2551Z" fill="black"/>
<path d="M375.964 134.826H371.879V138.911H375.964V134.826Z" fill="black"/>
<path d="M375.964 130.74H371.879V134.826H375.964V130.74Z" fill="#A32633"/>
<path d="M375.964 126.655H371.879V130.74H375.964V126.655Z" fill="#A32633"/>
<path d="M375.964 122.57H371.879V126.655H375.964V122.57Z" fill="#A32633"/>
<path d="M375.964 118.485H371.879V122.57H375.964V118.485Z" fill="#A32633"/>
<path d="M375.964 114.4H371.879V118.485H375.964V114.4Z" fill="black"/>
<path d="M375.964 98.0554H371.879V102.14H375.964V98.0554Z" fill="black"/>
<path d="M375.964 93.9703H371.879V98.0554H375.964V93.9703Z" fill="black"/>
<path d="M375.964 89.8853H371.879V93.9703H375.964V89.8853Z" fill="#F37623"/>
<path d="M375.964 85.8002H371.879V89.8853H375.964V85.8002Z" fill="#FAAC35"/>
<path d="M375.964 81.7152H371.879V85.8002H375.964V81.7152Z" fill="#FAAC35"/>
<path d="M375.964 77.6254H371.879V81.7104H375.964V77.6254Z" fill="black"/>
<path d="M375.964 73.5403H371.879V77.6254H375.964V73.5403Z" fill="#5C6E73"/>
<path d="M375.964 69.4553H371.879V73.5404H375.964V69.4553Z" fill="#5C6E73"/>
<path d="M375.964 65.3702H371.879V69.4553H375.964V65.3702Z" fill="#5C6E73"/>
<path d="M375.964 61.2852H371.879V65.3702H375.964V61.2852Z" fill="#C6D5DC"/>
<path d="M375.964 57.2001H371.879V61.2852H375.964V57.2001Z" fill="#C6D5DC"/>
<path d="M375.964 53.1151H371.879V57.2002H375.964V53.1151Z" fill="#C6D5DC"/>
<path d="M375.964 49.0301H371.879V53.1151H375.964V49.0301Z" fill="#C6D5DC"/>
<path d="M375.964 44.9402H371.879V49.0253H375.964V44.9402Z" fill="black"/>
<path d="M375.964 40.8552H371.879V44.9403H375.964V40.8552Z" fill="#F9A533"/>
<path d="M375.964 36.7701H371.879V40.8552H375.964V36.7701Z" fill="#F9A533"/>
<path d="M375.964 32.6851H371.879V36.7702H375.964V32.6851Z" fill="#F9A533"/>
<path d="M375.964 28.6001H371.879V32.6851H375.964V28.6001Z" fill="#F9A533"/>
<path d="M375.964 24.5151H371.879V28.6001H375.964V24.5151Z" fill="#F37920"/>
<path d="M375.964 20.43H371.879V24.515H375.964V20.43Z" fill="#F37920"/>
<path d="M375.964 16.3449H371.879V20.43H375.964V16.3449Z" fill="black"/>
<path d="M380.049 134.826H375.964V138.911H380.049V134.826Z" fill="black"/>
<path d="M380.049 130.74H375.964V134.826H380.049V130.74Z" fill="#A32633"/>
<path d="M380.049 126.655H375.964V130.74H380.049V126.655Z" fill="black"/>
<path d="M380.049 122.57H375.964V126.655H380.049V122.57Z" fill="black"/>
<path d="M380.049 118.485H375.964V122.57H380.049V118.485Z" fill="black"/>
<path d="M380.049 114.4H375.964V118.485H380.049V114.4Z" fill="black"/>
<path d="M380.049 110.31H375.964V114.395H380.049V110.31Z" fill="black"/>
<path d="M380.049 102.14H375.964V106.225H380.049V102.14Z" fill="black"/>
<path d="M380.049 98.0554H375.964V102.14H380.049V98.0554Z" fill="black"/>
<path d="M380.049 93.9703H375.964V98.0554H380.049V93.9703Z" fill="#3B4566"/>
<path d="M380.049 89.8853H375.964V93.9703H380.049V89.8853Z" fill="#F37623"/>
<path d="M380.049 85.8002H375.964V89.8853H380.049V85.8002Z" fill="black"/>
<path d="M380.049 81.7152H375.964V85.8002H380.049V81.7152Z" fill="black"/>
<path d="M380.049 77.6254H375.964V81.7104H380.049V77.6254Z" fill="#384C53"/>
<path d="M380.049 73.5403H375.964V77.6254H380.049V73.5403Z" fill="black"/>
<path d="M380.049 69.4553H375.964V73.5404H380.049V69.4553Z" fill="black"/>
<path d="M380.049 65.3702H375.964V69.4553H380.049V65.3702Z" fill="black"/>
<path d="M380.049 61.2852H375.964V65.3702H380.049V61.2852Z" fill="#DEE8ED"/>
<path d="M380.049 57.2001H375.964V61.2852H380.049V57.2001Z" fill="#DEE8ED"/>
<path d="M380.049 53.1151H375.964V57.2002H380.049V53.1151Z" fill="#C5D4DB"/>
<path d="M380.049 49.0301H375.964V53.1151H380.049V49.0301Z" fill="#C6D5DC"/>
<path d="M380.049 44.9402H375.964V49.0253H380.049V44.9402Z" fill="black"/>
<path d="M380.049 40.8552H375.964V44.9403H380.049V40.8552Z" fill="#F9A533"/>
<path d="M380.049 36.7701H375.964V40.8552H380.049V36.7701Z" fill="#F9A533"/>
<path d="M380.049 32.6851H375.964V36.7702H380.049V32.6851Z" fill="#F9A533"/>
<path d="M380.049 28.6001H375.964V32.6851H380.049V28.6001Z" fill="#F37920"/>
<path d="M380.049 24.5151H375.964V28.6001H380.049V24.5151Z" fill="#F37920"/>
<path d="M380.049 20.43H375.964V24.515H380.049V20.43Z" fill="black"/>
<path d="M384.138 134.826H380.053V138.911H384.138V134.826Z" fill="black"/>
<path d="M384.138 130.74H380.053V134.826H384.138V130.74Z" fill="black"/>
<path d="M384.138 126.655H380.053V130.74H384.138V126.655Z" fill="black"/>
<path d="M384.138 122.57H380.053V126.655H384.138V122.57Z" fill="#262B44"/>
<path d="M384.138 118.485H380.053V122.57H384.138V118.485Z" fill="#F37920"/>
<path d="M384.138 114.4H380.053V118.485H384.138V114.4Z" fill="#F9A533"/>
<path d="M384.138 110.31H380.053V114.395H384.138V110.31Z" fill="black"/>
<path d="M384.138 106.225H380.053V110.31H384.138V106.225Z" fill="black"/>
<path d="M384.138 102.14H380.053V106.225H384.138V102.14Z" fill="black"/>
<path d="M384.138 98.0554H380.053V102.14H384.138V98.0554Z" fill="black"/>
<path d="M384.138 93.9703H380.053V98.0554H384.138V93.9703Z" fill="black"/>
<path d="M384.138 89.8853H380.053V93.9703H384.138V89.8853Z" fill="black"/>
<path d="M384.138 85.8002H380.053V89.8853H384.138V85.8002Z" fill="#5C6E73"/>
<path d="M384.138 81.7152H380.053V85.8002H384.138V81.7152Z" fill="#7C8D92"/>
<path d="M384.138 77.6254H380.053V81.7104H384.138V77.6254Z" fill="#5C6E73"/>
<path d="M384.138 73.5403H380.053V77.6254H384.138V73.5403Z" fill="black"/>
<path d="M384.138 69.4553H380.053V73.5404H384.138V69.4553Z" fill="#D2D17C"/>
<path d="M384.138 65.3702H380.053V69.4553H384.138V65.3702Z" fill="black"/>
<path d="M384.138 61.2852H380.053V65.3702H384.138V61.2852Z" fill="#A0AFB5"/>
<path d="M384.138 57.2001H380.053V61.2852H384.138V57.2001Z" fill="#DEE8ED"/>
<path d="M384.138 53.1151H380.053V57.2002H384.138V53.1151Z" fill="#DEE8ED"/>
<path d="M384.138 49.0301H380.053V53.1151H384.138V49.0301Z" fill="#DEE8ED"/>
<path d="M384.138 44.9402H380.053V49.0253H384.138V44.9402Z" fill="#9FAAB0"/>
<path d="M384.138 40.8552H380.053V44.9403H384.138V40.8552Z" fill="#F9A533"/>
<path d="M384.138 36.7701H380.053V40.8552H384.138V36.7701Z" fill="#F9A533"/>
<path d="M384.138 32.6851H380.053V36.7702H384.138V32.6851Z" fill="#F9A533"/>
<path d="M384.138 28.6001H380.053V32.6851H384.138V28.6001Z" fill="#F37920"/>
<path d="M384.138 24.5151H380.053V28.6001H384.138V24.5151Z" fill="black"/>
<path d="M388.224 137.014H384.138V140.149H388.224V137.014Z" fill="black"/>
<path d="M388.224 133.88H384.138V137.019H388.224V133.88Z" fill="black"/>
<path d="M388.224 130.74H384.138V133.875H388.224V130.74Z" fill="#1498D5"/>
<path d="M388.224 126.655H384.138V130.74H388.224V126.655Z" fill="#1498D5"/>
<path d="M388.224 122.57H384.138V126.655H388.224V122.57Z" fill="black"/>
<path d="M388.224 118.485H384.138V122.57H388.224V118.485Z" fill="#262B44"/>
<path d="M388.224 114.4H384.138V118.485H388.224V114.4Z" fill="#5B6987"/>
<path d="M388.224 110.31H384.138V114.395H388.224V110.31Z" fill="black"/>
<path d="M388.224 106.225H384.138V110.31H388.224V106.225Z" fill="#5B6987"/>
<path d="M388.224 102.14H384.138V106.225H388.224V102.14Z" fill="#F9A533"/>
<path d="M388.224 98.0554H384.138V102.14H388.224V98.0554Z" fill="#F9A533"/>
<path d="M388.224 93.9703H384.138V98.0554H388.224V93.9703Z" fill="#F9A533"/>
<path d="M388.224 89.8853H384.138V93.9703H388.224V89.8853Z" fill="black"/>
<path d="M388.224 85.8002H384.138V89.8853H388.224V85.8002Z" fill="black"/>
<path d="M388.224 81.7152H384.138V85.8002H388.224V81.7152Z" fill="#909CA0"/>
<path d="M388.224 77.6254H384.138V81.7104H388.224V77.6254Z" fill="#909CA0"/>
<path d="M388.224 73.5403H384.138V77.6254H388.224V73.5403Z" fill="#7C8E93"/>
<path d="M388.224 69.4553H384.138V73.5404H388.224V69.4553Z" fill="black"/>
<path d="M388.224 65.3702H384.138V69.4553H388.224V65.3702Z" fill="black"/>
<path d="M388.224 61.2852H384.138V65.3702H388.224V61.2852Z" fill="#A0AFB5"/>
<path d="M388.224 57.2001H384.138V61.2852H388.224V57.2001Z" fill="#DEE8ED"/>
<path d="M388.224 53.1151H384.138V57.2002H388.224V53.1151Z" fill="#DEE8ED"/>
<path d="M388.224 49.0301H384.138V53.1151H388.224V49.0301Z" fill="#DEE8ED"/>
<path d="M388.224 44.9402H384.138V49.0253H388.224V44.9402Z" fill="#B0BABE"/>
<path d="M388.224 40.8552H384.138V44.9403H388.224V40.8552Z" fill="#F9A533"/>
<path d="M388.224 36.7701H384.138V40.8552H388.224V36.7701Z" fill="#F9A533"/>
<path d="M388.224 32.6851H384.138V36.7702H388.224V32.6851Z" fill="#F9A533"/>
<path d="M388.224 28.6001H384.138V32.6851H388.224V28.6001Z" fill="#F9A533"/>
<path d="M388.224 24.5151H384.138V28.6001H388.224V24.5151Z" fill="#F9A533"/>
<path d="M388.224 20.43H384.138V24.515H388.224V20.43Z" fill="black"/>
<path d="M388.224 16.3449H384.138V20.43H388.224V16.3449Z" fill="black"/>
<path d="M392.309 137.014H388.224V140.149H392.309V137.014Z" fill="black"/>
<path d="M392.309 133.88H388.224V137.019H392.309V133.88Z" fill="#3F2731"/>
<path d="M392.309 130.74H388.224V133.875H392.309V130.74Z" fill="#124F8A"/>
<path d="M392.309 126.655H388.224V130.74H392.309V126.655Z" fill="#124F8A"/>
<path d="M392.309 122.57H388.224V126.655H392.309V122.57Z" fill="black"/>
<path d="M392.309 118.485H388.224V122.57H392.309V118.485Z" fill="black"/>
<path d="M392.309 114.4H388.224V118.485H392.309V114.4Z" fill="black"/>
<path d="M392.309 110.31H388.224V114.395H392.309V110.31Z" fill="black"/>
<path d="M392.309 106.225H388.224V110.31H392.309V106.225Z" fill="#5B6987"/>
<path d="M392.309 102.14H388.224V106.225H392.309V102.14Z" fill="#F9A533"/>
<path d="M392.309 98.0554H388.224V102.14H392.309V98.0554Z" fill="#E43C45"/>
<path d="M392.309 93.9703H388.224V98.0554H392.309V93.9703Z" fill="#F9A533"/>
<path d="M392.309 89.8853H388.224V93.9703H392.309V89.8853Z" fill="black"/>
<path d="M392.309 85.8002H388.224V89.8853H392.309V85.8002Z" fill="#5C6E73"/>
<path d="M392.309 81.7152H388.224V85.8002H392.309V81.7152Z" fill="#7C8D92"/>
<path d="M392.309 77.6254H388.224V81.7104H392.309V77.6254Z" fill="#5C6E73"/>
<path d="M392.309 73.5403H388.224V77.6254H392.309V73.5403Z" fill="#C6D5DC"/>
<path d="M392.309 69.4553H388.224V73.5404H392.309V69.4553Z" fill="#7C8E93"/>
<path d="M392.309 65.3702H388.224V69.4553H392.309V65.3702Z" fill="#384C53"/>
<path d="M392.309 61.2852H388.224V65.3702H392.309V61.2852Z" fill="#384C53"/>
<path d="M392.309 57.2001H388.224V61.2852H392.309V57.2001Z" fill="#DEE8ED"/>
<path d="M392.309 53.1151H388.224V57.2002H392.309V53.1151Z" fill="#DEE8ED"/>
<path d="M392.309 49.0301H388.224V53.1151H392.309V49.0301Z" fill="#DEE8ED"/>
<path d="M392.309 44.9402H388.224V49.0253H392.309V44.9402Z" fill="#B0BABE"/>
<path d="M392.309 40.8552H388.224V44.9403H392.309V40.8552Z" fill="#F9A533"/>
<path d="M392.309 36.7701H388.224V40.8552H392.309V36.7701Z" fill="#F9A533"/>
<path d="M392.309 32.6851H388.224V36.7702H392.309V32.6851Z" fill="#F9A533"/>
<path d="M392.309 28.6001H388.224V32.6851H392.309V28.6001Z" fill="#E43C45"/>
<path d="M392.309 24.5151H388.224V28.6001H392.309V24.5151Z" fill="#E43C45"/>
<path d="M392.309 20.43H388.224V24.515H392.309V20.43Z" fill="#F9A533"/>
<path d="M392.309 16.3449H388.224V20.43H392.309V16.3449Z" fill="#F9A533"/>
<path d="M392.309 12.2551H388.224V16.3402H392.309V12.2551Z" fill="black"/>
<path d="M392.309 8.17004H388.224V12.2551H392.309V8.17004Z" fill="black"/>
<path d="M396.394 137.014H392.309V140.149H396.394V137.014Z" fill="black"/>
<path d="M396.394 133.88H392.309V137.019H396.394V133.88Z" fill="black"/>
<path d="M396.394 130.74H392.309V133.875H396.394V130.74Z" fill="black"/>
<path d="M396.394 126.655H392.309V130.74H396.394V126.655Z" fill="black"/>
<path d="M396.394 122.57H392.309V126.655H396.394V122.57Z" fill="black"/>
<path d="M396.394 118.485H392.309V122.57H396.394V118.485Z" fill="#1498D5"/>
<path d="M396.394 114.4H392.309V118.485H396.394V114.4Z" fill="#F9A533"/>
<path d="M396.394 110.31H392.309V114.395H396.394V110.31Z" fill="black"/>
<path d="M396.394 106.225H392.309V110.31H396.394V106.225Z" fill="#5B6987"/>
<path d="M396.394 102.14H392.309V106.225H396.394V102.14Z" fill="#A32633"/>
<path d="M396.394 98.0554H392.309V102.14H396.394V98.0554Z" fill="#DEE8ED"/>
<path d="M396.394 93.9703H392.309V98.0554H396.394V93.9703Z" fill="#F9A533"/>
<path d="M396.394 89.8853H392.309V93.9703H396.394V89.8853Z" fill="black"/>
<path d="M396.394 85.8002H392.309V89.8853H396.394V85.8002Z" fill="black"/>
<path d="M396.394 81.7152H392.309V85.8002H396.394V81.7152Z" fill="#909CA0"/>
<path d="M396.394 77.6254H392.309V81.7104H396.394V77.6254Z" fill="#384C53"/>
<path d="M396.394 73.5403H392.309V77.6254H396.394V73.5403Z" fill="black"/>
<path d="M396.394 69.4553H392.309V73.5404H396.394V69.4553Z" fill="#919DA1"/>
<path d="M396.394 65.3702H392.309V69.4553H396.394V65.3702Z" fill="#7C8E93"/>
<path d="M396.394 61.2852H392.309V65.3702H396.394V61.2852Z" fill="#5C6E73"/>
<path d="M396.394 57.2001H392.309V61.2852H396.394V57.2001Z" fill="#DEE8ED"/>
<path d="M396.394 53.1151H392.309V57.2002H396.394V53.1151Z" fill="#DEE8ED"/>
<path d="M396.394 49.0301H392.309V53.1151H396.394V49.0301Z" fill="#DEE8ED"/>
<path d="M396.394 44.9402H392.309V49.0253H396.394V44.9402Z" fill="#B0BABE"/>
<path d="M396.394 40.8552H392.309V44.9403H396.394V40.8552Z" fill="#F9A533"/>
<path d="M396.394 36.7701H392.309V40.8552H396.394V36.7701Z" fill="#F9A533"/>
<path d="M396.394 32.6851H392.309V36.7702H396.394V32.6851Z" fill="#A32633"/>
<path d="M396.394 28.6001H392.309V32.6851H396.394V28.6001Z" fill="#E43C45"/>
<path d="M396.394 24.5151H392.309V28.6001H396.394V24.5151Z" fill="white"/>
<path d="M396.394 20.43H392.309V24.515H396.394V20.43Z" fill="#E43C45"/>
<path d="M396.394 16.3449H392.309V20.43H396.394V16.3449Z" fill="#F37920"/>
<path d="M396.394 12.2599H392.309V16.3449H396.394V12.2599Z" fill="#F37920"/>
<path d="M396.394 8.17004H392.309V12.2551H396.394V8.17004Z" fill="#F9A533"/>
<path d="M396.394 4.08502H392.309V8.17006H396.394V4.08502Z" fill="black"/>
<path d="M396.394 0H392.309V4.08504H396.394V0Z" fill="black"/>
<path d="M400.479 134.826H396.394V138.911H400.479V134.826Z" fill="black"/>
<path d="M400.479 130.74H396.394V134.826H400.479V130.74Z" fill="#A32633"/>
<path d="M400.479 126.655H396.394V130.74H400.479V126.655Z" fill="#A32633"/>
<path d="M400.479 122.57H396.394V126.655H400.479V122.57Z" fill="black"/>
<path d="M400.479 118.485H396.394V122.57H400.479V118.485Z" fill="#1498D5"/>
<path d="M400.479 114.4H396.394V118.485H400.479V114.4Z" fill="#F9A533"/>
<path d="M400.479 110.31H396.394V114.395H400.479V110.31Z" fill="black"/>
<path d="M400.479 106.225H396.394V110.31H400.479V106.225Z" fill="#5B6987"/>
<path d="M400.479 102.14H396.394V106.225H400.479V102.14Z" fill="#A32633"/>
<path d="M400.479 98.0554H396.394V102.14H400.479V98.0554Z" fill="#A32633"/>
<path d="M400.479 93.9703H396.394V98.0554H400.479V93.9703Z" fill="#F9A533"/>
<path d="M400.479 89.8853H396.394V93.9703H400.479V89.8853Z" fill="black"/>
<path d="M400.479 85.8002H396.394V89.8853H400.479V85.8002Z" fill="#5C6E73"/>
<path d="M400.479 81.7152H396.394V85.8002H400.479V81.7152Z" fill="#7C8D92"/>
<path d="M400.479 77.6254H396.394V81.7104H400.479V77.6254Z" fill="#49636C"/>
<path d="M400.479 73.5403H396.394V77.6254H400.479V73.5403Z" fill="#384C53"/>
<path d="M400.479 69.4553H396.394V73.5404H400.479V69.4553Z" fill="#919DA1"/>
<path d="M400.479 65.3702H396.394V69.4553H400.479V65.3702Z" fill="#7C8E93"/>
<path d="M400.479 61.2852H396.394V65.3702H400.479V61.2852Z" fill="#5C6E73"/>
<path d="M400.479 57.2001H396.394V61.2852H400.479V57.2001Z" fill="#DEE8ED"/>
<path d="M400.479 53.1151H396.394V57.2002H400.479V53.1151Z" fill="#DEE8ED"/>
<path d="M400.479 49.0301H396.394V53.1151H400.479V49.0301Z" fill="#DEE8ED"/>
<path d="M400.479 44.9402H396.394V49.0253H400.479V44.9402Z" fill="#B0BABE"/>
<path d="M400.479 40.8552H396.394V44.9403H400.479V40.8552Z" fill="#F9A533"/>
<path d="M400.479 36.7701H396.394V40.8552H400.479V36.7701Z" fill="#F9A533"/>
<path d="M400.479 32.6851H396.394V36.7702H400.479V32.6851Z" fill="#F9A533"/>
<path d="M400.479 28.6001H396.394V32.6851H400.479V28.6001Z" fill="#A32633"/>
<path d="M400.479 24.5151H396.394V28.6001H400.479V24.5151Z" fill="#F37920"/>
<path d="M400.479 20.43H396.394V24.515H400.479V20.43Z" fill="#F37920"/>
<path d="M400.479 16.3449H396.394V20.43H400.479V16.3449Z" fill="#F37920"/>
<path d="M400.479 12.2551H396.394V16.3402H400.479V12.2551Z" fill="black"/>
<path d="M400.479 8.17004H396.394V12.2551H400.479V8.17004Z" fill="black"/>
<path d="M404.564 134.826H400.479V138.911H404.564V134.826Z" fill="black"/>
<path d="M404.564 130.74H400.479V134.826H404.564V130.74Z" fill="#A32633"/>
<path d="M404.564 126.655H400.479V130.74H404.564V126.655Z" fill="#A32633"/>
<path d="M404.564 122.57H400.479V126.655H404.564V122.57Z" fill="black"/>
<path d="M404.564 118.485H400.479V122.57H404.564V118.485Z" fill="#1498D5"/>
<path d="M404.564 114.4H400.479V118.485H404.564V114.4Z" fill="#F37920"/>
<path d="M404.564 110.31H400.479V114.395H404.564V110.31Z" fill="black"/>
<path d="M404.564 106.225H400.479V110.31H404.564V106.225Z" fill="#3B4566"/>
<path d="M404.564 102.14H400.479V106.225H404.564V102.14Z" fill="#F37623"/>
<path d="M404.564 98.0554H400.479V102.14H404.564V98.0554Z" fill="#A32633"/>
<path d="M404.564 93.9703H400.479V98.0554H404.564V93.9703Z" fill="#F9A533"/>
<path d="M404.564 89.8853H400.479V93.9703H404.564V89.8853Z" fill="black"/>
<path d="M404.564 85.8002H400.479V89.8853H404.564V85.8002Z" fill="black"/>
<path d="M404.564 81.7152H400.479V85.8002H404.564V81.7152Z" fill="#909CA0"/>
<path d="M404.564 77.6254H400.479V81.7104H404.564V77.6254Z" fill="#5C6E73"/>
<path d="M404.564 73.5403H400.479V77.6254H404.564V73.5403Z" fill="#C6D5DC"/>
<path d="M404.564 69.4553H400.479V73.5404H404.564V69.4553Z" fill="#7C8E93"/>
<path d="M404.564 65.3702H400.479V69.4553H404.564V65.3702Z" fill="#384C53"/>
<path d="M404.564 61.2852H400.479V65.3702H404.564V61.2852Z" fill="#384C53"/>
<path d="M404.564 57.2001H400.479V61.2852H404.564V57.2001Z" fill="#DEE8ED"/>
<path d="M404.564 53.1151H400.479V57.2002H404.564V53.1151Z" fill="#DEE8ED"/>
<path d="M404.564 49.0301H400.479V53.1151H404.564V49.0301Z" fill="#DEE8ED"/>
<path d="M404.564 44.9402H400.479V49.0253H404.564V44.9402Z" fill="#9FAAB0"/>
<path d="M404.564 40.8552H400.479V44.9403H404.564V40.8552Z" fill="#F9A533"/>
<path d="M404.564 36.7701H400.479V40.8552H404.564V36.7701Z" fill="#F9A533"/>
<path d="M404.564 32.6851H400.479V36.7702H404.564V32.6851Z" fill="#F9A533"/>
<path d="M404.564 28.6001H400.479V32.6851H404.564V28.6001Z" fill="#F9A533"/>
<path d="M404.564 24.5151H400.479V28.6001H404.564V24.5151Z" fill="#F37920"/>
<path d="M404.564 20.43H400.479V24.515H404.564V20.43Z" fill="black"/>
<path d="M404.564 16.3449H400.479V20.43H404.564V16.3449Z" fill="black"/>
<path d="M408.649 134.826H404.564V138.911H408.649V134.826Z" fill="black"/>
<path d="M408.649 130.74H404.564V134.826H408.649V130.74Z" fill="#A32633"/>
<path d="M408.649 126.655H404.564V130.74H408.649V126.655Z" fill="#A32633"/>
<path d="M408.649 122.57H404.564V126.655H408.649V122.57Z" fill="black"/>
<path d="M408.649 118.485H404.564V122.57H408.649V118.485Z" fill="#124F8A"/>
<path d="M408.649 114.4H404.564V118.485H408.649V114.4Z" fill="#3F2731"/>
<path d="M408.649 110.31H404.564V114.395H408.649V110.31Z" fill="black"/>
<path d="M408.649 106.225H404.564V110.31H408.649V106.225Z" fill="#3B4566"/>
<path d="M408.649 102.14H404.564V106.225H408.649V102.14Z" fill="#F37623"/>
<path d="M408.649 98.0554H404.564V102.14H408.649V98.0554Z" fill="#F37623"/>
<path d="M408.649 93.9703H404.564V98.0554H408.649V93.9703Z" fill="#F37623"/>
<path d="M408.649 89.8853H404.564V93.9703H408.649V89.8853Z" fill="black"/>
<path d="M408.649 85.8002H404.564V89.8853H408.649V85.8002Z" fill="#5C6E73"/>
<path d="M408.649 81.7152H404.564V85.8002H408.649V81.7152Z" fill="#7C8D92"/>
<path d="M408.649 77.6254H404.564V81.7104H408.649V77.6254Z" fill="#909CA0"/>
<path d="M408.649 73.5403H404.564V77.6254H408.649V73.5403Z" fill="#7C8E93"/>
<path d="M408.649 69.4553H404.564V73.5404H408.649V69.4553Z" fill="black"/>
<path d="M408.649 65.3702H404.564V69.4553H408.649V65.3702Z" fill="black"/>
<path d="M408.649 61.2852H404.564V65.3702H408.649V61.2852Z" fill="#A0AFB5"/>
<path d="M408.649 57.2001H404.564V61.2852H408.649V57.2001Z" fill="#DEE8ED"/>
<path d="M408.649 53.1151H404.564V57.2002H408.649V53.1151Z" fill="#C6D5DC"/>
<path d="M408.649 49.0301H404.564V53.1151H408.649V49.0301Z" fill="#DEE8ED"/>
<path d="M408.649 44.9402H404.564V49.0253H408.649V44.9402Z" fill="#9FAAB0"/>
<path d="M408.649 40.8552H404.564V44.9403H408.649V40.8552Z" fill="#F37920"/>
<path d="M408.649 36.7701H404.564V40.8552H408.649V36.7701Z" fill="#F9A533"/>
<path d="M408.649 32.6851H404.564V36.7702H408.649V32.6851Z" fill="#F9A533"/>
<path d="M408.649 28.6001H404.564V32.6851H408.649V28.6001Z" fill="#F9A533"/>
<path d="M408.649 24.5151H404.564V28.6001H408.649V24.5151Z" fill="#F37920"/>
<path d="M408.649 20.43H404.564V24.515H408.649V20.43Z" fill="black"/>
<path d="M412.734 134.826H408.649V138.911H412.734V134.826Z" fill="black"/>
<path d="M412.734 130.74H408.649V134.826H412.734V130.74Z" fill="#A32633"/>
<path d="M412.734 126.655H408.649V130.74H412.734V126.655Z" fill="#A32633"/>
<path d="M412.734 122.57H408.649V126.655H412.734V122.57Z" fill="black"/>
<path d="M412.734 118.485H408.649V122.57H412.734V118.485Z" fill="#124F8A"/>
<path d="M412.734 114.4H408.649V118.485H412.734V114.4Z" fill="#3F2731"/>
<path d="M412.734 110.31H408.649V114.395H412.734V110.31Z" fill="black"/>
<path d="M412.734 106.225H408.649V110.31H412.734V106.225Z" fill="#3B4566"/>
<path d="M412.734 102.14H408.649V106.225H412.734V102.14Z" fill="#5B6987"/>
<path d="M412.734 98.0554H408.649V102.14H412.734V98.0554Z" fill="#F37623"/>
<path d="M412.734 93.9703H408.649V98.0554H412.734V93.9703Z" fill="#F37623"/>
<path d="M412.734 89.8853H408.649V93.9703H412.734V89.8853Z" fill="black"/>
<path d="M412.734 85.8002H408.649V89.8853H412.734V85.8002Z" fill="black"/>
<path d="M412.734 81.7152H408.649V85.8002H412.734V81.7152Z" fill="#5C6E73"/>
<path d="M412.734 77.6254H408.649V81.7104H412.734V77.6254Z" fill="#5C6E73"/>
<path d="M412.734 73.5403H408.649V77.6254H412.734V73.5403Z" fill="black"/>
<path d="M412.734 69.4553H408.649V73.5404H412.734V69.4553Z" fill="#D2D17C"/>
<path d="M412.734 65.3702H408.649V69.4553H412.734V65.3702Z" fill="black"/>
<path d="M412.734 61.2852H408.649V65.3702H412.734V61.2852Z" fill="#A0AFB5"/>
<path d="M412.734 57.2001H408.649V61.2852H412.734V57.2001Z" fill="#DEE8ED"/>
<path d="M412.734 53.1151H408.649V57.2002H412.734V53.1151Z" fill="#C6D5DC"/>
<path d="M412.734 49.0301H408.649V53.1151H412.734V49.0301Z" fill="#C6D5DC"/>
<path d="M412.734 44.9402H408.649V49.0253H412.734V44.9402Z" fill="#9FAAB0"/>
<path d="M412.734 40.8552H408.649V44.9403H412.734V40.8552Z" fill="#F37920"/>
<path d="M412.734 36.7701H408.649V40.8552H412.734V36.7701Z" fill="#F37920"/>
<path d="M412.734 32.6851H408.649V36.7702H412.734V32.6851Z" fill="#F9A533"/>
<path d="M412.734 28.6001H408.649V32.6851H412.734V28.6001Z" fill="#F9A533"/>
<path d="M412.734 24.5151H408.649V28.6001H412.734V24.5151Z" fill="black"/>
<path d="M416.824 134.826H412.739V138.911H416.824V134.826Z" fill="black"/>
<path d="M416.824 130.74H412.739V134.826H416.824V130.74Z" fill="#A32633"/>
<path d="M416.824 126.655H412.739V130.74H416.824V126.655Z" fill="black"/>
<path d="M416.824 122.57H412.739V126.655H416.824V122.57Z" fill="black"/>
<path d="M416.824 118.485H412.739V122.57H416.824V118.485Z" fill="black"/>
<path d="M416.824 114.4H412.739V118.485H416.824V114.4Z" fill="black"/>
<path d="M416.824 110.31H412.739V114.395H416.824V110.31Z" fill="#3F2731"/>
<path d="M416.824 106.225H412.739V110.31H416.824V106.225Z" fill="black"/>
<path d="M416.824 102.14H412.739V106.225H416.824V102.14Z" fill="#3B4566"/>
<path d="M416.824 98.0554H412.739V102.14H416.824V98.0554Z" fill="#5B6987"/>
<path d="M416.824 93.9703H412.739V98.0554H416.824V93.9703Z" fill="#5B6987"/>
<path d="M416.824 89.8853H412.739V93.9703H416.824V89.8853Z" fill="black"/>
<path d="M416.824 85.8002H412.739V89.8853H416.824V85.8002Z" fill="#5C6E73"/>
<path d="M416.824 81.7152H412.739V85.8002H416.824V81.7152Z" fill="#384C53"/>
<path d="M416.824 77.6254H412.739V81.7104H416.824V77.6254Z" fill="#384C53"/>
<path d="M416.824 73.5403H412.739V77.6254H416.824V73.5403Z" fill="black"/>
<path d="M416.824 69.4553H412.739V73.5404H416.824V69.4553Z" fill="black"/>
<path d="M416.824 65.3702H412.739V69.4553H416.824V65.3702Z" fill="black"/>
<path d="M416.824 61.2852H412.739V65.3702H416.824V61.2852Z" fill="#DEE8ED"/>
<path d="M416.824 57.2001H412.739V61.2852H416.824V57.2001Z" fill="#C6D5DC"/>
<path d="M416.824 53.1151H412.739V57.2002H416.824V53.1151Z" fill="#C6D5DC"/>
<path d="M416.824 49.0301H412.739V53.1151H416.824V49.0301Z" fill="#C6D5DC"/>
<path d="M416.824 44.9402H412.739V49.0253H416.824V44.9402Z" fill="#9FAAB0"/>
<path d="M416.824 40.8552H412.739V44.9403H416.824V40.8552Z" fill="#F37920"/>
<path d="M416.824 36.7701H412.739V40.8552H416.824V36.7701Z" fill="#F37920"/>
<path d="M416.824 32.6851H412.739V36.7702H416.824V32.6851Z" fill="#F9A533"/>
<path d="M416.824 28.6001H412.739V32.6851H416.824V28.6001Z" fill="#F9A533"/>
<path d="M416.824 24.5151H412.739V28.6001H416.824V24.5151Z" fill="black"/>
<path d="M420.909 137.014H416.824V140.149H420.909V137.014Z" fill="black"/>
<path d="M420.909 133.88H416.824V137.019H420.909V133.88Z" fill="black"/>
<path d="M420.909 130.74H416.824V133.875H420.909V130.74Z" fill="black"/>
<path d="M420.909 126.655H416.824V130.74H420.909V126.655Z" fill="#1498D5"/>
<path d="M420.909 122.57H416.824V126.655H420.909V122.57Z" fill="black"/>
<path d="M420.909 118.485H416.824V122.57H420.909V118.485Z" fill="#5B6987"/>
<path d="M420.909 114.4H416.824V118.485H420.909V114.4Z" fill="#5B6987"/>
<path d="M420.909 110.31H416.824V114.395H420.909V110.31Z" fill="black"/>
<path d="M420.909 106.225H416.824V110.31H420.909V106.225Z" fill="#3F2731"/>
<path d="M420.909 102.14H416.824V106.225H420.909V102.14Z" fill="black"/>
<path d="M424.994 98.0554H420.909V102.14H424.994V98.0554Z" fill="black"/>
<path d="M420.909 98.0554H416.824V102.14H420.909V98.0554Z" fill="black"/>
<path d="M420.909 93.9703H416.824V98.0554H420.909V93.9703Z" fill="black"/>
<path d="M420.909 77.6254H416.824V81.7104H420.909V77.6254Z" fill="#5C6E73"/>
<path d="M420.909 73.5403H416.824V77.6254H420.909V73.5403Z" fill="#5C6E73"/>
<path d="M420.909 69.4553H416.824V73.5404H420.909V69.4553Z" fill="#384C53"/>
<path d="M420.909 65.3702H416.824V69.4553H420.909V65.3702Z" fill="#DEE8ED"/>
<path d="M420.909 61.2852H416.824V65.3702H420.909V61.2852Z" fill="#C6D5DC"/>
<path d="M420.909 57.2001H416.824V61.2852H420.909V57.2001Z" fill="#C6D5DC"/>
<path d="M420.909 53.1151H416.824V57.2002H420.909V53.1151Z" fill="#C6D5DC"/>
<path d="M420.909 49.0301H416.824V53.1151H420.909V49.0301Z" fill="#C6D5DC"/>
<path d="M420.909 44.9402H416.824V49.0253H420.909V44.9402Z" fill="#9FAAB0"/>
<path d="M420.909 40.8552H416.824V44.9403H420.909V40.8552Z" fill="#F37920"/>
<path d="M420.909 36.7701H416.824V40.8552H420.909V36.7701Z" fill="#F37920"/>
<path d="M420.909 32.6851H416.824V36.7702H420.909V32.6851Z" fill="#F9A533"/>
<path d="M420.909 28.6001H416.824V32.6851H420.909V28.6001Z" fill="#F9A533"/>
<path d="M420.909 24.5151H416.824V28.6001H420.909V24.5151Z" fill="black"/>
<path d="M424.994 137.014H420.909V140.149H424.994V137.014Z" fill="black"/>
<path d="M424.994 133.88H420.909V137.019H424.994V133.88Z" fill="#3F2731"/>
<path d="M424.994 130.74H420.909V133.875H424.994V130.74Z" fill="#124F8A"/>
<path d="M424.994 126.655H420.909V130.74H424.994V126.655Z" fill="black"/>
<path d="M424.994 122.57H420.909V126.655H424.994V122.57Z" fill="#262B44"/>
<path d="M424.994 118.485H420.909V122.57H424.994V118.485Z" fill="#F37920"/>
<path d="M424.994 114.4H420.909V118.485H424.994V114.4Z" fill="#F9A533"/>
<path d="M424.994 110.31H420.909V114.395H424.994V110.31Z" fill="black"/>
<path d="M424.994 106.225H420.909V110.31H424.994V106.225Z" fill="black"/>
<path d="M424.994 102.14H420.909V106.225H424.994V102.14Z" fill="#A32633"/>
<path d="M424.994 73.5403H420.909V77.6254H424.994V73.5403Z" fill="#919DA1"/>
<path d="M424.994 69.4553H420.909V73.5404H424.994V69.4553Z" fill="#384C53"/>
<path d="M424.994 65.3702H420.909V69.4553H424.994V65.3702Z" fill="#384C53"/>
<path d="M424.994 61.2852H420.909V65.3702H424.994V61.2852Z" fill="#C6D5DC"/>
<path d="M424.994 57.2001H420.909V61.2852H424.994V57.2001Z" fill="#C6D5DC"/>
<path d="M424.994 53.1151H420.909V57.2002H424.994V53.1151Z" fill="#C6D5DC"/>
<path d="M424.994 49.0301H420.909V53.1151H424.994V49.0301Z" fill="#C6D5DC"/>
<path d="M424.994 44.9402H420.909V49.0253H424.994V44.9402Z" fill="#9FAAB0"/>
<path d="M424.994 40.8552H420.909V44.9403H424.994V40.8552Z" fill="#F37920"/>
<path d="M424.994 36.7701H420.909V40.8552H424.994V36.7701Z" fill="#F37920"/>
<path d="M424.994 32.6851H420.909V36.7702H424.994V32.6851Z" fill="#F9A533"/>
<path d="M424.994 28.6001H420.909V32.6851H424.994V28.6001Z" fill="#F9A533"/>
<path d="M424.994 24.5151H420.909V28.6001H424.994V24.5151Z" fill="black"/>
<path d="M429.079 137.014H424.994V140.149H429.079V137.014Z" fill="black"/>
<path d="M429.079 133.88H424.994V138.915H429.079V133.88Z" fill="black"/>
<path d="M429.079 130.74H424.994V133.875H429.079V130.74Z" fill="black"/>
<path d="M429.079 126.655H424.994V130.74H429.079V126.655Z" fill="black"/>
<path d="M429.079 122.57H424.994V126.655H429.079V122.57Z" fill="#262B44"/>
<path d="M429.079 118.485H424.994V122.57H429.079V118.485Z" fill="#F37920"/>
<path d="M429.079 114.4H424.994V118.485H429.079V114.4Z" fill="#F37920"/>
<path d="M429.079 110.31H424.994V114.395H429.079V110.31Z" fill="black"/>
<path d="M429.079 106.225H424.994V110.31H429.079V106.225Z" fill="#F9A533"/>
<path d="M429.079 102.14H424.994V106.225H429.079V102.14Z" fill="#A32633"/>
<path d="M429.079 73.5403H424.994V77.6254H429.079V73.5403Z" fill="#919DA1"/>
<path d="M429.079 69.4553H424.994V73.5404H429.079V69.4553Z" fill="#5C6E73"/>
<path d="M429.079 65.3702H424.994V69.4553H429.079V65.3702Z" fill="#384C53"/>
<path d="M429.079 61.2852H424.994V65.3702H429.079V61.2852Z" fill="#384C53"/>
<path d="M429.079 57.2001H424.994V61.2852H429.079V57.2001Z" fill="#919DA1"/>
<path d="M429.079 53.1151H424.994V57.2002H429.079V53.1151Z" fill="#919DA1"/>
<path d="M429.079 49.0301H424.994V53.1151H429.079V49.0301Z" fill="#919DA1"/>
<path d="M429.079 44.9402H424.994V49.0253H429.079V44.9402Z" fill="black"/>
<path d="M429.079 40.8552H424.994V44.9403H429.079V40.8552Z" fill="#F37920"/>
<path d="M429.079 36.7701H424.994V40.8552H429.079V36.7701Z" fill="#F37920"/>
<path d="M429.079 32.6851H424.994V36.7702H429.079V32.6851Z" fill="#F37920"/>
<path d="M429.079 28.6001H424.994V32.6851H429.079V28.6001Z" fill="#F9A533"/>
<path d="M429.079 24.5151H424.994V28.6001H429.079V24.5151Z" fill="#F9A533"/>
<path d="M429.079 20.43H424.994V24.515H429.079V20.43Z" fill="black"/>
<path d="M433.164 134.826H429.079V138.911H433.164V134.826Z" fill="black"/>
<path d="M433.164 130.74H429.079V134.826H433.164V130.74Z" fill="#A32633"/>
<path d="M433.164 126.655H429.079V130.74H433.164V126.655Z" fill="black"/>
<path d="M433.164 122.57H429.079V126.655H433.164V122.57Z" fill="black"/>
<path d="M433.164 118.485H429.079V122.57H433.164V118.485Z" fill="black"/>
<path d="M433.164 114.4H429.079V118.485H433.164V114.4Z" fill="black"/>
<path d="M433.164 110.31H429.079V114.395H433.164V110.31Z" fill="#C5D4DB"/>
<path d="M433.164 106.225H429.079V110.31H433.164V106.225Z" fill="#F37920"/>
<path d="M433.164 102.14H429.079V106.225H433.164V102.14Z" fill="#3F2731"/>
<path d="M433.164 73.5403H429.079V77.6254H433.164V73.5403Z" fill="#919DA1"/>
<path d="M433.164 69.4553H429.079V73.5404H433.164V69.4553Z" fill="#919DA1"/>
<path d="M433.164 65.3702H429.079V69.4553H433.164V65.3702Z" fill="#919DA1"/>
<path d="M433.164 61.2852H429.079V65.3702H433.164V61.2852Z" fill="#919DA1"/>
<path d="M433.164 57.2001H429.079V61.2852H433.164V57.2001Z" fill="#919DA1"/>
<path d="M433.164 53.1151H429.079V57.2002H433.164V53.1151Z" fill="#919DA1"/>
<path d="M433.164 49.0301H429.079V53.1151H433.164V49.0301Z" fill="#919DA1"/>
<path d="M433.164 44.9402H429.079V49.0253H433.164V44.9402Z" fill="black"/>
<path d="M433.164 40.8552H429.079V44.9403H433.164V40.8552Z" fill="#F37920"/>
<path d="M433.164 36.7701H429.079V40.8552H433.164V36.7701Z" fill="#F37920"/>
<path d="M433.164 32.6851H429.079V36.7702H433.164V32.6851Z" fill="#F37920"/>
<path d="M433.164 28.6001H429.079V32.6851H433.164V28.6001Z" fill="#F9A533"/>
<path d="M433.164 24.5151H429.079V28.6001H433.164V24.5151Z" fill="#F9A533"/>
<path d="M433.164 20.43H429.079V24.515H433.164V20.43Z" fill="#F9A533"/>
<path d="M433.164 16.3449H429.079V20.43H433.164V16.3449Z" fill="black"/>
<path d="M437.249 134.826H433.164V138.911H437.249V134.826Z" fill="black"/>
<path d="M437.249 130.74H433.164V134.826H437.249V130.74Z" fill="#A32633"/>
<path d="M437.249 126.655H433.164V130.74H437.249V126.655Z" fill="#A32633"/>
<path d="M437.249 122.57H433.164V126.655H437.249V122.57Z" fill="#A32633"/>
<path d="M437.249 118.485H433.164V122.57H437.249V118.485Z" fill="#A32633"/>
<path d="M437.249 114.4H433.164V118.485H437.249V114.4Z" fill="black"/>
<path d="M437.249 110.31H433.164V114.395H437.249V110.31Z" fill="#C5D4DB"/>
<path d="M437.249 106.225H433.164V110.31H437.249V106.225Z" fill="#C5D4DB"/>
<path d="M437.249 102.14H433.164V106.225H437.249V102.14Z" fill="#F37920"/>
<path d="M437.249 73.5403H433.164V77.6254H437.249V73.5403Z" fill="black"/>
<path d="M433.164 77.6302H429.079V81.7152H433.164V77.6302Z" fill="black"/>
<path d="M429.079 77.6302H424.994V81.7152H429.079V77.6302Z" fill="black"/>
<path d="M424.994 77.6302H420.909V81.7152H424.994V77.6302Z" fill="black"/>
<path d="M420.909 81.7152H416.824V85.8002H420.909V81.7152Z" fill="black"/>
<path d="M420.909 85.8002H416.824V89.8853H420.909V85.8002Z" fill="black"/>
<path d="M420.909 89.8853H416.824V93.9703H420.909V89.8853Z" fill="black"/>
<path d="M437.249 69.4553H433.164V73.5404H437.249V69.4553Z" fill="black"/>
<path d="M437.249 65.3702H433.164V69.4553H437.249V65.3702Z" fill="black"/>
<path d="M437.249 61.2852H433.164V65.3702H437.249V61.2852Z" fill="black"/>
<path d="M437.249 57.2001H433.164V61.2852H437.249V57.2001Z" fill="black"/>
<path d="M437.249 53.1151H433.164V57.2002H437.249V53.1151Z" fill="black"/>
<path d="M437.249 49.0301H433.164V53.1151H437.249V49.0301Z" fill="black"/>
<path d="M437.249 44.9402H433.164V49.0253H437.249V44.9402Z" fill="black"/>
<path d="M437.249 40.8552H433.164V44.9403H437.249V40.8552Z" fill="black"/>
<path d="M437.249 36.7701H433.164V40.8552H437.249V36.7701Z" fill="black"/>
<path d="M437.249 32.6851H433.164V36.7702H437.249V32.6851Z" fill="#F37920"/>
<path d="M437.249 28.6001H433.164V32.6851H437.249V28.6001Z" fill="#F37920"/>
<path d="M437.249 24.5151H433.164V28.6001H437.249V24.5151Z" fill="#F37920"/>
<path d="M437.249 20.43H433.164V24.515H437.249V20.43Z" fill="#F9A533"/>
<path d="M437.249 16.3449H433.164V20.43H437.249V16.3449Z" fill="#F9A533"/>
<path d="M437.249 12.2551H433.164V16.3402H437.249V12.2551Z" fill="black"/>
<path d="M441.334 134.826H437.249V138.911H441.334V134.826Z" fill="black"/>
<path d="M441.334 130.74H437.249V134.826H441.334V130.74Z" fill="#A32633"/>
<path d="M441.334 126.655H437.249V130.74H441.334V126.655Z" fill="#A32633"/>
<path d="M441.334 122.57H437.249V126.655H441.334V122.57Z" fill="#A32633"/>
<path d="M441.334 118.485H437.249V122.57H441.334V118.485Z" fill="#A32633"/>
<path d="M441.334 114.4H437.249V118.485H441.334V114.4Z" fill="#A32633"/>
<path d="M441.334 110.31H437.249V114.395H441.334V110.31Z" fill="black"/>
<path d="M441.334 106.225H437.249V110.31H441.334V106.225Z" fill="black"/>
<path d="M441.334 102.14H437.249V106.225H441.334V102.14Z" fill="black"/>
<path d="M437.268 98.0745H428.628V102.16H437.268V98.0745Z" fill="black"/>
<path d="M441.334 32.6851H437.249V36.7702H441.334V32.6851Z" fill="black"/>
<path d="M441.334 28.6001H437.249V32.6851H441.334V28.6001Z" fill="black"/>
<path d="M441.334 24.5151H437.249V28.6001H441.334V24.5151Z" fill="black"/>
<path d="M441.334 20.43H437.249V24.515H441.334V20.43Z" fill="black"/>
<path d="M441.334 16.3449H437.249V20.43H441.334V16.3449Z" fill="black"/>
<path d="M441.334 12.2551H437.249V16.3402H441.334V12.2551Z" fill="black"/>
<path d="M441.334 8.17004H437.249V12.2551H441.334V8.17004Z" fill="black"/>
<path d="M445.419 134.826H441.334V138.911H445.419V134.826Z" fill="black"/>
<path d="M445.419 130.74H441.334V134.826H445.419V130.74Z" fill="#A32633"/>
<path d="M445.419 126.655H441.334V130.74H445.419V126.655Z" fill="#A32633"/>
<path d="M445.419 122.57H441.334V126.655H445.419V122.57Z" fill="#A32633"/>
<path d="M445.419 118.485H441.334V122.57H445.419V118.485Z" fill="black"/>
<path d="M445.419 114.4H441.334V118.485H445.419V114.4Z" fill="black"/>
<path d="M445.419 110.31H441.334V114.395H445.419V110.31Z" fill="black"/>
<path d="M445.419 106.225H441.334V110.31H445.419V106.225Z" fill="black"/>
<path d="M445.419 102.14H441.334V106.225H445.419V102.14Z" fill="black"/>
<path d="M449.509 134.826H445.424V138.911H449.509V134.826Z" fill="black"/>
<path d="M449.509 130.74H445.424V134.826H449.509V130.74Z" fill="#A32633"/>
<path d="M449.509 126.655H445.424V130.74H449.509V126.655Z" fill="#A32633"/>
<path d="M449.509 122.57H445.424V126.655H449.509V122.57Z" fill="black"/>
<path d="M453.594 134.826H449.509V138.911H453.594V134.826Z" fill="black"/>
<path d="M453.594 130.74H449.509V134.826H453.594V130.74Z" fill="#A32633"/>
<path d="M453.594 126.655H449.509V130.74H453.594V126.655Z" fill="black"/>
<path d="M457.679 134.826H453.594V138.911H457.679V134.826Z" fill="black"/>
<path d="M457.679 130.74H453.594V134.826H457.679V130.74Z" fill="black"/>
<path d="M461.764 134.826H457.679V138.911H461.764V134.826Z" fill="black"/>
<path d="M350.35 117.269L348.266 120.782L351.78 122.865L353.863 119.352L350.35 117.269Z" fill="black"/>
<path d="M345.983 114.14L343.912 117.661L347.433 119.732L349.504 116.211L345.983 114.14Z" fill="black"/>
<path d="M342.459 112.066L340.389 115.587L343.91 117.658L345.981 114.136L342.459 112.066Z" fill="black"/>
<path d="M355.098 114.762L353.027 118.283L356.548 120.354L358.619 116.833L355.098 114.762Z" fill="black"/>
<path d="M351.576 112.694L349.505 116.215L353.027 118.286L355.098 114.765L351.576 112.694Z" fill="#F37623"/>
<path d="M348.053 110.619L345.982 114.14L349.503 116.211L351.574 112.69L348.053 110.619Z" fill="#FAAC35"/>
<path d="M344.532 108.547L342.461 112.068L345.982 114.139L348.053 110.617L344.532 108.547Z" fill="black"/>
<path d="M316.355 91.9761L314.284 95.4973L317.805 97.5682L319.876 94.0469L316.355 91.9761Z" fill="black"/>
<path d="M312.833 89.9081L310.763 93.4294L314.284 95.5002L316.355 91.979L312.833 89.9081Z" fill="black"/>
<path d="M309.312 87.8354L307.241 91.3567L310.762 93.4275L312.833 89.9063L309.312 87.8354Z" fill="black"/>
<path d="M360.691 113.311L358.62 116.832L362.142 118.903L364.213 115.381L360.691 113.311Z" fill="black"/>
<path d="M357.166 111.24L355.095 114.761L358.616 116.832L360.687 113.311L357.166 111.24Z" fill="#F37623"/>
<path d="M353.647 109.168L351.576 112.689L355.097 114.76L357.168 111.239L353.647 109.168Z" fill="#FAAC35"/>
<path d="M350.121 107.098L348.05 110.619L351.571 112.69L353.642 109.169L350.121 107.098Z" fill="#FAAC35"/>
<path d="M346.599 105.025L344.529 108.546L348.05 110.617L350.121 107.096L346.599 105.025Z" fill="black"/>
<path d="M328.993 94.6674L326.922 98.1886L330.444 100.259L332.514 96.7382L328.993 94.6674Z" fill="black"/>
<path d="M325.468 92.5969L323.397 96.1182L326.918 98.189L328.989 94.6678L325.468 92.5969Z" fill="black"/>
<path d="M321.949 90.525L319.878 94.0462L323.399 96.1171L325.47 92.5958L321.949 90.525Z" fill="black"/>
<path d="M318.427 88.457L316.356 91.9782L319.877 94.0491L321.948 90.5279L318.427 88.457Z" fill="white"/>
<path d="M314.901 86.3866L312.831 89.9078L316.352 91.9787L318.423 88.4575L314.901 86.3866Z" fill="white"/>
<path d="M311.382 84.3146L309.311 87.8358L312.833 89.9067L314.904 86.3854L311.382 84.3146Z" fill="white"/>
<path d="M307.857 82.2394L305.786 85.7606L309.307 87.8315L311.378 84.3102L307.857 82.2394Z" fill="black"/>
<path d="M304.335 80.1714L302.264 83.6927L305.786 85.7635L307.856 82.2423L304.335 80.1714Z" fill="black"/>
<path d="M366.281 111.862L364.21 115.383L367.731 117.454L369.802 113.933L366.281 111.862Z" fill="black"/>
<path d="M362.762 109.785L360.691 113.306L364.212 115.377L366.283 111.856L362.762 109.785Z" fill="black"/>
<path d="M359.24 107.717L357.169 111.238L360.691 113.309L362.761 109.788L359.24 107.717Z" fill="#F37623"/>
<path d="M355.715 105.647L353.644 109.168L357.165 111.239L359.236 107.717L355.715 105.647Z" fill="#FAAC35"/>
<path d="M352.195 103.574L350.125 107.096L353.646 109.167L355.717 105.645L352.195 103.574Z" fill="black"/>
<path d="M348.67 101.499L346.599 105.021L350.12 107.091L352.191 103.57L348.67 101.499Z" fill="black"/>
<path d="M345.153 99.4314L343.082 102.953L346.604 105.023L348.674 101.502L345.153 99.4314Z" fill="black"/>
<path d="M341.627 97.361L339.557 100.882L343.078 102.953L345.149 99.4319L341.627 97.361Z" fill="black"/>
<path d="M338.108 95.289L336.038 98.8102L339.559 100.881L341.63 97.3598L338.108 95.289Z" fill="black"/>
<path d="M334.587 93.221L332.516 96.7422L336.037 98.8131L338.108 95.2919L334.587 93.221Z" fill="black"/>
<path d="M331.061 91.1506L328.99 94.6719L332.512 96.7427L334.582 93.2215L331.061 91.1506Z" fill="white"/>
<path d="M327.542 89.0738L325.471 92.595L328.993 94.6659L331.063 91.1446L327.542 89.0738Z" fill="white"/>
<path d="M324.016 87.0034L321.946 90.5247L325.467 92.5955L327.538 89.0743L324.016 87.0034Z" fill="white"/>
<path d="M320.495 84.9355L318.424 88.4567L321.945 90.5276L324.016 87.0064L320.495 84.9355Z" fill="white"/>
<path d="M316.976 82.8634L314.905 86.3846L318.426 88.4555L320.497 84.9343L316.976 82.8634Z" fill="white"/>
<path d="M313.45 80.7931L311.379 84.3143L314.901 86.3852L316.971 82.8639L313.45 80.7931Z" fill="white"/>
<path d="M309.929 78.7203L307.858 82.2415L311.379 84.3124L313.45 80.7911L309.929 78.7203Z" fill="white"/>
<path d="M306.41 76.6458L304.339 80.1671L307.861 82.2379L309.932 78.7167L306.41 76.6458Z" fill="white"/>
<path d="M302.889 74.5779L300.818 78.0991L304.339 80.17L306.41 76.6487L302.889 74.5779Z" fill="black"/>
<path d="M299.363 72.5075L297.292 76.0287L300.813 78.0996L302.884 74.5784L299.363 72.5075Z" fill="black"/>
<path d="M368.355 108.339L366.284 111.86L369.806 113.931L371.877 110.409L368.355 108.339Z" fill="black"/>
<path d="M364.83 106.263L362.759 109.785L366.28 111.855L368.351 108.334L364.83 106.263Z" fill="black"/>
<path d="M361.308 104.195L359.237 107.717L362.759 109.788L364.829 106.266L361.308 104.195Z" fill="#FAAC35"/>
<path d="M357.789 102.123L355.718 105.645L359.239 107.715L361.31 104.194L357.789 102.123Z" fill="#E33C45"/>
<path d="M354.268 100.053L352.197 103.574L355.719 105.645L357.79 102.124L354.268 100.053Z" fill="#E33C45"/>
<path d="M350.747 97.9851L348.676 101.506L352.197 103.577L354.268 100.056L350.747 97.9851Z" fill="white"/>
<path d="M347.223 95.9057L345.153 99.4269L348.674 101.498L350.745 97.9766L347.223 95.9057Z" fill="white"/>
<path d="M343.702 93.8378L341.631 97.359L345.152 99.4299L347.223 95.9086L343.702 93.8378Z" fill="white"/>
<path d="M340.176 91.7675L338.105 95.2887L341.627 97.3595L343.698 93.8383L340.176 91.7675Z" fill="white"/>
<path d="M336.657 89.6954L334.586 93.2166L338.108 95.2875L340.178 91.7662L336.657 89.6954Z" fill="white"/>
<path d="M333.136 87.6274L331.065 91.1486L334.586 93.2195L336.657 89.6982L333.136 87.6274Z" fill="white"/>
<path d="M329.61 85.5523L327.539 89.0735L331.06 91.1444L333.131 87.6232L329.61 85.5523Z" fill="#FAAC35"/>
<path d="M326.089 83.4843L324.018 87.0056L327.539 89.0764L329.61 85.5552L326.089 83.4843Z" fill="#FAAC35"/>
<path d="M322.565 81.4099L320.494 84.9311L324.016 87.0019L326.087 83.4807L322.565 81.4099Z" fill="#FAAC35"/>
<path d="M319.044 79.3419L316.973 82.8632L320.494 84.934L322.565 81.4128L319.044 79.3419Z" fill="white"/>
<path d="M315.523 77.2716L313.452 80.7928L316.973 82.8636L319.044 79.3424L315.523 77.2716Z" fill="white"/>
<path d="M312.004 75.1947L309.933 78.7159L313.454 80.7867L315.525 77.2655L312.004 75.1947Z" fill="white"/>
<path d="M308.482 73.1268L306.411 76.648L309.933 78.7189L312.004 75.1976L308.482 73.1268Z" fill="white"/>
<path d="M305.755 71.8855L303.672 75.3987L307.185 77.4821L309.268 73.9689L305.755 71.8855Z" fill="white"/>
<path d="M301.438 68.9843L299.367 72.5055L302.888 74.5763L304.959 71.0551L301.438 68.9843Z" fill="white"/>
<path d="M297.912 66.9139L295.841 70.4352L299.362 72.506L301.433 68.9848L297.912 66.9139Z" fill="black"/>
<path d="M294.39 64.846L292.32 68.3672L295.841 70.438L297.912 66.9168L294.39 64.846Z" fill="black"/>
<path d="M377.468 108.959L375.397 112.481L378.918 114.552L380.989 111.03L377.468 108.959Z" fill="#743F3A"/>
<path d="M373.945 106.885L371.874 110.406L375.395 112.477L377.466 108.956L373.945 106.885Z" fill="#743F3A"/>
<path d="M371.874 110.411L369.804 113.932L373.325 116.003L375.396 112.481L371.874 110.411Z" fill="black"/>
<path d="M375.4 112.481L373.329 116.002L376.85 118.073L378.921 114.552L375.4 112.481Z" fill="black"/>
<path d="M370.423 104.817L368.352 108.338L371.874 110.409L373.944 106.888L370.423 104.817Z" fill="#3F2731"/>
<path d="M367.827 103.798L365.744 107.311L369.257 109.395L371.34 105.882L367.827 103.798Z" fill="#3F2731"/>
<path d="M363.383 100.67L361.312 104.191L364.834 106.262L366.905 102.741L363.383 100.67Z" fill="#A22633"/>
<path d="M359.862 98.6018L357.791 102.123L361.312 104.194L363.383 100.673L359.862 98.6018Z" fill="#E33C45"/>
<path d="M356.336 96.5314L354.265 100.053L357.787 102.124L359.857 98.6023L356.336 96.5314Z" fill="white"/>
<path d="M352.817 94.4594L350.746 97.9807L354.267 100.052L356.338 96.5303L352.817 94.4594Z" fill="#E33C45"/>
<path d="M349.296 92.3914L347.225 95.9127L350.746 97.9835L352.817 94.4623L349.296 92.3914Z" fill="#F37623"/>
<path d="M345.77 90.3163L343.699 93.8375L347.22 95.9084L349.291 92.3871L345.77 90.3163Z" fill="#F37623"/>
<path d="M342.251 88.2443L340.18 91.7655L343.701 93.8364L345.772 90.3151L342.251 88.2443Z" fill="#F37623"/>
<path d="M338.725 86.1738L336.654 89.6951L340.176 91.7659L342.246 88.2447L338.725 86.1738Z" fill="#F37623"/>
<path d="M335.204 84.1059L333.133 87.6271L336.654 89.698L338.725 86.1768L335.204 84.1059Z" fill="#FAAC35"/>
<path d="M331.678 82.0308L329.607 85.552L333.128 87.6229L335.199 84.1016L331.678 82.0308Z" fill="#FAAC35"/>
<path d="M328.159 79.9587L326.088 83.4799L329.609 85.5508L331.68 82.0295L328.159 79.9587Z" fill="#FAAC35"/>
<path d="M324.642 77.8907L322.571 81.412L326.093 83.4828L328.163 79.9616L324.642 77.8907Z" fill="#FAAC35"/>
<path d="M321.117 75.8204L319.046 79.3416L322.567 81.4125L324.638 77.8912L321.117 75.8204Z" fill="#F37623"/>
<path d="M317.597 73.7483L315.527 77.2695L319.048 79.3404L321.119 75.8191L317.597 73.7483Z" fill="#F37623"/>
<path d="M314.072 71.6779L312.001 75.1992L315.522 77.27L317.593 73.7488L314.072 71.6779Z" fill="white"/>
<path d="M310.55 69.6052L308.479 73.1265L312.001 75.1973L314.072 71.6761L310.55 69.6052Z" fill="white"/>
<path d="M307.031 67.5331L304.96 71.0544L308.482 73.1252L310.552 69.604L307.031 67.5331Z" fill="white"/>
<path d="M303.506 65.4628L301.435 68.984L304.956 71.0549L307.027 67.5336L303.506 65.4628Z" fill="white"/>
<path d="M299.984 63.3948L297.913 66.9161L301.434 68.9869L303.505 65.4657L299.984 63.3948Z" fill="white"/>
<path d="M297.253 62.1029L295.169 65.616L298.683 67.6993L300.766 64.1862L297.253 62.1029Z" fill="white"/>
<path d="M292.939 59.2476L290.868 62.7689L294.39 64.8397L296.46 61.3185L292.939 59.2476Z" fill="black"/>
<path d="M289.418 57.1796L287.347 60.7009L290.868 62.7717L292.939 59.2505L289.418 57.1796Z" fill="black"/>
<path d="M379.538 105.434L377.468 108.955L380.989 111.026L383.06 107.505L379.538 105.434Z" fill="black"/>
<path d="M376.022 103.366L373.951 106.887L377.472 108.958L379.543 105.437L376.022 103.366Z" fill="black"/>
<path d="M372.498 101.291L370.428 104.813L373.949 106.883L376.02 103.362L372.498 101.291Z" fill="black"/>
<path d="M368.977 99.2234L366.906 102.745L370.427 104.815L372.498 101.294L368.977 99.2234Z" fill="black"/>
<path d="M365.451 97.1482L363.38 100.669L366.902 102.74L368.972 99.219L365.451 97.1482Z" fill="#F37623"/>
<path d="M361.93 95.0803L359.859 98.6015L363.38 100.672L365.451 97.1511L361.93 95.0803Z" fill="#A22633"/>
<path d="M358.411 93.0082L356.34 96.5294L359.861 98.6003L361.932 95.079L358.411 93.0082Z" fill="#A22633"/>
<path d="M354.885 90.9379L352.814 94.4591L356.335 96.53L358.406 93.0087L354.885 90.9379Z" fill="#BFC9DA"/>
<path d="M351.363 88.8699L349.293 92.3911L352.814 94.462L354.885 90.9407L351.363 88.8699Z" fill="#BFC9DA"/>
<path d="M348.739 87.7531L346.656 91.2662L350.169 93.3496L352.252 89.8365L348.739 87.7531Z" fill="#BFC9DA"/>
<path d="M344.319 84.7226L342.248 88.2439L345.769 90.3148L347.84 86.7935L344.319 84.7226Z" fill="#BFC9DA"/>
<path d="M340.797 82.6547L338.726 86.176L342.248 88.2468L344.319 84.7256L340.797 82.6547Z" fill="#BFC9DA"/>
<path d="M337.279 80.5803L335.208 84.1015L338.729 86.1724L340.8 82.6511L337.279 80.5803Z" fill="#BFC9DA"/>
<path d="M333.757 78.5124L331.686 82.0336L335.208 84.1044L337.279 80.5832L333.757 78.5124Z" fill="#F37623"/>
<path d="M330.232 76.4372L328.161 79.9584L331.682 82.0293L333.753 78.5081L330.232 76.4372Z" fill="#F37623"/>
<path d="M326.713 74.3651L324.642 77.8864L328.163 79.9572L330.234 76.436L326.713 74.3651Z" fill="#F37623"/>
<path d="M323.191 72.2971L321.12 75.8184L324.641 77.8892L326.712 74.368L323.191 72.2971Z" fill="#BFC9DA"/>
<path d="M319.665 70.2268L317.595 73.748L321.116 75.8189L323.187 72.2977L319.665 70.2268Z" fill="#BFC9DA"/>
<path d="M316.144 68.1589L314.073 71.6801L317.594 73.751L319.665 70.2297L316.144 68.1589Z" fill="#BFC9DA"/>
<path d="M312.621 66.0795L310.55 69.6008L314.071 71.6716L316.142 68.1504L312.621 66.0795Z" fill="#BFC9DA"/>
<path d="M309.099 64.0117L307.028 67.5329L310.549 69.6038L312.62 66.0825L309.099 64.0117Z" fill="#BFC9DA"/>
<path d="M305.573 61.9412L303.503 65.4625L307.024 67.5333L309.095 64.0121L305.573 61.9412Z" fill="#BFC9DA"/>
<path d="M302.054 59.8691L299.984 63.3904L303.505 65.4612L305.576 61.94L302.054 59.8691Z" fill="black"/>
<path d="M298.538 57.8012L296.467 61.3224L299.988 63.3933L302.059 59.8721L298.538 57.8012Z" fill="black"/>
<path d="M371.045 95.7019L368.974 99.2231L372.495 101.294L374.566 97.7728L371.045 95.7019Z" fill="black"/>
<path d="M374.569 97.7142L372.498 101.235L376.019 103.306L378.09 99.7851L374.569 97.7142Z" fill="black"/>
<path d="M367.526 93.625L365.455 97.1462L368.976 99.2171L371.047 95.6959L367.526 93.625Z" fill="#F37623"/>
<path d="M364 91.5547L361.929 95.0759L365.45 97.1468L367.521 93.6255L364 91.5547Z" fill="#F37623"/>
<path d="M360.479 89.4868L358.408 93.008L361.929 95.0789L364 91.5576L360.479 89.4868Z" fill="black"/>
<path d="M356.96 87.4147L354.889 90.9359L358.41 93.0068L360.481 89.4855L356.96 87.4147Z" fill="black"/>
<path d="M353.434 85.3443L351.363 88.8655L354.884 90.9363L356.955 87.4151L353.434 85.3443Z" fill="black"/>
<path d="M349.912 83.2764L347.841 86.7976L351.363 88.8685L353.434 85.3472L349.912 83.2764Z" fill="black"/>
<path d="M346.391 81.2012L344.321 84.7224L347.842 86.7933L349.913 83.2721L346.391 81.2012Z" fill="black"/>
<path d="M342.872 79.1291L340.802 82.6503L344.323 84.7212L346.394 81.1999L342.872 79.1291Z" fill="black"/>
<path d="M339.347 77.0587L337.276 80.58L340.797 82.6508L342.868 79.1296L339.347 77.0587Z" fill="#BFC9DA"/>
<path d="M335.825 74.9908L333.754 78.512L337.276 80.5829L339.346 77.0616L335.825 74.9908Z" fill="#BFC9DA"/>
<path d="M332.306 72.9139L330.235 76.4352L333.756 78.506L335.827 74.9848L332.306 72.9139Z" fill="#BFC9DA"/>
<path d="M328.781 70.8436L326.71 74.3648L330.231 76.4357L332.302 72.9144L328.781 70.8436Z" fill="#BFC9DA"/>
<path d="M325.259 68.7756L323.188 72.2969L326.709 74.3677L328.78 70.8465L325.259 68.7756Z" fill="#BFC9DA"/>
<path d="M321.736 66.7011L319.665 70.2224L323.186 72.2932L325.257 68.772L321.736 66.7011Z" fill="#BFC9DA"/>
<path d="M318.214 64.6332L316.143 68.1544L319.665 70.2253L321.736 66.7041L318.214 64.6332Z" fill="#BFC9DA"/>
<path d="M314.693 62.5653L312.622 66.0865L316.143 68.1573L318.214 64.6361L314.693 62.5653Z" fill="#BFC9DA"/>
<path d="M311.169 60.486L309.099 64.0072L312.62 66.0781L314.691 62.5568L311.169 60.486Z" fill="black"/>
<path d="M307.653 58.418L305.582 61.9393L309.103 64.0101L311.174 60.4889L307.653 58.418Z" fill="black"/>
<path d="M373.119 92.1787L371.049 95.6999L374.57 97.7707L376.641 94.2495L373.119 92.1787Z" fill="black"/>
<path d="M369.594 90.1083L367.523 93.6295L371.044 95.7004L373.115 92.1791L369.594 90.1083Z" fill="#F37623"/>
<path d="M366.072 88.0356L364.001 91.5568L367.523 93.6277L369.593 90.1065L366.072 88.0356Z" fill="#F37623"/>
<path d="M362.549 85.961L360.478 89.4822L363.999 91.5531L366.07 88.0319L362.549 85.961Z" fill="#F37623"/>
<path d="M359.027 83.8931L356.957 87.4144L360.478 89.4852L362.549 85.964L359.027 83.8931Z" fill="black"/>
<path d="M341.419 73.5396L339.348 77.0609L342.869 79.1317L344.94 75.6105L341.419 73.5396Z" fill="black"/>
<path d="M337.896 71.4652L335.825 74.9864L339.346 77.0572L341.417 73.536L337.896 71.4652Z" fill="black"/>
<path d="M334.374 69.3972L332.303 72.9185L335.824 74.9893L337.895 71.4681L334.374 69.3972Z" fill="black"/>
<path d="M330.853 67.3245L328.782 70.8457L332.303 72.9166L334.374 69.3953L330.853 67.3245Z" fill="#BFC9DA"/>
<path d="M327.329 65.25L325.258 68.7712L328.78 70.8421L330.851 67.3209L327.329 65.25Z" fill="#BFC9DA"/>
<path d="M323.808 63.1821L321.737 66.7033L325.258 68.7742L327.329 65.2529L323.808 63.1821Z" fill="#BFC9DA"/>
<path d="M320.282 61.1117L318.211 64.6329L321.733 66.7037L323.803 63.1825L320.282 61.1117Z" fill="black"/>
<path d="M316.768 59.0396L314.697 62.5609L318.218 64.6317L320.289 61.1105L316.768 59.0396Z" fill="black"/>
<path d="M371.662 86.5868L369.591 90.108L373.112 92.1789L375.183 88.6577L371.662 86.5868Z" fill="black"/>
<path d="M368.143 84.5099L366.072 88.0311L369.593 90.102L371.664 86.5807L368.143 84.5099Z" fill="#F37623"/>
<path d="M364.621 82.442L362.55 85.9632L366.071 88.0341L368.142 84.5128L364.621 82.442Z" fill="#F37623"/>
<path d="M361.1 80.3716L359.029 83.8929L362.551 85.9637L364.621 82.4425L361.1 80.3716Z" fill="black"/>
<path d="M332.923 63.8036L330.852 67.3248L334.373 69.3957L336.444 65.8744L332.923 63.8036Z" fill="black"/>
<path d="M329.401 61.7309L327.331 65.2521L330.852 67.323L332.923 63.8018L329.401 61.7309Z" fill="black"/>
<path d="M325.878 59.6564L323.807 63.1777L327.329 65.2485L329.399 61.7273L325.878 59.6564Z" fill="black"/>
<path d="M370.219 80.9956L368.149 84.5168L371.67 86.5877L373.741 83.0665L370.219 80.9956Z" fill="black"/>
<path d="M366.694 78.9205L364.623 82.4417L368.144 84.5126L370.215 80.9913L366.694 78.9205Z" fill="black"/>
<path d="M363.175 76.8484L361.104 80.3696L364.625 82.4405L366.696 78.9192L363.175 76.8484Z" fill="black"/>
<path d="M361.717 71.2565L359.646 74.7777L363.167 76.8486L365.238 73.3274L361.717 71.2565Z" fill="black"/>
<path d="M367.313 69.8013L365.242 73.3225L368.763 75.3934L370.834 71.8721L367.313 69.8013Z" fill="black"/>
<path d="M363.791 67.7332L361.721 71.2545L365.242 73.3253L367.313 69.8041L363.791 67.7332Z" fill="black"/>
<path d="M360.266 65.6629L358.195 69.1841L361.716 71.255L363.787 67.7338L360.266 65.6629Z" fill="black"/>
<path d="M420.327 79.7987L416.725 81.7253L418.651 85.3275L422.254 83.4009L420.327 79.7987Z" fill="black"/>
<path d="M423.928 77.877L420.326 79.8036L422.253 83.4058L425.855 81.4792L423.928 77.877Z" fill="black"/>
<path d="M427.531 75.944L423.929 77.8707L425.856 81.4729L429.458 79.5462L427.531 75.944Z" fill="black"/>
<path d="M418.65 85.3307L415.047 87.2573L416.974 90.8595L420.576 88.9329L418.65 85.3307Z" fill="black"/>
<path d="M422.249 83.4L418.646 85.3266L420.573 88.9288L424.175 87.0022L422.249 83.4Z" fill="#FAAC35"/>
<path d="M425.854 81.476L422.252 83.4026L424.179 87.0048L427.781 85.0782L425.854 81.476Z" fill="white"/>
<path d="M429.455 79.5496L425.853 81.4763L427.78 85.0784L431.382 83.1518L429.455 79.5496Z" fill="#A22633"/>
<path d="M433.059 77.6215L429.456 79.5481L431.383 83.1503L434.985 81.2237L433.059 77.6215Z" fill="black"/>
<path d="M436.66 75.695L433.058 77.6216L434.984 81.2238L438.587 79.2972L436.66 75.695Z" fill="black"/>
<path d="M440.266 73.7711L436.663 75.6977L438.59 79.2999L442.192 77.3733L440.266 73.7711Z" fill="black"/>
<path d="M443.865 71.8404L440.262 73.767L442.189 77.3692L445.791 75.4426L443.865 71.8404Z" fill="black"/>
<path d="M447.47 69.9165L443.868 71.8431L445.794 75.4453L449.397 73.5187L447.47 69.9165Z" fill="black"/>
<path d="M451.073 67.9884L447.471 69.915L449.398 73.5172L453 71.5905L451.073 67.9884Z" fill="black"/>
<path d="M416.973 90.8601L413.371 92.7867L415.297 96.3889L418.899 94.4623L416.973 90.8601Z" fill="black"/>
<path d="M420.576 88.932L416.974 90.8586L418.9 94.4608L422.503 92.5341L420.576 88.932Z" fill="#5B6987"/>
<path d="M424.182 87.0032L420.579 88.9299L422.506 92.5321L426.108 90.6054L424.182 87.0032Z" fill="#FAAC35"/>
<path d="M427.783 85.0816L424.181 87.0082L426.107 90.6104L429.709 88.6838L427.783 85.0816Z" fill="#A22633"/>
<path d="M431.386 83.1487L427.784 85.0753L429.71 88.6775L433.313 86.7509L431.386 83.1487Z" fill="#E33C45"/>
<path d="M434.987 81.2269L431.385 83.1536L433.312 86.7558L436.914 84.8291L434.987 81.2269Z" fill="#FAAC35"/>
<path d="M438.593 79.2982L434.991 81.2249L436.917 84.827L440.52 82.9004L438.593 79.2982Z" fill="#FAAC35"/>
<path d="M442.192 77.3724L438.59 79.299L440.516 82.9012L444.119 80.9746L442.192 77.3724Z" fill="#F37623"/>
<path d="M445.797 75.4437L442.195 77.3703L444.122 80.9725L447.724 79.0459L445.797 75.4437Z" fill="#F37623"/>
<path d="M449.396 73.5178L445.794 75.4444L447.721 79.0466L451.323 77.12L449.396 73.5178Z" fill="black"/>
<path d="M418.899 94.4592L415.296 96.3858L417.223 99.988L420.825 98.0614L418.899 94.4592Z" fill="black"/>
<path d="M422.5 92.5375L418.898 94.4642L420.824 98.0664L424.427 96.1397L422.5 92.5375Z" fill="#5B6987"/>
<path d="M426.103 90.6046L422.501 92.5312L424.428 96.1334L428.03 94.2067L426.103 90.6046Z" fill="#F37623"/>
<path d="M429.704 88.6829L426.102 90.6095L428.029 94.2117L431.631 92.2851L429.704 88.6829Z" fill="#F37623"/>
<path d="M433.31 86.7542L429.708 88.6808L431.634 92.283L435.237 90.3564L433.31 86.7542Z" fill="#FAAC35"/>
<path d="M436.913 84.826L433.311 86.7526L435.238 90.3548L438.84 88.4282L436.913 84.826Z" fill="#F37623"/>
<path d="M440.515 82.8996L436.912 84.8262L438.839 88.4283L442.441 86.5017L440.515 82.8996Z" fill="#F37623"/>
<path d="M444.12 80.9756L440.518 82.9022L442.445 86.5044L446.047 84.5778L444.12 80.9756Z" fill="#F37623"/>
<path d="M447.719 79.045L444.117 80.9716L446.044 84.5738L449.646 82.6472L447.719 79.045Z" fill="black"/>
<path d="M420.827 98.0647L417.225 99.9913L419.152 103.594L422.754 101.667L420.827 98.0647Z" fill="black"/>
<path d="M424.431 96.1366L420.828 98.0632L422.755 101.665L426.357 99.7387L424.431 96.1366Z" fill="#5B6987"/>
<path d="M428.032 94.2101L424.43 96.1367L426.356 99.7389L429.958 97.8123L428.032 94.2101Z" fill="#3B4566"/>
<path d="M431.637 92.2861L428.035 94.2128L429.962 97.8149L433.564 95.8883L431.637 92.2861Z" fill="#3B4566"/>
<path d="M435.241 90.3532L431.638 92.2798L433.565 95.882L437.167 93.9554L435.241 90.3532Z" fill="#F37623"/>
<path d="M438.842 88.4315L435.24 90.3582L437.166 93.9603L440.769 92.0337L438.842 88.4315Z" fill="#F37623"/>
<path d="M442.448 86.5028L438.845 88.4294L440.772 92.0316L444.374 90.105L442.448 86.5028Z" fill="#F37623"/>
<path d="M446.047 84.5769L442.444 86.5035L444.371 90.1057L447.973 88.1791L446.047 84.5769Z" fill="#3B4566"/>
<path d="M449.652 82.6482L446.05 84.5748L447.977 88.177L451.579 86.2504L449.652 82.6482Z" fill="black"/>
<path d="M426.355 99.7421L422.752 101.669L424.679 105.271L428.281 103.344L426.355 99.7421Z" fill="black"/>
<path d="M429.96 97.8134L426.358 99.74L428.285 103.342L431.887 101.416L429.96 97.8134Z" fill="black"/>
<path d="M433.559 95.8875L429.957 97.8141L431.884 101.416L435.486 99.4896L433.559 95.8875Z" fill="black"/>
<path d="M437.165 93.9587L433.562 95.8853L435.489 99.4875L439.091 97.5609L437.165 93.9587Z" fill="#5B6987"/>
<path d="M440.766 92.0371L437.164 93.9637L439.09 97.5659L442.693 95.6393L440.766 92.0371Z" fill="#3B4566"/>
<path d="M444.369 90.1041L440.767 92.0308L442.694 95.6329L446.296 93.7063L444.369 90.1041Z" fill="#3B4566"/>
<path d="M447.975 88.1802L444.373 90.1068L446.299 93.709L449.901 91.7824L447.975 88.1802Z" fill="black"/>
<path d="M439.091 97.56L435.489 99.4866L437.416 103.089L441.018 101.162L439.091 97.56Z" fill="black"/>
<path d="M442.697 95.6361L439.094 97.5627L441.021 101.165L444.623 99.2383L442.697 95.6361Z" fill="black"/>
<path d="M446.298 93.7096L442.696 95.6362L444.622 99.2384L448.224 97.3118L446.298 93.7096Z" fill="black"/>
</g>
<defs>
<clipPath id="clip0_848_743">
<rect width="900" height="140.154" fill="white" transform="translate(0.5)"/>
</clipPath>
</defs>
</svg>
