<svg width="24" height="25" viewBox="0 0 24 25" fill="none" xmlns="http://www.w3.org/2000/svg">
<g clip-path="url(#clip0_509:263)">
<path d="M22 24.1309L16.75 19.1309L17.38 21.1309H4.5C3.83696 21.1309 3.20107 20.8675 2.73223 20.3987C2.26339 19.9298 2 19.2939 2 18.6309V3.63089C2 2.96785 2.26339 2.33196 2.73223 1.86312C3.20107 1.39428 3.83696 1.13089 4.5 1.13089H19.5C20.163 1.13089 20.7989 1.39428 21.2678 1.86312C21.7366 2.33196 22 2.96785 22 3.63089V24.1309ZM12 6.93089C9.32 6.93089 7.44 8.08089 7.44 8.08089C8.47 7.16089 10.27 6.63089 10.27 6.63089L10.1 6.46089C8.41 6.49089 6.88 7.66089 6.88 7.66089C5.16 11.2509 5.27 14.3509 5.27 14.3509C6.67 16.1609 8.75 16.0309 8.75 16.0309L9.46 15.1309C8.21 14.8609 7.42 13.7509 7.42 13.7509C7.42 13.7509 9.3 15.0309 12 15.0309C14.7 15.0309 16.58 13.7509 16.58 13.7509C16.58 13.7509 15.79 14.8609 14.54 15.1309L15.25 16.0309C15.25 16.0309 17.33 16.1609 18.73 14.3509C18.73 14.3509 18.84 11.2509 17.12 7.66089C17.12 7.66089 15.59 6.49089 13.9 6.46089L13.73 6.63089C13.73 6.63089 15.53 7.16089 16.56 8.08089C16.56 8.08089 14.68 6.93089 12 6.93089V6.93089ZM9.93 10.7209C10.58 10.7209 11.11 11.2909 11.1 11.9909C11.1 12.6809 10.58 13.2609 9.93 13.2609C9.29 13.2609 8.77 12.6809 8.77 11.9909C8.77 11.2909 9.28 10.7209 9.93 10.7209ZM14.1 10.7209C14.75 10.7209 15.27 11.2909 15.27 11.9909C15.27 12.6809 14.75 13.2609 14.1 13.2609C13.46 13.2609 12.94 12.6809 12.94 11.9909C12.94 11.2909 13.45 10.7209 14.1 10.7209Z" fill="black"/>
</g>
<defs>
<clipPath id="clip0_509:263">
<rect width="24" height="24" fill="white" transform="translate(0 0.13089)"/>
</clipPath>
</defs>
</svg>
