<svg width="24" height="25" viewBox="0 0 24 25" fill="none" xmlns="http://www.w3.org/2000/svg">
<g clip-path="url(#clip0_667_203)">
<path d="M23.25 9.88084C23.2501 9.30585 23.085 8.74294 22.7742 8.25915C22.4635 7.77536 22.0202 7.3911 21.4972 7.15212C20.9743 6.91315 20.3936 6.82954 19.8245 6.91126C19.2553 6.99297 18.7216 7.23657 18.287 7.61303C16.7163 6.77847 14.8407 6.27428 12.8808 6.15747L13.368 3.23472L15.4146 3.54963C15.5133 4.07123 15.7932 4.54116 16.2049 4.87633C16.6166 5.21151 17.1335 5.39037 17.6643 5.38128C18.1951 5.37219 18.7055 5.17576 19.1055 4.82668C19.5054 4.47761 19.7691 3.99839 19.8499 3.47371C19.9307 2.94903 19.8234 2.41268 19.547 1.95946C19.2706 1.50624 18.8428 1.16533 18.3393 0.996997C17.8359 0.82866 17.2891 0.84373 16.7957 1.03954C16.3022 1.23536 15.8939 1.59931 15.6429 2.06706L12.864 1.63956C12.669 1.60948 12.4699 1.65749 12.3101 1.77318C12.1503 1.88888 12.0425 2.06292 12.0102 2.25756L11.3621 6.14613C9.31467 6.23434 7.34836 6.74406 5.71289 7.61303C5.11732 7.09764 4.34292 6.83719 3.55694 6.88794C2.77096 6.93869 2.03648 7.29657 1.51213 7.88428C0.987787 8.47198 0.715655 9.24236 0.75451 10.029C0.793365 10.8157 1.14009 11.5555 1.7198 12.0887C1.57419 12.5898 1.50018 13.109 1.49995 13.6308C1.49995 15.6873 2.62889 17.6013 4.67874 19.0205C6.64449 20.3813 9.24464 21.1308 12 21.1308C14.7553 21.1308 17.3554 20.3814 19.3212 19.0205C21.371 17.6012 22.5 15.6872 22.5 13.6308C22.4997 13.109 22.4257 12.5898 22.28 12.0887C22.5849 11.8072 22.8283 11.4658 22.9952 11.0859C23.1621 10.706 23.2488 10.2958 23.25 9.88084ZM6.74995 12.5058C6.74995 12.2092 6.83793 11.9192 7.00275 11.6725C7.16757 11.4258 7.40184 11.2336 7.67593 11.12C7.95002 11.0065 8.25162 10.9768 8.54259 11.0347C8.83356 11.0925 9.10083 11.2354 9.31061 11.4452C9.52039 11.655 9.66325 11.9222 9.72113 12.2132C9.77901 12.5042 9.7493 12.8058 9.63577 13.0799C9.52224 13.354 9.32998 13.5882 9.08331 13.753C8.83664 13.9179 8.54663 14.0058 8.24995 14.0058C7.85227 14.0054 7.47099 13.8472 7.18979 13.566C6.90858 13.2848 6.7504 12.9035 6.74995 12.5058ZM15.4402 17.2974C14.3763 17.8456 13.1968 18.1315 12 18.1315C10.8031 18.1315 9.62362 17.8456 8.5597 17.2974C8.38343 17.2059 8.25065 17.0482 8.19049 16.8589C8.13034 16.6696 8.14773 16.4642 8.23885 16.2877C8.32997 16.1112 8.48737 15.9781 8.67652 15.9175C8.86568 15.8569 9.07114 15.8738 9.24783 15.9646C10.0989 16.4031 11.0425 16.6318 11.9999 16.6318C12.9573 16.6318 13.9009 16.4031 14.752 15.9646C14.9285 15.8751 15.1333 15.8591 15.3216 15.9199C15.5099 15.9808 15.6666 16.1136 15.7574 16.2895C15.8482 16.4653 15.8658 16.6699 15.8064 16.8587C15.747 17.0475 15.6154 17.2052 15.4402 17.2973V17.2974ZM15.75 14.0058C15.4533 14.0058 15.1633 13.9179 14.9166 13.753C14.6699 13.5882 14.4777 13.354 14.3641 13.0799C14.2506 12.8058 14.2209 12.5042 14.2788 12.2132C14.3367 11.9222 14.4795 11.655 14.6893 11.4452C14.8991 11.2354 15.1663 11.0925 15.4573 11.0347C15.7483 10.9768 16.0499 11.0065 16.324 11.12C16.5981 11.2336 16.8323 11.4258 16.9972 11.6725C17.162 11.9192 17.25 12.2092 17.25 12.5058C17.2495 12.9035 17.0913 13.2848 16.8101 13.566C16.5289 13.8472 16.1476 14.0054 15.75 14.0058Z" fill="black"/>
</g>
<defs>
<clipPath id="clip0_667_203">
<rect width="24" height="24" fill="white" transform="translate(0 0.130859)"/>
</clipPath>
</defs>
</svg>
