<svg width="25" height="25" viewBox="0 0 25 25" fill="none" xmlns="http://www.w3.org/2000/svg">
<path d="M10.5 15.1538L15.69 12.1538L10.5 9.15381V15.1538ZM22.06 7.32381C22.19 7.79381 22.28 8.42381 22.34 9.22381C22.41 10.0238 22.44 10.7138 22.44 11.3138L22.5 12.1538C22.5 14.3438 22.34 15.9538 22.06 16.9838C21.81 17.8838 21.23 18.4638 20.33 18.7138C19.86 18.8438 19 18.9338 17.68 18.9938C16.38 19.0638 15.19 19.0938 14.09 19.0938L12.5 19.1538C8.31 19.1538 5.7 18.9938 4.67 18.7138C3.77 18.4638 3.19 17.8838 2.94 16.9838C2.81 16.5138 2.72 15.8838 2.66 15.0838C2.59 14.2838 2.56 13.5938 2.56 12.9938L2.5 12.1538C2.5 9.96381 2.66 8.35381 2.94 7.32381C3.19 6.42381 3.77 5.84381 4.67 5.59381C5.14 5.46381 6 5.37381 7.32 5.31381C8.62 5.24381 9.81 5.21381 10.91 5.21381L12.5 5.15381C16.69 5.15381 19.3 5.31381 20.33 5.59381C21.23 5.84381 21.81 6.42381 22.06 7.32381Z" fill="black"/>
</svg>
