<svg width="370" height="115" viewBox="0 0 370 115" fill="none" xmlns="http://www.w3.org/2000/svg">
<path d="M63.8639 6.57227H6.67737V63.8715H63.8639V6.57227Z" fill="#330087"/>
<path d="M114.093 39.0903H39.1697V114.161H114.093V39.0903Z" fill="#330087"/>
<path d="M135.806 -0.437012H101.287V34.1493H135.806V-0.437012Z" fill="#330087"/>
<path d="M24.2232 84.6694H0.561161V108.378H24.2232V84.6694Z" fill="#330087"/>
<path d="M369.521 45.6401H103.963V55.6369H369.521V45.6401Z" fill="#330087"/>
<path d="M74.3379 61.5352H66.1575V69.7317H74.3379V61.5352Z" fill="#27E1FF"/>
<path d="M89.4755 61.5352H81.2951V69.7317H89.4755V61.5352Z" fill="#27E1FF"/>
<path d="M66.234 69.272H58.0535V77.4685H66.234V69.272Z" fill="#27E1FF"/>
<path d="M97.5795 69.272H89.3991V77.4685H97.5795V69.272Z" fill="#27E1FF"/>
<path d="M74.3379 77.1621H66.1575V85.3587H74.3379V77.1621Z" fill="#27E1FF"/>
<path d="M89.4755 77.1621H81.2951V85.3587H89.4755V77.1621Z" fill="#27E1FF"/>
<path d="M81.6774 85.0908H73.497V93.2874H81.6774V85.0908Z" fill="#27E1FF"/>
<path d="M81.6774 69.272H73.497V77.4685H81.6774V69.272Z" fill="#27E1FF"/>
<path d="M81.6774 77.3535H73.497V85.5501H81.6774V77.3535Z" fill="#27E1FF"/>
<path d="M74.2615 69.272H66.0811V77.4685H74.2615V69.272Z" fill="#27E1FF"/>
</svg>
