<svg width="209" height="60" viewBox="0 0 209 60" fill="none" xmlns="http://www.w3.org/2000/svg">
<path d="M206.945 53.0804C206.945 56.2779 204.301 58.8679 201.031 58.8679H7.48258C4.21382 58.8679 1.56055 56.2779 1.56055 53.0804V6.92711C1.56055 3.73115 4.21382 1.13207 7.48258 1.13207H201.029C204.301 1.13207 206.944 3.73115 206.944 6.92711L206.945 53.0804Z" fill="black"/>
<path d="M200.407 1.20188C203.968 1.20188 206.866 4.0275 206.866 7.5V52.5C206.866 55.9725 203.968 58.7981 200.407 58.7981H8.09905C4.53751 58.7981 1.63943 55.9725 1.63943 52.5V7.5C1.63943 4.0275 4.53751 1.20188 8.09905 1.20188H200.407ZM200.407 3.17096e-06H8.09905C3.8702 3.17096e-06 0.406738 3.37688 0.406738 7.5V52.5C0.406738 56.6231 3.8702 60 8.09905 60H200.407C204.636 60 208.099 56.6231 208.099 52.5V7.5C208.099 3.37688 204.636 3.17096e-06 200.407 3.17096e-06Z" fill="#A6A6A6"/>
<path d="M46.7573 29.676C46.7127 24.8415 50.8173 22.4895 51.005 22.38C48.6804 19.0755 45.0773 18.624 43.8112 18.588C40.785 18.2775 37.8497 20.3535 36.3081 20.3535C34.7358 20.3535 32.362 18.618 29.8035 18.669C26.5112 18.7185 23.4312 20.577 21.742 23.463C18.2558 29.3475 20.8558 37.995 24.1958 42.7515C25.8666 45.081 27.8189 47.682 30.3743 47.5905C32.8743 47.49 33.8081 46.0365 36.825 46.0365C39.8143 46.0365 40.6912 47.5905 43.2973 47.532C45.9804 47.49 47.6696 45.192 49.282 42.8415C51.2127 40.1715 51.9881 37.542 52.0189 37.407C51.9558 37.386 46.8081 35.4705 46.7573 29.676Z" fill="white"/>
<path d="M41.8343 15.459C43.1789 13.8195 44.0989 11.589 43.8435 9.32549C41.8973 9.40949 39.4635 10.638 38.062 12.2415C36.822 13.6545 35.7143 15.9705 36.0004 18.1485C38.1866 18.3075 40.4312 17.073 41.8343 15.459Z" fill="white"/>
<path d="M83.2451 47.256H79.7512L77.8374 41.3925H71.1851L69.362 47.256H65.9604L72.5512 27.294H76.622L83.2451 47.256ZM77.2604 38.9325L75.5297 33.72C75.3466 33.1875 75.0035 31.9335 74.4974 29.9595H74.4358C74.2343 30.8085 73.9097 32.0625 73.4635 33.72L71.7635 38.9325H77.2604V38.9325Z" fill="white"/>
<path d="M100.194 39.882C100.194 42.33 99.516 44.265 98.1591 45.6855C96.9437 46.95 95.4345 47.5815 93.6329 47.5815C91.6883 47.5815 90.2914 46.9005 89.4406 45.5385H89.3791V53.121H86.0991V37.6005C86.0991 36.0615 86.0575 34.482 85.9775 32.862H88.8622L89.0452 35.1435H89.1068C90.2006 33.4245 91.8606 32.5665 94.0883 32.5665C95.8298 32.5665 97.2837 33.237 98.4468 34.5795C99.6129 35.9235 100.194 37.6905 100.194 39.882ZM96.8529 39.999C96.8529 38.598 96.5298 37.443 95.8806 36.534C95.1714 35.586 94.2191 35.112 93.0252 35.112C92.216 35.112 91.4806 35.376 90.8237 35.8965C90.1652 36.4215 89.7345 37.107 89.5329 37.956C89.4314 38.352 89.3806 38.676 89.3806 38.931V41.331C89.3806 42.378 89.7098 43.2615 90.3683 43.983C91.0268 44.7045 91.8822 45.0645 92.9345 45.0645C94.1698 45.0645 95.1314 44.5995 95.8191 43.6725C96.5083 42.744 96.8529 41.52 96.8529 39.999Z" fill="white"/>
<path d="M117.174 39.882C117.174 42.33 116.496 44.265 115.137 45.6855C113.924 46.95 112.414 47.5815 110.613 47.5815C108.668 47.5815 107.271 46.9005 106.422 45.5385H106.361V53.121H103.081V37.6005C103.081 36.0615 103.039 34.482 102.959 32.862H105.844L106.027 35.1435H106.088C107.181 33.4245 108.841 32.5665 111.07 32.5665C112.81 32.5665 114.264 33.237 115.43 34.5795C116.591 35.9235 117.174 37.6905 117.174 39.882ZM113.833 39.999C113.833 38.598 113.508 37.443 112.859 36.534C112.15 35.586 111.201 35.112 110.005 35.112C109.194 35.112 108.461 35.376 107.802 35.8965C107.144 36.4215 106.714 37.107 106.513 37.956C106.413 38.352 106.361 38.676 106.361 38.931V41.331C106.361 42.378 106.69 43.2615 107.345 43.983C108.004 44.703 108.859 45.0645 109.914 45.0645C111.15 45.0645 112.111 44.5995 112.799 43.6725C113.488 42.744 113.833 41.52 113.833 39.999Z" fill="white"/>
<path d="M136.159 41.658C136.159 43.356 135.554 44.7375 134.34 45.804C133.006 46.9695 131.149 47.5515 128.763 47.5515C126.56 47.5515 124.794 47.1375 123.457 46.308L124.217 43.6425C125.657 44.4915 127.237 44.9175 128.959 44.9175C130.194 44.9175 131.155 44.6445 131.846 44.1015C132.534 43.5585 132.877 42.8295 132.877 41.9205C132.877 41.1105 132.594 40.428 132.026 39.8745C131.462 39.321 130.519 38.8065 129.202 38.331C125.617 37.0275 123.826 35.118 123.826 32.607C123.826 30.966 124.454 29.6205 125.711 28.5735C126.963 27.525 128.634 27.0015 130.723 27.0015C132.586 27.0015 134.134 27.318 135.369 27.9495L134.549 30.5565C133.395 29.9445 132.091 29.6385 130.631 29.6385C129.477 29.6385 128.575 29.916 127.929 30.468C127.383 30.9615 127.109 31.563 127.109 32.2755C127.109 33.0645 127.422 33.717 128.049 34.23C128.595 34.704 129.588 35.217 131.028 35.7705C132.789 36.462 134.083 37.2705 134.915 38.1975C135.745 39.1215 136.159 40.278 136.159 41.658Z" fill="white"/>
<path d="M147.003 35.262H143.388V42.2505C143.388 44.028 144.025 44.916 145.302 44.916C145.888 44.916 146.374 44.8665 146.759 44.7675L146.85 47.196C146.203 47.4315 145.353 47.55 144.299 47.55C143.003 47.55 141.991 47.1645 141.26 46.395C140.533 45.624 140.167 44.331 140.167 42.5145V35.259H138.013V32.859H140.167V30.2235L143.388 29.2755V32.859H147.003V35.262Z" fill="white"/>
<path d="M163.316 39.9405C163.316 42.153 162.667 43.9695 161.371 45.39C160.013 46.8525 158.21 47.5815 155.962 47.5815C153.796 47.5815 152.071 46.881 150.785 45.48C149.499 44.079 148.856 42.3105 148.856 40.179C148.856 37.9485 149.517 36.1215 150.845 34.701C152.17 33.279 153.957 32.568 156.205 32.568C158.371 32.568 160.114 33.2685 161.43 34.671C162.688 36.0315 163.316 37.788 163.316 39.9405ZM159.913 40.044C159.913 38.7165 159.622 37.578 159.033 36.6285C158.345 35.4795 157.362 34.9065 156.088 34.9065C154.77 34.9065 153.768 35.481 153.081 36.6285C152.491 37.5795 152.201 38.736 152.201 40.104C152.201 41.4315 152.491 42.57 153.081 43.518C153.79 44.667 154.781 45.24 156.059 45.24C157.311 45.24 158.294 44.655 159.004 43.488C159.608 42.5205 159.913 41.37 159.913 40.044Z" fill="white"/>
<path d="M173.978 35.6745C173.653 35.616 173.307 35.586 172.944 35.586C171.79 35.586 170.898 36.0105 170.27 36.861C169.724 37.611 169.45 38.559 169.45 39.7035V47.256H166.171L166.202 37.395C166.202 35.736 166.161 34.2255 166.079 32.8635H168.936L169.056 35.6175H169.147C169.493 34.671 170.039 33.909 170.787 33.3375C171.518 32.823 172.307 32.5665 173.158 32.5665C173.461 32.5665 173.735 32.5875 173.978 32.625V35.6745Z" fill="white"/>
<path d="M188.647 39.378C188.647 39.951 188.608 40.434 188.527 40.8285H178.687C178.725 42.2505 179.201 43.338 180.115 44.088C180.944 44.7585 182.016 45.0945 183.333 45.0945C184.79 45.0945 186.119 44.868 187.315 44.4135L187.828 46.6335C186.431 47.2275 184.782 47.523 182.879 47.523C180.59 47.523 178.793 46.866 177.485 45.5535C176.181 44.241 175.527 42.4785 175.527 40.2675C175.527 38.097 176.135 36.2895 177.351 34.848C178.625 33.309 180.347 32.5395 182.513 32.5395C184.641 32.5395 186.251 33.309 187.345 34.848C188.211 36.0705 188.647 37.5825 188.647 39.378ZM185.519 38.5485C185.541 37.6005 185.327 36.7815 184.882 36.09C184.315 35.2005 183.442 34.7565 182.268 34.7565C181.196 34.7565 180.324 35.19 179.658 36.06C179.111 36.7515 178.787 37.581 178.687 38.547H185.519V38.5485Z" fill="white"/>
<path d="M76.1764 15.0135C76.1764 16.779 75.6333 18.108 74.5487 19.0005C73.5441 19.824 72.1164 20.2365 70.2672 20.2365C69.3502 20.2365 68.5656 20.1975 67.9087 20.1195V10.473C68.7656 10.338 69.6887 10.269 70.6856 10.269C72.4472 10.269 73.7749 10.6425 74.6702 11.3895C75.6733 12.234 76.1764 13.4415 76.1764 15.0135ZM74.4764 15.057C74.4764 13.9125 74.1656 13.035 73.5441 12.423C72.9225 11.8125 72.0149 11.5065 70.8195 11.5065C70.3118 11.5065 69.8795 11.5395 69.521 11.6085V18.942C69.7195 18.972 70.0825 18.9855 70.6102 18.9855C71.8441 18.9855 72.7964 18.651 73.4672 17.982C74.1379 17.313 74.4764 16.338 74.4764 15.057Z" fill="white"/>
<path d="M85.19 16.5555C85.19 17.643 84.8715 18.534 84.2346 19.233C83.5669 19.9515 82.6823 20.31 81.5777 20.31C80.5131 20.31 79.6654 19.9665 79.0331 19.2765C78.4023 18.588 78.0869 17.7195 78.0869 16.6725C78.0869 15.5775 78.4115 14.679 79.0638 13.9815C79.7161 13.284 80.5931 12.9345 81.6977 12.9345C82.7623 12.9345 83.6177 13.278 84.2654 13.9665C84.8808 14.6355 85.19 15.4995 85.19 16.5555ZM83.5177 16.6065C83.5177 15.954 83.3731 15.3945 83.0854 14.928C82.7469 14.364 82.2654 14.082 81.6392 14.082C80.9915 14.082 80.4992 14.364 80.1608 14.928C79.8715 15.3945 79.7285 15.963 79.7285 16.635C79.7285 17.2875 79.8731 17.847 80.1608 18.3135C80.51 18.8775 80.9961 19.1595 81.6238 19.1595C82.2392 19.1595 82.7223 18.873 83.07 18.2985C83.3685 17.823 83.5177 17.259 83.5177 16.6065Z" fill="white"/>
<path d="M97.2762 13.0785L95.007 20.1495H93.5301L92.5901 17.079C92.3516 16.3125 92.1578 15.5505 92.007 14.7945H91.9778C91.8378 15.5715 91.6439 16.332 91.3947 17.079L90.3962 20.1495H88.9024L86.7686 13.0785H88.4255L89.2455 16.44C89.4439 17.235 89.607 17.9925 89.7378 18.7095H89.767C89.887 18.1185 90.0855 17.3655 90.3655 16.455L91.3947 13.08H92.7086L93.6947 16.383C93.9332 17.1885 94.127 17.964 94.2762 18.711H94.3209C94.4301 17.9835 94.5947 17.208 94.8132 16.383L95.6932 13.08H97.2762V13.0785Z" fill="white"/>
<path d="M105.635 20.1495H104.022V16.0995C104.022 14.8515 103.536 14.2275 102.561 14.2275C102.082 14.2275 101.696 14.3985 101.396 14.742C101.099 15.0855 100.949 15.4905 100.949 15.954V20.148H99.3363V15.099C99.3363 14.478 99.3163 13.8045 99.2778 13.0755H100.695L100.77 14.181H100.815C101.002 13.8375 101.282 13.554 101.65 13.3275C102.087 13.0635 102.576 12.93 103.112 12.93C103.789 12.93 104.352 13.143 104.799 13.5705C105.356 14.094 105.635 14.8755 105.635 15.9135V20.1495V20.1495Z" fill="white"/>
<path d="M110.081 20.1495H108.47V9.834H110.081V20.1495Z" fill="white"/>
<path d="M119.573 16.5555C119.573 17.643 119.255 18.534 118.618 19.233C117.95 19.9515 117.064 20.31 115.961 20.31C114.895 20.31 114.047 19.9665 113.416 19.2765C112.786 18.588 112.47 17.7195 112.47 16.6725C112.47 15.5775 112.795 14.679 113.447 13.9815C114.099 13.284 114.976 12.9345 116.079 12.9345C117.146 12.9345 117.999 13.278 118.649 13.9665C119.264 14.6355 119.573 15.4995 119.573 16.5555ZM117.899 16.6065C117.899 15.954 117.755 15.3945 117.467 14.928C117.13 14.364 116.647 14.082 116.023 14.082C115.373 14.082 114.881 14.364 114.544 14.928C114.255 15.3945 114.112 15.963 114.112 16.635C114.112 17.2875 114.256 17.847 114.544 18.3135C114.893 18.8775 115.379 19.1595 116.007 19.1595C116.623 19.1595 117.104 18.873 117.452 18.2985C117.752 17.823 117.899 17.259 117.899 16.6065Z" fill="white"/>
<path d="M127.377 20.1495H125.929L125.809 19.335H125.764C125.269 19.9845 124.563 20.31 123.646 20.31C122.961 20.31 122.407 20.0955 121.991 19.6695C121.612 19.2825 121.423 18.801 121.423 18.2295C121.423 17.3655 121.792 16.707 122.535 16.251C123.277 15.795 124.32 15.5715 125.663 15.582V15.45C125.663 14.5185 125.161 14.0535 124.157 14.0535C123.441 14.0535 122.811 14.229 122.266 14.577L121.938 13.545C122.612 13.1385 123.444 12.9345 124.426 12.9345C126.321 12.9345 127.272 13.9095 127.272 15.8595V18.4635C127.272 19.17 127.307 19.7325 127.377 20.1495ZM125.703 17.7195V16.629C123.924 16.599 123.035 17.0745 123.035 18.054C123.035 18.423 123.137 18.699 123.344 18.8835C123.552 19.068 123.817 19.1595 124.132 19.1595C124.486 19.1595 124.817 19.05 125.118 18.8325C125.421 18.6135 125.607 18.336 125.677 17.9955C125.694 17.919 125.703 17.826 125.703 17.7195Z" fill="white"/>
<path d="M136.538 20.1495H135.107L135.032 19.014H134.987C134.53 19.878 133.752 20.31 132.658 20.31C131.784 20.31 131.056 19.9755 130.479 19.3065C129.902 18.6375 129.615 17.769 129.615 16.7025C129.615 15.558 129.927 14.631 130.555 13.923C131.162 13.263 131.907 12.933 132.793 12.933C133.767 12.933 134.449 13.2525 134.836 13.893H134.867V9.834H136.481V18.2445C136.481 18.933 136.499 19.5675 136.538 20.1495ZM134.867 17.1675V15.9885C134.867 15.7845 134.852 15.6195 134.822 15.4935C134.732 15.1155 134.536 14.7975 134.239 14.541C133.939 14.2845 133.578 14.1555 133.161 14.1555C132.559 14.1555 132.089 14.388 131.742 14.8545C131.399 15.321 131.226 15.9165 131.226 16.644C131.226 17.343 131.39 17.91 131.721 18.3465C132.07 18.8115 132.541 19.044 133.13 19.044C133.659 19.044 134.082 18.8505 134.404 18.462C134.715 18.1035 134.867 17.6715 134.867 17.1675Z" fill="white"/>
<path d="M150.327 16.5555C150.327 17.643 150.009 18.534 149.372 19.233C148.704 19.9515 147.821 20.31 146.715 20.31C145.652 20.31 144.804 19.9665 144.17 19.2765C143.54 18.588 143.224 17.7195 143.224 16.6725C143.224 15.5775 143.549 14.679 144.201 13.9815C144.853 13.284 145.73 12.9345 146.836 12.9345C147.899 12.9345 148.756 13.278 149.403 13.9665C150.018 14.6355 150.327 15.4995 150.327 16.5555ZM148.656 16.6065C148.656 15.954 148.512 15.3945 148.224 14.928C147.884 14.364 147.404 14.082 146.776 14.082C146.13 14.082 145.638 14.364 145.298 14.928C145.009 15.3945 144.866 15.963 144.866 16.635C144.866 17.2875 145.01 17.847 145.298 18.3135C145.647 18.8775 146.133 19.1595 146.761 19.1595C147.376 19.1595 147.861 18.873 148.209 18.2985C148.506 17.823 148.656 17.259 148.656 16.6065Z" fill="white"/>
<path d="M158.996 20.1495H157.386V16.0995C157.386 14.8515 156.9 14.2275 155.923 14.2275C155.444 14.2275 155.058 14.3985 154.76 14.742C154.461 15.0855 154.312 15.4905 154.312 15.954V20.148H152.698V15.099C152.698 14.478 152.68 13.8045 152.641 13.0755H154.056L154.132 14.181H154.176C154.366 13.8375 154.646 13.554 155.012 13.3275C155.45 13.0635 155.938 12.93 156.475 12.93C157.15 12.93 157.713 13.143 158.161 13.5705C158.72 14.094 158.996 14.8755 158.996 15.9135V20.1495V20.1495Z" fill="white"/>
<path d="M169.847 14.256H168.072V17.691C168.072 18.564 168.387 19.0005 169.012 19.0005C169.301 19.0005 169.541 18.9765 169.73 18.927L169.772 20.1195C169.453 20.2365 169.035 20.295 168.519 20.295C167.882 20.295 167.387 20.106 167.029 19.728C166.669 19.35 166.49 18.714 166.49 17.8215V14.256H165.43V13.0785H166.49V11.7825L168.07 11.3175V13.077H169.846V14.256H169.847Z" fill="white"/>
<path d="M178.382 20.1495H176.769V16.1295C176.769 14.862 176.282 14.2275 175.309 14.2275C174.561 14.2275 174.05 14.595 173.77 15.33C173.722 15.4845 173.695 15.6735 173.695 15.8955V20.148H172.084V9.834H173.695V14.0955H173.726C174.233 13.32 174.961 12.933 175.904 12.933C176.572 12.933 177.124 13.146 177.562 13.5735C178.109 14.106 178.382 14.898 178.382 15.945V20.1495V20.1495Z" fill="white"/>
<path d="M187.187 16.2795C187.187 16.5615 187.165 16.7985 187.127 16.992H182.292C182.313 17.691 182.544 18.2235 182.992 18.5925C183.401 18.9225 183.928 19.0875 184.575 19.0875C185.29 19.0875 185.942 18.9765 186.53 18.753L186.782 19.845C186.095 20.136 185.285 20.2815 184.348 20.2815C183.225 20.2815 182.341 19.959 181.701 19.314C181.058 18.669 180.739 17.8035 180.739 16.7175C180.739 15.651 181.036 14.763 181.635 14.055C182.259 13.299 183.104 12.921 184.17 12.921C185.213 12.921 186.005 13.299 186.541 14.055C186.973 14.655 187.187 15.3975 187.187 16.2795ZM185.648 15.873C185.661 15.4065 185.555 15.0045 185.336 14.6655C185.056 14.229 184.63 14.01 184.053 14.01C183.527 14.01 183.098 14.223 182.77 14.6505C182.502 14.991 182.344 15.3975 182.292 15.873H185.648Z" fill="white"/>
</svg>
