<svg width="262" height="70" viewBox="0 0 262 70" fill="none" xmlns="http://www.w3.org/2000/svg">
<path d="M256.76 8.75V4.375H251.52V0H10.48V4.375H5.24V8.75H0V61.25H5.24V65.625H10.48V70H251.52V65.625H256.76V61.25H262V8.75H256.76Z" fill="black"/>
<path d="M251.28 8.375V4H10.24V8.375H5V60.875H10.24V65.25H251.28V60.875H256.52V8.375H251.28Z" fill="#D81259"/>
<path d="M251.52 12.75H10.48V17.125H5.23999V8.375H10.48V4H251.52V8.375H256.76V17.125H251.52V12.75Z" fill="black" fill-opacity="0.2"/>
<path d="M61.8532 40.9583H60.1865V42.625H45.1865V25.9583H60.1865V27.625H61.8532V40.9583ZM55.1865 39.2917V29.2917H51.8532V39.2917H55.1865ZM81.8532 40.9583H80.1865V42.625H66.8532V40.9583H65.1865V27.625H66.8532V25.9583H80.1865V27.625H81.8532V40.9583ZM75.1865 39.2917V29.2917H71.8532V39.2917H75.1865ZM111.853 40.9583H110.187V42.625H85.1865V25.9583H91.8532V39.2917H95.1865V25.9583H101.853V39.2917H105.187V25.9583H111.853V40.9583ZM131.853 42.625H125.187V29.2917H121.853V42.625H115.187V25.9583H130.187V27.625H131.853V42.625ZM151.853 42.625H135.187V25.9583H141.853V39.2917H151.853V42.625ZM171.853 40.9583H170.187V42.625H156.853V40.9583H155.187V27.625H156.853V25.9583H170.187V27.625H171.853V40.9583ZM165.187 39.2917V29.2917H161.853V39.2917H165.187ZM191.853 42.625H185.187V35.9583H181.853V42.625H175.187V27.625H176.853V25.9583H190.187V27.625H191.853V42.625ZM185.187 32.625V29.2917H181.853V32.625H185.187ZM211.853 40.9583H210.187V42.625H195.187V25.9583H210.187V27.625H211.853V40.9583ZM205.187 39.2917V29.2917H201.853V39.2917H205.187Z" fill="white"/>
</svg>
