<svg width="262" height="70" viewBox="0 0 262 70" fill="none" xmlns="http://www.w3.org/2000/svg">
<path d="M256.76 8.75V4.375H251.52V0H10.48V4.375H5.24V8.75H0V61.25H5.24V65.625H10.48V70H251.52V65.625H256.76V61.25H262V8.75H256.76Z" fill="black"/>
<path d="M251.52 8.75V4.375H10.48V8.75H5.23999V61.25H10.48V65.625H251.52V61.25H256.76V8.75H251.52Z" fill="#60D2A6"/>
<path d="M251.52 56.875H10.48V52.5H5.23999V61.25H10.48V65.625H251.52V61.25H256.76V52.5H251.52V56.875Z" fill="black" fill-opacity="0.2"/>
<path d="M10.48 8.75V21.875H15.72V17.5H20.96V13.125H246.28V8.75H10.48Z" fill="white" fill-opacity="0.4"/>
<path d="M10.48 8.75V17.5H15.72V13.125H26.2V8.75H10.48Z" fill="white"/>
<path d="M116.853 42.625H110.187V29.2917H106.853V42.625H100.187V29.2917H96.8532V42.625H90.1865V25.9583H115.187V27.625H116.853V42.625ZM126.853 42.625H120.187V25.9583H126.853V42.625ZM146.853 42.625H140.187V29.2917H136.853V42.625H130.187V25.9583H145.187V27.625H146.853V42.625ZM166.853 29.2917H161.853V42.625H155.187V29.2917H150.187V25.9583H166.853V29.2917Z" fill="white"/>
</svg>
