<svg width="262" height="70" viewBox="0 0 262 70" fill="none" xmlns="http://www.w3.org/2000/svg">
<path d="M256.76 8.75V4.375H251.52V0H10.48V4.375H5.24V8.75H0V61.25H5.24V65.625H10.48V70H251.52V65.625H256.76V61.25H262V8.75H256.76Z" fill="black"/>
<path d="M251.28 8.375V4H10.24V8.375H5V60.875H10.24V65.25H251.28V60.875H256.52V8.375H251.28Z" fill="#EBD413"/>
<path d="M251.52 12.75H10.48V17.125H5.23999V8.375H10.48V4H251.52V8.375H256.76V17.125H251.52V12.75Z" fill="black" fill-opacity="0.2"/>
<path d="M91.8532 42.625H85.1865V29.2917H81.8532V42.625H75.1865V29.2917H71.8532V42.625H65.1865V25.9583H90.1865V27.625H91.8532V42.625ZM111.853 42.625H105.187V35.9583H101.853V42.625H95.1865V27.625H96.8532V25.9583H110.187V27.625H111.853V42.625ZM105.187 32.625V29.2917H101.853V32.625H105.187ZM131.853 42.625H125.187V35.9583H121.853V42.625H115.187V25.9583H130.187V27.625H131.853V32.625H130.187V35.9583H131.853V42.625ZM125.187 32.625V29.2917H121.853V32.625H125.187ZM151.853 42.625H145.187V35.9583H141.853V42.625H135.187V25.9583H141.853V32.625H145.187V25.9583H151.853V32.625H150.187V35.9583H151.853V42.625ZM171.853 42.625H156.853V40.9583H155.187V27.625H156.853V25.9583H171.853V29.2917H161.853V32.625H166.853V35.9583H161.853V39.2917H171.853V42.625ZM191.853 29.2917H186.853V42.625H180.187V29.2917H175.187V25.9583H191.853V29.2917Z" fill="black"/>
</svg>
