<svg width="208" height="60" viewBox="0 0 208 60" fill="none" xmlns="http://www.w3.org/2000/svg">
<path d="M199.725 60H7.68173C3.4587 60 0 56.6231 0 52.5V7.5C0 3.37687 3.4587 -1.55321e-06 7.68173 -1.55321e-06H199.725C203.948 -1.55321e-06 207.407 3.37687 207.407 7.5V52.5C207.407 56.6231 203.948 60 199.725 60Z" fill="black"/>
<path d="M199.725 1.20187C203.282 1.20187 206.176 4.0275 206.176 7.5V52.5C206.176 55.9725 203.282 58.7981 199.725 58.7981H7.68173C4.12509 58.7981 1.231 55.9725 1.231 52.5V7.5C1.231 4.0275 4.12509 1.20187 7.68173 1.20187H199.725ZM199.725 -1.55321e-06H7.68173C3.4587 -1.55321e-06 0 3.37687 0 7.5V52.5C0 56.6231 3.4587 60 7.68173 60H199.725C203.948 60 207.407 56.6231 207.407 52.5V7.5C207.407 3.37687 203.948 -1.55321e-06 199.725 -1.55321e-06Z" fill="#A6A6A6"/>
<path d="M72.6583 15.3656C72.6583 16.6181 72.2742 17.6212 71.5175 18.3694C70.6476 19.2562 69.5145 19.7025 68.1261 19.7025C66.799 19.7025 65.666 19.2487 64.7365 18.3544C63.8051 17.4469 63.3403 16.3331 63.3403 15C63.3403 13.6669 63.8051 12.5531 64.7365 11.6531C65.666 10.7512 66.799 10.2975 68.1261 10.2975C68.7867 10.2975 69.4166 10.4306 70.0177 10.6781C70.6169 10.9275 71.1046 11.265 71.458 11.6812L70.6553 12.4725C70.0388 11.7619 69.1996 11.4112 68.1261 11.4112C67.1582 11.4112 66.3189 11.7412 65.6064 12.4069C64.9016 13.0744 64.5483 13.9387 64.5483 15C64.5483 16.0612 64.9016 16.9331 65.6064 17.6006C66.3189 18.2587 67.1582 18.5962 68.1261 18.5962C69.1535 18.5962 70.0177 18.2587 70.6994 17.5931C71.1488 17.1525 71.4042 16.545 71.4715 15.7687H68.1261V14.685H72.5891C72.6429 14.9194 72.6583 15.1462 72.6583 15.3656V15.3656Z" fill="white" stroke="white" stroke-width="0.184615" stroke-miterlimit="10"/>
<path d="M79.7385 11.6081H75.5462V14.4581H79.3256V15.5418H75.5462V18.3918H79.7385V19.4962H74.3594V10.5037H79.7385V11.6081Z" fill="white" stroke="white" stroke-width="0.184615" stroke-miterlimit="10"/>
<path d="M84.7353 19.4962H83.5485V11.6081H80.9771V10.5037H87.3087V11.6081H84.7353V19.4962V19.4962Z" fill="white" stroke="white" stroke-width="0.184615" stroke-miterlimit="10"/>
<path d="M91.8911 19.4962V10.5037H93.076V19.4962H91.8911Z" fill="white" stroke="white" stroke-width="0.184615" stroke-miterlimit="10"/>
<path d="M98.3286 19.4962H97.1514V11.6081H94.5703V10.5037H100.91V11.6081H98.3286V19.4962Z" fill="white" stroke="white" stroke-width="0.184615" stroke-miterlimit="10"/>
<path d="M112.897 18.3394C111.989 19.2487 110.863 19.7025 109.521 19.7025C108.171 19.7025 107.045 19.2487 106.137 18.3394C105.231 17.4319 104.779 16.3181 104.779 15C104.779 13.6819 105.231 12.5681 106.137 11.6606C107.045 10.7512 108.171 10.2975 109.521 10.2975C110.856 10.2975 111.981 10.7512 112.889 11.6681C113.803 12.5831 114.255 13.6894 114.255 15C114.255 16.3181 113.803 17.4319 112.897 18.3394ZM107.015 17.5856C107.698 18.2587 108.53 18.5962 109.521 18.5962C110.504 18.5962 111.343 18.2587 112.019 17.5856C112.701 16.9125 113.047 16.0481 113.047 15C113.047 13.9519 112.701 13.0875 112.019 12.4144C111.343 11.7412 110.504 11.4037 109.521 11.4037C108.53 11.4037 107.698 11.7412 107.015 12.4144C106.333 13.0875 105.987 13.9519 105.987 15C105.987 16.0481 106.333 16.9125 107.015 17.5856V17.5856Z" fill="white" stroke="white" stroke-width="0.184615" stroke-miterlimit="10"/>
<path d="M115.919 19.4962V10.5037H117.36L121.838 17.4974H121.89L121.838 15.7687V10.5037H123.023V19.4962H121.786L117.097 12.1574H117.045L117.097 13.8937V19.4962H115.919V19.4962Z" fill="white" stroke="white" stroke-width="0.184615" stroke-miterlimit="10"/>
<path d="M104.487 32.6288C100.878 32.6288 97.9303 35.31 97.9303 39.0094C97.9303 42.6788 100.878 45.3882 104.487 45.3882C108.103 45.3882 111.051 42.6788 111.051 39.0094C111.051 35.31 108.103 32.6288 104.487 32.6288ZM104.487 42.8757C102.507 42.8757 100.803 41.28 100.803 39.0094C100.803 36.7088 102.507 35.1413 104.487 35.1413C106.467 35.1413 108.178 36.7088 108.178 39.0094C108.178 41.28 106.467 42.8757 104.487 42.8757V42.8757ZM90.1814 32.6288C86.5652 32.6288 83.625 35.31 83.625 39.0094C83.625 42.6788 86.5652 45.3882 90.1814 45.3882C93.7956 45.3882 96.7377 42.6788 96.7377 39.0094C96.7377 35.31 93.7956 32.6288 90.1814 32.6288ZM90.1814 42.8757C88.1995 42.8757 86.4903 41.28 86.4903 39.0094C86.4903 36.7088 88.1995 35.1413 90.1814 35.1413C92.1613 35.1413 93.8648 36.7088 93.8648 39.0094C93.8648 41.28 92.1613 42.8757 90.1814 42.8757ZM73.1587 34.5844V37.2957H79.7899C79.5959 38.8107 79.0774 39.9244 78.2824 40.7007C77.3145 41.6382 75.8069 42.6788 73.1587 42.6788C69.0777 42.6788 65.8821 39.4632 65.8821 35.4788C65.8821 31.4944 69.0777 28.2788 73.1587 28.2788C75.3652 28.2788 76.9707 29.1207 78.1556 30.2119L80.1125 28.3013C78.4552 26.7563 76.2506 25.5694 73.1587 25.5694C67.5625 25.5694 62.8594 30.015 62.8594 35.4788C62.8594 40.9425 67.5625 45.3882 73.1587 45.3882C76.1833 45.3882 78.4552 44.4207 80.2412 42.6057C82.0714 40.8188 82.6418 38.3063 82.6418 36.2775C82.6418 35.6475 82.588 35.0682 82.492 34.5844H73.1587ZM142.767 36.6863C142.227 35.2594 140.562 32.6288 137.171 32.6288C133.81 32.6288 131.012 35.2144 131.012 39.0094C131.012 42.5832 133.781 45.3882 137.493 45.3882C140.495 45.3882 142.227 43.6013 142.94 42.5607L140.712 41.1113C139.969 42.1725 138.957 42.8757 137.493 42.8757C136.039 42.8757 134.997 42.225 134.328 40.9425L143.068 37.4119L142.767 36.6863V36.6863ZM133.856 38.8107C133.781 36.3507 135.813 35.0907 137.268 35.0907C138.409 35.0907 139.377 35.6475 139.7 36.4444L133.856 38.8107V38.8107ZM126.752 45H129.625V26.25H126.752V45ZM122.047 34.05H121.951C121.306 33.3038 120.075 32.6288 118.515 32.6288C115.243 32.6288 112.251 35.4338 112.251 39.03C112.251 42.6057 115.243 45.3882 118.515 45.3882C120.075 45.3882 121.306 44.7075 121.951 43.9388H122.047V44.8538C122.047 47.2932 120.712 48.6038 118.56 48.6038C116.804 48.6038 115.715 47.3663 115.266 46.3257L112.768 47.3438C113.488 49.035 115.395 51.1163 118.56 51.1163C121.928 51.1163 124.77 49.1813 124.77 44.4732V33.0169H122.047V34.05V34.05ZM118.761 42.8757C116.781 42.8757 115.124 41.2575 115.124 39.03C115.124 36.7819 116.781 35.1413 118.761 35.1413C120.712 35.1413 122.251 36.7819 122.251 39.03C122.251 41.2575 120.712 42.8757 118.761 42.8757V42.8757ZM156.217 26.25H149.346V45H152.211V37.8957H156.217C159.4 37.8957 162.52 35.6475 162.52 32.0719C162.52 28.4982 159.392 26.25 156.217 26.25V26.25ZM156.292 35.2875H152.211V28.8582H156.292C158.432 28.8582 159.653 30.5925 159.653 32.0719C159.653 33.5232 158.432 35.2875 156.292 35.2875ZM174.004 32.5932C171.934 32.5932 169.781 33.4857 168.896 35.4638L171.439 36.5044C171.986 35.4638 172.992 35.1263 174.056 35.1263C175.543 35.1263 177.05 35.9982 177.073 37.5375V37.7344C176.555 37.4419 175.445 37.0088 174.079 37.0088C171.341 37.0088 168.55 38.4807 168.55 41.2275C168.55 43.74 170.793 45.3582 173.315 45.3582C175.243 45.3582 176.307 44.5088 176.975 43.5207H177.073V44.97H179.841V37.7775C179.841 34.4532 177.298 32.5932 174.004 32.5932ZM173.659 42.8682C172.722 42.8682 171.416 42.4144 171.416 41.28C171.416 39.8288 173.044 39.2719 174.454 39.2719C175.716 39.2719 176.307 39.5438 177.073 39.9019C176.849 41.6382 175.318 42.8682 173.659 42.8682V42.8682ZM189.923 33.0038L186.629 41.1319H186.531L183.126 33.0038H180.037L185.153 44.3625L182.233 50.6832H185.227L193.111 33.0038H189.923V33.0038ZM164.095 45H166.968V26.25H164.095V45Z" fill="white"/>
<path d="M16.0316 11.3081C15.5803 11.7694 15.3191 12.4875 15.3191 13.4175V46.59C15.3191 47.52 15.5803 48.2381 16.0316 48.6994L16.143 48.8006L35.1821 30.2194V29.7806L16.143 11.1994L16.0316 11.3081Z" fill="url(#paint0_linear_512:1098)"/>
<path d="M41.5217 36.4162L35.1824 30.2193V29.7806L41.5294 23.5837L41.6715 23.6643L49.1881 27.84C51.3332 29.025 51.3332 30.975 49.1881 32.1675L41.6715 36.3356L41.5217 36.4162V36.4162Z" fill="url(#paint1_linear_512:1098)"/>
<path d="M41.6717 36.3357L35.1825 30L16.032 48.6994C16.7445 49.4307 17.9063 49.5188 19.2276 48.7875L41.6717 36.3357" fill="url(#paint2_linear_512:1098)"/>
<path d="M41.6717 23.6644L19.2276 11.2125C17.9063 10.4888 16.7445 10.5769 16.032 11.3081L35.1825 30L41.6717 23.6644Z" fill="url(#paint3_linear_512:1098)"/>
<defs>
<linearGradient id="paint0_linear_512:1098" x1="33.4917" y1="46.9355" x2="8.32529" y2="21.1593" gradientUnits="userSpaceOnUse">
<stop stop-color="#00A0FF"/>
<stop offset="0.0066" stop-color="#00A1FF"/>
<stop offset="0.2601" stop-color="#00BEFF"/>
<stop offset="0.5122" stop-color="#00D2FF"/>
<stop offset="0.7604" stop-color="#00DFFF"/>
<stop offset="1" stop-color="#00E3FF"/>
</linearGradient>
<linearGradient id="paint1_linear_512:1098" x1="51.9814" y1="29.9979" x2="14.8066" y2="29.9979" gradientUnits="userSpaceOnUse">
<stop stop-color="#FFE000"/>
<stop offset="0.4087" stop-color="#FFBD00"/>
<stop offset="0.7754" stop-color="#FFA500"/>
<stop offset="1" stop-color="#FF9C00"/>
</linearGradient>
<linearGradient id="paint2_linear_512:1098" x1="38.1431" y1="26.5559" x2="4.01542" y2="-8.39874" gradientUnits="userSpaceOnUse">
<stop stop-color="#FF3A44"/>
<stop offset="1" stop-color="#C31162"/>
</linearGradient>
<linearGradient id="paint3_linear_512:1098" x1="11.2114" y1="59.7357" x2="26.4509" y2="44.127" gradientUnits="userSpaceOnUse">
<stop stop-color="#32A071"/>
<stop offset="0.0685" stop-color="#2DA771"/>
<stop offset="0.4762" stop-color="#15CF74"/>
<stop offset="0.8009" stop-color="#06E775"/>
<stop offset="1" stop-color="#00F076"/>
</linearGradient>
</defs>
</svg>
