<svg width="533" height="161" viewBox="0 0 533 161" fill="none" xmlns="http://www.w3.org/2000/svg">
<rect x="24.2922" width="472.269" height="12.1461" fill="black"/>
<rect x="370.814" y="135.751" width="125.748" height="12.1461" fill="black" fill-opacity="0.1"/>
<rect x="36.4382" y="135.751" width="297.937" height="12.1461" fill="black" fill-opacity="0.1"/>
<rect x="24" y="12" width="472.269" height="111.458" fill="white"/>
<rect width="12.1461" height="87.1662" transform="matrix(-1 0 0 1 520.854 24.2922)" fill="black"/>
<rect width="12.1461" height="75.0201" transform="matrix(-1 0 0 1 533 36.4383)" fill="black" fill-opacity="0.1"/>
<rect width="26" height="87" transform="matrix(-1 0 0 1 509 24)" fill="white"/>
<rect width="24" height="87" transform="matrix(-1 0 0 1 36 24)" fill="white"/>
<rect width="12.1461" height="87.1662" transform="matrix(-1 0 0 1 12.1462 24.2922)" fill="black"/>
<rect x="496.562" y="12.1461" width="12.1461" height="12.1461" fill="black"/>
<rect x="12.1462" y="12.1461" width="12.1461" height="12.1461" fill="black"/>
<rect x="346.521" y="147.897" width="12.1461" height="12.1461" fill="black"/>
<rect x="358.667" y="147.897" width="12.1461" height="12.1461" fill="black" fill-opacity="0.1"/>
<rect x="496.562" y="111.458" width="12.1461" height="12.1461" fill="black"/>
<rect x="496.562" y="123.605" width="12.1461" height="12.1461" fill="black" fill-opacity="0.1"/>
<rect x="346" y="128" width="13" height="20" fill="white"/>
<rect x="334" y="119" width="37" height="17" fill="white"/>
<rect x="508.708" y="111.458" width="12.1461" height="12.1461" fill="black" fill-opacity="0.1"/>
<rect x="12.1462" y="111.458" width="12.1461" height="12.1461" fill="black"/>
<rect x="334.375" y="135.751" width="12.1461" height="12.1461" fill="black"/>
<rect x="358.667" y="135.751" width="12.1461" height="12.1461" fill="black"/>
<rect x="370.814" y="123.605" width="125.748" height="12.1461" fill="black"/>
<rect x="24.2922" y="123.605" width="310.083" height="12.1461" fill="black"/>
</svg>
