<svg width="24" height="25" viewBox="0 0 24 25" fill="none" xmlns="http://www.w3.org/2000/svg">
<path d="M12 2.17089C6.5 2.17089 2 6.66089 2 12.1909C2 17.1909 5.66 21.3409 10.44 22.0909V15.0909H7.9V12.1909H10.44V9.98089C10.44 7.47089 11.93 6.09089 14.22 6.09089C15.31 6.09089 16.45 6.28089 16.45 6.28089V8.75089H15.19C13.95 8.75089 13.56 9.52089 13.56 10.3109V12.1909H16.34L15.89 15.0909H13.56V22.0909C15.9164 21.7187 18.0622 20.5164 19.6099 18.701C21.1577 16.8855 22.0054 14.5765 22 12.1909C22 6.66089 17.5 2.17089 12 2.17089V2.17089Z" fill="black"/>
</svg>
