<svg width="24" height="25" viewBox="0 0 24 25" fill="none" xmlns="http://www.w3.org/2000/svg">
<path d="M22.46 6.13089C21.69 6.48089 20.86 6.71089 20 6.82089C20.88 6.29089 21.56 5.45089 21.88 4.44089C21.05 4.94089 20.13 5.29089 19.16 5.49089C18.37 4.63089 17.26 4.13089 16 4.13089C13.65 4.13089 11.73 6.05089 11.73 8.42089C11.73 8.76089 11.77 9.09089 11.84 9.40089C8.28004 9.22089 5.11004 7.51089 3.00004 4.92089C2.63004 5.55089 2.42004 6.29089 2.42004 7.07089C2.42004 8.56089 3.17004 9.88089 4.33004 10.6309C3.62004 10.6309 2.96004 10.4309 2.38004 10.1309V10.1609C2.38004 12.2409 3.86004 13.9809 5.82004 14.3709C5.19077 14.5431 4.53013 14.5671 3.89004 14.4409C4.16165 15.2934 4.69358 16.0393 5.41106 16.5738C6.12854 17.1083 6.99549 17.4046 7.89004 17.4209C6.37367 18.6213 4.49404 19.2702 2.56004 19.2609C2.22004 19.2609 1.88004 19.2409 1.54004 19.2009C3.44004 20.4209 5.70004 21.1309 8.12004 21.1309C16 21.1309 20.33 14.5909 20.33 8.92089C20.33 8.73089 20.33 8.55089 20.32 8.36089C21.16 7.76089 21.88 7.00089 22.46 6.13089V6.13089Z" fill="black"/>
</svg>
