<svg width="116" height="116" viewBox="0 0 116 116" fill="none" xmlns="http://www.w3.org/2000/svg">
<g clip-path="url(#clip0_834_11580)">
<path d="M100.759 112.591H97.3723V116H100.759V112.591Z" fill="#005931"/>
<path d="M97.3723 112.591H93.9855V116H97.3723V112.591Z" fill="#005931"/>
<path d="M93.9856 112.591H90.5988V116H93.9856V112.591Z" fill="#005931"/>
<path d="M93.9856 109.18H90.5988V112.59H93.9856V109.18Z" fill="#005931"/>
<path d="M93.9856 20.4927H90.5988V23.9024H93.9856V20.4927Z" fill="#525252"/>
<path d="M93.9856 17.0833H90.5988V20.493H93.9856V17.0833Z" fill="#525252"/>
<path d="M93.9856 13.6736H90.5988V17.0833H93.9856V13.6736Z" fill="#595959"/>
<path d="M93.9856 10.2637H90.5988V13.6734H93.9856V10.2637Z" fill="#595959"/>
<path d="M93.9856 6.81934H90.5988V10.2638H93.9856V6.81934Z" fill="#3B322A"/>
<path d="M93.9856 3.40967H90.5988V6.81939H93.9856V3.40967Z" fill="#595959"/>
<path d="M93.9856 0H90.5988V3.40972H93.9856V0Z" fill="#595959"/>
<path d="M90.5988 112.591H87.2119V116H90.5988V112.591Z" fill="#005931"/>
<path d="M90.5988 109.18H87.2119V112.59H90.5988V109.18Z" fill="#005931"/>
<path d="M90.5988 105.771H87.2119V109.18H90.5988V105.771Z" fill="#005931"/>
<path d="M90.5988 102.361H87.2119V105.771H90.5988V102.361Z" fill="#525252"/>
<path d="M90.5988 98.9512H87.2119V102.361H90.5988V98.9512Z" fill="#525252"/>
<path d="M90.5988 95.5066H87.2119V98.9511H90.5988V95.5066Z" fill="#525252"/>
<path d="M90.5988 92.0969H87.2119V95.5067H90.5988V92.0969Z" fill="#004526"/>
<path d="M90.5988 88.6875H87.2119V92.0972H90.5988V88.6875Z" fill="#004526"/>
<path d="M90.5988 85.2778H87.2119V88.6875H90.5988V85.2778Z" fill="#004526"/>
<path d="M90.5988 23.9031H87.2119V27.3128H90.5988V23.9031Z" fill="#525252"/>
<path d="M90.5988 20.4927H87.2119V23.9024H90.5988V20.4927Z" fill="#525252"/>
<path d="M90.5988 17.0833H87.2119V20.493H90.5988V17.0833Z" fill="#525252"/>
<path d="M90.5988 13.6736H87.2119V17.0833H90.5988V13.6736Z" fill="#525252"/>
<path d="M90.5988 10.2637H87.2119V13.6734H90.5988V10.2637Z" fill="#595959"/>
<path d="M90.5988 6.81934H87.2119V10.2638H90.5988V6.81934Z" fill="#595959"/>
<path d="M90.5988 3.40967H87.2119V6.81939H90.5988V3.40967Z" fill="#595959"/>
<path d="M90.5988 0H87.2119V3.40972H90.5988V0Z" fill="#595959"/>
<path d="M87.2119 112.591H83.8251V116H87.2119V112.591Z" fill="#005931"/>
<path d="M87.2119 109.18H83.8251V112.59H87.2119V109.18Z" fill="#525252"/>
<path d="M87.2119 105.771H83.8251V109.18H87.2119V105.771Z" fill="#525252"/>
<path d="M87.2119 102.361H83.8251V105.771H87.2119V102.361Z" fill="#004526"/>
<path d="M87.2119 98.9512H83.8251V102.361H87.2119V98.9512Z" fill="#525252"/>
<path d="M87.2119 95.5066H83.8251V98.9511H87.2119V95.5066Z" fill="#004526"/>
<path d="M87.2119 92.0969H83.8251V95.5067H87.2119V92.0969Z" fill="#525252"/>
<path d="M87.2119 88.6875H83.8251V92.0972H87.2119V88.6875Z" fill="#525252"/>
<path d="M87.2119 85.2778H83.8251V88.6875H87.2119V85.2778Z" fill="#525252"/>
<path d="M87.2119 81.8679H83.8251V85.2776H87.2119V81.8679Z" fill="#525252"/>
<path d="M87.2119 78.4585H83.8251V81.8682H87.2119V78.4585Z" fill="#595959"/>
<path d="M87.2119 75.0488H83.8251V78.4585H87.2119V75.0488Z" fill="#525252"/>
<path d="M87.2119 71.6392H83.8251V75.0489H87.2119V71.6392Z" fill="#525252"/>
<path d="M87.2119 68.2295H83.8251V71.6392H87.2119V68.2295Z" fill="#004526"/>
<path d="M87.2119 44.3611H83.8251V47.7708H87.2119V44.3611Z" fill="#525252"/>
<path d="M87.2119 40.9514H83.8251V44.3611H87.2119V40.9514Z" fill="#525252"/>
<path d="M87.2119 37.5417H83.8251V40.9515H87.2119V37.5417Z" fill="#525252"/>
<path d="M87.2119 34.1321H83.8251V37.5418H87.2119V34.1321Z" fill="#595959"/>
<path d="M87.2119 30.7224H83.8251V34.1321H87.2119V30.7224Z" fill="#525252"/>
<path d="M87.2119 27.3127H83.8251V30.7225H87.2119V27.3127Z" fill="#4A4A4A"/>
<path d="M87.2119 23.9031H83.8251V27.3128H87.2119V23.9031Z" fill="#525252"/>
<path d="M87.2119 20.4927H83.8251V23.9024H87.2119V20.4927Z" fill="#454545"/>
<path d="M87.2119 17.0833H83.8251V20.493H87.2119V17.0833Z" fill="#595959"/>
<path d="M87.2119 13.6736H83.8251V17.0833H87.2119V13.6736Z" fill="#595959"/>
<path d="M87.2119 10.2637H83.8251V13.6734H87.2119V10.2637Z" fill="#454545"/>
<path d="M87.2119 6.81934H83.8251V10.2638H87.2119V6.81934Z" fill="#595959"/>
<path d="M87.2119 3.40967H83.8251V6.81939H87.2119V3.40967Z" fill="#787878"/>
<path d="M87.2119 0H83.8251V3.40972H87.2119V0Z" fill="#787878"/>
<path d="M83.8251 112.591H80.4382V116H83.8251V112.591Z" fill="#005931"/>
<path d="M83.8251 109.18H80.4382V112.59H83.8251V109.18Z" fill="#005931"/>
<path d="M83.8251 105.771H80.4382V109.18H83.8251V105.771Z" fill="#525252"/>
<path d="M83.8251 102.361H80.4382V105.771H83.8251V102.361Z" fill="#525252"/>
<path d="M83.8251 98.9512H80.4382V102.361H83.8251V98.9512Z" fill="#3B322A"/>
<path d="M83.8251 95.5066H80.4382V98.9511H83.8251V95.5066Z" fill="#6B6B6B"/>
<path d="M83.8251 92.0969H80.4382V95.5067H83.8251V92.0969Z" fill="#525252"/>
<path d="M83.8251 88.6875H80.4382V92.0972H83.8251V88.6875Z" fill="#525252"/>
<path d="M83.8251 85.2778H80.4382V88.6875H83.8251V85.2778Z" fill="#595959"/>
<path d="M83.8251 81.8679H80.4382V85.2776H83.8251V81.8679Z" fill="#525252"/>
<path d="M83.8251 78.4585H80.4382V81.8682H83.8251V78.4585Z" fill="#595959"/>
<path d="M83.8251 75.0488H80.4382V78.4585H83.8251V75.0488Z" fill="#525252"/>
<path d="M83.8251 71.6392H80.4382V75.0489H83.8251V71.6392Z" fill="#595959"/>
<path d="M83.8251 68.2295H80.4382V71.6392H83.8251V68.2295Z" fill="#525252"/>
<path d="M83.8251 64.8191H80.4382V68.2288H83.8251V64.8191Z" fill="#525252"/>
<path d="M83.8251 61.4094H80.4382V64.8191H83.8251V61.4094Z" fill="#595959"/>
<path d="M83.8251 57.9998H80.4382V61.4095H83.8251V57.9998Z" fill="#525252"/>
<path d="M83.8251 54.5901H80.4382V57.9998H83.8251V54.5901Z" fill="#525252"/>
<path d="M83.8251 51.1804H80.4382V54.5901H83.8251V51.1804Z" fill="#525252"/>
<path d="M83.8251 47.7708H80.4382V51.1805H83.8251V47.7708Z" fill="#525252"/>
<path d="M83.8251 44.3611H80.4382V47.7708H83.8251V44.3611Z" fill="#525252"/>
<path d="M83.8251 40.9514H80.4382V44.3611H83.8251V40.9514Z" fill="#595959"/>
<path d="M83.8251 37.5417H80.4382V40.9515H83.8251V37.5417Z" fill="#595959"/>
<path d="M83.8251 34.1321H80.4382V37.5418H83.8251V34.1321Z" fill="#525252"/>
<path d="M83.8251 30.7224H80.4382V34.1321H83.8251V30.7224Z" fill="#595959"/>
<path d="M83.8251 27.3127H80.4382V30.7225H83.8251V27.3127Z" fill="#4A4A4A"/>
<path d="M83.8251 23.9031H80.4382V27.3128H83.8251V23.9031Z" fill="#525252"/>
<path d="M83.8251 20.4927H80.4382V23.9024H83.8251V20.4927Z" fill="#525252"/>
<path d="M83.8251 17.0833H80.4382V20.493H83.8251V17.0833Z" fill="#525252"/>
<path d="M83.8251 13.6736H80.4382V17.0833H83.8251V13.6736Z" fill="#595959"/>
<path d="M83.8251 10.2637H80.4382V13.6734H83.8251V10.2637Z" fill="#595959"/>
<path d="M80.4376 112.591H77.0508V116H80.4376V112.591Z" fill="#005931"/>
<path d="M80.4376 109.18H77.0508V112.59H80.4376V109.18Z" fill="#525252"/>
<path d="M80.4376 105.771H77.0508V109.18H80.4376V105.771Z" fill="#454545"/>
<path d="M80.4376 102.361H77.0508V105.771H80.4376V102.361Z" fill="#525252"/>
<path d="M80.4376 98.9512H77.0508V102.361H80.4376V98.9512Z" fill="#525252"/>
<path d="M80.4376 95.5066H77.0508V98.9511H80.4376V95.5066Z" fill="#525252"/>
<path d="M80.4376 92.0969H77.0508V95.5067H80.4376V92.0969Z" fill="#525252"/>
<path d="M80.4376 88.6875H77.0508V92.0972H80.4376V88.6875Z" fill="#595959"/>
<path d="M80.4376 85.2778H77.0508V88.6875H80.4376V85.2778Z" fill="#454545"/>
<path d="M80.4376 81.8679H77.0508V85.2776H80.4376V81.8679Z" fill="#595959"/>
<path d="M80.4376 78.4585H77.0508V81.8682H80.4376V78.4585Z" fill="#595959"/>
<path d="M80.4376 75.0488H77.0508V78.4585H80.4376V75.0488Z" fill="#525252"/>
<path d="M80.4376 71.6392H77.0508V75.0489H80.4376V71.6392Z" fill="#525252"/>
<path d="M80.4376 68.2295H77.0508V71.6392H80.4376V68.2295Z" fill="#525252"/>
<path d="M80.4376 64.8191H77.0508V68.2288H80.4376V64.8191Z" fill="#595959"/>
<path d="M80.4376 61.4094H77.0508V64.8191H80.4376V61.4094Z" fill="#525252"/>
<path d="M80.4376 57.9998H77.0508V61.4095H80.4376V57.9998Z" fill="#525252"/>
<path d="M80.4376 54.5901H77.0508V57.9998H80.4376V54.5901Z" fill="#595959"/>
<path d="M80.4376 51.1804H77.0508V54.5901H80.4376V51.1804Z" fill="#6B6B6B"/>
<path d="M80.4376 47.7708H77.0508V51.1805H80.4376V47.7708Z" fill="#595959"/>
<path d="M80.4376 44.3611H77.0508V47.7708H80.4376V44.3611Z" fill="#595959"/>
<path d="M80.4376 40.9514H77.0508V44.3611H80.4376V40.9514Z" fill="#525252"/>
<path d="M80.4376 37.5417H77.0508V40.9515H80.4376V37.5417Z" fill="#6B6B6B"/>
<path d="M80.4376 34.1321H77.0508V37.5418H80.4376V34.1321Z" fill="#595959"/>
<path d="M80.4376 30.7224H77.0508V34.1321H80.4376V30.7224Z" fill="#525252"/>
<path d="M80.4376 27.3127H77.0508V30.7225H80.4376V27.3127Z" fill="#4A4A4A"/>
<path d="M80.4376 23.9031H77.0508V27.3128H80.4376V23.9031Z" fill="#525252"/>
<path d="M80.4376 20.4927H77.0508V23.9024H80.4376V20.4927Z" fill="#525252"/>
<path d="M80.4376 17.0833H77.0508V20.493H80.4376V17.0833Z" fill="#525252"/>
<path d="M80.4376 13.6736H77.0508V17.0833H80.4376V13.6736Z" fill="#525252"/>
<path d="M80.4376 10.2637H77.0508V13.6734H80.4376V10.2637Z" fill="#595959"/>
<path d="M77.0509 112.591H73.6641V116H77.0509V112.591Z" fill="#005931"/>
<path d="M77.0509 109.18H73.6641V112.59H77.0509V109.18Z" fill="#005931"/>
<path d="M77.0509 105.771H73.6641V109.18H77.0509V105.771Z" fill="#005931"/>
<path d="M77.0509 102.361H73.6641V105.771H77.0509V102.361Z" fill="#525252"/>
<path d="M77.0509 98.9512H73.6641V102.361H77.0509V98.9512Z" fill="#525252"/>
<path d="M77.0509 95.5066H73.6641V98.9511H77.0509V95.5066Z" fill="#525252"/>
<path d="M77.0509 92.0969H73.6641V95.5067H77.0509V92.0969Z" fill="#525252"/>
<path d="M77.0509 88.6875H73.6641V92.0972H77.0509V88.6875Z" fill="#004526"/>
<path d="M77.0509 85.2778H73.6641V88.6875H77.0509V85.2778Z" fill="#6B6B6B"/>
<path d="M77.0509 81.8679H73.6641V85.2776H77.0509V81.8679Z" fill="#6B6B6B"/>
<path d="M77.0509 78.4585H73.6641V81.8682H77.0509V78.4585Z" fill="#6B6B6B"/>
<path d="M77.0509 75.0488H73.6641V78.4585H77.0509V75.0488Z" fill="#595959"/>
<path d="M77.0509 71.6392H73.6641V75.0489H77.0509V71.6392Z" fill="#3B322A"/>
<path d="M77.0509 68.2295H73.6641V71.6392H77.0509V68.2295Z" fill="#3B322A"/>
<path d="M77.0509 64.8191H73.6641V68.2288H77.0509V64.8191Z" fill="#595959"/>
<path d="M77.0509 61.4094H73.6641V64.8191H77.0509V61.4094Z" fill="#525252"/>
<path d="M77.0509 57.9998H73.6641V61.4095H77.0509V57.9998Z" fill="#595959"/>
<path d="M77.0509 54.5901H73.6641V57.9998H77.0509V54.5901Z" fill="#525252"/>
<path d="M77.0509 51.1804H73.6641V54.5901H77.0509V51.1804Z" fill="#595959"/>
<path d="M77.0509 47.7708H73.6641V51.1805H77.0509V47.7708Z" fill="#525252"/>
<path d="M77.0509 44.3611H73.6641V47.7708H77.0509V44.3611Z" fill="#6B6B6B"/>
<path d="M77.0509 40.9514H73.6641V44.3611H77.0509V40.9514Z" fill="#3B322A"/>
<path d="M77.0509 37.5417H73.6641V40.9515H77.0509V37.5417Z" fill="#454545"/>
<path d="M77.0509 34.1321H73.6641V37.5418H77.0509V34.1321Z" fill="#525252"/>
<path d="M77.0509 30.7224H73.6641V34.1321H77.0509V30.7224Z" fill="#595959"/>
<path d="M77.0509 27.3127H73.6641V30.7225H77.0509V27.3127Z" fill="#4A4A4A"/>
<path d="M77.0509 23.9031H73.6641V27.3128H77.0509V23.9031Z" fill="#525252"/>
<path d="M77.0509 20.4927H73.6641V23.9024H77.0509V20.4927Z" fill="#3B322A"/>
<path d="M77.0509 17.0833H73.6641V20.493H77.0509V17.0833Z" fill="#525252"/>
<path d="M77.0509 13.6736H73.6641V17.0833H77.0509V13.6736Z" fill="#595959"/>
<path d="M77.0509 10.2637H73.6641V13.6734H77.0509V10.2637Z" fill="#595959"/>
<path d="M77.0509 6.81934H73.6641V10.2638H77.0509V6.81934Z" fill="#595959"/>
<path d="M77.0509 3.40967H73.6641V6.81939H77.0509V3.40967Z" fill="#595959"/>
<path d="M77.0509 0H73.6641V3.40972H77.0509V0Z" fill="#595959"/>
<path d="M73.6641 112.591H70.2772V116H73.6641V112.591Z" fill="#005931"/>
<path d="M73.6641 109.18H70.2772V112.59H73.6641V109.18Z" fill="#525252"/>
<path d="M73.6641 105.771H70.2772V109.18H73.6641V105.771Z" fill="#525252"/>
<path d="M73.6641 102.361H70.2772V105.771H73.6641V102.361Z" fill="#525252"/>
<path d="M73.6641 98.9512H70.2772V102.361H73.6641V98.9512Z" fill="#525252"/>
<path d="M73.6641 95.5066H70.2772V98.9511H73.6641V95.5066Z" fill="#525252"/>
<path d="M73.6641 92.0969H70.2772V95.5067H73.6641V92.0969Z" fill="#525252"/>
<path d="M73.6641 88.6875H70.2772V92.0972H73.6641V88.6875Z" fill="#525252"/>
<path d="M73.6641 85.2778H70.2772V88.6875H73.6641V85.2778Z" fill="#595959"/>
<path d="M73.6641 81.8679H70.2772V85.2776H73.6641V81.8679Z" fill="#525252"/>
<path d="M73.6641 78.4585H70.2772V81.8682H73.6641V78.4585Z" fill="#454545"/>
<path d="M73.6641 75.0488H70.2772V78.4585H73.6641V75.0488Z" fill="#595959"/>
<path d="M73.6641 71.6392H70.2772V75.0489H73.6641V71.6392Z" fill="#3B322A"/>
<path d="M73.6641 68.2295H70.2772V71.6392H73.6641V68.2295Z" fill="#595959"/>
<path d="M73.6641 64.8191H70.2772V68.2288H73.6641V64.8191Z" fill="#595959"/>
<path d="M73.6641 61.4094H70.2772V64.8191H73.6641V61.4094Z" fill="#595959"/>
<path d="M73.6641 57.9998H70.2772V61.4095H73.6641V57.9998Z" fill="#454545"/>
<path d="M73.6641 54.5901H70.2772V57.9998H73.6641V54.5901Z" fill="#525252"/>
<path d="M73.6641 51.1804H70.2772V54.5901H73.6641V51.1804Z" fill="#525252"/>
<path d="M73.6641 47.7708H70.2772V51.1805H73.6641V47.7708Z" fill="#595959"/>
<path d="M73.6641 44.3611H70.2772V47.7708H73.6641V44.3611Z" fill="#595959"/>
<path d="M73.6641 40.9514H70.2772V44.3611H73.6641V40.9514Z" fill="#525252"/>
<path d="M73.6641 37.5417H70.2772V40.9515H73.6641V37.5417Z" fill="#525252"/>
<path d="M73.6641 34.1321H70.2772V37.5418H73.6641V34.1321Z" fill="#525252"/>
<path d="M73.6641 30.7224H70.2772V34.1321H73.6641V30.7224Z" fill="#525252"/>
<path d="M73.6641 27.3127H70.2772V30.7225H73.6641V27.3127Z" fill="#4A4A4A"/>
<path d="M73.6641 23.9031H70.2772V27.3128H73.6641V23.9031Z" fill="#525252"/>
<path d="M73.6641 20.4927H70.2772V23.9024H73.6641V20.4927Z" fill="#525252"/>
<path d="M73.6641 17.0833H70.2772V20.493H73.6641V17.0833Z" fill="#595959"/>
<path d="M73.6641 13.6736H70.2772V17.0833H73.6641V13.6736Z" fill="#454545"/>
<path d="M73.6641 10.2637H70.2772V13.6734H73.6641V10.2637Z" fill="#595959"/>
<path d="M73.6641 6.81934H70.2772V10.2638H73.6641V6.81934Z" fill="#595959"/>
<path d="M73.6641 3.40967H70.2772V6.81939H73.6641V3.40967Z" fill="#595959"/>
<path d="M73.6641 0H70.2772V3.40972H73.6641V0Z" fill="#595959"/>
<path d="M70.2771 112.591H66.8903V116H70.2771V112.591Z" fill="#4F4F4F"/>
<path d="M70.2771 109.18H66.8903V112.59H70.2771V109.18Z" fill="#4F4F4F"/>
<path d="M70.2771 105.771H66.8903V109.18H70.2771V105.771Z" fill="#4F4F4F"/>
<path d="M70.2771 102.361H66.8903V105.771H70.2771V102.361Z" fill="#4F4F4F"/>
<path d="M70.2771 98.9512H66.8903V102.361H70.2771V98.9512Z" fill="#4F4F4F"/>
<path d="M70.2771 95.5066H66.8903V98.9511H70.2771V95.5066Z" fill="#4F4F4F"/>
<path d="M70.2771 92.0969H66.8903V95.5067H70.2771V92.0969Z" fill="#595959"/>
<path d="M70.2771 88.6875H66.8903V92.0972H70.2771V88.6875Z" fill="#525252"/>
<path d="M70.2771 85.2778H66.8903V88.6875H70.2771V85.2778Z" fill="#525252"/>
<path d="M70.2771 81.8679H66.8903V85.2776H70.2771V81.8679Z" fill="#595959"/>
<path d="M70.2771 78.4585H66.8903V81.8682H70.2771V78.4585Z" fill="#595959"/>
<path d="M70.2771 75.0488H66.8903V78.4585H70.2771V75.0488Z" fill="#595959"/>
<path d="M70.2771 71.6392H66.8903V75.0489H70.2771V71.6392Z" fill="#595959"/>
<path d="M70.2771 68.2295H66.8903V71.6392H70.2771V68.2295Z" fill="#525252"/>
<path d="M70.2771 64.8191H66.8903V68.2288H70.2771V64.8191Z" fill="#595959"/>
<path d="M70.2771 61.4094H66.8903V64.8191H70.2771V61.4094Z" fill="#525252"/>
<path d="M70.2771 57.9998H66.8903V61.4095H70.2771V57.9998Z" fill="#595959"/>
<path d="M70.2771 54.5901H66.8903V57.9998H70.2771V54.5901Z" fill="#595959"/>
<path d="M70.2771 51.1804H66.8903V54.5901H70.2771V51.1804Z" fill="#525252"/>
<path d="M70.2771 47.7708H66.8903V51.1805H70.2771V47.7708Z" fill="#595959"/>
<path d="M70.2771 44.3611H66.8903V47.7708H70.2771V44.3611Z" fill="#525252"/>
<path d="M70.2771 40.9514H66.8903V44.3611H70.2771V40.9514Z" fill="#595959"/>
<path d="M70.2771 37.5417H66.8903V40.9515H70.2771V37.5417Z" fill="#595959"/>
<path d="M70.2771 34.1321H66.8903V37.5418H70.2771V34.1321Z" fill="#595959"/>
<path d="M70.2771 30.7224H66.8903V34.1321H70.2771V30.7224Z" fill="#595959"/>
<path d="M70.2771 27.3127H66.8903V30.7225H70.2771V27.3127Z" fill="#4A4A4A"/>
<path d="M70.2771 23.9031H66.8903V27.3128H70.2771V23.9031Z" fill="#525252"/>
<path d="M70.2771 20.4927H66.8903V23.9024H70.2771V20.4927Z" fill="#525252"/>
<path d="M70.2771 17.0833H66.8903V20.493H70.2771V17.0833Z" fill="#595959"/>
<path d="M70.2771 13.6736H66.8903V17.0833H70.2771V13.6736Z" fill="#595959"/>
<path d="M70.2771 10.2637H66.8903V13.6734H70.2771V10.2637Z" fill="#595959"/>
<path d="M70.2771 6.81934H66.8903V10.2638H70.2771V6.81934Z" fill="#595959"/>
<path d="M70.2771 3.40967H66.8903V6.81939H70.2771V3.40967Z" fill="#787878"/>
<path d="M70.2771 0H66.8903V3.40972H70.2771V0Z" fill="#787878"/>
<path d="M66.8904 112.591H63.5035V116H66.8904V112.591Z" fill="#693D00"/>
<path d="M66.8904 109.18H63.5035V112.59H66.8904V109.18Z" fill="#693D00"/>
<path d="M66.8904 105.771H63.5035V109.18H66.8904V105.771Z" fill="#693D00"/>
<path d="M66.8904 102.361H63.5035V105.771H66.8904V102.361Z" fill="#693D00"/>
<path d="M66.8904 98.9512H63.5035V102.361H66.8904V98.9512Z" fill="#693D00"/>
<path d="M66.8904 95.5066H63.5035V98.9511H66.8904V95.5066Z" fill="#693D00"/>
<path d="M66.8904 92.0969H63.5035V95.5067H66.8904V92.0969Z" fill="#4F4F4F"/>
<path d="M66.8904 88.6875H63.5035V92.0972H66.8904V88.6875Z" fill="#595959"/>
<path d="M66.8904 85.2778H63.5035V88.6875H66.8904V85.2778Z" fill="#595959"/>
<path d="M66.8904 81.8679H63.5035V85.2776H66.8904V81.8679Z" fill="#525252"/>
<path d="M66.8904 78.4585H63.5035V81.8682H66.8904V78.4585Z" fill="#525252"/>
<path d="M66.8904 75.0488H63.5035V78.4585H66.8904V75.0488Z" fill="#595959"/>
<path d="M66.8904 71.6392H63.5035V75.0489H66.8904V71.6392Z" fill="#525252"/>
<path d="M66.8904 68.2295H63.5035V71.6392H66.8904V68.2295Z" fill="#595959"/>
<path d="M66.8904 64.8191H63.5035V68.2288H66.8904V64.8191Z" fill="#525252"/>
<path d="M66.8904 61.4094H63.5035V64.8191H66.8904V61.4094Z" fill="#6B6B6B"/>
<path d="M66.8904 57.9998H63.5035V61.4095H66.8904V57.9998Z" fill="#525252"/>
<path d="M66.8904 54.5901H63.5035V57.9998H66.8904V54.5901Z" fill="#595959"/>
<path d="M66.8904 51.1804H63.5035V54.5901H66.8904V51.1804Z" fill="#595959"/>
<path d="M66.8904 47.7708H63.5035V51.1805H66.8904V47.7708Z" fill="#525252"/>
<path d="M66.8904 44.3611H63.5035V47.7708H66.8904V44.3611Z" fill="#595959"/>
<path d="M66.8904 40.9514H63.5035V44.3611H66.8904V40.9514Z" fill="#595959"/>
<path d="M66.8904 37.5417H63.5035V40.9515H66.8904V37.5417Z" fill="#6B6B6B"/>
<path d="M66.8904 34.1321H63.5035V37.5418H66.8904V34.1321Z" fill="#6B6B6B"/>
<path d="M66.8904 30.7224H63.5035V34.1321H66.8904V30.7224Z" fill="#595959"/>
<path d="M66.8904 27.3127H63.5035V30.7225H66.8904V27.3127Z" fill="#4A4A4A"/>
<path d="M66.8904 23.9031H63.5035V27.3128H66.8904V23.9031Z" fill="#525252"/>
<path d="M66.8904 20.4927H63.5035V23.9024H66.8904V20.4927Z" fill="#595959"/>
<path d="M66.8904 17.0833H63.5035V20.493H66.8904V17.0833Z" fill="#595959"/>
<path d="M66.8904 13.6736H63.5035V17.0833H66.8904V13.6736Z" fill="#595959"/>
<path d="M66.8904 10.2637H63.5035V13.6734H66.8904V10.2637Z" fill="#595959"/>
<path d="M63.5037 112.591H60.1168V116H63.5037V112.591Z" fill="#784600"/>
<path d="M63.5037 109.18H60.1168V112.59H63.5037V109.18Z" fill="#784600"/>
<path d="M63.5037 105.771H60.1168V109.18H63.5037V105.771Z" fill="#784600"/>
<path d="M63.5037 102.361H60.1168V105.771H63.5037V102.361Z" fill="#784600"/>
<path d="M63.5037 98.9512H60.1168V102.361H63.5037V98.9512Z" fill="#784600"/>
<path d="M63.5037 95.5066H60.1168V98.9511H63.5037V95.5066Z" fill="#784600"/>
<path d="M63.5037 92.0969H60.1168V95.5067H63.5037V92.0969Z" fill="#693D00"/>
<path d="M63.5037 88.6875H60.1168V92.0972H63.5037V88.6875Z" fill="#4F4F4F"/>
<path d="M63.5037 85.2778H60.1168V88.6875H63.5037V85.2778Z" fill="#595959"/>
<path d="M63.5037 81.8679H60.1168V85.2776H63.5037V81.8679Z" fill="#595959"/>
<path d="M63.5037 78.4585H60.1168V81.8682H63.5037V78.4585Z" fill="#595959"/>
<path d="M63.5037 75.0488H60.1168V78.4585H63.5037V75.0488Z" fill="#6B6B6B"/>
<path d="M63.5037 71.6392H60.1168V75.0489H63.5037V71.6392Z" fill="#3B322A"/>
<path d="M63.5037 68.2295H60.1168V71.6392H63.5037V68.2295Z" fill="#595959"/>
<path d="M63.5037 64.8191H60.1168V68.2288H63.5037V64.8191Z" fill="#595959"/>
<path d="M63.5037 61.4094H60.1168V64.8191H63.5037V61.4094Z" fill="#595959"/>
<path d="M63.5037 57.9998H60.1168V61.4095H63.5037V57.9998Z" fill="#595959"/>
<path d="M63.5037 54.5901H60.1168V57.9998H63.5037V54.5901Z" fill="#595959"/>
<path d="M63.5037 51.1804H60.1168V54.5901H63.5037V51.1804Z" fill="#595959"/>
<path d="M63.5037 47.7708H60.1168V51.1805H63.5037V47.7708Z" fill="#595959"/>
<path d="M63.5037 44.3611H60.1168V47.7708H63.5037V44.3611Z" fill="#595959"/>
<path d="M63.5037 40.9514H60.1168V44.3611H63.5037V40.9514Z" fill="#595959"/>
<path d="M63.5037 37.5417H60.1168V40.9515H63.5037V37.5417Z" fill="#595959"/>
<path d="M63.5037 34.1321H60.1168V37.5418H63.5037V34.1321Z" fill="#595959"/>
<path d="M63.5037 30.7224H60.1168V34.1321H63.5037V30.7224Z" fill="#595959"/>
<path d="M63.5037 27.3127H60.1168V30.7225H63.5037V27.3127Z" fill="#4A4A4A"/>
<path d="M63.5037 23.9031H60.1168V27.3128H63.5037V23.9031Z" fill="#525252"/>
<path d="M63.5037 20.4927H60.1168V23.9024H63.5037V20.4927Z" fill="#454545"/>
<path d="M63.5037 17.0833H60.1168V20.493H63.5037V17.0833Z" fill="#595959"/>
<path d="M63.5037 13.6736H60.1168V17.0833H63.5037V13.6736Z" fill="#595959"/>
<path d="M63.5037 10.2637H60.1168V13.6734H63.5037V10.2637Z" fill="#595959"/>
<path d="M60.1168 112.591H56.73V116H60.1168V112.591Z" fill="#693D00"/>
<path d="M60.1168 109.18H56.73V112.59H60.1168V109.18Z" fill="#693D00"/>
<path d="M60.1168 105.771H56.73V109.18H60.1168V105.771Z" fill="#693D00"/>
<path d="M60.1168 102.361H56.73V105.771H60.1168V102.361Z" fill="#693D00"/>
<path d="M60.1168 98.9512H56.73V102.361H60.1168V98.9512Z" fill="#693D00"/>
<path d="M60.1168 95.5066H56.73V98.9511H60.1168V95.5066Z" fill="#693D00"/>
<path d="M60.1168 92.0969H56.73V95.5067H60.1168V92.0969Z" fill="#693D00"/>
<path d="M60.1168 88.6875H56.73V92.0972H60.1168V88.6875Z" fill="#693D00"/>
<path d="M60.1168 85.2778H56.73V88.6875H60.1168V85.2778Z" fill="#6B6B6B"/>
<path d="M60.1168 81.8679H56.73V85.2776H60.1168V81.8679Z" fill="#525252"/>
<path d="M60.1168 78.4585H56.73V81.8682H60.1168V78.4585Z" fill="#595959"/>
<path d="M60.1168 75.0488H56.73V78.4585H60.1168V75.0488Z" fill="#595959"/>
<path d="M60.1168 71.6392H56.73V75.0489H60.1168V71.6392Z" fill="#6B6B6B"/>
<path d="M60.1168 68.2295H56.73V71.6392H60.1168V68.2295Z" fill="#454545"/>
<path d="M60.1168 64.8191H56.73V68.2288H60.1168V64.8191Z" fill="#595959"/>
<path d="M60.1168 61.4094H56.73V64.8191H60.1168V61.4094Z" fill="#595959"/>
<path d="M60.1168 57.9998H56.73V61.4095H60.1168V57.9998Z" fill="#595959"/>
<path d="M60.1168 54.5901H56.73V57.9998H60.1168V54.5901Z" fill="#595959"/>
<path d="M60.1168 51.1804H56.73V54.5901H60.1168V51.1804Z" fill="#1C1C1C"/>
<path d="M60.1168 47.7708H56.73V51.1805H60.1168V47.7708Z" fill="#1C1C1C"/>
<path d="M60.1168 44.3611H56.73V47.7708H60.1168V44.3611Z" fill="#1C1C1C"/>
<path d="M60.1168 40.9514H56.73V44.3611H60.1168V40.9514Z" fill="#595959"/>
<path d="M60.1168 37.5417H56.73V40.9515H60.1168V37.5417Z" fill="#595959"/>
<path d="M60.1168 34.1321H56.73V37.5418H60.1168V34.1321Z" fill="#3B322A"/>
<path d="M60.1168 30.7224H56.73V34.1321H60.1168V30.7224Z" fill="#595959"/>
<path d="M60.1168 27.3127H56.73V30.7225H60.1168V27.3127Z" fill="#4A4A4A"/>
<path d="M60.1168 23.9031H56.73V27.3128H60.1168V23.9031Z" fill="#525252"/>
<path d="M60.1168 20.4927H56.73V23.9024H60.1168V20.4927Z" fill="#525252"/>
<path d="M60.1168 17.0833H56.73V20.493H60.1168V17.0833Z" fill="#595959"/>
<path d="M60.1168 13.6736H56.73V17.0833H60.1168V13.6736Z" fill="#3B322A"/>
<path d="M60.1168 10.2637H56.73V13.6734H60.1168V10.2637Z" fill="#595959"/>
<path d="M56.73 112.591H53.3431V116H56.73V112.591Z" fill="#613800"/>
<path d="M56.73 109.18H53.3431V112.59H56.73V109.18Z" fill="#613800"/>
<path d="M56.73 105.771H53.3431V109.18H56.73V105.771Z" fill="#613800"/>
<path d="M56.73 102.361H53.3431V105.771H56.73V102.361Z" fill="#613800"/>
<path d="M56.73 98.9512H53.3431V102.361H56.73V98.9512Z" fill="#613800"/>
<path d="M56.73 95.5066H53.3431V98.9511H56.73V95.5066Z" fill="#613800"/>
<path d="M56.73 92.0969H53.3431V95.5067H56.73V92.0969Z" fill="#613800"/>
<path d="M56.73 88.6875H53.3431V92.0972H56.73V88.6875Z" fill="#613800"/>
<path d="M56.73 85.2778H53.3431V88.6875H56.73V85.2778Z" fill="#6B6B6B"/>
<path d="M56.73 81.8679H53.3431V85.2776H56.73V81.8679Z" fill="#595959"/>
<path d="M56.73 78.4585H53.3431V81.8682H56.73V78.4585Z" fill="#454545"/>
<path d="M56.73 75.0488H53.3431V78.4585H56.73V75.0488Z" fill="#595959"/>
<path d="M56.73 71.6392H53.3431V75.0489H56.73V71.6392Z" fill="#595959"/>
<path d="M56.73 68.2295H53.3431V71.6392H56.73V68.2295Z" fill="#595959"/>
<path d="M56.73 64.8191H53.3431V68.2288H56.73V64.8191Z" fill="#3B322A"/>
<path d="M56.73 61.4094H53.3431V64.8191H56.73V61.4094Z" fill="#595959"/>
<path d="M56.73 57.9998H53.3431V61.4095H56.73V57.9998Z" fill="#595959"/>
<path d="M56.73 54.5901H53.3431V57.9998H56.73V54.5901Z" fill="#595959"/>
<path d="M56.73 51.1804H53.3431V54.5901H56.73V51.1804Z" fill="#2E2E2E"/>
<path d="M56.73 47.7708H53.3431V51.1805H56.73V47.7708Z" fill="#2E2E2E"/>
<path d="M56.73 44.3611H53.3431V47.7708H56.73V44.3611Z" fill="#2E2E2E"/>
<path d="M56.73 40.9514H53.3431V44.3611H56.73V40.9514Z" fill="#1C1C1C"/>
<path d="M56.73 37.5417H53.3431V40.9515H56.73V37.5417Z" fill="#595959"/>
<path d="M56.73 34.1321H53.3431V37.5418H56.73V34.1321Z" fill="#6B6B6B"/>
<path d="M56.73 30.7224H53.3431V34.1321H56.73V30.7224Z" fill="#595959"/>
<path d="M56.73 27.3127H53.3431V30.7225H56.73V27.3127Z" fill="#4A4A4A"/>
<path d="M56.73 23.9031H53.3431V27.3128H56.73V23.9031Z" fill="#525252"/>
<path d="M56.73 20.4927H53.3431V23.9024H56.73V20.4927Z" fill="#525252"/>
<path d="M56.73 17.0833H53.3431V20.493H56.73V17.0833Z" fill="#595959"/>
<path d="M56.73 13.6736H53.3431V17.0833H56.73V13.6736Z" fill="#595959"/>
<path d="M56.73 10.2637H53.3431V13.6734H56.73V10.2637Z" fill="#595959"/>
<path d="M53.3433 112.591H49.9564V116H53.3433V112.591Z" fill="#784600"/>
<path d="M53.3433 109.18H49.9564V112.59H53.3433V109.18Z" fill="#784600"/>
<path d="M53.3433 105.771H49.9564V109.18H53.3433V105.771Z" fill="#784600"/>
<path d="M53.3433 102.361H49.9564V105.771H53.3433V102.361Z" fill="#784600"/>
<path d="M53.3433 98.9512H49.9564V102.361H53.3433V98.9512Z" fill="#784600"/>
<path d="M53.3433 95.5066H49.9564V98.9511H53.3433V95.5066Z" fill="#784600"/>
<path d="M53.3433 92.0969H49.9564V95.5067H53.3433V92.0969Z" fill="#613800"/>
<path d="M53.3433 88.6875H49.9564V92.0972H53.3433V88.6875Z" fill="#6B6B6B"/>
<path d="M53.3433 85.2778H49.9564V88.6875H53.3433V85.2778Z" fill="#595959"/>
<path d="M53.3433 81.8679H49.9564V85.2776H53.3433V81.8679Z" fill="#595959"/>
<path d="M53.3433 78.4585H49.9564V81.8682H53.3433V78.4585Z" fill="#595959"/>
<path d="M53.3433 75.0488H49.9564V78.4585H53.3433V75.0488Z" fill="#525252"/>
<path d="M53.3433 71.6392H49.9564V75.0489H53.3433V71.6392Z" fill="#6B6B6B"/>
<path d="M53.3433 68.2295H49.9564V71.6392H53.3433V68.2295Z" fill="#595959"/>
<path d="M53.3433 64.8191H49.9564V68.2288H53.3433V64.8191Z" fill="#595959"/>
<path d="M53.3433 61.4094H49.9564V64.8191H53.3433V61.4094Z" fill="#6B6B6B"/>
<path d="M53.3433 57.9998H49.9564V61.4095H53.3433V57.9998Z" fill="#595959"/>
<path d="M53.3433 54.5901H49.9564V57.9998H53.3433V54.5901Z" fill="#595959"/>
<path d="M53.3433 51.1804H49.9564V54.5901H53.3433V51.1804Z" fill="#2E2E2E"/>
<path d="M53.3433 47.7708H49.9564V51.1805H53.3433V47.7708Z" fill="#2E2E2E"/>
<path d="M53.3433 44.3611H49.9564V47.7708H53.3433V44.3611Z" fill="#2E2E2E"/>
<path d="M53.3433 40.9514H49.9564V44.3611H53.3433V40.9514Z" fill="#595959"/>
<path d="M53.3433 37.5417H49.9564V40.9515H53.3433V37.5417Z" fill="#595959"/>
<path d="M53.3433 34.1321H49.9564V37.5418H53.3433V34.1321Z" fill="#595959"/>
<path d="M53.3433 30.7224H49.9564V34.1321H53.3433V30.7224Z" fill="#595959"/>
<path d="M53.3433 27.3127H49.9564V30.7225H53.3433V27.3127Z" fill="#4A4A4A"/>
<path d="M53.3433 23.9031H49.9564V27.3128H53.3433V23.9031Z" fill="#3B322A"/>
<path d="M53.3433 20.4927H49.9564V23.9024H53.3433V20.4927Z" fill="#525252"/>
<path d="M53.3433 17.0833H49.9564V20.493H53.3433V17.0833Z" fill="#595959"/>
<path d="M53.3433 13.6736H49.9564V17.0833H53.3433V13.6736Z" fill="#595959"/>
<path d="M53.3433 10.2637H49.9564V13.6734H53.3433V10.2637Z" fill="#595959"/>
<path d="M49.9564 112.591H46.5696V116H49.9564V112.591Z" fill="#613800"/>
<path d="M49.9564 109.18H46.5696V112.59H49.9564V109.18Z" fill="#613800"/>
<path d="M49.9564 105.771H46.5696V109.18H49.9564V105.771Z" fill="#613800"/>
<path d="M49.9564 102.361H46.5696V105.771H49.9564V102.361Z" fill="#613800"/>
<path d="M49.9564 98.9512H46.5696V102.361H49.9564V98.9512Z" fill="#613800"/>
<path d="M49.9564 95.5066H46.5696V98.9511H49.9564V95.5066Z" fill="#613800"/>
<path d="M49.9564 92.0969H46.5696V95.5067H49.9564V92.0969Z" fill="#6B6B6B"/>
<path d="M49.9564 88.6875H46.5696V92.0972H49.9564V88.6875Z" fill="#595959"/>
<path d="M49.9564 85.2778H46.5696V88.6875H49.9564V85.2778Z" fill="#595959"/>
<path d="M49.9564 81.8679H46.5696V85.2776H49.9564V81.8679Z" fill="#595959"/>
<path d="M49.9564 78.4585H46.5696V81.8682H49.9564V78.4585Z" fill="#595959"/>
<path d="M49.9564 75.0488H46.5696V78.4585H49.9564V75.0488Z" fill="#595959"/>
<path d="M49.9564 71.6392H46.5696V75.0489H49.9564V71.6392Z" fill="#595959"/>
<path d="M49.9564 68.2295H46.5696V71.6392H49.9564V68.2295Z" fill="#595959"/>
<path d="M49.9564 64.8191H46.5696V68.2288H49.9564V64.8191Z" fill="#595959"/>
<path d="M49.9564 61.4094H46.5696V64.8191H49.9564V61.4094Z" fill="#595959"/>
<path d="M49.9564 57.9998H46.5696V61.4095H49.9564V57.9998Z" fill="#595959"/>
<path d="M49.9564 54.5901H46.5696V57.9998H49.9564V54.5901Z" fill="#595959"/>
<path d="M49.9564 51.1804H46.5696V54.5901H49.9564V51.1804Z" fill="#595959"/>
<path d="M49.9564 47.7708H46.5696V51.1805H49.9564V47.7708Z" fill="#595959"/>
<path d="M49.9564 44.3611H46.5696V47.7708H49.9564V44.3611Z" fill="#595959"/>
<path d="M49.9564 40.9514H46.5696V44.3611H49.9564V40.9514Z" fill="#595959"/>
<path d="M49.9564 37.5417H46.5696V40.9515H49.9564V37.5417Z" fill="#595959"/>
<path d="M49.9564 34.1321H46.5696V37.5418H49.9564V34.1321Z" fill="#595959"/>
<path d="M49.9564 30.7224H46.5696V34.1321H49.9564V30.7224Z" fill="#595959"/>
<path d="M49.9564 27.3127H46.5696V30.7225H49.9564V27.3127Z" fill="#4A4A4A"/>
<path d="M49.9564 23.9031H46.5696V27.3128H49.9564V23.9031Z" fill="#525252"/>
<path d="M49.9564 20.4927H46.5696V23.9024H49.9564V20.4927Z" fill="#525252"/>
<path d="M49.9564 17.0833H46.5696V20.493H49.9564V17.0833Z" fill="#595959"/>
<path d="M49.9564 13.6736H46.5696V17.0833H49.9564V13.6736Z" fill="#595959"/>
<path d="M49.9564 10.2637H46.5696V13.6734H49.9564V10.2637Z" fill="#595959"/>
<path d="M49.9564 6.81934H46.5696V10.2638H49.9564V6.81934Z" fill="#595959"/>
<path d="M49.9564 3.40967H46.5696V6.81939H49.9564V3.40967Z" fill="#595959"/>
<path d="M49.9564 0H46.5696V3.40972H49.9564V0Z" fill="#595959"/>
<path d="M46.5696 112.591H43.1827V116H46.5696V112.591Z" fill="#6B6B6B"/>
<path d="M46.5696 109.18H43.1827V112.59H46.5696V109.18Z" fill="#6B6B6B"/>
<path d="M46.5696 105.771H43.1827V109.18H46.5696V105.771Z" fill="#6B6B6B"/>
<path d="M46.5696 102.361H43.1827V105.771H46.5696V102.361Z" fill="#6B6B6B"/>
<path d="M46.5696 98.9512H43.1827V102.361H46.5696V98.9512Z" fill="#6B6B6B"/>
<path d="M46.5696 95.5066H43.1827V98.9511H46.5696V95.5066Z" fill="#6B6B6B"/>
<path d="M46.5696 92.0969H43.1827V95.5067H46.5696V92.0969Z" fill="#595959"/>
<path d="M46.5696 88.6875H43.1827V92.0972H46.5696V88.6875Z" fill="#595959"/>
<path d="M46.5696 85.2778H43.1827V88.6875H46.5696V85.2778Z" fill="#595959"/>
<path d="M46.5696 81.8679H43.1827V85.2776H46.5696V81.8679Z" fill="#595959"/>
<path d="M46.5696 78.4585H43.1827V81.8682H46.5696V78.4585Z" fill="#595959"/>
<path d="M46.5696 75.0488H43.1827V78.4585H46.5696V75.0488Z" fill="#595959"/>
<path d="M46.5696 71.6392H43.1827V75.0489H46.5696V71.6392Z" fill="#595959"/>
<path d="M46.5696 68.2295H43.1827V71.6392H46.5696V68.2295Z" fill="#525252"/>
<path d="M46.5696 64.8191H43.1827V68.2288H46.5696V64.8191Z" fill="#595959"/>
<path d="M46.5696 61.4094H43.1827V64.8191H46.5696V61.4094Z" fill="#595959"/>
<path d="M46.5696 57.9998H43.1827V61.4095H46.5696V57.9998Z" fill="#595959"/>
<path d="M46.5696 54.5901H43.1827V57.9998H46.5696V54.5901Z" fill="#595959"/>
<path d="M46.5696 51.1804H43.1827V54.5901H46.5696V51.1804Z" fill="#6B6B6B"/>
<path d="M46.5696 47.7708H43.1827V51.1805H46.5696V47.7708Z" fill="#595959"/>
<path d="M46.5696 44.3611H43.1827V47.7708H46.5696V44.3611Z" fill="#595959"/>
<path d="M46.5696 40.9514H43.1827V44.3611H46.5696V40.9514Z" fill="#595959"/>
<path d="M46.5696 37.5417H43.1827V40.9515H46.5696V37.5417Z" fill="#595959"/>
<path d="M46.5696 34.1321H43.1827V37.5418H46.5696V34.1321Z" fill="#595959"/>
<path d="M46.5696 30.7224H43.1827V34.1321H46.5696V30.7224Z" fill="#595959"/>
<path d="M46.5696 27.3127H43.1827V30.7225H46.5696V27.3127Z" fill="#4A4A4A"/>
<path d="M46.5696 23.9031H43.1827V27.3128H46.5696V23.9031Z" fill="#525252"/>
<path d="M46.5696 20.4927H43.1827V23.9024H46.5696V20.4927Z" fill="#525252"/>
<path d="M46.5696 17.0833H43.1827V20.493H46.5696V17.0833Z" fill="#595959"/>
<path d="M46.5696 13.6736H43.1827V17.0833H46.5696V13.6736Z" fill="#595959"/>
<path d="M46.5696 10.2637H43.1827V13.6734H46.5696V10.2637Z" fill="#454545"/>
<path d="M46.5696 6.81934H43.1827V10.2638H46.5696V6.81934Z" fill="#595959"/>
<path d="M46.5696 3.40967H43.1827V6.81939H46.5696V3.40967Z" fill="#595959"/>
<path d="M46.5696 0H43.1827V3.40972H46.5696V0Z" fill="#595959"/>
<path d="M43.1828 112.591H39.7959V116H43.1828V112.591Z" fill="#005931"/>
<path d="M43.1828 109.18H39.7959V112.59H43.1828V109.18Z" fill="#525252"/>
<path d="M43.1828 105.771H39.7959V109.18H43.1828V105.771Z" fill="#525252"/>
<path d="M43.1828 102.361H39.7959V105.771H43.1828V102.361Z" fill="#525252"/>
<path d="M43.1828 98.9512H39.7959V102.361H43.1828V98.9512Z" fill="#525252"/>
<path d="M43.1828 95.5066H39.7959V98.9511H43.1828V95.5066Z" fill="#525252"/>
<path d="M43.1828 92.0969H39.7959V95.5067H43.1828V92.0969Z" fill="#525252"/>
<path d="M43.1828 88.6875H39.7959V92.0972H43.1828V88.6875Z" fill="#595959"/>
<path d="M43.1828 85.2778H39.7959V88.6875H43.1828V85.2778Z" fill="#3B322A"/>
<path d="M43.1828 81.8679H39.7959V85.2776H43.1828V81.8679Z" fill="#595959"/>
<path d="M43.1828 78.4585H39.7959V81.8682H43.1828V78.4585Z" fill="#595959"/>
<path d="M43.1828 75.0488H39.7959V78.4585H43.1828V75.0488Z" fill="#6B6B6B"/>
<path d="M43.1828 71.6392H39.7959V75.0489H43.1828V71.6392Z" fill="#595959"/>
<path d="M43.1828 68.2295H39.7959V71.6392H43.1828V68.2295Z" fill="#595959"/>
<path d="M43.1828 64.8191H39.7959V68.2288H43.1828V64.8191Z" fill="#595959"/>
<path d="M43.1828 61.4094H39.7959V64.8191H43.1828V61.4094Z" fill="#595959"/>
<path d="M43.1828 57.9998H39.7959V61.4095H43.1828V57.9998Z" fill="#3B322A"/>
<path d="M43.1828 54.5901H39.7959V57.9998H43.1828V54.5901Z" fill="#6B6B6B"/>
<path d="M43.1828 51.1804H39.7959V54.5901H43.1828V51.1804Z" fill="#595959"/>
<path d="M43.1828 47.7708H39.7959V51.1805H43.1828V47.7708Z" fill="#454545"/>
<path d="M43.1828 44.3611H39.7959V47.7708H43.1828V44.3611Z" fill="#595959"/>
<path d="M43.1828 40.9514H39.7959V44.3611H43.1828V40.9514Z" fill="#595959"/>
<path d="M43.1828 37.5417H39.7959V40.9515H43.1828V37.5417Z" fill="#595959"/>
<path d="M43.1828 34.1321H39.7959V37.5418H43.1828V34.1321Z" fill="#595959"/>
<path d="M43.1828 30.7224H39.7959V34.1321H43.1828V30.7224Z" fill="#595959"/>
<path d="M43.1828 27.3127H39.7959V30.7225H43.1828V27.3127Z" fill="#4A4A4A"/>
<path d="M43.1828 23.9031H39.7959V27.3128H43.1828V23.9031Z" fill="#525252"/>
<path d="M43.1828 20.4927H39.7959V23.9024H43.1828V20.4927Z" fill="#525252"/>
<path d="M43.1828 17.0833H39.7959V20.493H43.1828V17.0833Z" fill="#525252"/>
<path d="M43.1828 13.6736H39.7959V17.0833H43.1828V13.6736Z" fill="#595959"/>
<path d="M43.1828 10.2637H39.7959V13.6734H43.1828V10.2637Z" fill="#595959"/>
<path d="M43.1828 6.81934H39.7959V10.2638H43.1828V6.81934Z" fill="#595959"/>
<path d="M43.1828 3.40967H39.7959V6.81939H43.1828V3.40967Z" fill="#787878"/>
<path d="M43.1828 0H39.7959V3.40972H43.1828V0Z" fill="#787878"/>
<path d="M39.7953 112.591H36.4084V116H39.7953V112.591Z" fill="#005931"/>
<path d="M39.7953 109.18H36.4084V112.59H39.7953V109.18Z" fill="#005931"/>
<path d="M39.7953 105.771H36.4084V109.18H39.7953V105.771Z" fill="#525252"/>
<path d="M39.7953 102.361H36.4084V105.771H39.7953V102.361Z" fill="#525252"/>
<path d="M39.7953 98.9512H36.4084V102.361H39.7953V98.9512Z" fill="#525252"/>
<path d="M39.7953 95.5066H36.4084V98.9511H39.7953V95.5066Z" fill="#525252"/>
<path d="M39.7953 92.0969H36.4084V95.5067H39.7953V92.0969Z" fill="#6B6B6B"/>
<path d="M39.7953 88.6875H36.4084V92.0972H39.7953V88.6875Z" fill="#595959"/>
<path d="M39.7953 85.2778H36.4084V88.6875H39.7953V85.2778Z" fill="#3B322A"/>
<path d="M39.7953 81.8679H36.4084V85.2776H39.7953V81.8679Z" fill="#3B322A"/>
<path d="M39.7953 78.4585H36.4084V81.8682H39.7953V78.4585Z" fill="#595959"/>
<path d="M39.7953 75.0488H36.4084V78.4585H39.7953V75.0488Z" fill="#454545"/>
<path d="M39.7953 71.6392H36.4084V75.0489H39.7953V71.6392Z" fill="#454545"/>
<path d="M39.7953 68.2295H36.4084V71.6392H39.7953V68.2295Z" fill="#595959"/>
<path d="M39.7953 64.8191H36.4084V68.2288H39.7953V64.8191Z" fill="#595959"/>
<path d="M39.7953 61.4094H36.4084V64.8191H39.7953V61.4094Z" fill="#595959"/>
<path d="M39.7953 57.9998H36.4084V61.4095H39.7953V57.9998Z" fill="#595959"/>
<path d="M39.7953 54.5901H36.4084V57.9998H39.7953V54.5901Z" fill="#595959"/>
<path d="M39.7953 51.1804H36.4084V54.5901H39.7953V51.1804Z" fill="#6B6B6B"/>
<path d="M39.7953 47.7708H36.4084V51.1805H39.7953V47.7708Z" fill="#595959"/>
<path d="M39.7953 44.3611H36.4084V47.7708H39.7953V44.3611Z" fill="#595959"/>
<path d="M39.7953 40.9514H36.4084V44.3611H39.7953V40.9514Z" fill="#595959"/>
<path d="M39.7953 37.5417H36.4084V40.9515H39.7953V37.5417Z" fill="#595959"/>
<path d="M39.7953 34.1321H36.4084V37.5418H39.7953V34.1321Z" fill="#595959"/>
<path d="M39.7953 30.7224H36.4084V34.1321H39.7953V30.7224Z" fill="#6B6B6B"/>
<path d="M39.7953 27.3127H36.4084V30.7225H39.7953V27.3127Z" fill="#4A4A4A"/>
<path d="M39.7953 23.9031H36.4084V27.3128H39.7953V23.9031Z" fill="#525252"/>
<path d="M39.7953 20.4927H36.4084V23.9024H39.7953V20.4927Z" fill="#454545"/>
<path d="M39.7953 17.0833H36.4084V20.493H39.7953V17.0833Z" fill="#525252"/>
<path d="M39.7953 13.6736H36.4084V17.0833H39.7953V13.6736Z" fill="#595959"/>
<path d="M39.7953 10.2637H36.4084V13.6734H39.7953V10.2637Z" fill="#595959"/>
<path d="M36.4086 112.591H33.0217V116H36.4086V112.591Z" fill="#005931"/>
<path d="M36.4086 109.18H33.0217V112.59H36.4086V109.18Z" fill="#005931"/>
<path d="M36.4086 105.771H33.0217V109.18H36.4086V105.771Z" fill="#005931"/>
<path d="M36.4086 102.361H33.0217V105.771H36.4086V102.361Z" fill="#525252"/>
<path d="M36.4086 98.9512H33.0217V102.361H36.4086V98.9512Z" fill="#525252"/>
<path d="M36.4086 95.5066H33.0217V98.9511H36.4086V95.5066Z" fill="#525252"/>
<path d="M36.4086 92.0969H33.0217V95.5067H36.4086V92.0969Z" fill="#004526"/>
<path d="M36.4086 88.6875H33.0217V92.0972H36.4086V88.6875Z" fill="#595959"/>
<path d="M36.4086 85.2778H33.0217V88.6875H36.4086V85.2778Z" fill="#595959"/>
<path d="M36.4086 81.8679H33.0217V85.2776H36.4086V81.8679Z" fill="#595959"/>
<path d="M36.4086 78.4585H33.0217V81.8682H36.4086V78.4585Z" fill="#6B6B6B"/>
<path d="M36.4086 75.0488H33.0217V78.4585H36.4086V75.0488Z" fill="#595959"/>
<path d="M36.4086 71.6392H33.0217V75.0489H36.4086V71.6392Z" fill="#595959"/>
<path d="M36.4086 68.2295H33.0217V71.6392H36.4086V68.2295Z" fill="#595959"/>
<path d="M36.4086 64.8191H33.0217V68.2288H36.4086V64.8191Z" fill="#525252"/>
<path d="M36.4086 61.4094H33.0217V64.8191H36.4086V61.4094Z" fill="#595959"/>
<path d="M36.4086 57.9998H33.0217V61.4095H36.4086V57.9998Z" fill="#595959"/>
<path d="M36.4086 54.5901H33.0217V57.9998H36.4086V54.5901Z" fill="#595959"/>
<path d="M36.4086 51.1804H33.0217V54.5901H36.4086V51.1804Z" fill="#595959"/>
<path d="M36.4086 47.7708H33.0217V51.1805H36.4086V47.7708Z" fill="#595959"/>
<path d="M36.4086 44.3611H33.0217V47.7708H36.4086V44.3611Z" fill="#595959"/>
<path d="M36.4086 40.9514H33.0217V44.3611H36.4086V40.9514Z" fill="#6B6B6B"/>
<path d="M36.4086 37.5417H33.0217V40.9515H36.4086V37.5417Z" fill="#595959"/>
<path d="M36.4086 34.1321H33.0217V37.5418H36.4086V34.1321Z" fill="#6B6B6B"/>
<path d="M36.4086 30.7224H33.0217V34.1321H36.4086V30.7224Z" fill="#595959"/>
<path d="M36.4086 27.3127H33.0217V30.7225H36.4086V27.3127Z" fill="#4A4A4A"/>
<path d="M36.4086 23.9031H33.0217V27.3128H36.4086V23.9031Z" fill="#3B322A"/>
<path d="M36.4086 20.4927H33.0217V23.9024H36.4086V20.4927Z" fill="#525252"/>
<path d="M36.4086 17.0833H33.0217V20.493H36.4086V17.0833Z" fill="#525252"/>
<path d="M36.4086 13.6736H33.0217V17.0833H36.4086V13.6736Z" fill="#595959"/>
<path d="M36.4086 10.2637H33.0217V13.6734H36.4086V10.2637Z" fill="#595959"/>
<path d="M33.0217 112.591H29.6349V116H33.0217V112.591Z" fill="#005931"/>
<path d="M33.0217 109.18H29.6349V112.59H33.0217V109.18Z" fill="#525252"/>
<path d="M33.0217 105.771H29.6349V109.18H33.0217V105.771Z" fill="#454545"/>
<path d="M33.0217 102.361H29.6349V105.771H33.0217V102.361Z" fill="#004526"/>
<path d="M33.0217 98.9512H29.6349V102.361H33.0217V98.9512Z" fill="#004526"/>
<path d="M33.0217 95.5066H29.6349V98.9511H33.0217V95.5066Z" fill="#525252"/>
<path d="M33.0217 92.0969H29.6349V95.5067H33.0217V92.0969Z" fill="#6B6B6B"/>
<path d="M33.0217 88.6875H29.6349V92.0972H33.0217V88.6875Z" fill="#525252"/>
<path d="M33.0217 85.2778H29.6349V88.6875H33.0217V85.2778Z" fill="#004526"/>
<path d="M33.0217 81.8679H29.6349V85.2776H33.0217V81.8679Z" fill="#595959"/>
<path d="M33.0217 78.4585H29.6349V81.8682H33.0217V78.4585Z" fill="#595959"/>
<path d="M33.0217 75.0488H29.6349V78.4585H33.0217V75.0488Z" fill="#595959"/>
<path d="M33.0217 71.6392H29.6349V75.0489H33.0217V71.6392Z" fill="#595959"/>
<path d="M33.0217 68.2295H29.6349V71.6392H33.0217V68.2295Z" fill="#595959"/>
<path d="M33.0217 64.8191H29.6349V68.2288H33.0217V64.8191Z" fill="#595959"/>
<path d="M33.0217 61.4094H29.6349V64.8191H33.0217V61.4094Z" fill="#595959"/>
<path d="M33.0217 57.9998H29.6349V61.4095H33.0217V57.9998Z" fill="#595959"/>
<path d="M33.0217 54.5901H29.6349V57.9998H33.0217V54.5901Z" fill="#595959"/>
<path d="M33.0217 51.1804H29.6349V54.5901H33.0217V51.1804Z" fill="#595959"/>
<path d="M33.0217 47.7708H29.6349V51.1805H33.0217V47.7708Z" fill="#595959"/>
<path d="M33.0217 44.3611H29.6349V47.7708H33.0217V44.3611Z" fill="#595959"/>
<path d="M33.0217 40.9514H29.6349V44.3611H33.0217V40.9514Z" fill="#595959"/>
<path d="M33.0217 37.5417H29.6349V40.9515H33.0217V37.5417Z" fill="#595959"/>
<path d="M33.0217 34.1321H29.6349V37.5418H33.0217V34.1321Z" fill="#454545"/>
<path d="M33.0217 30.7224H29.6349V34.1321H33.0217V30.7224Z" fill="#3B322A"/>
<path d="M33.0217 27.3127H29.6349V30.7225H33.0217V27.3127Z" fill="#4A4A4A"/>
<path d="M33.0217 23.9031H29.6349V27.3128H33.0217V23.9031Z" fill="#525252"/>
<path d="M33.0217 20.4927H29.6349V23.9024H33.0217V20.4927Z" fill="#525252"/>
<path d="M33.0217 17.0833H29.6349V20.493H33.0217V17.0833Z" fill="#595959"/>
<path d="M33.0217 13.6736H29.6349V17.0833H33.0217V13.6736Z" fill="#595959"/>
<path d="M33.0217 10.2637H29.6349V13.6734H33.0217V10.2637Z" fill="#595959"/>
<path d="M29.6348 112.591H26.2479V116H29.6348V112.591Z" fill="#005931"/>
<path d="M29.6348 109.18H26.2479V112.59H29.6348V109.18Z" fill="#525252"/>
<path d="M29.6348 105.771H26.2479V109.18H29.6348V105.771Z" fill="#454545"/>
<path d="M29.6348 102.361H26.2479V105.771H29.6348V102.361Z" fill="#454545"/>
<path d="M29.6348 98.9512H26.2479V102.361H29.6348V98.9512Z" fill="#525252"/>
<path d="M29.6348 95.5066H26.2479V98.9511H29.6348V95.5066Z" fill="#3B322A"/>
<path d="M29.6348 92.0969H26.2479V95.5067H29.6348V92.0969Z" fill="#525252"/>
<path d="M29.6348 88.6875H26.2479V92.0972H29.6348V88.6875Z" fill="#525252"/>
<path d="M29.6348 85.2778H26.2479V88.6875H29.6348V85.2778Z" fill="#525252"/>
<path d="M29.6348 81.8679H26.2479V85.2776H29.6348V81.8679Z" fill="#595959"/>
<path d="M29.6348 78.4585H26.2479V81.8682H29.6348V78.4585Z" fill="#595959"/>
<path d="M29.6348 75.0488H26.2479V78.4585H29.6348V75.0488Z" fill="#595959"/>
<path d="M29.6348 71.6392H26.2479V75.0489H29.6348V71.6392Z" fill="#595959"/>
<path d="M29.6348 68.2295H26.2479V71.6392H29.6348V68.2295Z" fill="#595959"/>
<path d="M29.6348 44.3611H26.2479V47.7708H29.6348V44.3611Z" fill="#595959"/>
<path d="M29.6348 40.9514H26.2479V44.3611H29.6348V40.9514Z" fill="#595959"/>
<path d="M29.6348 37.5417H26.2479V40.9515H29.6348V37.5417Z" fill="#595959"/>
<path d="M29.6348 34.1321H26.2479V37.5418H29.6348V34.1321Z" fill="#595959"/>
<path d="M29.6348 30.7224H26.2479V34.1321H29.6348V30.7224Z" fill="#595959"/>
<path d="M29.6348 27.3127H26.2479V30.7225H29.6348V27.3127Z" fill="#4A4A4A"/>
<path d="M29.6348 23.9031H26.2479V27.3128H29.6348V23.9031Z" fill="#525252"/>
<path d="M29.6348 20.4927H26.2479V23.9024H29.6348V20.4927Z" fill="#525252"/>
<path d="M29.6348 17.0833H26.2479V20.493H29.6348V17.0833Z" fill="#525252"/>
<path d="M29.6348 13.6736H26.2479V17.0833H29.6348V13.6736Z" fill="#454545"/>
<path d="M29.6348 10.2637H26.2479V13.6734H29.6348V10.2637Z" fill="#595959"/>
<path d="M29.6348 6.81934H26.2479V10.2638H29.6348V6.81934Z" fill="#595959"/>
<path d="M29.6348 3.40967H26.2479V6.81939H29.6348V3.40967Z" fill="#595959"/>
<path d="M29.6348 0H26.2479V3.40972H29.6348V0Z" fill="#595959"/>
<path d="M26.2481 112.591H22.8612V116H26.2481V112.591Z" fill="#005931"/>
<path d="M26.2481 109.18H22.8612V112.59H26.2481V109.18Z" fill="#005931"/>
<path d="M26.2481 105.771H22.8612V109.18H26.2481V105.771Z" fill="#595959"/>
<path d="M26.2481 102.361H22.8612V105.771H26.2481V102.361Z" fill="#004526"/>
<path d="M26.2481 98.9512H22.8612V102.361H26.2481V98.9512Z" fill="#525252"/>
<path d="M26.2481 95.5066H22.8612V98.9511H26.2481V95.5066Z" fill="#004526"/>
<path d="M26.2481 92.0969H22.8612V95.5067H26.2481V92.0969Z" fill="#525252"/>
<path d="M26.2481 88.6875H22.8612V92.0972H26.2481V88.6875Z" fill="#525252"/>
<path d="M26.2481 85.2778H22.8612V88.6875H26.2481V85.2778Z" fill="#525252"/>
<path d="M26.2481 23.9031H22.8612V27.3128H26.2481V23.9031Z" fill="#525252"/>
<path d="M26.2481 20.4927H22.8612V23.9024H26.2481V20.4927Z" fill="#525252"/>
<path d="M26.2481 17.0833H22.8612V20.493H26.2481V17.0833Z" fill="#525252"/>
<path d="M26.2481 13.6736H22.8612V17.0833H26.2481V13.6736Z" fill="#595959"/>
<path d="M26.2481 10.2637H22.8612V13.6734H26.2481V10.2637Z" fill="#3B322A"/>
<path d="M26.2481 6.81934H22.8612V10.2638H26.2481V6.81934Z" fill="#595959"/>
<path d="M26.2481 3.40967H22.8612V6.81939H26.2481V3.40967Z" fill="#595959"/>
<path d="M26.2481 0H22.8612V3.40972H26.2481V0Z" fill="#595959"/>
<path d="M22.8612 112.591H19.4744V116H22.8612V112.591Z" fill="#005931"/>
<path d="M22.8612 109.18H19.4744V112.59H22.8612V109.18Z" fill="#005931"/>
<path d="M22.8612 20.4927H19.4744V23.9024H22.8612V20.4927Z" fill="#525252"/>
<path d="M22.8612 17.0833H19.4744V20.493H22.8612V17.0833Z" fill="#525252"/>
<path d="M22.8612 13.6736H19.4744V17.0833H22.8612V13.6736Z" fill="#525252"/>
<path d="M22.8612 10.2637H19.4744V13.6734H22.8612V10.2637Z" fill="#595959"/>
<path d="M22.8612 6.81934H19.4744V10.2638H22.8612V6.81934Z" fill="#595959"/>
<path d="M22.8612 3.40967H19.4744V6.81939H22.8612V3.40967Z" fill="#595959"/>
<path d="M22.8612 0H19.4744V3.40972H22.8612V0Z" fill="#787878"/>
<path d="M19.4745 112.591H16.0876V116H19.4745V112.591Z" fill="#005931"/>
</g>
<defs>
<clipPath id="clip0_834_11580">
<rect width="84.6715" height="116" fill="white" transform="translate(16.0876)"/>
</clipPath>
</defs>
</svg>
